<mxfile host="Electron" modified="2023-05-26T02:45:07.388Z" agent="Mozilla/5.0 (Windows NT 10.0; Win64; x64) AppleWebKit/537.36 (KHTML, like Gecko) draw.io/21.2.8 Chrome/112.0.5615.165 Electron/24.2.0 Safari/537.36" etag="KT4XuY3VxsydSynyGLak" version="21.2.8" type="device">
  <diagram name="페이지-1" id="CD03_9SLBj19vn3Un6e4">
    <mxGraphModel dx="1480" dy="1704" grid="1" gridSize="10" guides="1" tooltips="1" connect="1" arrows="1" fold="1" page="1" pageScale="1" pageWidth="1169" pageHeight="827" background="#ffffff" math="0" shadow="0">
      <root>
        <mxCell id="0" />
        <mxCell id="1" parent="0" />
        <mxCell id="n4QYrE25V_oDHuZ2hFNo-8" value="&lt;h1&gt;메인 페이지&lt;/h1&gt;&lt;p style=&quot;font-size: 14px;&quot;&gt;&lt;font style=&quot;font-size: 14px;&quot;&gt;Spring Security에 의해 관리된다.&amp;nbsp;&lt;/font&gt;&lt;/p&gt;&lt;p style=&quot;font-size: 14px;&quot;&gt;&lt;font style=&quot;font-size: 14px;&quot;&gt;계정이름과 패스워드가 데이터베이스 내에 저장된 데이터와 일치하는지 검사하여 일치하면 로그인하여 다음 페이지로 넘어간다.&lt;/font&gt;&lt;/p&gt;" style="text;html=1;strokeColor=#36393d;fillColor=#eeeeee;spacing=5;spacingTop=-20;whiteSpace=wrap;overflow=hidden;rounded=0;" parent="1" vertex="1">
          <mxGeometry x="60" y="-500" width="220" height="160" as="geometry" />
        </mxCell>
        <mxCell id="n4QYrE25V_oDHuZ2hFNo-9" value="&lt;h1&gt;계정 등록 페이지&lt;/h1&gt;&lt;p style=&quot;font-size: 14px;&quot;&gt;&lt;font style=&quot;font-size: 14px;&quot;&gt;계정 등록 시 정규표현식으로 관리되는 특정 양식이나 문자열 길이를 만족해야 하며, 비밀번호와 비밀번호 확인이 같아야 한다.&lt;/font&gt;&lt;/p&gt;&lt;p style=&quot;font-size: 14px;&quot;&gt;&lt;font style=&quot;font-size: 14px;&quot;&gt;패스워드는 BCryptPasswordEncoder에 의해 인코딩되어 데이터 베이스 내에 저장된다.&lt;/font&gt;&lt;/p&gt;" style="text;html=1;strokeColor=#36393d;fillColor=#f9f7ed;spacing=5;spacingTop=-20;whiteSpace=wrap;overflow=hidden;rounded=0;" parent="1" vertex="1">
          <mxGeometry x="60" y="-340" width="220" height="210" as="geometry" />
        </mxCell>
        <mxCell id="n4QYrE25V_oDHuZ2hFNo-10" value="&lt;h1&gt;메인 페이지&lt;/h1&gt;&lt;p style=&quot;font-size: 14px;&quot;&gt;&lt;font style=&quot;font-size: 14px;&quot;&gt;&lt;span style=&quot;background-color: initial;&quot;&gt;저장소를 생성하고, 삭제할 수 있으며, 또한 저장소 내의 게시글을 확인하고 삭제할 수 있다.&lt;/span&gt;&lt;br&gt;&lt;/font&gt;&lt;/p&gt;&lt;p style=&quot;font-size: 14px;&quot;&gt;&lt;font style=&quot;font-size: 14px;&quot;&gt;인증되지 않은 사용자는 들어올 수 없다.&lt;/font&gt;&lt;span style=&quot;font-size: 13px; background-color: initial;&quot;&gt;&lt;br&gt;&lt;/span&gt;&lt;/p&gt;" style="text;html=1;strokeColor=#36393d;fillColor=#ffcc99;spacing=5;spacingTop=-20;whiteSpace=wrap;overflow=hidden;rounded=0;" parent="1" vertex="1">
          <mxGeometry x="770" y="337" width="200" height="152.5" as="geometry" />
        </mxCell>
        <mxCell id="n4QYrE25V_oDHuZ2hFNo-11" value="&lt;h1&gt;서브 페이지&lt;/h1&gt;&lt;p style=&quot;font-size: 14px;&quot;&gt;&lt;font style=&quot;font-size: 14px;&quot;&gt;게시글을 확인하고, 수정할 수 있는 페이지이다.&lt;/font&gt;&lt;/p&gt;&lt;p style=&quot;font-size: 14px;&quot;&gt;&lt;font style=&quot;font-size: 14px;&quot;&gt;컨테이너 내의 다른 게시글로도 이동할 수 있다.&lt;/font&gt;&lt;/p&gt;&lt;p style=&quot;font-size: 14px;&quot;&gt;&lt;span style=&quot;background-color: initial;&quot;&gt;&lt;font style=&quot;font-size: 14px;&quot;&gt;인증되지 않은 사용자는 들어올 수 없다.&lt;/font&gt;&lt;/span&gt;&lt;/p&gt;" style="text;html=1;strokeColor=#36393d;fillColor=#cce5ff;spacing=5;spacingTop=-20;whiteSpace=wrap;overflow=hidden;rounded=0;" parent="1" vertex="1">
          <mxGeometry x="770" y="648.75" width="203.16" height="182.5" as="geometry" />
        </mxCell>
        <mxCell id="A5obQ992RgEn8o-Wc76g-1" value="" style="shape=image;verticalLabelPosition=bottom;labelBackgroundColor=default;verticalAlign=top;aspect=fixed;imageAspect=0;image=data:image/png,iVBORw0KGgoAAAANSUhEUgAAB38AAAODCAYAAAC8PstvAAAAAXNSR0IArs4c6QAAAARnQU1BAACxjwv8YQUAAAAJcEhZcwAADsMAAA7DAcdvqGQAAP+lSURBVHhe7N0PXFT3ne//tyEJSbrSupXetNGmIda7I6ZFzV00/pZYW0Ab/LOOJRv8kQ0pvejidqysXOPFVatNXPLDShp+yoaVNK6kYR036qQK01pDrzHsr0HaiOxapJtVWzewtR3aNGNEf+fMOcAAw78EFU5ez8fjZM75nu8czsw4k/M9n+/38x1zz2ddVwUAAAAAAAAAAAAAGNVush8BAAAAAAAAAAAAAKMYwV8AAAAAAAAAAAAAcACCvwAAAAAAAAAAAADgAAR/AQAAAAAAAAAAAMABCP4CAAAAAAAAAAAAgAMQ/AUAAAAAAAAAAAAAByD4CwAAAAAAAAAAAAAOQPAXAAAAAAAAAAAAAByA4C8AAAAAAAAAAAAAOADBXwAAAAAAAAAAAABwAIK/AAAAAAAAAAAAAOAABH8BAAAAAAAAAAAAwAEI/gIAAAAAAAAAAACAAxD8BQAAAAAAAAAAAAAHIPgLAAAAAAAAAAAAAA5A8BcAAAAAAAAAAAAAHIDgLwAAAAAAAAAAAAA4AMFfAAAAAAAAAAAAAHAAgr8AAAAAAAAAAAAA4AAEfwEAAAAAAAAAAADAAQj+AgAAAAAAAAAAAIADEPwFAAAAAAAAAAAAAAcg+AsAAAAAAAAAAAAADkDwFwAAAAAAAAAAAAAcgOAvAAAAAAAAAAAAADjAmHs+67pqrwMAAAAAAAAAAAyrhx76sv7iK0v1uc/dp1tvvdUuRSSXLl3Sz372pr73T3v1yivft0uHz8LE32n5/N/os596T1E3ER663tqvjNHPf3mLdh76mA7U/pFdCgwvgr8AAAAAAAAAAOCayF+Tp8T771dJaalee+11vfvuu/YeRHLbbbfpgQdmKjcnR7U/+YkKny6y93xwGx75Ly15oE1jb7sijbELcf1dldrevUn7XhurTS9+3C4Ehk/UuI/HbrTXAQAAAAAAAAAAhoU54nfB/Pla9pdZ+vnPm3T58mV7D/pivke/+MW/64DvFX0996/0+z/8wXjvfm7vff/MEb+5D/1GY28n8HvDGe9/9C1Xde8n39Mvf32z/u08o+ExvJjzFwAAAAAAAAAADDsz1bM54pfRvkNnvmfme2e+h8PBTPUcGvGLEcP8PMzPBRhuBH8BAAAAAAAAAMCwM+f4NVM94/0x3zvzPRwO5hy/jPgdYYzPI/S5AMOM4C8AAAAAAAAAABh2t956K6N+PwDzvTPfw+EQddNVew0jCZ8LrgWCvwAAAAAAAAAAAADgAAR/AQAAAAAAAAAAAMABCP4CAAAAAAAAAAAAgAMQ/AUAAAAAAAAAAAAAByD4C9wAwU3H1brnuH7/53ZBf6Y/pYBRt7XkKbXbRQAAAAAAAAAAAEBPBH8BAAAAAAAAAAAAwAEI/gIAAAAAAAAAAACAAxD8BQAAAAAAAAAAAAAHIPgLAAAAAAAAAAAAAA5A8BcY9T6uK1/aqN8/7dfF3cfVusdaLpZ49c6ypbpym12tm1T9ocSs910Fja2rn8/T74uP6tcdzy3+ewWnfNyqGjr+U2rbeVT/1bn/u/rDF+6z90fyGbU//KzaSrqO+et/8Ol32Y/1cT4AAAAAAAAAAAD4oAj+AqPZbXMU3OLVxaxU/eFTf6T2sG90+8c+pXe+nKeL2/9elz5lF0Zw9c+/q9/kL9Ufxkfril3WPv4+tf3v7+oP0z+uy7nfNY5v/J2x0brauX+yfp/9Hf0+pSNAHMY8pyef18WFMxT8WNcxr9z2cb37hRz95u+e0mUCwAAAAAAAAABGi/iV8r7xUzUe3Kgkuwj9a6x8T+MWXlLBCbsAwHVD8BcYtT6uS6s2qu2eaF298jvd/v3v6I//Ok3jl83S+OX/Ux976TVFvytdHXuf2vI2dgZhu7tb7yyarDH/tlfjQs9N08eLDuq235v7Pq4/LPt7vfPAx3XTL48qZsMjoWN/fEOp7vi1uT9af3jor3sc1z6nu6M1pu20/ujv8/Rx83yWPaKPP7NXt7dJV8bP0TtfTbXrAwAAAAAAAEA/Fm7Tj0/+VN48exs31qWrqvjue3roq5c07sGgxhjLJzPfU/a+K/qNXQXAjTXmns+6OgbzAbhOgpuOq22SvTFYvzmqcblPKMre1H/fqMDfpuqS/ksf+fZf6vaf/Je9I8yn/lq/ezJD794S1O3fnaOPVNvlobTPG/X7j0k3/aJC4wq+ozH2npA/e1a/WT5Dl83137ymj+Xl6eZ3Q3ssnX/73zXW84iiW3uUR3qO6VN5ant6qYLvvamYx/6nbrWLAQAAAAAAADhP48mfyjX18/bW+2QGf5/8ot4u/7zcRXbZh8iwvIeG5rJme+0D+O0VrVz5nkr+w97u5ib9P8/forx77E0MWlx2nL0GDA9G/gKjVPuX7tcl4/HmnzwfOfBr+uV3dPv/Z+6L1nv3ZVhl3QQVXdMj8Gv68Wu6NTT613hmTWnvIO6/vaGbQ924xurKp0MlIR3ndPsPnuz9HNMvn9etvzAeb/mU2vubMhgAAAAAAAAAMKJUPGsGfsdoyeO3qO5AtK6+ai0Xd9+isiVjxGx/wMhA8Be4gW7fa6ZEHmApOhpxhOzlT5jz7QZ1S8Neq6APUT//ZeiLfjkmwvy8+pVurrNXu/kvjXnPerz556dDJd1d6h0wNljnJP1hqU+te45HWHxq6+j5dYv9CAAAAAAAAAAY4a7qVy3GQ8rN+oe/vEnTPmqVmj726Zv0Vc/NymXULzAiEPwFRrXf6aaOlMt9af0v3Wyv9nbJ2G+vXlcf15W77VUAAAAAAAAAGAb3fvkJPV/9f1T/05+G0iU3/vRfVFv9nPJTx9s1wo1XYvZT8v7wX6y6xlL/wxeMun+uZ44a20e3Kc2uKa2W16zz0mp729RVNj51tV4MO05t9bPyzIr0N0c5c07CS4ObSbTxxfc05sH3VGRmggzz7n9cUUHBe4pbaM0XHLfCqPOmtG+buX1Z++x6pvBjHDfWH3jYes64h99T9qGripR8sm9XtNJ47hdfjHD+v2jXF3vu+/Hl0N9a+WPpwol2LVthz3G88JIeKGjX939t1wNGIIK/wKj2R7oy0DXER8Ya/1u7nn6nO74dYQRzj+Uj/2xXBwAAAAAAAIAPKKngZXkL/0KJnxqraDNIaYqKVsyn/lRZRS/pmT8Pv5E6Xm6j7PlVX9aU/xZtl0nR/+3zynpypabdYRcMxtgkPV/4l0oIO07Mp/5My4ueUtZ/swscYYyWJN2kjx29rC8XX1GjOf/fEP3mx5f1wMr39K0fX9EvfmuV/eLUFf3N/+5rHmFLXcV7+vLOKzp+wdr+zYUr+oetl/TVamv7WvrV/3dZc1ddVsWpqwrNhPjbqzpuvI6HPJe1z34NwEhD8BcYpaICQeO/0XovfqlV0If2z31Gl43HW9+OlL55eFnn9Ee6nDDHKgAAAAAAAACAa+2LT2n9X9yj6PY21Vds1CMLPi/X1M/rz5auVvEPzyuo8Upes1EZdnV9MU/LzdHA7a2qLd8o9xfN+l+U2/Osan4zXuOHEvz99D2acP6HKl65OPQ301Z+V/UXjfKYzyvlz60qTnHPolt0ZPVNeveH72nKw5fkfq5dJwY7Arb9irb8vVFfY/TV1bfoV35rvuA/HLhVZQ9cVd0Ju14vV1RRKy3721v1hyPGc4zlNc9Nchl7KmraZceDr5l9+6/ItfwWNR8OO9/5Y/Sx/2jX3/zj9R12BQwWwV9glLr5+BuhdM6X739Mf7g/0ny+hk/9td6dbu77L93ygyqr7Bq6+c3ToR+VS7OyFPyUVQYAAAAAAAAA11Lal/9UExRU/XOL9ciT/6x6O9Vw67/+UDs9j6r4eJsU49LMhVZ50hc/b9d/WI8V/bNO/adZ2qpTP3xOORnPqd4c4zJYgX9RcdZq7Txq/dEzR7fpr1/6qXH0aE347JdDZU4ybdEtqnv+Fj37wBi99o+XNf2xS3rou1d0od2u0JcTV7TvP6QvP3aLyhbdpDtvtYpv++gYfXXtLdrygLUdScZK4+99cYxuM0d0G8usJTcr16z/s6uqC9W4dmb95c3yPnKT7rnd2u4434Jp0i/qrui4VQyMKAR/gdHqted1e5N5FfJx/d7zPf1+WYau/LEdBB57ny4vLFLbxgz94Tbj/4dv7tXt/2btuqaqK3S72dXqtsn63cYX9c7CBbo61tplll1JfEx/yPeqLTvVLgQAAAAAAACAD2bKhPFS8F/16rOtdkm4VpW/0Rwa/XvXZ62SaffeZfz3F3o9Uv3/bFZLm70+GGcbVR4KHndp/Y9WhQ5hjt5xoj++SblrbtGvDt8aCoy++/J7cuW360Q/AeBfNF813vGbNDdxjF0Sbow+GWuv9nKTptufWxe7/m/VNe+vPW+vOU9v+GLO2ftBTP9spDDaGD3wOeN1NEm/skuAkYTgLzBqvanop4r0kV8GjW/yH+kPX/5r/fo7PrXuOa7WnX+v3zz8gIIfMa4vfrFXH93+vP2ca+2obi+q0O2/l65+5DN65+F1+q+dxvmY5/QP39Wvv56j33/+U7raNf0FAAAAAAAAAFxXoduT7wQUCG3hfbt9jJY8crN++PTNmv6TyyrYf9Xe0du7dmD4kx+1Hm+Ui3/o+xyH4mKbcRzjtdxmbwMjCcFfYDR796BuX/OYxr10VLe1Bru+0FeCuvWXb+oj5Sv1sYIi3dTZ/ek6+OV39JG8jRr72mnd+m5Qnf24jHO6ufXfdcf3v6M/euHap6AGAAAAAAAA8OFw6kKrFP0nenD5eLsk3HhlzYhTtFp1vtEqaQkEpTtcevDRCPWnf15xkQ6Dvk0aE5qD9/v/3ndg9ZOhpJVX9Mproc3u2q+o7uf2+vt1T5R++Ko1L2/48uyf2fttJ35ujkDu7jf/ekVH7PWefvU7eyWccb5Hao3Hz43RdKsEGFEI/gI3QPSGWRq/bJY+8s92QX/qnlCMUXd87hPmdAYR/LuiDjyhP/LM0R+b9cwlc45i1vxP3f6DN+w6PVXp9lyz7l9avdx66difptsjTpowwP62KkWX/KVivjpHHw87p495HtEdeyp001DSpgAAAAAAAABAP3wH/kWtilbCipf14ro/V8I9Vvn4P/milhe/IM+ssdIv/0UHv2+Vl79mzsk7VomeF/TM8j/TvaHSe5T06FPy7vwLexvdXdHf5F1W0Q+vqPG3dpHh3d9eVUVxu/YY63M/GSmls+Vj027Sko9KFc++p5U/vNo5EvjdX1xRQcFlfeuUtX3tjNE99xsPr7Wr4JD9942l8YeX9eUdV0I1Itm3wzrf31yytt+9cEXfMs636Ly05H/cpDutYmBEIfgLAAAAAAAAAABGtClZP1XjyZ7LD/XMQmPnD4u0vapVihqrhIyNevGgtf/He7fJ88W7FB38V5WvfUJ+61BS+bOqaAhK0XcpeeWz8oWO9bJK87+sKe/8q05dtOuhm3d/0q6/+eZ7mrKwa07d2xde0rJ9V6RJUcr9ct/BX8VGqeCRm/Sx315RyTcv6fa59vMfe0/fOneTcufY9a6ZMfpqqvH3dVUVW+2/byxTvtmu33zuJs2ya/U097PSHuN8xyXb5/vweyp47arufOBmFaT183qBG4jgLwAAAAAAAAAAGMVa5c17WI9t/75O/WdQQbtUwTad+5fvac3Sh1XYLYPhT1X49ZUq/v6/qrWjcntQrT/9rr7+8Hd13h6VinA3qeDvb9aWlJs07dMdQc8xcv33m/TV5bfotR03h0b29mfaI0a9v43Skilj9DGz4KNjNCvlZr327M2aex3mAv5Yyi06sjZKX+44/z8eoyWPG2WP3aTbrZJeXItv0feX36RZ9hDfOz99kzKM13tiS5SmRU7VCdxwY+75rGt4ZrcGAAAAAAAAAACwmaNvXVM/b2+NFl/Ti2+sVELTd+V6eJtdduMM13vYXNZsr41EV1VScEkrf3ezTm2PCs0ffMP9+LLGFLQrd0vveYOHW1x2nL0GDA9G/gIAAAAAAAAAABgS8r8kV7TUeuFf7RJcc01XtO/H0sc+PWZkBH6BUY7gLwAAAAAAAAAA+BBZqRePvqAtj35ZCfdYJeP/5IvK2vySSh/9E0WrVSd++H1rB4bJVZV86z1968dXdeEPdtEl6cSP2+XedFlHNEbL/gchK2A48E0CAAAAAAAAAAAfIrfq1vGflzv/Kb148Keh1Mo/3rtN+X/+J4ox9rb+8Fl984BVE8Pn3ZYrKii4pE/OC2rMg8aSHNT0gsva9x+Sa9HN2nKN0ysDHxYEfwEAAAAAAAAAwIfICyp88p9V+8s2Be0StQcV+OVP5dv+Nf2555/VahdjuIxR7upb9P+k3STXH9tFHx2jaYk3acvf3qq61TfpY3YxgA9mzD2fdV211wEAAAAAAAAAAIaFOaLWNfXz9hbej+F6D5vLmu01jDRx2XH2GjA8GPkLAAAAAAAAAAAAAA5A8BcAAAAAAAAAAAAAHIDgLwAAAAAAAAAAAAA4AMFfAAAAAAAAAAAAAHAAgr8AAAAAAAAAAAAA4AAEfwEAAAAAAAAAwLC7dOmSbrvtNnsLQ2W+d+Z7OBzar4yx1zCS8LngWiD4CwAAAAAAAAAAht3PfvamHnhgpr2FoTLfO/M9HA4//+Ut0lV7AyOD8XmEPhdgmBH8BQAAAAAAAAAAw+57/7RXuTk5jP59H8z3zHzvzPdwOOw89DG1vUtIaCQxPw/zcwGGG990AAAAAAAAAAAw7F555fuq/clPtOe75Zo7dw5B4EEw3yPzvTLfM/O9M9/D4XCg9o+077WxavvDTYwAvtGM99/8HMzPw/xcgOE25p7PuviaAwAAAAAAAACAa+Khh76sv/jKUn3uc/fp1ltvtUsRiTnHr5nq2RzxO1yB33ALE3+n5fN/o89+6j1F3UR46Hoz5/g1Uz2bI34J/OJaIfgLAAAAAAAAAAAAAA5A2mcAAAAAAAAAAAAAcACCvwAAAAAAAAAAAADgAAR/AQAAAAAAAAAAAMABCP4CAAAAAAAAAAAAgAMQ/AUAAAAAAAAAAAAAByD4CwAAAAAAAAAAAAAOQPAXAAAAAAAAAAAAAByA4C8AAAAAAAAAAAAAOADBXwAAAAAAAAAAAABwAIK/AAAAAAAAAAAAAOAABH8BAAAAAAAAAAAAwAEI/gIAAAAAAAAAAACAAxD8BQAAAAAAAAAAAAAHIPgLAAAAAAAAAAAAAA5A8BcAAAAAAAAAAAAAHIDgLwAAAAAAAAAAAAA4AMFfAAAAAAAAAAAAAHAAgr8AAAAAAAAAAAAA4AAEfwEAAAAAAAAAAADAAQj+AgAAAAAAAAAAAIADEPwFAAAAAAAAAAAAAAcg+AsAAAAAAAAAAAAADkDwFwAAAAAAAAAAAAAcgOAvAAAAAAAAAAAAADgAwV8AAAAAAAAAAAAAcIAxVw32OgAAAAAAAAAAAABglGLkLwAAAAAAAAAAAAA4AMFfAAAAAAAAAAAAAHAAgr8AAAAAAAAAAAAA4AAEfwEAAAAAAAAAAADAAQj+AgAAAAAAAAAAAIADEPwFAAAAAAAAAAAAAAcg+AsAAAAAAAAAAAAADkDwFwAAAAAAAAAAAAAcgOAvAAAAAAAAAAAAADgAwV8AAAAAAAAAAAAAcACCvwAAAAAAAAAAAADgAAR/AQAAAAAAAAAAAMABCP4CAAAAAAAAAAAAgAMQ/AUAAAAAAAAAAAAAByD4CwAAAAAAAAAAAAAOQPAXAAAAAAAAAAAAAByA4C8AAAAAAAAAAAAAOADBXwAAAAAAAAAAAABwAIK/AAAAAAAAAAAAAOAABH8BAAAAAAAAAAAAwAEI/gIAAAAAAAAAAACAAxD8BQAAAAAAAAAAAAAHIPgLAAAAAAAAAAAAAA5A8BcAAAAAAAAAAAAAHIDgLwAAAAAAAAAAAAA4AMFfAAAAAAAAAAAAAHAAgr8AAAAAAAAAAAAA4AAEfwEAAAAAAAAAAADAAQj+AgAAAAAAAAAAAIADjLlqsNcBAAAAAAAAAAAwCh046FPF9ypV/9Of6dKlS3YpRpJbb71VCZ//nDL+Il0LF6TZpcDwIvgLAAAAAAAAAAAwij259Wm9/i//or/+qxX6s//rAd122232Howk7777rn78f17Td/7fHZr5p3+qdWvX2HuA4UPwFwAAAAAAAAAAYJQyR/yWlX9XlRW7CfqOEmYQOD0jU9lZf8kIYAw75vwFAAAAAAAAAAAYpcxUz+aIXwK/o4f5WZmfmfnZAcONkb8AAAAAAAAAAACj1J9MTVD9T14n+DvKmKN/E+6fqX89WW+XAMODkb8AAAAAAAAAAACj1KVLlwj8jkLmZ2Z+dsBwI/gLAAAAAAAAAAAAAA5A8BcAAAAAAAAAAAAAHIDgLwAAAAAAAAAAAAA4AMFfAAAAAAAAAAAAAHAAgr8AAAAAAAAAAAAA4AAEfwEAAAAAAAAAAADAAQj+AgAAAAAAAAAAAIADEPwFAAAAAAAAAAAAAAcg+AsAAAAAAAAAAAAADkDwFwAAAAAAAAAAAEPSVOJW3OR8Vdnbw2Eox6xaPUVxi0rVZG/3NPzn16ySRf3/TWAkIPgLAAAAAAAAAADwoebXqslTFDfQstpv1x+6gYK1AIYHwV8AAAAAAAAAAIAPtWRtP31KzZ2LT3kuKd7jCyszlm3Jdn0HOJQfOcAdtizb3WpXBkYPgr8AAAAAAAAAAADo0n5KJxulhtOn7IIPqk2/fcd4aH9XQavA0Hu0cUqx8UcjsFI4d6+7wmfsaCxWSo/yQY9Onl/YPbAdvhz2KN6oEjt+vFUXGEUI/gIAAAAAAAAAAKDT2QqvNVdutU+VF0NFH0z7CdWdMB5P+7X/Dauo92jjU6r2uOx93U3K9Xar1+8yHKOTT51Sg1z67H+3t4FRhOAvAAAAAAAAAAAALI2l+qsnaxWft1Ob/keNijb7FbB39ebTio4Rt/3M53u2olyVNycrdWazyr5VqoZ2e8eQtamhYouWzUvsHOmbkJShVWW1annfx+yt6ohfikvSrDi7ABhFCP4CAAAAAAAAAABAgdeLtfSRYr09v1h7cpKUWVysWbUeJed6dTZicDVNOzpG3O7P0SS7tJtQMPmMFhZs0Q7jeOkXi7XgK0/r+JBHFLepavVDWlByRg+s86qx0fy7J3Tw28kK7slS4lc+SFA5zEWvXjokTV/q1nS7CBhNCP4CAAAAAAAAAAB8mL3TqAMFbiU+WqrA4mL5nk5WjFk+LlnbKzZr+qn1evBLy1VScy5szt5BaKzQsuxiaWWpts8fGzre1n3lyo02yr/g1tqXGxUcZMA24C3QCl+scsuM5ydNUHSUWRqtiTOytGPfZs1pLNbanc2huh/E0eJiHY1J09fSJ9glwOhC8BcAAAAAAAAAAODD7K0avVQjpZfUqHpjsmJDgVXb3W7t+EG1ts9uUWV5jZoGE6xtb9XxkuV6cMkWtSTv1J7csLl8xyUq78Ua7flarI6Xe3W875zS3Rw/5pdcKVoUaVrgcW4tTpEaal9Xi11kCUtLPdmtktN2cR8Ch/L1vypaNSdvvVJD0W9g9CH4CwAAAAAAAAAA8GHmytGeGq82JY+3C3qImqCFW7x6tTxD8eGB4b4ETulwdbOmbKpW9cYkaxRxN2M1K3enXt1foDnj7KLh8Ls2/dZetYSlpT7tVe5kuziSxlItW+0znlKs7elj7UJg9CH4CwAAAAAAAAAAgCGZlOtV8+lCpdrb3YxL0qb91doxxNTJ/R1z1uxkqbFa+xvtgnAXvXq52nj+7MTI8w4PIPD601qwpFhNCR7t6kh5DYxSBH8BAAAAAAAAAABg8GtVZ5rkwSz5qrKfOaDgOdVVPK3H01OUmBB2DFeiEr+QoccLK1TXPWdzNzHuLdqR1qKS7Cxr7uFQ+umgzr5RrhVL1uuoy6Nvr0oI1R28Nh0vyVLyo+UKpGxW9T/mDG5kMzCCEfwFAAAAAAAAAACAIVnbO9Mk979UeyJNvtuHxgotm5uiZS+1aEZWsXyvhR2r/gfyfSdL8aef19KkFK091GY/qaexSt32ig7m3qvXnnTL5TKDx9O04Bt+RS8rV+0/DSVwG9TZmlI9npykZc+eV3y+V9XFbk0k8AsHIPgLAAAAAAAAAACAa+Scyr65RcfH52jvvkLlzncp9g57lyl6rGKnJiuvrFp7s25V5eoCVQbsfb2MVXxGgfYcru0MHtfXVGh7dqJihxi4DZx4VWfuXq49NdXale1StF0OjHYEfwEAAAAAAAAAAHCNNOrkG1J8yoIBR+ZOv2+K1H5OLRfsgmsmWvGeCr1alqNZsXYR4BAEfwEAAAAAAAAAAHCNuDR1htRQfVANoXl6+1b35ikpaoJi77QLAAwZwV8AAAAAAAAAAABcIxOU/bcFmtVaqqVL8lVyqFEtF4P2PkOwTS0n/SrKTtHS8ktK37ZF6TH2PgBDRvAXAAAAAAAAAAAA144rQ3uOVGvPw7F6o9yjtC9MU9zkKdaS8CWl/XW5GiY/pr011do6f6z9JADvx5irBnsdAAAAAAAAAAAAo4gZQG0+fcrewmjCZ4drgZG/AAAAAAAAAAAAAOAABH8BAAAAAAAAAAAAwAEI/gIAAAAAAAAAAACAAxD8BQAAAAAAAAAAAAAHIPgLAAAAAAAAAAAAAA5A8BcAAAAAAAAAAAAAHIDgLwAAAAAAAAAAAAA4AMFfAAAAAAAAAAAAAHAAgr8AAAAAAAAAAACj1K233qp3333X3sJoYX5m5mcHDDeCvwAAAAAAAAAAAKNUwuc/px//n9fsLYwW5mdmfnbAcCP4CwAAAAAAAAAAMEpl/EW6vvP/7mD07yhiflbmZ2Z+dsBwI/gLAAAAAAAAAAAwSi1ckKaZf/qnSs/IlP8HRwgCj2DmZ2N+RuZnZX5m5mcHDLcxVw32OgAAAAAAAAAAAEahAwd9qvhepep/+jNdunTJLsVIYs7xa6Z6Nkf8EvjFtULwFwAAAAAAAAAAAAAcgLTPAAAAAAAAAAAAAOAABH8BAAAAAAAAAAAAwAEI/gIAAAAAAAAAAACAAxD8BQAAAAAAAAAAAAAHIPgLAAAAAAAAAAAAAA5A8BcAAAAAAAAAAAAAHIDgLwAAAAAAAAAAAAA4AMFfAAAAAAAAAAAAAHAAgr8AAAAAAAAAAAAA4AAEfwEAAAAAAAAAAADAAQj+AgAAAAAAAAAAAIADEPwFAAAAAAAAAAAAAAcg+AsAAAAAAAAAAAAADkDwFwAAAAAAAAAAAAAcgOAvAAAAAAAAAAAAADgAwV8AcIiq1VMUN9lYVvuNLb9WmevGsqCk2arQ06F8q/6gl3xV2U8FAADAaNOskkWRrvH6Xvq8jgzTVOK26i8qVZNd1ul0qRaEjuVWyWm7bFh0XeuuOmQXAXCszrZupN+Z96l7+zmSoJpe3qJlaUly2b83rtkZWlXi19l2u0onfpMAAMDIQvAXAAAAAADceG/5tCErTQkuK4iSkJShtS83K2jvBuAEg+2I8n47jQxHILZNVauTlZJfoeOnWzt/g4It9TpQ7NGDD23R0Yt2IQAAwAhE8BejU9iIRXpVwuk6eyT3tXzg3s8u5flOqfl05KXa47LrAQAAYPSKU+7+yNd73ZdiLbSfcW9cnL3Wl3M6+n8ardXGEzreMxhy7pzOhlYadfLNttBanxpLtWBevnYfa1bAHlUXuFCvyvw0pTzhV8AqAoBrLuAt0Apfq7E2XqkbvWpsNH4bjd+4g4VuTYoyipsr9L+Ka0J1AQAARiKCv7jxwgK5g0krBgAAAAC48QK+p/XsG/aGalT0REVXOtT2RpU86+0M2lY9t1N1vVKl2trr9eQ3itVg7o/L0I4fnVBzY432ZFudEM96N6uIOAvgED07onR1OIn3+MLKvcqdbO8YikCg83enpdUM4Fp6dqpe4bN39NKmw347FfRcj/4uw6VoM+AbFa34xZu1KWNCaFfLoRodDa0BAACMPAR/AWCES90W1jAuTrNL07Sjo2x/jibZpe9Po4rSujeEw5eUYns0BwAAAJzvQota7NU+tQdVV5al5NXWiNz4jAzNipICR7bowXlmOtRGlWXnqOiksXOcS/HmAOLmci19aIuqzkdI4vyqV5WhfsBxyv5WgVLvipaixmtWfrHWzTDLW7X7pa5AMgAHOd2sM/Zq4Pcf/Fse8HcFZRv+7ZS9NhTGb+CvrLVJn52iGGu106z7E6yViwFS0gMAgBGL4C8AAAAAALAE2uwga5wmfia00sM57c6eqaWFtaEg8UR3sfZsLNCefQWac3eC8vLv0nNfcOvJY61SlEvZxc/rYOlmpcYalZsrtOILC7ThWPeQSd1Paq2/OTlZi0LB3g4TtOjLidbqkXodt9YAOEabDpTsUoO9ddZbrgP9zaXbWKyUjo7Kq+3RueHa6/Xsc13lAW+xSuy+zN06VRvLjo5+1b3EKvaT1lpT44lenU7q3qy3VsbFKNpaAwAAGHEI/mLEO+vbomXzEq2L+4QUPV5i3xgA0C1tet9pq/owv7Bb4ze0RBpZ3LkUKtXeCwAAgFEi7HpxUEtasR2IaVbJoo7yfFWFykwTlLmtUAvvdim90Kfqp5KtkXGuDO3yVyg3OUs7nnJr0lS3th/2at3MsdLdbu3wlSsvaYKme4q1aXb3kEnLhXPWivG34q21TrF3WilW1X5KTcwSBDhIm44XPqZVh+z5wM3Uyhf9WvVV4zfo/QypbW/U7uyvq8z8nYhKVGry+FBZUXa+DgyYziDcWM1LTrZWa3ZqRUmNzprn0x5Uw8vrtbbc+r2KnZ+kOaE1AACAkYfgL0a0hhK3HlxdoePNdmPgnXM6WpylVfsJ/+LDqeF0R9qqUzpJNmYAAADcCOOStd3v1dbFcRFHvsXM36zqfZu18G67wDQuUbll1dqba83jO2h3T+gKCF+2HwGMasFmn9YuStKyMqtRG5tWrNp9Hk2/w9g4WaoF85ar6FBz77TKLo+qOzonb7MDtIaW+nKt+JJbG0IZByYofdsz2vFMqfKmmjt9WpXs1tqXGxXsa97xHmLcW7Qjbbyx1qrjxcv14H1TFOeapgX5XjXZc5P/nScpVBcAAGAkIviLket0qdb2Mdfo0SM19hrwYVKvw0YD2NKs48fOdRu923faqnDhIzgiLJ6O4cM+rYi0314WlDDsAgAAYFSIlO1lyMsNzADz1rnOlLC62X4EMGqd3Z2lhHn5qmw0Q7vRis8slu/pZMW6crR3/2al3mUUn69RiSdNCVkVOht6Vt/M4yWlP62q88aGmWq+3Kut88eG1nP/yatNs8dL7zSqMt8tV1b5gMezjFXqNr+qCzM0a/L4zk4u0bEJWugp1quvFGjOOLsQAABgBCL4ixGr7mVvZyM/drZHu350InTjoXF/gTVfFPAhE/CVa3dYzLVu74uqG2TPZQAAAHzYDdAJMMISscPfUNNIR1zC00iHpXY+Ua86a61TZ0roqCmaFGetAhi9JmaWa6/HpRiXW5v21ejg+mTFmimfTWaK+B/UaI8nSZOmZmjHtgxNtHf1JXS8vATFuoz6NXaq+Q5RLmWWm0Fct+LvTtOO4qwBj9clWpMWF2iPr0aNdkeYxmMV2p6brIkd59spWdvtOtvn20UAAAA3EMFfjFCtajhpN/KVpJXbcjTnLquvZbR5Qf9EV3of4EPhol9/+5Q/NN91zPwMLTQ7QDSXa8OzQ839HKfc/eGjON7fcjCXO28AAAAYHtPvT7TmDT7/qg6/ESqyNatyb621OjdBs6w1AKNcfK5X9fs3K3NqWKC2Q9R4zcrdqep9XaNrU7fZbdH9OZpkFXUTn1Oh2j4HCphB3M066C9U6pBH6w6908yqQ/ZTAQAAbiCCvxihAgr81l6d7NL0nhfoUZFmlgIc6i2vVizx6ECLsR6bpr/bWKBvFqTJbNc2lGRoaUlj77mQBqFqdeTGat9L9xEaAAAAGE0G2wmwWAvtZ0R0LdJIz3UrM9S3sFllX8/XgfPG1W17q44XrlFRqK/jeGU+7LYCxAAco6nEHaHd2c+yqFRN9nMHEjxfr92Fy7X0C0lyhR/j/iQ9mL5cb9xfodpG4/cobO5gAAAApyD4i5HvdKMazOGOYQJtPQoAp2os19JF6635i+5IUF6Z1Vs5Zn6hdnlcRmFQdcUZWuFtDVUHAAAAIhvsCDaPDtjP6F/Y8Vb77bL3y7jO/bZH8WYq1RafVn1hmuJcSVpWZmW5meher7yk0CoADKjBnAf4CxnaUFajuvOt3TtLB1p1tr5GZRszlPgljyrfsssjGqZOMwAAANcZwV+MUHGadK+9qhoVPVGhhnesrZZjpVpRXGNtAE7nytKef/RoVlySNr1YoVwz3muLz31euzJcmpVXoV3u8Xbp4HWmzhpgqQ4FmQEAAIBryJWjg4cLlTk7TjH2fJoxdyYovdCn6qeSGfULONCkXG/ENmjPZUea/YTBqC/WNzbXKpQ4a3aOduyrUaM5wtc+VmNtjQ6acwDfYVQ479fa9RU6G3piJMPdaQYAAOD6IPiLEWvW7K7UOy3+LVqQYF1UJ2YVq0lDD3QBo1X01BztObxTmb1isGM1Z6NXe3IIzgIAAGAI0oq7BVb6Wg7mhnIxXz93p2lTuU/1dqCmvqZCWxfHiUl/AAxW8EyznRo6Wf97p0epU8cr2u5QYooeN17xizdrq5VrXnq9XqesNQAAAMcg+IsRK8a9RptmR2jmx6bpm7kz7Q0AAAAAAABAir43TpNCa359a3mxqk62KtgeKggJXmxVw6Et2rC72SqY4dIUa61/g+w0s32+XR8AAOAGIviLEWyCMssOantmoiaa6XgMMVPd2l5hzXkKAAAAAHgffJ4eKUv7WvJVZT+lX4M93qJSe0QeAFwjCR59Oy8hlDEgNG3YkiS5XF2/Q67EJC3wVKjOnFrsrmRt3ZqliaEnDoDfOQAAMIoQ/MWNN7+ws4dkr7RiURO0cH25Xq239tfv26yFdxvlYc+hVyVg6ZzDd1tXynQAAAAAAD5M4nMqVH+4WHmZSZp+1/juqeNjxmtiQpKyN1ao9gfFSjfvMQEAADjMmKsGex0AAAAAAAAAAAAAMEox8hcAAAAAAAAAAAAAHIDgLwAAAAAAAAAAAAA4AMFfAAAAAAAAAAAAAHAAgr8AAAAAAAAAAAAA4AAEfwEAAAAAAAAAAADAAQj+AgAAAAAAAAAAAIADEPwFAAAAAAAAAAAAAAcg+AsAAAAAAAAAAAAADkDwFwAAAAAAAAAAAAAcgOAvAAAAAAAAAAAAADgAwV8AAAAAAAAAAAAAcACCvwAAAAAAAAAAAADgAAR/AQAAAAAAAAAAAMABCP4CAAAAAAAAAAAAgAMQ/AUAAAAAAAAAAAAABxhz1WCvA8MmbvIUew0AAAAAAAAAAACRNJ8+Za8Bw4ORvwAAAAAAAAAAAADgAIz8BQAAAAAAAAAAAAAHYOQvAAAAAAAAAAAAADgAwV8AAAAAAAAAAAAAcACCvwAAAAAAAAAAAADgAAR/AQAAAAAAAAAAAMABCP4CAAAAAAAAAAAAgAMQ/AUAAAAAAAAAAAAAByD4CwAAAAAAAAAAAAAOQPAXAAAAAAAAAAAAAByA4C8AAAAAAAAAAAAAOADBXwAAAAAAAAAAAABwAIK/AAAAAAAAAAAAAOAABH8BAAAAAAAAAAAAwAEI/gIAAAAAAAAAAACAAxD8BQAAAAAAAAAAAAAHIPgLAAAAAAAAAAAAAA5A8BcAcM1UrZ6iuEWlarK3h86vVZOnaEFJs7V5KF9xk90qOW1tDo11rLjBLoM472CzTxuy0pSYYD/n/iQtXV2u4y12hTAf/L3objiPN9znBgAAAAAAAAC4MQj+AgAGqUcgtoeRH0BM1vbTp9Q8iGVHmv2UfgQOrVfKQ+vVMDVfe1+znte4/xnNC5Zr2eIs7W60KwIAAAAAAAAAcJ0Q/AUAXHehQHH4KNtIy0gOJLfX6MmNXkVnlWtvXpIm3mEVR9+VoOyS55U3vlYbnqrQWat4EJpVssh4zav99vYH01Tijvyehi2rDtmVAQAABsG6fstXlb09bAJ+rZ09Ra5sryIkTwEAAAAADBHBX4wMLbUqW53RlTo1IUkpWVu0+2SbXcEymICGuYQHNfp/zjW4eQFcU0E1lGUpsb/AaLBZBwq6vk+u2RlaVVargL27ix1w7PW9MJZrHHhN3WaNlK32uKS04s4Rt6Ftl0fV5vb+HE2y6484R/yqvBin1AUJdkG4OGUuS5Je9+voBbvohkjTDvt9jbRsn29XAwAAAIDrLPB6uValJ8kVaoNOU2L6eh1oDtp7w4Sm/unRXrWXATu0HlmvhMlpKqq3t9tbdbxkuVLut49xf5qWbfbpbLu9P4KWY9Z5Jris5yQsMc7zLXvnULX4tWHeIDviDqWuqeO+WsdrS4g8JdFg7qv1le0LAACMHgR/MQL4tTYpS0/66tXyjl30TquajlVow5KHjAvd7gFg4MOqpb5CaxfN1ILC2r5HRbQ3quSRNK2q7Po+BVvqdaAwS8lP+HsEgAP6be+IMDpE2Y+RXDZvSkTrtj7qxIyNMf4bUID3FwAAoH8xydp67JQay9yKtYsAOFvgUL6SH31aB+pbZYV7g0Z716tVD2WopMf0OYG299uoalOl16vADLfSQ31221S1ZomWFdeoqeOQgWYd352vB78SufNzQ2mGkrKs8wzYAeLASeM8i4eYsSnYrKqi5XowyaPdA8VVh1I3TNVT9n21jtf2TqvqfE9r2eJ8VV20ywbrZvsRAACMWgR/MSK822cvy1YdeK5iaCMQoxI143P2uuHMGSbexGhXow2zzZ7QW1QZSFLqDLs4gqayAhX9Z6Jyi71qbDRHeJ5Q/b5CpcdJLd4K7e82ErVFb5+X4j2+ztGgnUs/o24bitMi9g5e4TN2NhYrpWdZP861nDO+pM2d3/Ez50bQ9/UzcX2PPL452vhPsM/fLusGRYxizBgwAAAAAMDSXqOiLT61RMUpvdBut75ZrV3ZrlBn5qJnvd06Lb/dYnZ9jpzVqN9sRuf3qtIvpS5dqonmtr9QKw7FKH1jhV5903p+o3+n8maPl07u0u6a0LO6vPG0vlFUr6B9nvWh55zQqy+uUeoQeqo0lWcpISFNK0prFZuSZJ1LH4ZSt5fYpNB9AOs8jddW69WmZOO1tfj0gq/VriRNyvV2vn89l73ZccZx3Fr5iPEIAABGNYK/GBFuc7m1fV+tGkMXnGawao1mdYyoCwuu9HmR2rhTmfbFd/zK9cq8y1rvZqqdSrbbUqhUezcwcgUVvCNBmUYjtfYHxVr8Sbs4krEp2uErV958l6JD36FoxUxN09aVycZ6rRreNMu6ixlihDJisNhYdqQZOztSNoeX9SNwsU0yGvun7O950BytfPqczlibN0ibftuRhaAvc5OVPq5ZlS/1vENgatbuPUb5zGTNudMuAgAAAABI1T7tbpGm5+3U1sV2uzV6gubkP6+tc411v69Hp2XDuBijZTs0dd/zqm6cWw8vHmuXTFDePp+2ZiRoon2w6LuTlJvv1iSjDVjXGD7Mtk2Vu8rVpPFKL/GGzjMm9JxoTZyRpR1PmO3rQbokTZzv0Y7Dr2tv7jT12/oeSt0eUp/YGboPYJ2ncabjXMp8yqM5xnpgMCmpzleoqLxZczz5SqUTMwAAox7BX4wAydq6b7MWTh1rXcwHL+ntX7d29vSMneYacN7PuqLCUONBsRnKWx7eQzEsiNPfKD5gRDO+I/5ybTIaqbH9pSI2TMrIUeo4eyNM4B0zmZZLE++2tkNON4eCrLHjx1vb112jfn5mrGLG+XXoZTO9e71O/sx4aD+lptOhCp06Rxt7BhhK3Itfq8JGIg9uSdTaI8ZTfZ6ustU90npFJWndRrdue8mjpUU1OtuRYvt8jUqyHlNRq/GZPZUxtJ7aN1q3UdtulfT4DAAAwCjWcy5IV6JSlpf2mgvSFGz2aUNWWtf8lvOWq+T1SFPxNKtkkVFnUakaWvx6MivFmrvTOPaCAnsOzfZWVRVm6cEE61iu5Cw96e8agWaxr9e6XW+Flb3l09qweUEfzHpaVX3OgQJgpKt705yAN0np6ROsgk5jNW9ukvHYvdNyKJvbnbHqWbtf7TWqrGzWpHS35nS0oZNzlOuy18O9cymUevreT4fdS7pwUPvNn6Rkj9bNHWrYubtJOeU6uM1op8cNfJzB1g341yvR+D1cWjZAXuh2K6l2bOxAQ5XbVFVUrOOTjdeb3hEsBwAAoxnBX4wMUWEBmvsSlZJdroZ2aWJSgXatNy/++2H3TjTN8Xi6LuxDWtTyK3v1UFcgJyEpQ6vKatXSR8pWwFHaG/WcORI1LkmzJttlYQ547O+eK1GJ6fkqO9bzhtw1cuGE6s6kaF1+sqpeqFDT6VodP5+kOXMb9aOac3YlS+do4+IBhhL3kqztYSOR3/eyrXfP7pj5m1X9ymbFnyzU0ges99C1qEA/umu5DvqKlR4pA8FI1m3Utle5Ef6tAACA0anXXJDtbWo6UqxlmcWqs4tMgZotWvBQvnYfa+6a37K5RkWPPqZn+0rNEqjW2sUe4xrynDV3p3Hshsp8Ld3s04E1S7TCaHd1dpR7q1ZluTmD72QW8GnFonxVhs0LevZYuVZkPq062nLAqNRywWjrTXYpPsLo0piEaYo3Ht82M0SFC+uo6pqdpmXG70uT9aMQUeBlryoDycr+Wmiy33606cALe3U2KlkPzLaLTCfqddx4SJ2fpqDf+F20O864Zlv3kgYxjvbGag+q5aRPax/ZoqNTPcpzDxDQfWOninzSwuUZDJoAAMAhCP5ihBqv+LQcrctzK77fkY5270Sz4R+Xo5X99VAMuzkQuFCvA4VZSlvjH/kX7cAH0X5OlV83b7C5lPdtj6bbxSFtge7//tvb1FLv05NZyVpa2vfcu/3O+TsEZ30+HZ+boHmL3Uq/UKyv5uxRw8wkrZydqLq93m43Ikeq6Lg0bSr3qbbeDpr+pEZ7t2QoPsLo69Rtxv5+5lIGAAC4Zuy5IDuvWeorlDvVKG9+RYffsKqE5uF8okJNmqBU47FzTsxar7a7g2ro6/LwfKPenuzRnmN2/RfXaFas1PJSvlYZ14epG3vM6alG7T/U97VmNzV+1U3zaNePTljH/lGxMs3Bec17tf+YVQXAaNKsJrMjSdRt/aZxbgnN82vqPSVPsKVZx3fnK2XeelVdtAu7adbuF/yKcRvtzH7TF7fpeOFjWnUoWgu3belWt6nZPEmXJl18Wmm5FWqwG87BFuteUvLGSNP/XD8xyZtVe/qENUdvJzsbg9k+d01T4leeUdPsQlW/mDPgfbVQimvX41o5n1G/AAA4BcFfjFCtavCVasWimf0GoVS/S0U+q0fonMcf7x7YCjmjs/30Km/xefS/vJFSmAGjX/BkuR7/UorWnpqidf9U0TvF1dSvq9q8EWfeAAzdBKzW3o1uTYoKqm77TlX26hkxiFG0gw5u1qtyb71S56YoxkyhnJeks+dbNSs5RdMXpSn1rQo9Z3+3h88QU0D3TPUckd3AHkTdqtVGvUWlarK3AQAArpeOuSBj77AL7khQ3gq3sXJOb79tFelYjfaH5uHcpR1ZYXNijnNp4VM7tW6Gtd2LcS2Xty0nFPA1Rc/I0lbj+Wbn20nZz2hHRticnnlZSjVWm97qnuWlT3FZ2lGWozl3WScTfVeyNuW7FaOe83MCcKaxWrTN6vxhLSdUv69YubPHS+e9KtplppDu4Ui5nmuMU+bSfrLItfi1YVGSllVImSX7tD1i0POcdu88oXnFdgeW0N8uUKrZuaVip8rO29VGqvZzqqvYrG9sttPw96V+l8qM5mzqo4z6BQDASQj+YoQICyq9WavqF9eELqjNtF512wu1+0KoUi9H95o90w3j3Ho0YhqbJK2rCW8onFLjMbPnelfvyONvnrDXAKcIqqEsS0lLnlGL2dP38E5lT43Qrzo62roR1+GOCZqesVl7NxmN5Ha/XruGoykClTtVctGthxfb39so4/yikrVokdGIj3Erb+UEVT21uY+e3O/X4FNA7xhqdmkAAICRrN24PqypUMnm9VqVlaYHv5AkV67X3mlpMtpFASVqUVqkmTUnaOIn7dWeJk/T9B5ZTybeZR1jyn09Uq5GTdHUSHNu9mVKgqb3HLE2wTgX8/FyaAvAqBKr2L5+S8JMuLvrnk30HeFt2WjFTE1WXtkzMge9NtXU9uhc26ZKr1eBGW6l95HxucW/RSlJHh2NXa49fq82JRtt0IjaNN3zvDbNtzuwhP52hnZsNjug1Bvt5ZE2kCBOufs72rQnVF/j1Y7sKXrbTMNf0HfWu9B9tXFhbXMAAOAIBH9x4/XsgRg9VpNmZCkvw74r0F6rNyLFZwNevWSP2o2Zn9xjrt8OxsV5bPegV3SsSwuzFoTmkTEFAv1MFAOMOmbqqgwteDao9HK/Dm5J06QIcd/+dMyz1J8PNoq1UZXV5zRnZY71vW2v17PP+RX7cFdarknLtyjPFdDbFz5k309f19zkfS7LvYNMV+/TikjPD1sWlDBiBgAAx7vo19ovTdOC7C0q2u3VgWPNoYwrka+yohXdMToYAIbdWH3U7CzSeEqnIo1GPX1KDf11NukQlaAZU+z1cOf3qtIcxbp0qdVJpIezlR6lfb1G9673qbqsK2NBTx+NMRumcYq/L0JA1O6A0pWaeiSKVsydLqXmlWt75gS1eP2hOYx7se+rTXS7+7inBgAARiuCv7jhmsqW6/EivxpaOm4/BBU4WaGiio50zxP0iU/Yq2ECh/2qCjUWxmrR3D7S+TR7tXZzhere6rq1EXyrXmXFe4wGhSX+v99rrwGjX+DQZq0ol/JerFCemQrrfQj85ITx/TAa5R+xC4adS9llPu0yGqEhZ06pScnK84R9j6Ncyi3bqUzXECPX/Rp82uehzl88mKBt/8cM76U9wLLT7Gnev0m53sjP7bEczA2fIwoAADjR0eICVV6IU/oTO3Wwpka1xmKmMN2V3j2o8YlYMwpSo8OHI4xma6/XG6fsdQD4AGZNM9t9fr3cawquNlX6/FZgt49Ru53aa/WaOUjgo0a71SoJqfueV3VxOfpapMxwp0v1VwUnNGubVzsy4tRfSzN2yhRNVLOOHonQWfbcOZ01HuInj/62lHVfbYJSvzjQGw4AAEYbgr+48S636GipRwtmT7ODJNOUsGSLqjo6UcYm6YFe16FtOnykxlodt0Bf6Gsql8utati9RUuTO449Ra7kDD3pb7X2RyUqPY3gB5yiVftf9CmQktV7ft8ImsrytbaiXmffsQveOaejJcu1YLPx3Yo1vlez7fIPIHXbqYHnAZ6coV2Hi5XeI13gNZNWHDEQ2mvZlmw/YRAGcUxSSQMAgBshGGiTYu7V9LmJir9zvGLHvavj2zO06iex3UbGxSQlaVaUdHTDI1r7cqOC9qi84Fs1Ksn+uspIGAJgGMTMS1Zq6LfmMT1Zc87KQhA02qKFj2ntEaMp+nBaaL/Fryezi1V1ss3OVmAOFvBp7ZLl2n1empWcpM7Bu+01qqxs1vSlbk23i8IdrdilhslufS3i/L49zEjWwjip4dnlWlHR8XsY1NmaUi1b71VgXJq+kBiqOTKcLteqggrVNXe8T8bZXmxUVVGWVu0+J81MUO+B0vZ9tbuSNa+vOd0BAMCoRfAXN97N9mMkUS5lF3l6p59pf12vvWqvT3NFvLAPuTdJ86ba672MV+qmzcq8y94ERr0TeuN14+FQfmdnh17Lar9V1RQ8o8qNGXowwd6XkKLHi2t0VhOUXhDhewcAAIBRZ8q0RCv1c0eH2PuMa76yoL7mWdA9m8idGVq30mW0tZpVme+Wy2VdI7qSl6vo9Ewt7KvDLQAMRYxbeavM35pGlWWnyNX5u9Qoxabpm+EZoQxv15RqxZJEq15osEC+KhuDip7h0bqMrjnKA94KVQaSlZ4ead7yZjWcaAuN/l0QOk6Epdu0RgnKW5ehiTqnqo0dv4fT9GB2sY63jNfCjeuVOlA6pmso4F+vRON8lnb2yrmkM5VbtHRex/tk/HYnurWitFYtsYna9IT5WnrouK82M6Hve2oAAGDUIviLG25Sdqn25Kdp+p1dvS+jY+M0K7NAe2u8WjczQq/M+nqdsHuiTzIuwvu85jZTx77o0/b0BMV2zF0VM17T0zzacdivHREbBcCHw6T0fOXNjev6btxhfzdeOaitg+kNDQAAgBFvYuYz2uNJ0iS70RR9d5Lyyp9XboTZb+JzK1Rd6Nb0WDshatRYTZrr0Z6XCzX/BgY6ADjLpByvXt0W9lsTaouu0R5foVK7ZYRK0krzNynsflFMXKIyN1ao5h9zFN/ZYblez+2qUYzbrfTh+q1KKtDB8jVamDDeThEdrdiENK174RVtH2nt5ckZ2rqx+/tk3VcrVPWRcmVGygxm31eL/wxToQEA4ERjrhrsdQAABqVq9dDmxY33+IZnfllzVLPnjPJ8XuVOtssGzZzz16MD9tbAXIP4O80qWZSmoo4pygfi8qh6oDTYgxT6DM4Mz/GG81gAAAAAcF0dWa+E5SeUWelTHtPXAgAAEPwFAAAAAAAAMBq1qTI3UWu1WfUl7r4zwwEAAHyIEPwFAAAAAAAAAAAAAAdgzl8AAAAAAAAAAAAAcACCvwAAAAAAAAAAAADgAAR/AQAAAAAAAAAAAMABCP4CAAAAAAAAAAAAgAMQ/AUAAAAAAAAAAAAAByD4CwAAAAAAAAAAAAAOQPAXAAAAAAAAAAAAAByA4C8AAAAAAAAAAAAAOADBXwAAAAAAAAAAAABwAIK/AAAAAAAAAAAAAOAABH8BAAAAAAAAAAAAwAEI/gIAAAAAAAAAAACAAxD8BQAAAAAAAAAAAAAHIPgLAAAAAAAAAAAAAA4w5qrBXgeGzS/O/speAwAAAAAAAAAAQCT3TPykvQYMD4K/AAAAAAAAAAAAAOAApH0GAAAAAAAAAAAAAAcg+AsAAAAAAAAAAAAADkDwFwAAAAAAAAAAAAAcgOAvAAAAAAAAAAAAADgAwV8AAAAAAAAAAAAAcACCvwAAAAAAAAAAAADgAAR/AQAAAAAAAAAAAMABCP4CAAAAAAAAAAAAgAMQ/AUAAAAAAAAAAAAAByD4CwAAAAAAAAAAAAAOQPAXAAAAAAAAAAAAAByA4C8AAAAAAAAAAAAAOADBXwAAAAAAAAAAAABwAIK/AAAAAAAAAAAAAOAABH8BAAAAAAAAAAAAwAEI/gIArpmq1VMUt6hUTfb20Pm1avIULShptjYP5Stuslslp63NobGOFTfYZRDnHWz2aUNWmhIT7Ofcn6Slq8t1vMWuEOaDvxfdDefxhvvcAAAAAAAAAAA3BsFfAMAg9QjE9jDyA4jJ2n76lJoHsexIs5/Sj8Ch9Up5aL0apuZr72vW8xr3P6N5wXItW5yl3Y12RQAAAAAAAAAArhOCvwCA6y4UKA4fZRtpGcmB5PYaPbnRq+iscu3NS9LEO6zi6LsSlF3yvPLG12rDUxU6axUPQrNKFhmvebXf3v5gmkrckd/TsGXVIbsyAADAIFjXb/mqsreHTcCvtbOnyJXtVYTkKQAAAACAISL4i5GhpVZlqzO6UqcmJCkla4t2n2yzK1gGE9Awl36DGqdLtaCj7jAFWoDrJ6iGsiwl9hcYDTbrQEHX98k1O0OrymoVsHf352hB4sDfoWGQus0aKVvtcUlpxZ0jbkPbLo+qze39OZpk1x9xjvhVeTFOqQsS7IJwccpcliS97tfRC3bRDZGmHfb7GmnZPt+uBgAAAADXWeD1cq1KT5IrdH9mmhLT1+tAc9DeGyY09Y99D6fHMmC79ch6JUxOU1G9vd3equMly5Vyv32M+9O0bLNPZ9vt/RG0HLPOM8FlPSdhiXGeb9k7h6rFrw3zBtneHkpdU8d9tY7XlhB5SqLB3FfrK9sXAAAYPQj+YgTwa21Slp701avlHbvonVY1HavQhiUPGRe63QPAH0ybDpTsUoO9BYwmLfUVWrtophYU1vY9KqK9USWPpGlVZdf3KdhSrwOFWUp+wt9/APh0qYoqh/P7NspF2Y+RXDZvSkTrtj7qxIyNMf4bUGAwEXcAAIAPs5hkbT12So1lbsXaRQCcLXAoX8mPPq0D9a2ywr1Bo73r1aqHMlTSY/qcQNv7bVS1qdLrVWCGW+mhPrttqlqzRMuKa9TUcchAs47vzteDX4ncubqhNENJWdZ5BuwAceCkcZ7FQxxIEGxWVdFyPZjk0e6B4qpDqRum6in7vlrHa3unVXW+p7Vscb6qLtplg3Wz/QgAAEYtgr8YEd7ts5dlqw48VzG01K9RiZrxOXu9h4C/UN8a1mAycD3UaMNssyf0FlUGkpQ6wy6OoKmsQEX/majcYq8aG80RnidUv69Q6XFSi7dC+/sciXpOu7fslNxpirdL+tJQnBaxd/AKn7GzsVgpPcv6ca7lnHSmufM7fubcCJoo9zNxfY88vjna+E+wz98u6wZFjGLMGDAAAAAAwNJeo6ItPrVExSm90G63vlmtXdmuUGfmome93Totv91idn2OnNWo32xG5/eq0i+lLl2qiea2v1ArDsUofWOFXn3Ten6jf6fyZo+XTu7S7prQs7q88bS+UVSvoH2e9aHnnNCrL65R6hB6qjSVZykhIU0rSmsVm5JknUsfhlK3l9ik0H0A6zyN11br1aZk47W1+PSCr9WuJE3K9Xa+fz2XvdlxxnHcWvmI8QgAAEY1gr8YEW5zubV9X60aQxecZrBqjWZ1jKgLC670eZHauFOZ9sV3/Mr1yrzLWu/GbGBstOeR6m9EHzDiBBW8I0GZRiO19gfFWvxJuziSsSna4StX3nyXokP/zqMVMzVNW1cmG+u1anjTLOutqdSjDb99TFsfvdcu6Vu8xxfxe7gjzdjZkbI5vKwfgYttktHYP2V/z4PmaOXT53TG2rxB2vTbjiwEfZmbrPRxzap8qecdAlOzdu8xymcma86ddhEAAAAAQKr2aXeLND1vp7Yuttut0RM0J/95bZ1rrPt9vTstj4sxWrZDU/c9r+rGufXw4rF2yQTl7fNpa0aCJtoHi747Sbn5bk0y2oB1jeHDbNtUuatcTRqv9BJv6DxjQs+J1sQZWdrxhNm+HqRL0sT5Hu04/Lr25k5Tv/2Dh1K3h9QndobuA1jnaZzpOJcyn/JojrEeGExKqvMVKipv1hxPvlLpxAwAwKhH8BcjQLK27tushVPHWhfzwUt6+9etnT09Y6e5Bpz3s66oMNR4UGyG8pZH6qFopvcpCNWJzShQ7mS7GBgVjO+Iv1ybjEZq7AAdFyZl5Ch1nL0RJvCOmUzLpYl3W9vdNJbqG9uDyv5bj+Kva8eIRv38zFjFjPPr0MvmiPx6nfyZ8dB+Sk2nQxU6dY429gwwlLgXv1aFjUQe3JKotUeMp/o8XWU95wePStK6jW7d9pJHS4tqdLYjxfb5GpVkPaaiVuMzeypjaD21b7Ruo7bdKunxGQAAgFGs51yQrkSlLC/tNRekKdjs04astK75LectV8nrkbInNatkkVFnUakaWvx6MivFmrvTOPaCAnsOzfZWVRVm6cEE61iu5Cw96e8agWaxr9e6XW+Flb3l09qweUEfzHpaVRHOG8DoUPemOQFvktLTJ1gFncZq3twk47F7p+UzZxqlO2PVs3a/2mtUWdmsSeluzelo4ybnKNdlr4d751Io9fS9nw67l3ThoPabP0nJHq2bO9Swc3eTcsp1cJvRTo8b+DiDrRvwr1ei8Xu4tGyAvNDtVlLt2NiBhiq3qaqoWMcnG683vSNYDgAARjOCvxgZosICNPclKiW7XA3t0sSkAu1ab17898PunWia4/F0XdiHCRzarL8109zEZujv1s/UbXY58KHQ3qjnzJGocUma1bPjg9Eo3pBdLK18Wuv6SSd9TVw4obozKVqXn6yqFyrUdLpWx88nac7cRv2o5pxdydI52rh4gKHEvSRre9hI5Pe9bOvdsztm/mZVv7JZ8ScLtfQB6/fLtahAP7pruQ76ipUeKQPBSNZt1LaXTjIAADhIr7kg29vUdKRYyzKLVWcXmQI1W7TgoXztPtbcNb9lc42KHn1Mz/aVmiVQrbWLPSo7ds6au9M4dkNlvpZu9unAmiVaUVbb1VHurVqV5eYMvpNZwKcVi/JVGTYv6Nlj5VqR+bTqwjJEARg9Wi4Ybb3JLsVHGF0akzAtNA3R22aGqHBhHVVds9O0zPh9abJ+FCIKvOxVZSBZ2V8LTfbbjzYdeGGvzkYl64HZdpHpRL2OGw+p89MU9Bu/i3bHGdfsDK0yftMGMY72xmoPquWkT2sf2aKjUz3Kcw8Q0H1jp4p80sLlGQMOvgAAAKMDwV+MUOMVn5ajdXnuAUYi2r0TzYZ/XI5WRuqh2FiqZavN+WRcyisriBgcBhyr/Zwqv27eYDP+/X/bo+l2scUeEf/fPNq6PFIX6Mj6nfN3CM76fDo+N0HzFruVfqFYX83Zo4aZSVo5O1F1e73dbkSOVNFxadpU7lNtvR00/UmN9m7JUHyE0dep24z9+3NoTAMAgOvPnguy85qlvkK5U43y5ld0+A2rSmianCcq1KQJSjUeO+fErPVquzuohka7Xk/nG/X2ZI/2HLPrv7hGs2Kllpfytcq4Pkzd2GNOTzVq/6G+DtZDjV910zza9aMT1rF/VKxMc3Be817tP2ZVATCaNKvJ7EgSdVu/aZxbQvP8mnpPyRNsadbx3flKmbdeVRftwm6atfsFv2LcRjuz3/TFbTpe+JhWHYrWwm1butVtajZP0qVJF59WWm6FGuxob7ClXgcKs5S8MdL0P9dPTPJm1Z4+Yc3R28nOxmC2z13TlPiVZ9Q0u1DVL+YMeF8tlOLa9bhWzmfULwAATkHwFyNUqxp8pVqxaKaWlvZzY6B+l4p8Vo/QOY8/3iOwZbjo16rs4tAo4viVWyKn+AEcKniyXI9/KUVrT03Run+q6PXvv6HkMa2onakd/zBQY7DDIEbRDjq4Wa/KvfVKnZuiGDOFcl6Szp5v1azkFE1flKbUtyr0nP3dHj5DTAHdM9VzRHYDexB1q1Yb9RaVqsneBgAAuF465oKMvcMuuCNBeSvcxso5vf22VaRjNdrfYs7DuUs7ssLmxBzn0sKndvadJca4lsvblhMK+JqiZ2Rpq/F8GW2wSdnPaEdG2JyeeVlKNVab3uqe5aVPcVnaUZajOXdZJxN9V7I25bsVo57zcwJwprFatM3q/GEtJ1S/r1i5s8dL570q2mWmkO7hSLmea4xT5tJ+ssi1+LVhUZKWVUiZJfu0PWLQ85x27zyhecV2B5bQ3y5Qqtm5pWKnys7b1Uaq9nOqq9isb2y20/D3pX6XyozmbOqjjPoFAMBJCP5ihAgLKr1Zq+oX14QuqM20XnXbC7X7QqhSL0f3mj3TDePcerRnGpv2RpV81aMD5jy/acXaQ+QXHxpBNZRlKWnJM2oxe/oe3qnsqd37VTeUZmjps1JeWWHEOYKvtUDlTpVcdOvhxfb3Nso4v6hkLVpkNOJj3MpbOUFVT23uoyf3+zX4FNA7hppdGgAAYCRrN64PaypUsnm9VmWl6cEvJMmV67V3WprePKGAErUoLdLMmhM08ZP2ak+Tp2l6j+vJiXdZx5hyX4+Uq1FTNHUozbIpCZres5PiBONczMfLoS0Ao0qsYvv6LQkz4e6uEa3Rd4S3ZaMVMzXZaMc+I3PQa1NNbY/OtW2q9HoVmOFWeh8Zn1v8W5SS5NHR2OXa4/dqU7LRBo2oTdM9z2vTfLsDS+hvZ2jHZrMDSr1eOzbcnZU/qDjl7u9o055QfY1XO7Kn6G0zDX+Bv89U1aH7auPC2uYAAMARCP7ixuvZAzF6rCbNyFJehn1XoL1Wb5ywVrsJePWS17rYjpmf3Dud85kaHT5prbb4PEroHNGXpqKOwcRGuVm26pC9DYx6ZuqqDC14Nqj0cr8ObknTpO5xX4NfzxXVK9jeqKKOtFAdS1qxGowaBzzmtrvP+dg+2CjWRlVWn9OclTnW97a9Xs8+51fsw11puSYt36I8V0BvX+hnIicnsn+T+l2Wewc5x5RPKyI9P2xZUMKIGQAAHO+iX2u/NE0LsreoaLdXB441hzKuRL7KilZ0x+hgABh2Y/VRs7NI4ymdijQa9fQpoz3aT2eTDlEJmjHFXg93fq8qzVGsS5danUR6OFvpUdrXa3Tvep+qy7oyFvT00RizYRqn+PsiBETtDihdqalHomjF3OlSal65tmdOUIvXH5rDuBf7vtpEt5sp0gAAcBiCv7jhmsqW6/EivxpaOm4/BBU4WaGiio4I7QR94hP2apjAYb+qQo2FsVo0t590PsCHSODQZq0ol/JerFCemQprRHIpu8ynXUYjNOTMKTUpWXmesO9xlEu5ZTuV6eoVuf4ABp/2eajzFw8maNv/McN7aQ+w7DR7mvdvUq438nN7LAdzw+eIAgAATnS0uECVF+KU/sROHaypUa2xmClMd6V3D2p8ItaMgtTo8OEIo9na6/XGKXsdAD6AWdPMdp9fL9ud+bu0qdLntwK7fYza7dReq9fMQQIfHauPWiUhdd/zqi4uR1/rmRnOdLpUf1VwQrO2ebUjI67fOYdjp0zRRDXr6JEInWXPndNZ4yF+8uhvS1n31SYo9YsDveEAAGC0IfiLG+9yi46WerRg9jQ7SDJNCUu2qKqjE2Vskh7odR3apsNHaqzVcQv0hUix38k5Ohgh2NF82qe8jlRjacWhsu3z7W1gVGvV/hd9CqRkDTC/dT/pj30exRs1Fhab217lTrae8X6lbjOOM9A8wJMztOtwsdKvV/pp+3s/4LIt2X7CIAzimKSSBgAAN0Iw0CbF3KvpcxMVf+d4xY57V8e3Z2jVT2K7jYyLSUrSrCjp6IZHtPblRgXtUXnBt2pUkv11lZEwBMAwiJmXrNTQb81jerLmnJWFIHhORwsf09ojUuzDaaH9Fr+ezC5W1ck2O1uBOVjAp7VLlmv3eWlWcpI6B++216iyslnTl7o13S4Kd7Rilxomu/W1iPP79jAjWQvjpIZnl2tFRcfvYVBna0q1bL1XgXFp+kJiqObIcLpcqwoqVNfc8T4ZZ3uxUVVFWVq1+5w0M0G9B0rb99XuSta8vuZ0BwAAoxbBX9x4N9uPkUS5lF3k6Z1+pv11vfaqvT7NFfHCHvjwOaE3XjceDuV3G3HabVntt6oCAADgQ2HKtEQr9XOy3dn2vhQ9XhbU1zwLumcTuTND61a6jLZWsyrz3XK5rOtHV/JyFZ2eqYUkWwIwHGLcyltl/tY0qiw7Ra7O36VGKTZN3wzPCGV4u6ZUK5YkWvVCgwXyVdkYVPQMj9ZldM1RHvBWqDKQrPT0SPOWN6vhRFto9O+C0HEiLN2mNUpQ3roMTdQ5VW3s+D2cpgezi3W8ZbwWblyv1IHSMV1DAf96JRrns7SzV84lnancoqXzOt4n47c70a0VpbVqiU3UpifM19JDx321mQncUwMAwIEI/uKGm5Rdqj35aZp+Z1fvy+jYOM3KLNDeGq/WzYzQK7O+XifsnuiTjIvwG3jNDQAAAAAj1sTMZ7THk6RJdqMp+u4k5ZU/r9x7re1w8bkVqi50a3qsnRA1aqwmzfVoz8uFmk+jC8AwmZTj1avbwn5r7hiv6WlrtMdXqNRuGaGStNL8TQq7XxQTl6jMjRWq+cccxXcOFKjXc7tqFON2K324fquSCnSwfI0WJoy3U0RHKzYhTeteeEXbBzN6+HqanKGtG7u/T9Z9tUJVHylXZqTMYPZ9tfjPRPifAQAAGPXGXDXY6wAADErV6qHNixvv8Q3P/LLmqGbPGeX53k9KanPOX48O2FsDcw3i7zSrZFGaijqmKB+Iy6PqgdJgD1LoMzgzPMcbzmMBAAAAwHV1ZL0Slp9QZqVPeUxfCwAAQPAXAAAAAAAAwGjUpsrcRK3VZtWXuMkMBwAAYCD4CwAAAAAAAAAAAAAOwJy/AAAAAAAAAAAAAOAABH8BAAAAAAAAAAAAwAEI/gIAAAAAAAAAAACAAxD8BQAAAAAAAAAAAAAHIPgLAAAAAAAAAAAAAA5A8BcAAAAAAAAAAAAAHIDgLwAAAAAAAAAAAAA4AMFfAAAAAAAAAAAAAHAAgr8AAAAAAAAAAAAA4AAEfwEAAAAAAAAAAADAAQj+AgAAAAAAAAAAAIADEPwFAAAAAAAAAAAAAAcg+AsAAAAAAAAAAAAADkDwFwAAAAAAAAAAAAAcYMxVg70ODJtfnP2VvQYAAAAAAAAAAIBI7pn4SXsNGB4EfwEAAAAAAAAAAADAAUj7DAAAAAAAAAAAAAAOQPAXAAAAAAAAAAAAAByA4C8AAAAAAAAAAAAAOADBXwAAAAAAAAAAAABwAIK/AAAAAAAAAAAAAOAABH8BAAAAAAAAAAAAwAEI/gIAAAAAAAAAAACAAxD8BQAAAAAAAAAAAAAHIPgLAAAAAAAAAAAAAA5A8BcAAAAAAAAAAAAAHIDgLwAAAAAAAAAAAAA4AMFfAAAAAAAAAAAAAHAAgr8AAAAAAAAAAAAA4AAEfwEAAAAAAAAAAADAAQj+AgAAAAAAAAAAAIADEPwFAFwzVaunKG5RqZrs7aHza9XkKVpQ0mxtHspX3GS3Sk5bm0NjHStusMsgzjvY7NOGrDQlJtjPuT9JS1eX63iLXSHMB38vuhvO4w33uQEAAAAAAAAAbgyCvwCAQeoRiO1h5AcQk7X99Ck1D2LZkWY/pR+BQ+uV8tB6NUzN197XrOc17n9G84LlWrY4S7sb7YoAAAAAAAAAAFwnBH8BANddKFAcPso20jKSA8ntNXpyo1fRWeXam5ekiXdYxdF3JSi75Hnlja/VhqcqdNYqHoRmlSwyXvNqv739wTSVuCO/p2HLqkN2ZQAAgEGwrt/yVWVvD5uAX2tnT5Er26sIyVMAAAAAAENE8BcjQ0utylZndKVOTUhSStYW7T7ZZlewDCagYS7dghrtrTpelq+ls6fZ+6cpMS1LGyoaFbCrAKNHUA1lWUrsLzAabNaBgq7vk2t2hlaV1fb+997x3UhK7PpupOer7FirXeHaSd1mjZSt9riktOLOEbehbZdH1eb2/hxNsuuPOEf8qrwYp9QFCXZBuDhlLkuSXvfr6AW76IZI0w77fY20bJ9vVwMAAACA6yzwerlWpSfJ1dkWXa8DzUF7b5jQ1D9W27bnMmCH1iPrlTA5TUX19rbZBi5ZrpT77WPcn6Zlm306227vj6DlmHWeCS7rOQlLjPN8y945VC1+bZg3yI64Q6lr6riv1vHaEiJPSTSY+2p9ZfsCAACjB8FfjAB+rU3K0pO+erW8Yxe906qmYxXasOQh40K3ewB4qKoKkrSs0Ke6lo5GRFAtp2u1e6Nbyav9BIAxarTUV2jtoplaUFjb96iI9kaVPJKmVZVd36dgS70OFGYp+Yke/96rC63vxoWO75jx3aj36cmsJR/4e+cIUfZjJJfN35No3dZHnZixMcZ/AwrwAwMAANC/mGRtPXZKjWVuxdpFAJwtcChfyY8+rQP1rUYr1GS2Rb1a9VCGSnpMnxNoe7+NqjZVer0KzHArPdRnt01Va5ZoWXGNmjoOGWjW8d35evArkTtXN5RmKCnLOs+AHSAOnDTOs3iIGZuCzaoqWq4HkzzaPVBcdSh1w1Q9Zd9X63ht77Sqzve0li3OV9VFu2ywbrYfAQDAqEXwFyPCu332smzVgecqhpb6NSpRMz5nr5sidBzt0OLbOaSLaeDGqNGG2WZP6C2qDCQpdYZdHEFTWYGK/jNRucVeNTaaIzxPqH5fodLjjH/v3grtDx+JenOs5uQU62DtCWs06Ju1OrgxWbHm9+7Fg30GmBuK0yL2Dl7hM3Y2FiulZ1k/zrWck840d37Hz5wbQRPlfiau75HHN0cb/wn2+dtl3aCIUYwZAwYAAAAAWNprVLTFp5aoOKUX2u3WN6u1K9sV6sxc9Ky3W6flt1vMlmnkrEb9ZjM6v1eVfil16VJNNLf9hVpxKEbpGyv06pvW8xv9O5U3e7x0cpd214Se1eWNp/WNonoF7fOsDz3nhF59cY1Sh9BTpak8SwkJaVpRWqvYlCTrXPowlLq9xCaF7gNY52m8tlqvNiUbr63Fpxd8Xdm9JuV6O9+/nsve7DjjOG6tfMR4BAAAoxrBX4wIt7nc2r6vVo2hC04zWLVGszpG1IUFV/q8SG3cqUz74jt+5Xpl3mWth9zhCrtQty6A182095ku24/AiBVU8I4EZRqN1NofFGvxJ+3iSMamaIevXHnzXYoOfYeiFTM1TVtXJhvrtWp40yyzJa/RrrxkxY8zA5mG6LGKz9iivLnG+m/b9FurtJd4j6/3d9BYdqQZOztSNoeX9SNwsU0yGvun7O950BytfPqczlibN4jx2juyEPRlbrLSxzWr8qWedwhMzdq9xyifmaw5d9pFAAAAAACp2qfdLdL0vJ3authut0ZP0Jz857XVbIv6fd07LZvGxRgt26Gp+55XdePcenjxWLtkgvL2+bQ1I0ETO5rAdycpN9+tSUYbsK4xfGRAmyp3latJ45Ve4g2dZ0zoOdGaOCNLO54w29eDdEmaON+jHYdf197caeq3f/BQ6vaQ+sTO0H0A6zyNMx3nUuZTHs0x1gODSUl1vkJF5c2a48lXKp2YAQAY9Qj+YgRI1tZ9m7Vw6ljrYj54SW//urWzp2fsNNeA837WFRWGGg+KzVDe8u49FFM3hV+oBxW82KK3fxfaZR5c8ffa68CIZXxH/OXaZDRSY/tLRWyYlJGj1HH2RpjAO+YQeJcm3m1t9ydodoj45Hh9wtq8hhr18zNjFTPOr0Mvm2mm63XyZ8ZD+yk1nQ5V6NQ52tgzwFDiXvxaFTYSeXBLotYeMZ7q83SVre6R1isqSes2unXbSx4tLarR2Y4U2+drVJL1mIpajc/sqYyh9dS+0bqN2narpMdnAAAARrGec0G6EpWyvLTXXJCmYLNPG7LSuua3nLdcJa9HmhKkWSWLjDqLStXQ4teTWSnW3J3GsRcU2HNotreqqjBLDyZYx3IlZ+lJf9cINIt9vdbteius7C2f1obNC/pg1tOq6itFDYARr+5NcwLeJKWnT7AKOo3VvLlJxmP3TstnzjRKd8aqZ+1+tdeosrJZk9LdmtPRhk7OUa7LXg/3zqVQwrh7Px12L+nCQe03f5KSPVo3146mvk+Tcsp1cJvRTo8b+DiDrRvwr1ei8Xu4tGyAVHbtViq82NiBhiq3qaqoWMcnG683vSNYDgAARjOCvxgZosICNPclKiW7XA3t0sSkAu1ab17898PunWia4/F0Xdh3MLarVtvHNi6OzZsXZSeN8ruStKmsoHd9wGnaG/WcORI1LkmzJttlEQRbGnXgiUe04ZhLeR73kHoZvy8XTqjuTIrW5Ser6oUKNZ2u1fHzSZozt1E/qjlnV7J0jjYuHmAocS/J2h42Evl9L9t69+yOmb9Z1a9sVvzJQi19wPqNcS0q0I/uWq6DvmKlh2cgGA26jdr2KreffysAAGB06TUXZHubmo4Ua1lmsersIlOgZosWPJSv3ceau+a3bK5R0aOP6dm+UrMEqrV2sUdlx85ZM+4Yx26ozNfSzT4dWLNEK8pquzrKvVWrstycwXcyC/i0YlG+KsPmBT17rFwrMp9WXViGKACjR8sFo6032aX4CA3OmIRpijce3zYzRIUL66jqmp2mZcbvS5P1oxBR4GWvKgPJyv5aaLLffrTpwAt7dTYqWQ/MtotMJ+p13HhInZ+moN/4XbQ7zrhmZ2iV8Zs2iHG0N1Z7UC0nfVr7yBYdnepRnnuAgO4bO1XkkxYuzxhw8AUAABgdCP5ihBqv+LQcrctzK77f4KzdO9Fs+MflaOUgeyjGutKUm+9ROsENOF37OVV+3bzB5lLetz2abhd3aCpx2x0jzIasW0X/PlPbX6mI3CPa1u+cv0Nw1ufT8bkJmrfYrfQLxfpqzh41zEzSytmJqtvr7XYjcqSKjkvTpnKfauvtoOlParR3S4biI4y+Tt1m7N+fQ2MaAABcf/ZckJ3XLPXG9d5Uo7z5FR1+w6oSmofziQo1aYJSjcfOOTFrvdruDqqh0a7X0/lGvT3Zoz3H7PovrtGsWKnlpXytMq4PUzf2mNNTjdp/qK+D9VDjV900j3b96IR17B8VK9McnNe8V/uPWVUAjCbNajI7kkTd1m8a55bQPL+m3lPyBFuadXx3vlLmrVfVRbuwm2btfsGvGLfRzuy3R3Objhc+plWHorVw25ZudZuazZN0adLFp5WWW6EGO9obbKnXgcIsJW+MNP3P9ROTvFm1p09Yc/R2srMxmO1z1zQlfuUZNc0uVPWLOQPeVwuluHY9rpXzGfULAIBTEPzFCNWqBl+pViyaqaWl/dwYqN+lIp/VI3TO44/3Cmz1paXRpxKPWwn/d2lohDHgRMGT5Xr8Sylae2qK1v1T/wHdDmffqNDf/s0WHXjLLuhmEKNoBx3crFfl3nqlzk1RjJlCOS9JZ8+3alZyiqYvSlPqWxV6zv5uD58hpoDumeo5IruBPYi6oQwEi0rVZG8DAABcLx1zQcbeYRfckaC8FW5j5Zzeftsq0rEa7Q/Nw7lLO7LC5sQc59LCp3Zq3QxruxfjWi5vW04o4GuKnpGlrcbzZbSzJmU/ox0ZYXN65mUp1Vhteqt7lpc+xWVpR1mO5txlnUz0XcnalG9mqOk5PycAZxqrRduszh/WckL1+4qVO3u8dN6rol1mCukejpTrucY4ZS7tJ4tci18bFiVpWYWUWbJP2yMGPc9p984Tmldsd2AJ/e0CpZqdWyp2quy8XW2kaj+nuorN+sZmOw1/X+p3qcxozqY+yqhfAACchOAvRoiwoNKbtap+cU3ogtpM61W3vVC7L4Qq9XJ0r9kz3TDOrUf7SWMTGnHX0VA4XKF1yUZDwRB8o1hPvtRzzilgtAuqoSxLSUueUYvZ0/fwTmVPjdyvelKu1/5umKM6anSwOEfx/+nVqoz1qrqGuawClTtVctGthxfb39so4/yikrVokfHdjHErb+UEVT21uY+e3O/X4FNA7xhqdmkAAICRrN24PqypUMnm9VqVlaYHv5Akl3EdGK7pzRMKKFGL0iLNrDlBEz9pr/Y0eZqm98h6MvEu6xhT7uuRcjVqiqYOokNipykJmt5zxNoE41zMx8uhLQCjSqxi+/otCTPh7q4RrdF3hLdloxUzNVl5Zc/IHPTaVFPbo3Ntmyq9XgVmuJXeR8bnFv8WpSR5dDR2ufb4vdpk3x/qrU3TPc9r03y7A0vob2dox2azA0q9Xjs23J2VP6g45e7vaNOeUH2NVzuyp+htMw1/gb/PVNWh+2rjwtrmAADAEQj+4sbr2QMxeqwmzchSXoZ9V6C9Vm+csFa7CXj1kte62I6Znxx57t5evRuNi/W4BGV7loXmkTEd/0mkgwOjlZm6KkMLng0qvdyvg1vSNCly3LeX6HHjFT/foz1FGZrY4tWhflLpfbBRrI2qrD6nOStzrO9te72efc6v2Ie70nJNWr5Fea6A3r7Qz0ROTuTzRB6FHL4s9w5yjimfVkR6ftiyoIQRMwAAON5Fv9Z+aZoWZG9R0W6vDhxrDmVciXyVFa3ojtHBADDsxuqjZmeRxlM6FWk06ulTauivs0mHqATNmGKvhzu/V5XmKNalS61OIj2crfQo7es1une9T9VlXRkLevpojNkwjVP8fREConYHlK7U1CNRtGLudCk1r1zbMyeoxesPzWHci31fbaLbHfmeGgAAGLUI/uKGaypbrseL/Gpo6bj9EFTgZIWKKjrSPU/QJz5hr4YJHParKtRYGKtFc/tI53OmVI9nF6vqZKuCdsMieLFRu4v3GA0Ky8Q7+7jaB0ahwKHNWlEu5b1YoTwzFdaI5FJ2mU+7jEZoyJlTalKy8jxh3+Mol3LLdirTNcjI9aAMPu3zUOcvHkzQtv9jhvfSHmDZafY071/4iO7+loO54XNEAQAAJzpaXKDKC3FKf2KnDtbUqNZYzBSmu9K7BzU+EWu2i2p0+HCE0Wzt9XrjlL0OAB/ArGlmu8+vl+3O/F3aVOnzW4HdPkbtdmqv1WtmP/6PjtVHrZKQuu95VReXo69Fygx3ulR/VXBCs7Z5tSMjTv21NGOnTNFENevokQidZc+d01njIX7y6G9LWffVJij1iwO94QAAYLQh+Isb73KLjpZ6tGD2NDtIMk0JS7aoqqMTZWySHuh1Hdqmw0dqrNVxC/SF/qZyqSnViiVJcrmsAIwr0a0N/o5Uz+M1ZyYXuXCKVu1/0adAStYg5vdtVtnq9dr9RrMCnf0u2tRwqFjL8ip0NipRMz5nl38AoZTrA80DPDlDuw4XK71HusBrJq04YiC017It2X7CIAzimKSSBgAAN0Iw0CbF3KvpcxMVf+d4xY57V8e3Z2jVT2K7jYyLSUrSrCjp6IZHtPblxq7Os2/VqCT76yojYQiAYRAzL1mpod+ax/RkzTkrC0HwnI4WPqa1R6TYh9NC+y1+PRnq0N9mZyswBwv4tHbJcu0+L81KTlJnd/72GlVWNmv6Urem20XhjlbsUsNkt74WcX7fHmYka2Gc1PDscq2o6Pg9DOpsTamWrfcqMC5NX0gM1RwZTpdrVUGF6po73ifjbC82qqooS6t2n5NmJqj3QGn7vtpdyZrX15zuAABg1CL4ixvvZvsxkiiXsos8vdPPtL+u116116e5Il7Yh/R3bEN89tPK6ydwDIwuJ/TG68bDofzO0aa9ltV+q6oheMarDY+kKeE+e999iVrgKdXxlvGatS5fmXfZFQEAADBqTZmWaKV+TrY7296XosfLgvqaZ0H3bCJ3ZmjdSpfR1mpWZb67q/Ns8nIVnZ6phbSbAAyHGLfyVpm/NY0qy06Rq/N3qVGKTdM3wzNCGd4OdehPtOqFBgvkq7IxqOgZHq3L6JqjPOCtUGUgWenpkeYtb1bDibbQ6N8FoeNEWLpNa5SgvHUZmqhzqtrY8Xs4TQ9mF4fayws3rlfqQOmYrqGAf70SjfNZ2tkr55LOVG7R0nkd75M18GFFaa1aYhO16QnztfTQcV9tZkLf99QAAMCoRfAXN9yk7FLtyU/T9Du7el9Gx8ZpVmaB9tZ4tW5mhF6Z9fU6YfdEn2RchPd5zR2Xo13la7QwYbxiOgLId4zXpNkZ2lRZo4P5iQOmTwWcKU6Z3ypQeoTvxvbDfu3JHHDoMAAAAEaBiZnPaI8nSZPshk/03UnKK39eufda2+HicytUXejW9Fg7IWrUWE2a69Gelws1n4YTgGEyKcerV7eF/dYYbdHpaWu0x1eo1G4ZoZK00vxNCrtfFBOXqMyNFar5xxzFdw4UqNdzu2oU43Yrfbh+q5IKdNC+n2SdZbRiE9K07oVXtH0wo4evp8kZ2rqx+/tk3VcrVPWRckVs3tv31eI/E+F/BgAAYNQbc9VgrwMAMChVq4c2L268xzc888uao5o9Z5Tn8yp3sl02aOacvx4dsLcG5hrE32lWyaI0FXVMUT4Ql0fVA6XBHqTQZ3BmeI43nMcCAAAAgOvqyHolLD+hzEqf8pjZCwAAgOAvAAAAAAAAgNGoTZW5iVqrzaovcZPdDQAAwEDwFwAAAAAAAAAAAAAcgDl/AQAAAAAAAAAAAMABCP4CAAAAAAAAAAAAgAMQ/AUAAAAAAAAAAAAAByD4CwAAAAAAAAAAAAAOQPAXAAAAAAAAAAAAAByA4C8AAAAAAAAAAAAAOADBXwAAAAAAAAAAAABwAIK/AAAAAAAAAAAAAOAABH8BAAAAAAAAAAAAwAEI/gIAAAAAAAAAAACAAxD8BQAAAAAAAAAAAAAHIPgLAAAAAAAAAAAAAA5A8BcAAAAAAAAAAAAAHIDgLwAAAAAAAAAAAAA4wJirBnsdGDa/OPsrew0AAAAAAAAAAACR3DPxk/YaMDwI/gIAAAAAAAAAAACAA5D2GQAAAAAAAAAAAAAcgOAvAAAAAAAAAAAAADgAwV8AAAAAAAAAAAAAcACCvwAAAAAAAAAAAADgAAR/AQAAAAAAAAAAAMABCP4CAAAAAAAAAAAAgAMQ/AUAAAAAAAAAAAAAByD4CwAAAAAAAAAAAAAOQPAXAAAAAAAAAAAAAByA4C8AAAAAAAAAAAAAOADBXwAAAAAAAAAAAABwAIK/AAAAAAAAAAAAAOAABH8BAAAAAAAAAAAAwAEI/gIAAAAAAAAAAACAAxD8BQAAAAAAAAAAAAAHIPgLALhmqlZPUdyiUjXZ20Pn16rJU7SgpNnaPJSvuMlulZy2NofGOlbcYJdBnHew2acNWWlKTLCfc3+Slq4u1/EWu0KYD/5edDecxxvucwMAAAAAAAAA3BgEfwEAg9QjENvDyA8gJmv76VNqHsSyI81+Sj8Ch9Yr5aH1apiar72vWc9r3P+M5gXLtWxxlnY32hUBAAAAAAAAALhOCP4CAK67UKA4fJRtpGUkB5Lba/TkRq+is8q1Ny9JE++wiqPvSlB2yfPKG1+rDU9V6KxVPAjNKllkvObVfnv7g2kqcUd+T8OWVYfsygAAAINgXb/lq8reHjYBv9bOniJXtlcRkqcAAAAAAIaI4C9GhpZala3O6EqdmpCklKwt2n2yza5gGUxAw1zCgxrBZr9KnshSyuxpnftds9O0bLNPTUG7EjBqBNVQlqXE/gKjwWYdKOj6PrlmZ2hVWa0C9u5uhlJ3GKVus0bKVntcUlpx54jb0LbLo2pze3+OJtn1R5wjflVejFPqggS7IFycMpclSa/7dfSCXXRDpGmH/b5GWrbPt6sBAAAAwHUWeL1cq9KT5Ardp5mmxPT1OtAc4SZNaOofq73acxmwQ+uR9UqYnKaienu7vVXHS5Yr5X77GPdb94bOttv7I2g5Zp1ngst6TsIS4zzfsncOVYtfG+YNsiPuUOqaOu6rdby2hMhTEg3mvlpf2b4AAMDoQfAXI4Bfa5Oy9KSvXi3v2EXvtKrpWIU2LHnIuNDtHgAeGr/+1zyPiry1amrpakQEW5p1fHe+UuZt0dF+LvKBkaSlvkJrF83UgsLavkdFtDeq5JE0rars+j4FW+p1oDBLyU/4uwd1h1L3wyjKfozksvl7Eq3b+qgTMzbG+G9AgQ/9mwgAADCAmGRtPXZKjWVuxdpFAJwtcChfyY8+rQP1rbLu1ASN9q5Xqx7KUEmP6XMCbe+3UdWmSq9XgRlupYf67Lapas0SLSuuUVPHIQPWvaEHvxK5c3VDaYaSsqzzDNj3jgInjfMsHmLGpmCzqoqW68Ekj3YPFFcdSt0wVU/Z99U6Xts7rarzPa1li/NVddEuG6yb7UcAADBqEfzFiPBunwHYVh14rmJoqV+jEjXjc/b6QM5X6Nnyc/YGMFLVaMNssyf0FlUGkpQ6wy6OoKmsQEX/majcYq8aG80RnidUv69Q6XFSi7dC+8NGog6lbriG4rSIvYNX+IydjcVK6VnWj3MtxvfvTHPnd/zMuRE0Ue5n4voeeXxztPGfYJ+/XdYNihjFmDFgAAAAAIClvUZFW3xqiYpTeqHdFn2zWruyXaEOykXPert1RH67xez6HDmrUb/ZjM7vVaVfSl26VBPNbX+hVhyKUfrGCr36pvX8Rv9O5c0eL53cpd01oWd1eeNpfaOoXkH7POtDzzmhV19co9Qh9FRpKs9SQkKaVpTWKjYlyTqXPgylbi+xSaG2vXWexmur9WpTsvHaWnx6wddqV5Im5Xo737+ey97sOOM4bq18xHgEAACjGsFfjAi3udzavq9WjaELTjMAtUazOkbUhQVX+rxIbdypTPviO37lemXeZa2bbnOlKc+4AK6tt+t2NCpsdadGULAJiCio4B0JyjQaqbU/KNbiT9rFkYxN0Q5fufLmuxQd+g5FK2ZqmrauTDbWa9XwpllmG0rdMPEeX+/voLHsSDN2dqRsDi/rR+Bim2Q09k/Z3/OgOQL59DmdsTZvkDb9tiMLQV/mJit9XLMqX+p5h8DUrN17jPKZyZpzp10EAAAAAJCqfdrdIk3P26mti+22aPQEzcl/XlvnGut+X++OyONijNbq0NR9z6u6cW49vHisXTJBeft82pqRoIn2waLvTlJuvluTjDZgXWP4MNs2Ve4qV5PGK73EGzrPmNBzojVxRpZ2PGG2mQfpkjRxvkc7Dr+uvbnT1G//4KHU7SH1iZ2htr11nsaZjnMp8ymP5hjrgcGkpDpfoaLyZs3x5CuVTswAAIx6BH8xAiRr677NWjh1rHUxH7ykt3/d2tnTM3aaa8B5P+uKCkONB8VmKG95eA9F49j7C5VrXADH3mEXmY2KvCyl2pvAyGf8O/aXa5PRSI3tI81wh0kZOUodZ2+ECbxjJtNyaeLd1rZpKHWvjUb9/MxYxYzz69DLZnr3ep38mfHQfkpNp0MVOnWONvYMMJS4F79WhY1EHtySqLVHjKf6PF1lq3uk9YpK0rqNbt32kkdLi2p0tiNt9vkalWQ9pqJW4zN7KmNoPbVvtG6jtt0q6fEZAACAUaznXJCuRKUsL+01F6Qp2OzThqy0rvkt5y1XyeuRpuJpVskio86iUjW0+PVkVoo1d6dx7AUF9hya7a2qKszSgwnWsVzJWXrS3zUCzWJfr3W73gore8untWHzgj6Y9bSq+pwDBcBIV/emOQFvktLTJ1gFncZq3twk47F7R+QzZxqlO2PVs3a/2mtUWdmsSeluzeloQyfnKLdrHECXdy6FUk/f++mwe0kXDmq/+ZOU7NG6uUMNO3c3KadcB7cZbe+4gY8z2LoB/3olGr+HS8sGyAvdbiXVjo0daKhym6qKinV8svF60zuC5QAAYDQj+IuRISosQHNfolKyy9XQLk1MKtCu9ebFfz/s3ommOR5P14V9PwKH/Dpur8+aNs1eAxyqvVHPmSNR45I0a7Jd1peh1P2gLpxQ3ZkUrctPVtULFWo6Xavj55M0Z26jflTTPR1752jj4gGGEveSrO1hI5Hf97Ktd8/umPmbVf3KZsWfLNTSB6zfL9eiAv3oruU66CtWelgGglGh26htr3Kv9ecPAACum15zQba3qelIsZZlFqvOLjIFarZowUP52n2suWt+y+YaFT36mJ7tKzVLoFprF3tUduycNXenceyGynwt3ezTgTVLtKKstquj3Fu1KsvNGXwns4BPKxblqzJsXtCzx8q1IvNp1YVliAIwerRcMNp6k12KjzC6NCZhmuKNx7fNDFHhwjqqumanaZnx+9Jk/ShEFHjZq8pAsrK/Fprstx9tOvDCXp2NStYDs+0i04n60D2j1PlpCvqN30W744xrdoZWGb9pgxhHe2O1B9Vy0qe1j2zR0ake5bkHCOi+sVNFPmnh8owBB18AAIDRgeAvRqjxik/L0bo8t+L7DebavRPNhn9cjlYO1EOxvVXHS7KUvNpvXazHZuhrGeNDuwBHaj+nyq+bN9hcyvu2R9Pt4ogGWbffOX+H4KzPp+NzEzRvsVvpF4r11Zw9apiZpJWzE1W319vtRuRIFR2Xpk3lvq608j+p0d4tGYqPMKI6dZuxf38OjWkAAHD92XNBdl6z1Fcod6pR3vyKDr9hVQnNw/lEhZo0QanGY+ecmLVebXcH1dDXbDnnG/X2ZI/2HLPrv7hGs2Kllpfytcq4Pkzd2GNOTzVq/6FBTr1T41fdNI92/eiEdewfFSvTHJzXvFf7j1lVAIwmzWoyO5JE3dZvGueW0Dy/pt5T8gRbmnV8d/7/z94fwER15/v//2vDJjT9RhoT2XSj3t1Licmo/QV0E3RNpq73Dui/oxiHpVkMm9JLA17MDiuRrzXyU7/6b/3R4E+aEiXlL0250l2+TlN1Nopz/9ZOYi35b4HciiRenJtGzPUn5podkmanWXL/58w5A8MwwNBShenzkZzOmTOfOZwZd86ez3m/P++PCrc2qPuxvXGSkDo+CCjLY/QzZyxfPKqbja+q9nKmdpw8PqntUMg8SIdyH78td02nBuxob2SkXxcbK+Q6kmz6nycny3VMPXf6rDl6x9nVGMz+uSNfBb9+R0ObGnX1w6pZ76tFS1w7XtPebYz6BQAgXRD8xQL1SAP+Vu0p3qCS1hluDPSfVZPfygjd/NprMwe2RgI6vMul3c09inYjsl060XkopZHCwGIUudWu1/6xUAdur9bB/92ZvMSVLbW2KYyiTTm42a+u8/0q2lKoLLOEcp1T9+4/0kZXodYVu1X0Vafes3/b82eOJaATSz0nZXewU2jbvc9oV9yqIfs5AADAkxKbC3J8Kpxn81S3x2OsDOvhQ2uTbgR1wegoras7q9MVcXNiLnVox1tndHC99XwK41qu7mRVNOBrylxfoRPG+zUm5Va+o9NlcXN62tPvDH01ucrLtHIqdLqtSpuXWweTudylo/UeZSlxfk4A6WmJik9ayR/W0qf+j5pVs2mZdN+nprNmCekE19r13mCOyktmqCJn3h8qdmp3p1Te8pFOJQ16DqvjTJ+2NtsJLNG/fUhFZnJL5xm13bebLVRjw+rtPKbfH7PL8E+n/6zajO5s0W8Z9QsAQDoh+IsFIi6o9GWPrn64P3pBbZb16j3VqI4H0UZTXD9vZqYblnr02xnK2IQ/b1aJy6uOQXu+k037delas0q/9zlNgachooG2Cjl3vaMRM9P3yhlVrp0ur3oubedPuOuMWh579MpO+3ebYfzNDJeKi41OfJZHdXtXqPutY9Nkcn9bqZeAPj3X6tIAAAAL2ZhxzRfsVMuxBtVWuPXSr5xy1PjsFy1DX/YprAIVu5PNrLlCK39qryZala91CVVPVi639rH6xYSSqxmrtXaGhMQpVudpXWKy7grjWMzHv0WfAVhUspU93bkkzoqfTYxozXw2vn+aqay1LtW1vSNz0OtQsCchuXZUXT6fwus9Kp2m4vNI4LgKnV5dz67WuYBPR13TVYMb1Trv+zq6zU5gif7tMp0+Ziag9OuzG/OdrPxd5ajmQqxP26f+oE+nK1froVmG/5Bd/S6J6H21pXF9cwAAkBYI/uLpS8xAzFyi3PUVqiuz7wqM9eiLPmt1krBPf/RZF9tZ21zTj+AdbNXuilb1mqWClpvlzvwKtldozfcf3wKeArN0VZm2vxtRaXtAl467lTvt/9bn0nay7zaKdVBdV4e1eW+V9bsd69e77wWU/cpEWa7c6uOqc4T18MEMEzmlI783+Sjk+KXal+IcU37tSfb+uGV7CyNmAABIe48DOvCP+dpeeVxNHT5dvBGKVlxJfpWVqczY6GAAmHdL9JyZLDJ4W7eTjUa9c1sDMyWbxGTkaf1qez3e/fPqMkexlpRYSSIJ7nV55f5dUC80+HW1baJiQaLnssyOaY7WvJgkIGonoEyUpl6IMpX1vENFde06Vb5CI75AdA7jKez7ais9HqriAQCQZgj+4qkbaqvWa00BDYzEbj9EFL7VqabOWLnnFfrJT+zVOOErAXVHOwtLVLxlunI+IbUcaNaA0S5ryyF9+q9mubOcGeeWARaz8OVj2tMu1X3YqTqzFNYM5tJ2fjlU2ebXWaMTGnX3tobkUp037nec4VBN2xmVO+bz15p62ee5zl+cStB25n3GZ2nPspwxM81nllvjS/7ehOVSTfwcUQAAIB1dbz6krgc5Kn3jjC4Fg+oxFrOE6dnSyUGNn2SbUZCgrlxJMpptrF9f3LbXAeA72Jhv9vsC+thO5p8wqi5/wArsTjNqd9xYjz4zBwk8t0TPWVuiev/gU29OlV5PVhnuTqv++VCfNp706XTZzPeFslev1kqFdP1akmTZ4WHdMx7WrFr8fSnrvtoKFf3DbF84AABYbAj+4un724iut3q1fVO+HSTJV96u4+qOJVFmO/XLKdeho7pyLWitLt2uX00X+/3Cpy47hhy+dlwvOaYGZFKb1xNYDB7pwod+hQsrZpzf1zKXtt9e0cnbs88DvKpMZ680qzShXOD3xt2cNBA6ZTnpst+QghT2SSlpAADwNETCo1LWC1q3pUBrnl+m7KV/1c1TZar9c/akkXFZTqc2ZkjXD/9GBz4eVMQelRf5KqiWyt+pjYIhAOZB1laXiqLnmlf1ZnDYqkIQGdb1xld14JqU/Yo7+roloDcrm9V9a9SuVmAOFvDrwK5qddyXNrqcGh+8OxZUV1dI60o8Wmdvine986wGVnn0etL5fROsd2lHjjTwbrX2dMbOhxHdC7Zqd4NP4aVu/aog2nJhuNOu2kOd6g3FvifjaB8PqrupQrUdw9KGPE0dKG3fV1vu0tbp5nQHAACLFsFfPH0/th+TyXCossk7tfzM2Of67FN7Pd+R9MI+6uFINCMT+GHo0xefGw+X66cmOcSW8WSHubQFAADAYrU6v8Aq/eyyk21fLNRrbRG97t0+uZrI82U6uNdh9LVC6qr3yGEnzjpc1Wq6s0E7pku4BYC5yPKortY81wyqrbJQjvHz0qCU7db/iq8IZXgYbNWeXQVWu+hggXp1DUaUud6rg2UTc5SHfZ3qCrtUWpps3vKQBvpGo6N/t0f3k2SZNK1RnuoOlmmlhtV9JHY+zNdLlc26ObJMO440qGi2ckzfo3CgQQXG8ZSMZ+V8o7tdx1WyNfY9GefuAo/2tPZoJLtAR98wP0uC2H21DXnT31MDAACLFsFfPHW5la06V+/Wuucnsi8zs3O0sfyQzgd9OrghSVZmf7/67Ez0XOMifLpr7qHQXXsNAAAAAH54Vpa/o3Nep3LtTlPmz5yqa39fNS9Yz+OtqenU1UaP1mXbBVEzlih3i1fnPm7UtqcY6ACQXnKrfPr0ZNy55tllWufer3P+RhVNqgjl1F7znBR3vygrp0DlRzoV/JcqrRkfKNCv984GleXxqHS+zlXOQ7rUvl878pbZJaIzlZ3n1sEP/qRTqYwefpJWlenEkcnfk3VfrVFXr7WrPFm1L/u+2pqfJ/k/AwAAsOj96L8N9joAACnp3je3eXHXeP3zM7+sOVLZe1d1fp9qVtnbUmbO+evVRfvZ7Bwp/J2QWordaopNUT4bh1dXZyuDnaLov8Hd+dnffO4LAAAAAJ6oaw3Kq+5TeZdfdUxfCwAAQPAXAAAAAAAAwGI0qq6aAh3QMfW3eKatDAcAAPBDQvAXAAAAAAAAAAAAANIAc/4CAAAAAAAAAAAAQBog+AsAAAAAAAAAAAAAaYDgLwAAAAAAAAAAAACkAYK/AAAAAAAAAAAAAJAGCP4CAAAAAAAAAAAAQBog+AsAAAAAAAAAAAAAaYDgLwAAAAAAAAAAAACkAYK/AAAAAAAAAAAAAJAGCP4CAAAAAAAAAAAAQBog+AsAAAAAAAAAAAAAaYDgLwAAAAAAAAAAAACkAYK/AAAAAAAAAAAAAJAGCP4CAAAAAAAAAAAAQBog+AsAAAAAAAAAAAAAaeBH/22w14F58x/3/tNeAwAAAAAAAAAAQDJ/v/Kn9howPwj+AgAAAAAAAAAAAEAaoOwzAAAAAAAAAAAAAKQBgr8AAAAAAAAAAAAAkAYI/gIAAAAAAAAAAABAGiD4CwAAAAAAAAAAAABpgOAvAAAAAAAAAAAAAKQBgr8AAAAAAAAAAAAAkAYI/gIAAAAAAAAAAABAGiD4CwAAAAAAAAAAAABpgOAvAAAAAAAAAAAAAKQBgr8AAAAAAAAAAAAAkAYI/gIAAAAAAAAAAABAGiD4CwAAAAAAAAAAAABpgOAvAAAAAAAAAAAAAKQBgr8AAAAAAAAAAAAAkAYI/gIAAAAAAAAAAABAGiD4CwD43nTvW62c4lYN2c/nLqDaVau1vSVkPb1cr5xVHrXcsZ7OjbWvnFSXFI47EvLrcIVbBXn2e37hVMm+dt0csRvE+e7fxWTzub/5PjYAAAAAAAAAwNNB8BcAkKKEQGyChR9AdOnUndsKpbCcdttvmUH4coMKX27QwNp6nf/Met/ghXe0NdKu3Tsr1DFoNwQAAAAAAAAA4Akh+AsAeOKigeL4UbbJloUcSB4L6s0jPmVWtOt8nVMrn7U2Zy7PU2XL+6pb1qPDb3XqnrU5BSG1FBufeV/Afv7dDLV4kn+ncUvtZbsxAABACqzrt3p128/nTTigA5tWy1HpU5LiKQAAAACAOSL4i4VhpEdt+8omSqfmOVVYcVwdt0btBpZUAhrmMl1QI3KrXbs3zdwGWNgiGmirUMFMgdFISBcPTfyeHJvKVNvWo7D9cnIp7HceFZ20Rspe9Tokd/P4iNvoc4dXV83nF6qUa7dfcK4F1PU4R0Xb8+wN8XJUvtspfR7Q9Qf2pqfCrdP295psObXNbgYAAAAAT1j483bVljrliN7HyVdBaYMuhiL2q3GiU/9M3O+JX2a9r3OtQXmr3Grqt5+PPdLNlmoV/sLexy/c2n3Mr3tj9utJjNywjjPPYb0nb5dxnF/ZL87VSECHt6Z4P2oubU2x+2qxz5aXfEqiVO6rTVftCwAALB4Ef7EABHTAWaE3/f0a+dre9PUjDd3o1OFdLxsXupMDwN+KGQw7VibnrreTzsUJLAYj/Z06ULxB2xt7ph8VMTaolt+4Vds18XuKjPTrYmOFXG8EkgaAU9rvD1GG/ZjM38ybEpl6Zpo2WUuyjP+GFZ454g4AAIAsl07cuK3BNo+y7U0A0lv4cr1cv31bF/sfyQr3Rox+qU+1L5epJWH6nPDot+1UjarL51N4vUel0ZzdUXXv36XdzUENxXYZDulmR71e+nXyJOiB1jI5K6zjDNsB4vAt4zib51ixKRJSd1O1XnJ61TFbXHUubeN0v2XfV4t9tq8fqdf/tnbvrFf3Y3tbqn5sPwIAgEWL4C8WhL9Om2X5SBff65zbSMSMAq3/P+x1w0hXtfLy3KrtMC6C7W3A4hLU4U1mJvRxdYWdKlpvb05iqO2Qmv6fAtU0+zQ4aI7w7FP/R40qzTF+C75OXZg0EjX1/cYbaHYnzQ7e4zdeHGxWYeK2GQyPDEt3Q+O/8bvDC2ii3J/nTD/y+MeZxn8i0567rBsUWcoyY8AAAAAAAMtYUE3H/RrJyFFpo91v/fKqzlY6osnMTe/6JiUtPxwx7+Qkr2o0YzWj++fVFZCKSkq00nweaNSey1kqPdKpT7+03j8YOKO6TcukW2fVEYy+a8IXb+v3Tf2K2MfZH31Pnz79cL+K5pCpMtReEb0ntae1R9mFTutYpjGXtlNkO6P3AazjND5bj09HXcZnG/HrA/8ju5GUW+Mb//4Sl/OVOcZ+PNr7G+MRAAAsagR/sSA84/Do1Ec9GoxecJrBqv3aGBtRFxdcmfYidfCMyu2L7zV7G1S+3Fo3/cXoKMQyNDPteTmBxSWiyLN5Kjc6qT3/2qydP7U3J7OkUKf97arb5lBm9DeUqay1bp3Y6zLWezTwpbktZg77jbPG60/6OzztNl6MlWyO3zaD8ONRyejs37Z/oxFztPKdYd21nj4lo/pLrArBdLa4VLo0pK4/Jt4hMIXUcc7YvsGlzc/bmwAAAAAA0lW/OkakdXVndGKn3W/NXKHN9e/rxBZjPeBPSFo2LM0yerZz0/sHn3qXevTKziX2lhWq+8ivE2V5WmnvLPNnTtXUe5Rr9AF7B+OH2Y6q62y7hrRMpS2+6HFmRd+TqZXrK3T6DbN/naJvpJXbvDp95XOdr8nXjPnBc2mboOiNM9H7ANZxGke61KHyt7zabKyHUylJdb9TTe0hbfbWq4gkZgAAFj2Cv1gAXDrx0THtWLvEupiPfKOH//VoPNMzO98x67yfvU2N0c6DsstUV52YoZip7Dy3DrZd1fnXHfY2YDExfiOBdh01OqnZM5UiNuSWValoqf0kTvhrs5iWQyt/Zj23pL7f78eg/v3uEmUtDejyx2Z5937d+jfjYey2hu5EG4wbH23snWUo8RQB1caNRE5tKdCBa8Zb/d6JbfsSynplOHXwiEfP/NGrkqag7sVKbN8PqqXiVTU9Mr7bt8rmlqn9tE0ate1RS8K/AQAAWMQS54J0FKiwujXplDiRkF+HK9wT81turVbL58mm4gmppdhoU9yqgZGA3qwotObuNPa9/ZA9h+bYI3U3VuilPGtfDleF3gxMjECz2Ndrk6634rZ95deBuHlBX6p4W92UdAIWrd4vzQl4nSotXWFtGLdEW7c4jcfJSct37w5Kz2crsfWMxoLq6gopt9SjzbG+rqtKNcluCX39TbT09At/F3cv6cElXTBPSS6vDm6Za9h5styqdl06afTTc2bfT6ptw4EGFRjnw5K2WepCj1lFtbOzZxuqPKrupmbdXGV83tJYsBwAACxmBH+xMGTEBWheLFBhZbsGxqSVzkM622Be/M/Azk40bfZ6Jy7sbbk1nerpalSlc8WcM0WBtDA2qPfMkag5Tm1cZW9bCB70qfduoQ7Wu9T9QaeG7vTo5n2nNm8Z1CfBYbuRZXy0cfMsQ4mncOlU3Ejkb72cnJrZnbXtmK7+6ZjW3GpUyS+t85ej+JA+WV6tS/5mlcZVIFgUJo3a9qlmIf1vBQAAfCdT5oIcG9XQtWbtLm9Wr73JFA4e1/aX69VxIzQxv2UoqKbfvqp3pyvNEr6qAzu9arsxHA2gmPse6KpXyTG/Lu7fpT1tPROJcl/1qK2mKvUks7Bfe4rr1RU3L+i9G+3aU/62eu3jA7C4jDww+nqrHFqTZHRpVl6+1hiPD80KUfHiElUdm9zabZxfhqyTQlLhj33qCrtU+Xp0st8ZjOriB+d1L8OlX26yN5n6+nXTeCja5lYkYJwX7cQZx6Yy1RrntBTG0T5dYxGN3PLrwG+O6/par+o8swR0vzijJr+0o7ps1sEXAABgcSD4iwVqmda4q3SwzqM1M45ItLMTzY5/TpX2kqEITDY2rK7fmTfYHKr7v71aZ2/+Lmac83cO7vn9urklT1t3elT6oFn/VHVOAxuc2rupQL3nfZNuRC5UmTluHW33q6ffDpr+Oajzx8u0Jsno66KTxusXquhMAwCAJ8+eC3L8mqW/UzVrje2hP+nKF1aT6Dycb3RqSCtUZDyOz4nZ49MpT0QDg3a7RPcH9XCVV+du2O0/3K+N2dLIH+tVa1wfFh1JmNNTg7pwebqdJQgG1Jvv1dlP+qx9f9KscnNwXui8LtywmgBYTEIaMhNJMp6ZMTl/JDrPr2nqlDyRkZBudtSrcGuDuh/bGycJqeODgLI8Rj9zxvLFo7rZ+KpqL2dqx8njk9oOhcyDdCj38dty13RqwI72Rkb6dbGxQq4jyab/eXKyXMfUc6fPmqN3nF2NweyfO/JV8Ot3NLSpUVc/rJr1vlq0xLXjNe3dxj01AADSBcFfLFCPNOBv1Z7iDSppneHGQP9ZNfmtjNDNr702L4EtIF1EbrXrtX8s1IHbq3Xwf3cmL3E1JymMok05uNmvrvP9KtpSqCyzhHKdU/fuP9JGV6HWFbtV9FWn3rN/2/NnjiWgE0s9J2V3sFNo273PaFfcqiH7OQAAwJMSmwsy+1l7w7N5qtvjMVaG9fChtUk3groQnYfzrE5XxM2JudShHW+d0cH11vMpjGu5upNV0YCvKXN9hU4Y79eYlFv5jk6Xxc3pWVehImN16KvJVV6mlVOh021V2rzcOpjM5S4drfcoS4nzcwJIT0tUfNJK/rCWPvV/1KyaTcuk+z41nTVLSCe41q73BnNUXjJDFbmRgA4XO7W7Uypv+UinkgY9h9Vxpk9bm+0ElujfPqQiM7ml84za7tvNFqqxYfV2HtPvj9ll+KfTf1ZtRne26LeM+gUAIJ0Q/MUCERdU+rJHVz/cH72gNst69Z5qVMeDaKMprp83M9MNSz367WxlbIAfjIgG2irk3PWORsxM3ytnVLl2YRU9D3edUctjj17Zaf9uM4zjy3CpuNjoxGd5VLd3hbrfOjZNJve3lXoJ6NNzrS4NAACwkI0Z14fBTrUca1BthVsv/copR43PftEy9GWfwipQsTvZzJortPKn9mqiVflal1D1ZOVyax+rX0wouZqxWmvnkpC4Ok/rEkesrTCOxXz8W/QZgEUlW9nTnUvirPjZxIjWzGfj+7KZylrrUl3bOzIHvQ4FexKSa0fV5fMpvN6j0mkqPo8EjqvQ6dX17GqdC/h01GX0QZMa1Trv+zq6zU5gif7tMp0+Ziag9OuzG/OdrPxd5ajmQqxP26f+oE+nK1froVmG/1Bg2lLV0ftqS+P65gAAIC0Q/MXTl5iBmLlEuesrVFdm3xUY69EXfdbqJGGf/uizLraztrmmzPUL/DCZpavKtP3diErbA7p03K3c7yHu+91GsQ6q6+qwNu+tsn63Y/16972Asl+ZKMuVW31cdY6wHj6YYSKndOT3Jh+FHL9U+1KcY8qvPcneH7dsb2HEDAAAae9xQAf+MV/bK4+rqcOnizdC0Yorya+yMpUZGx0MAPNuiZ4zk0UGb+t2stGod25rYKZkk5iMPK1fba/Hu39eXeYo1pISK0kkwb0ur9y/C+qFBr+utk1ULEj0XJbZMc3RmheTBETtBJSJ0tQLUaaynneoqK5dp8pXaMQXiM5hPIV9X22lx8M9NQAA0gzBXzx1Q23Veq0poIGR2O2HiMK3OtXUGSv3vEI/+Ym9Gid8JaDuaGdhiYq3zFDOB/gBCV8+pj3tUt2HnaozS2EtSA5Vtvl11uiERt29rSG5VOeN+x1nOFTTdkbljvmMXKde9nmu8xenErSdeZ/xWdqzLGfMTPOZ5db4kr83YblUEz9HFAAASEfXmw+p60GOSt84o0vBoHqMxSxherZ0clDjJ9lmFCSoK1eSjGYb69cXt+11APgONuab/b6APraT+SeMqssfsAK704zaHTfWo8/MQQLPLdFz1pao3j/41JtTpdeTVYa706p/PtSnjSd9Ol2WM+Ocw9mrV2ulQrp+LUmy7PCw7hkPa1Yt/r6UdV9thYr+YbYvHAAALDYEf/H0/W1E11u92r4p3w6S5Ctv13F1x5Ios5365ZTr0FFduRa0Vpdu16+I/QKGR7rwoV/hwop5mN93fhSdvD37PMCrynT2SrNKE8oFfm/czUkDoVOWky77DSlIYZ+UkgYAAE9DJDwqZb2gdVsKtOb5Zcpe+lfdPFWm2j9nTxoZl+V0amOGdP3wb3Tg40FF7FF5ka+Caqn8ndooGAJgHmRtdakoeq55VW8Gh60qBJFhXW98VQeuSdmvuKOvWwJ6s7JZ3bdG7WoF5mABvw7sqlbHfWmjy6nxwbtjQXV1hbSuxKN19qZ41zvPamCVR68nnd83wXqXduRIA+9Wa09n7HwY0b1gq3Y3+BRe6tavCqItF4Y77ao91KneUOx7Mo728aC6mypU2zEsbcjT1IHS9n215S5tnW5OdwAAsGgR/MXT92P7MZkMhyqbvFPLz4x9rs8+tdfzHUkv7IEfnj598bnxcLl+0ojTScu+gNUUAAAAPwir8wus0s8uO9n2xUK91hbR697tk6uJPF+mg3sdRl8rpK56jxwO6/rR4apW050N2kHCLYD5kOVRXa15rhlUW2WhHOPnpUEp263/FV8RyvAw2Ko9uwqsdtHBAvXqGowoc71XB8sm5igP+zrVFXaptDTZvOUhDfSNRkf/bo/uJ8kyaVqjPNUdLNNKDav7SOx8mK+XKpt1c2SZdhxpUNFs5Zi+R+FAgwqM4ykZz8r5Rne7jqtka+x7Ms7dBR7tae3RSHaBjr5hfpYEsftqG/K4pwYAQBoi+IunLreyVefq3Vr3/ET2ZWZ2jjaWH9L5oE8HNyTJyuzvV5+diZ5rXIQ/xWtuAAAAAFiwVpa/o3Nep3LtTlPmz5yqa39fNS9Yz+OtqenU1UaP1mXbBVEzlih3i1fnPm7UNjpdAOZJbpVPn56MO9c8u0zr3Pt1zt+ookkVoZzaa56T4u4XZeUUqPxIp4L/UqU14wMF+vXe2aCyPB6Vzte5ynlIl9r3a0feMrtEdKay89w6+MGfdCqV0cNP0qoynTgy+Xuy7qs16uq1dpUnqwxm31db8/Mk/2cAAAAWvR/9t8FeBwAgJd375jYv7hqvf37mlzVHNXvvqs7vU80qe1vKzDl/vbpoP5udI4W/E1JLsVtNsSnKZ+Pw6upsZbBTFP03uDs/+5vPfQEAAADAE3WtQXnVfSrv8quO6WsBAAAI/gIAAAAAAABYjEbVVVOgAzqm/hYPleEAAAAMBH8BAAAAAAAAAAAAIA0w5y8AAAAAAAAAAAAApAGCvwAAAAAAAAAAAACQBgj+AgAAAAAAAAAAAEAaIPgLAAAAAAAAAAAAAGmA4C8AAAAAAAAAAAAApAGCvwAAAAAAAAAAAACQBgj+AgAAAAAAAAAAAEAaIPgLAAAAAAAAAAAAAGmA4C8AAAAAAAAAAAAApAGCvwAAAAAAAAAAAACQBgj+AgAAAAAAAAAAAEAaIPgLAAAAAAAAAAAAAGmA4C8AAAAAAAAAAAAApAGCvwAAAAAAAAAAAACQBn703wZ7HZg3/3HvP+01AAAAAAAAAAAAJPP3K39qrwHzg+AvAAAAAAAAAAAAAKQByj4DAAAAAAAAAAAAQBog+AsAAAAAAAAAAAAAaYDgLwAAAAAAAAAAAACkAYK/AAAAAAAAAAAAAJAGCP4CAAAAAAAAAAAAQBog+AsAAAAAAAAAAAAAaYDgLwAAAAAAAAAAAACkAYK/AAAAAAAAAAAAAJAGCP4CAAAAAAAAAAAAQBog+AsAAAAAAAAAAAAAaYDgLwAAAAAAAAAAAACkAYK/AAAAAAAAAAAAAJAGCP4CAAAAAAAAAAAAQBog+AsAAAAAAAAAAAAAaYDgLwAAAAAAAAAAAACkAYK/AIDvTfe+1copbtWQ/XzuAqpdtVrbW0LW08v1ylnlUcsd6+ncWPvKSXVJ4bgjIb8OV7hVkGe/5xdOlexr180Ru0Gc7/5dTDaf+5vvYwMAAAAAAAAAPB0EfwEAKUoIxCZY+AFEl07dua1QCstpt/2WGYQvN6jw5QYNrK3X+c+s9w1eeEdbI+3avbNCHYN2QwAAAAAAAAAAnhCCvwCAJy4aKI4fZZtsWciB5LGg3jziU2ZFu87XObXyWWtz5vI8Vba8r7plPTr8VqfuWZtTEFJLsfGZ9wXs59/NUIsn+Xcat9RethsDAACkwLp+q1e3/XzehAM6sGm1HJU+JSmeAgAAAACYI4K/WBhGetS2r2yidGqeU4UVx9Vxa9RuYEkloGEuiUGNWGnWPIfd5hdu7T7m170xuwGwaEQ00FahgpkCo5GQLh6a+D05NpWptq1HYfvlScaGdfFYhQp/MfHbeK2lRyPf82+j6KQ1Uvaq1yG5m8dH3EafO7y6aj6/UKVcu/2Ccy2grsc5KtqeZ2+Il6Py3U7p84CuP7A3PRVunba/12TLqW12MwAAAAB4wsKft6u21ClH9D5OvgpKG3QxFLFfjROd+sfuryYssya0XmtQ3iq3mvrt52OPdLOlelL/d7Z7QyM3rOOM3U/K22Uc51f2i3M1EtDhrSkm4s6lrSl2Xy322fKST0mUyn216ap9AQCAxYPgLxaAgA44K/Smv18jX9ubvn6koRudOrzrZeNCd3IAeK6s0qz16rgRUjh2QR8O6WZHvV76dasGCABjkRjp79SB4g3a3tgz/aiIsUG1/Mat2q6J31NkpF8XGyvkeiMwOQBstv11oWo7ejQUe8H4bVxvrpB7f0LbH6IM+zGZv5k3JTL1zDRtspZkGf8NK/yD/xIBAABmkeXSiRu3NdjmUba9CUB6C1+ul+u3b+ti/yNZ4d6I0d/1qfblMrUkTJ8THv22napRdfl8Cq/3qDSaszuq7v27tLs5OKn/G7s3lCy5eqC1TM4K6zhj95PCt4zjbJ5jxaZISN1N1XrJ6VXHbHHVubSN0/2WfV8t9tm+fqRe/9vavbNe3Y/tban6sf0IAAAWLYK/WBD+Om0A9pEuvtc5t9KvGQVa/3/Y62NBNR33TZ/FeatZb3YO20+AhSqow5vMTOjj6go7VbTe3pzEUNshNf0/Bapp9mlw0Bzh2af+jxpVmiON+Dp1IW4k6r3ORjXdkrI3eXX2k77oaNDBC4dUlG209TfrvVh2dIKBZnfS7OA9fuPFwWYVJm6bwfCI8fu7Gxr/jd8dXkAT5f48Z/qRxz/ONP4TmfbcZd2gyFKWGQMGAAAAAFii92n8GsnIUWmj3W/98qrOVjqiCcpN7/omJSI/HDFTn5NXNZqxmtH98+oKSEUlJVppPg80as/lLJUe6dSnX1rvHwycUd2mZdKts+oIRt814Yu39fumfkXs4+yPvqdPn364P9pnTtVQe4Xy8tza09qj7EKndSzTmEvbKbKd0fsA1nEan63Hp6Mu47ON+PWB/5HdSMqt8Y1/f4nL+cocYz8e7f2N8QgAABY1gr9YEJ5xeHTqox4NRi84zWDVfm2MjaiLC65Me5E6eEbl9sX3mr0NKl9urYd9neqIDZFcW6FzN8y2fTpfY3QqbDcDQeaWwgIXUeTZPJUbndSef23Wzp/am5NZUqjT/nbVbXMoM/obylTWWrdO7HUZ6z0a+NLcZgrp4vkeaalH/1dblTYvN4OZRmtHmU6/U6Fc4/WOjxN7v5Y1Xn/S3+Fpt/FirGRz/LYZhB+PSkZn/7b9O4+Yo5XvDOuu9fQpGdVfYlUIprPFpdKlIXX9Mdl3ZHx354ztG1za/Ly9CQAAAAAgXfVH79OsqzujEzvtfmvmCm2uf18nthjrAf+kpOWopVlGz3Zuev/gU6/R331l5xJ7ywrVfeTXibI8rbR3lvkzp2rqPUb/d1S9g/HDbEfVdbZdQ1qm0hZf9Dizou/J1Mr1FTr9htm/TtE30sptXp2+8rnO1+RrxvzgubRNUPTGmeh9AOs4jSNd6lD5W15tNtbDqZSkut+ppvaQNnvrVUQSMwAAix7BXywALp346Jh2rF1iXcxHvtHD/3o0numZne+Ydd7P3qZGK8ibXaa66okMxZt9scBMjmr+z/3aaAaIMzK1ztugSjtArM97dHPakcfAQmD8RgLtOmp0UrNnKkVsyC2rUtFS+0mc8NdmMS2HVv7Meq5wn74YNDqWHo82J+5zvUubjd9H+N8G5zbqfs4G9e93lyhraUCXPzbLu/fr1r8ZD2O3NXQn2mDc+Ghj7yxDiacIqDZuJHJqS4EOXDPe6vdObNuXUNYrw6mDRzx65o9elTQFdS9WYvt+UC0Vr6rpkfFv9lbZ3DK1n7ZJo7Y9akn4NwAAAItY4lyQjgIVVrdOmQvSFAn5dbjCPTG/5dZqtXyebCqekFqKjTbFrRoYCejNikJr7k5j39sP2XNojj1Sd2OFXsqz9uVwVejNwMQINIt9vTbpeitu21d+HYibF/SlirfVTfYusGj1fmmWmHKqtHSFtWHcEm3d4jQe45OWpbt3jY7r89lKbD2jsaC6ukLKLY3r77qqFDcOYMLX30RLT7/wd3GjXR9c0gXzlOTy6uCWuYadJ8utatelk0Y/PWf2/aTaNhxoUIFxPixpm6Uu9JhVVDs7e7ahyqPqbmrWzVXG5y2NBcsBAMBiRvAXC0NGXIDmxQIVVrZH5+Jd6Tyksw3mxf8M7OxE02avNy6QFdLQbXs1I19ro3O8xORpfb69qmHde7rDDIHv19ig3jNHouY4tXGVve3Bo+iI99WrJ/0wbPbv43H4+53390Gfeu8W6mC9S90fdGroTo9u3ndq85ZBfRKcXI59fLRx8yxDiadw6VTcSORvvZycmtmdte2Yrv7pmNbcalTJL63zl6P4kD5ZXq1L/maVxhJMFotJo7Z9qon9bwUAACx6U+aCHBvV0LVm7S5vVq+9yRQOHtf2l+vVcSM0Mb9lKKim376qd6frM4Wv6sBOr9puDFtzdxr7HuiqV8kxvy7u36U9bT0TiXJf9aitpir1JLOwX3uK69UVNy/ovRvt2lP+tnpJ4AUWpZEHRl9vlUNrkowuzcrL1xrj8aFZISpeXKKqY5Nbu43zy5B1Ukgq/LFPXWGXKl9P1t+NN6qLH5zXvQyXfrnJ3mTq69dN46Fom1uRgHFetBNnHJvKVGuc077XfvJ8GIto5JZfB35zXNfXelXnmSWg+8UZNfmlHdVlsw6+AAAAiwPBXyxQy7TGXaWDdR6tmXGko52daHb8c6q0d7oMxVUr9IK9GvPCC8lSPoE0Mzasrt+ZN9gcqvu/vVpnb9bduxowHqzS0NO4P5K0JPqMc/7OwT2/Xze35GnrTo9KHzTrn6rOaWCDU3s3Faj3vG/SjciFKjPHraPtfvX020HTPwd1/niZ1iQZfV100nj9QhWdaQAA8OTZc0GOX7P0d6pmrbE99Cdd+cJqEp2H841ODWmFiozH8Tkxe3w65YloYNBul+j+oB6u8lpT7JjtP7QqLo38sV61xvVh0ZGEOT01qAuXp9tZgmBAvflenf2kz9r3J80qNwfnhc7rwg2rCYDFJKQhM5Ek45kZyziPROf5NU2dkicyEtLNjnoVbm1Q92N74yQhdXwQUJbH6GfOWL54VDcbX1Xt5UztOHl8UtuhkHmQDuU+flvumk4N2NHeyEi/LjZWyHUk+RRJT0qW65h67vRZc/SOs6sxmP1zR74Kfv2OhjY16uqHVbPeV4uWuHa8pr3bGPULAEC6IPiLBeqRBvyt2lO8QSWtM9wY6D+rJr+VEbr5tdcmAlsAFLnVrtf+sVAHbq/Wwf/dmbzE1ZykMIo25eBmv7rO96toS6GyzBLKdU7du/9IG12FWlfsVtFXnXrP/m3PnzmWgE4s9ZyU3cFOoW33PqNdcev3XEobAABgqthckNnP2huezVPdHo+xMqyHD61NuhHUhRFzHs6zOl0RNyfmUod2vHVGB9dbz6cwruXqTlZZU+wYMtdX6ITxfo1JuZXv6HRZ3JyedRUqMlaHvppc5WVaORU63Valzcutg8lc7tLReo+ylDg/J4D0tETFJ63kD2vpU/9HzarZtEy671PTWbOEdIJr7XpvMEflJTNUkRsJ6HCxU7s7pfKWj3QqadBzWB1n+rS12U5gif7tQyoyk1s6z6jtvt1soRobVm/nMf3+mF2Gfzr9Z9VmdGeLfsuoXwAA0gnBXywQcUGlL3t09cP90Qtqs6xX76lGdTyINpri+nkzM92w1KPfzlTG5sGIcdk+WXTemJgf249AWohooK1Czl3vaMTM9L1yRpVrE/Kqf5I9+3y0q5bPbV6lOQh3nVHLY49e2Wn/bjOM48twqbjY6MRneVS3d4W63zo2TSb3t5V6CejTc60uDQAAsJCNGdeHwU61HGtQbYVbL/3KKUeNz37RMvRln8IqULE72RXgCq38qb2aaFW+1iVUPVm53NrH6hcTSq5mrNbauSQkrs7TusQRayuMYzEf/xZ9BmBRyVb2dOeSOCt+NjGiNfPZ+L5sprLWulTX9o7MQa9DwZ6E5NpRdfl8Cq/3qHSais8jgeMqdHp1Pbta5wI+HXUZfdCkRrXO+76ObrMTWKJ/u0ynj5kJKP367MZ8Jyt/VzmquRDr0/apP+jT6crVemiW4T8UmLZUdfS+2tK4vjkAAEgLBH/x9CVmIGYuUe76CtWV2XcFxnr0RZ+1OknYpz/6rIvtrG2uuLl+Y+I6FY/7NDBpXqn+iX1mrFZufKUcYFEzS1eVafu7EZW2B3TpuFu5CXHfqKVZRodVun0n2cj6Qd0yfy+xG2tJfLdRrIPqujqszXurrN/tWL/efS+g7FcmynLlVh9XnSOshw9mmMgpHfm9yUchxy/VvhTnmPJrT7L3xy3bWxgxAwBA2nsc0IF/zNf2yuNq6vDp4o1QtOJK8qusTGXGRgcDwLxboufMZJHB27qdbDTqndsamCnZJCYjT+tX2+vx7p9XlzmKtaQkaV/2XpdX7t8F9UKDX1fbJioWJHouy+yY5mjNi0kConY/eaI09UKUqaznHSqqa9ep8hUa8QWicxhPYd9XW+nxJLmnBgAAFjOCv3jqhtqq9VpTQAMjsdsPEYVvdaqpMxaUWqGf/MRejRO+ElB3tLOwRMVbkpXzWaJ1L8bSygfVdKBZveZcMWMR9TYfmyjRsyVPG+1VYLELXz6mPe1S3YedqjNLYU0np0Ablxu/v8t+9SZ2ur/wq/uOjI5ufjRAPP8cqmzz66zRCY26e1tDcqnOG/c7znCopu2Myh3JItffVupln+c6f3EqQduZ9xmfpT3LcsbMNJ9Zbo0v+XsTlks1ZL4AAJDurjcfUteDHJW+cUaXgkH1GItZwvRs6eSgxk+yzShIUFeuJBnNNtavL27b6wDwHWzMN/t9AX1sJ/NPGFWXP2AFdqcZtTturEefmQn9zy3Rc9aWqN4/+NSbU6XXk1WGu9Oqfz7Up40nfTpdljPjnMPZq1drpUK6fi1JsuzwsO4ZD2tWLf6+lHVfbYWK/mG2LxwAACw2BH/x9P1tRNdbvdq+Kd8OkuQrb9dxdceSKLOd+uWU69BRXbkWtFaXbtevppnKJXene2Ie4FutKskz9u/IV0lLLLC8TOWvzB5IARaHR7rwoV/hwooU5vfN01a30VkNtWvP7zo1YCZGGCKDncbzdg1lFKh053fvzBadvD37PMCrynT2SrNKE8oFfm/czUkDoVOWky77DSlIYZ+UkgYAAE9DJDwqZb2gdVsKtOb5Zcpe+lfdPFWm2j9PngYky+nUxgzp+uHf6MDHg4rYCYKRr4Jqqfyd2igYAmAeZG11qSh6rnlVbwaHrSoEkWFdb3xVB65J2a+4o69bAnqzslndt0btagXmYAG/DuyqVsd9aaPLqfHBu2NBdXWFtK7EM3EfKM71zrMaWOXR60nn902w3qUdRnd44N1q7emMnQ8juhds1e4Gn8JL3fpVQbTlwnCnXbWHOtUbin1PxtE+HlR3U4VqO4alDXmaOlDavq+23KWt083pDgAAFi2Cv3j6ZppvN8Ohyibv1PIzY5/rs0/t9XxH0gv7qOUVOuqdPgq20tOgumkCx8Di06cvPjceLtdPGnE6adkXsJoa1r3uVanRUzbnPNpuJkYYrzuKrcSLNXvrVb7cbggAAIBFa3V+gVX62WUn275YqNfaInrdu31yEuzzZTq41+g7jYXUVe+Rw2FfH7qq1XRng3bQbwIwH7I8qqs1zzWDaqsslGP8vDQoZbv1v+IrQhkeBlu1Z1eB1S46WKBeXYMRZa736mDZxBzlYV+nusIulZYmm7c8pIG+0ejo3+3R/SRZJk1rlKe6g2VaqWF1H4mdD/P1UmWzbo4s044jDSp6iqMIwoEGFRjHUzKelfON7nYdV8nW2PdknLsLPNrT2qOR7AIdfcP8LAli99U25E1/Tw0AACxaBH/x1OVWtupcvVvrnp/IvszMztHG8kM6H/Tp4IYkWZn9/eqzM9FzjYvwma6519T49OnJMm3MmdhPVk6Byhv9uvqWi1G/+OHKcumEv111W3KUZSdYRH8bJ6/q0uxDhwEAALAIrCx/R+e8TuXaHZ/MnzlV1/6+al6wnsdbU9Opq40ercu2C6JmLFHuFq/OfdyobXScAMyT3CrzPk3cuebZZVrn3q9z/kYVTaoI5dRe85wUd78o2mc90qngv1RpzfhAgX69dzaoLI9HpfN1rnIe0qX2/dqRt8wuEZ2p7Dy3Dn7wJ51KZfTwk7SqTCeOTP6erPtqjbp6rV3lybr39n21NT9P8n8GAABg0fvRfxvsdQAAUtK9b27z4q7x+udnfllzVLP3rur8PtWssrelzJzz16uL9rPZOVL4OyG1FLvVFKskPxuHV1dnK4Odoui/wd352d987gsAAAAAnqhrDcqr7lN5l191TF8LAABA8BcAAAAAAADAYjSqrpoCHdAx9bd4qO4GAABgIPgLAAAAAAAAAAAAAGmAOX8BAAAAAAAAAAAAIA0Q/AUAAAAAAAAAAACANEDwFwAAAAAAAAAAAADSAMFfAAAAAAAAAAAAAEgDBH8BAAAAAAAAAAAAIA0Q/AUAAAAAAAAAAACANEDwFwAAAAAAAAAAAADSAMFfAAAAAAAAAAAAAEgDBH8BAAAAAAAAAAAAIA0Q/AUAAAAAAAAAAACANEDwFwAAAAAAAAAAAADSAMFfAAAAAAAAAAAAAEgDBH8BAAAAAAAAAAAAIA0Q/AUAAAAAAAAAAACANPCj/zbY68C8+Y97/2mvAQAAAAAAAAAAIJm/X/lTew2YHwR/AQAAAAAAAAAAACANUPYZAAAAAAAAAAAAANIAwV8AAAAAAAAAAAAASAMEfwEAAAAAAAAAAAAgDRD8BQAAAAAAAAAAAIA0QPAXAAAAAAAAAAAAANIAwV8AAAAAAAAAAAAASAMEfwEAAAAAAAAAAAAgDRD8BQAAAAAAAAAAAIA0QPAXAAAAAAAAAAAAANIAwV8AAAAAAAAAAAAASAMEfwEAAAAAAAAAAAAgDRD8BQAAAAAAAAAAAIA0QPAXAAAAAAAAAAAAANIAwV8AAAAAAAAAAAAASAMEfwEAAAAAAAAAAAAgDRD8BQB8b7r3rVZOcauG7OdzF1DtqtXa3hKynl6uV84qj1ruWE/nxtpXTqpLCscdCfl1uMKtgjz7Pb9wqmRfu26O2A3ifPfvYrL53N98HxsAAAAAAAAA4Okg+AsASFFCIDbBwg8gunTqzm2FUlhOu+23zCB8uUGFLzdoYG29zn9mvW/wwjvaGmnX7p0V6hi0GwIAAAAAAAAA8IQQ/AUAPHHRQHH8KNtky0IOJI8F9eYRnzIr2nW+zqmVz1qbM5fnqbLlfdUt69Hhtzp1z9qcgpBaio3PvC9gP/9uhlo8yb/TuKX2st0YAAAgBdb1W7267efzJhzQgU2r5aj0KUnxFAAAAADAHBH8xcIw0qO2fWUTpVPznCqsOK6OW6N2gyQiIV08VqHCTfnWexwF2n7Ir3tj9uvjIhr6+Lh2u51y2EGPvK0VOvxxyHgFWGwiGmirUEFKgdEU2hq/vZbqibLFjk1lqm3rUdh++ftSdNIaKXvV65DczeMjbqPPHV5dNZ9fqFKu3X7BuRZQ1+McFW3PszfEy1H5bqf0eUDXH9ibngq3Ttvfa7Ll1Da7GQAAAAA8YeHP21VbGrtPk6+C0gZdDCW5SxOd+sfqryYusya0XmtQ3iq3mvrt52OPdLOlWoW/sPfxC7d2H0t2H2nCyA3rOPMc1nvydhnH+ZX94lyNBHR4a4qJuHNpa4rdV4t9trzkUxKlkig8XbUvAACweBD8xQIQ0AFnhd7092vka3vT1480dKNTh3e9bFzoJgkAD7aqpMCt2o4eDY3YnYOxUQ101euf2+IvUkfV/cZ2FdZ36uadR+PB3nCoRx31bpW0UJcVi8dIf6cOFG/Q9saeWUdFpNTW/B25KtR0LTT+24uM9OtiY4VcbwS+9wDwgpdhPybzN/NskqlnpmmTtSTL+G9Y4R/8lwgAADCLLJdO3LitwTaPsu1NANJb+HK9XL99Wxf7Y/dpIkYf1qfal8uUeJsmPPptO1Wj6vL5FF7vUWk0Z3dU3ft3aXdzUEOxXYZDutlRr5d+nTxheqC1TM4K6zjDdoA4fMs4zuY5VmyKhNTdVK2XnF51zBZXnUvbON1v2ffVYp/t60fq9b+t3Tvr1f3Y3paqH9uPAABg0SL4iwXhr9NmWT7Sxfc6J1+EPw6otrJZvbFAcaK/2Y+G8OVj+p++YfvZVAPN+ycyQIEFK6jDm8xM6OPqCjtVtN7enFSqbYfV8Zb5O1qmojc69emX5mjQPvV/dEhF2dKIr1nvTfPbGGh2J80O3uM3XhxsVmHithkMjxi/z7uh8d/43eEFlJDx85zpRx7/ONP4T2Tac5d1gyJLWWYMGAAAAABgGQuq6bhfIxk5Km30aXDQ6It+eVVnKx3Ga4Nqetc3KRH54YiZzpy8qtGM1Yzun1dXQCoqKdFK83mgUXsuZ6n0SKz/e1uDgTOq27RMunVWHcHouyZ88bZ+39SviH2c/Xaf+dMP90f7zKkaaq9QXp5be1p7lF3otI5lGnNpO0W2UzXNseM0PluPT0ddxmcb8esD/yO7kZRb4xv//hKX85U5xn482vsb4xEAACxqBH+xIDzj8OjURz0ajF5wmgGo/doYG1GXEFzpfa9ZF2NDGbMLVNd21eosDPbpUqNHK8YzFEd15YLf7jQsU9ERu1NhtjvisrPKQ+r4OPEKH1hoIoo8m6dyo5Pa86/N2vlTe3NSKbZ9ENSVz42OX+U7Ol2Rp5VmLFOZylpbptNtVVpj/Da6P00eiF3j9U/pJJrLabfxYqxkc/y2GYQfj0rG7/K2/TuPmEkdd4Z113r6lIzqL9Mll8Rscal0aUhdf0x2/jDOK+eM7Rtc2vy8vQkAAAAAIF31q2NEWld3Rid2OpRp3vvJXKHN9e/rxBZjPeDXhcTpc5ZmGb3Vuen9g0+9Sz16ZecSe8sK1X3k14myWP/X+LM/c6qm3qNcow/YOzi5ilzX2XYNaZlKW3zR48yy+8wr11fo9BuuaKuUfCOt3ObVaaMDfr4mXzPmB8+lbYKiN86oblvsOI0jXepQ+VtebTbWw6mUpLrfqab2kDZ761VEEjMAAIsewV8sAC6d+OiYdqxdYl3MR77Rw/96NJ7pmZ3vmBh9NxZUl8++IM9wqK6tXTXOFVZnISNTa3Ye02kzUzFqRCP/aa/meLS3zO5UmO3KvPqtw3op/G+D08+HCiwIxm8k0K6jRic1e5oywxNSbBsejf7GVr+YZM5aR6E2r5KGBm9Pyrief4P697tLlLU0oMsfm+Xd+3Xr34yHsdsauhNtMG58tLF3lqHEUwRUGzcSObWlQAeuGW/1eye27Uso65Xh1MEjHj3zR69KmoK6FyubfT+olopX1fTI+Hd4q2xumdpP26RR2x61JPwbAACARSxxLkhHgQqrW6fMBWmKhPw6XOGemN9ya7VaPk8yFY9Caik22hS3amAkoDcrCq25O419bz9kz6E59kjdjRV6Kc/al8NVoTcDEyPQLPb12qTrrbhtX/l1IG5e0Jcq3lb3tPOaAFjoer80S0w5VVq6wtowbom2bnEajz0a+NLaYrp7d1B6PluJrWdk3jvqCim31KPNsX6xq0o19n2gSb7+Jlp6+oW/ixvt+uCSLpinJJdXB7fMNew8WW5Vuy6drFJRzuz7SbVtONCgAuN8WDJp2rMkxqyi2tnZsw1VHlV3U7NurjI+b2ksWA4AABYzgr9YGDLiAjQvFqiwsl0DY9JK5yGdbTAv/m39Pbppz1WysqJB5X9p1WuufOt9v3DrtZaE+U1jF/khn97tHFQkOrowontBn67EAhuDT3uUIfAU2CPkb0c73gnGRhStrPWfj/TQ2vL9eNCn3ruFOljvUvcHnRq6Y/y+7zu1ecugPglOLtc+Ptq4eZahxFO4dCpuJPK3Xk5OzezO2nZMV/90TGtuNarkl9b5y1F8SJ8sr9Ylf7NKl9sNF4tJo7Z9qlllbwcAAIvelLkgx0Y1dK1Zu8ub1WtvMoWDx7X95Xp13AhNzG8ZCqrpt6/q3ek6TeGrOrDTq7Ybw9EAirnvga56lRzz6+L+XdrT1jORKPdVj9pqqlJPMgv7tae4Xl1x84Leu9GuPeVvq9c+PgCLy8gDo6+3yqE1SUaXZuXla43x+NCsEBUvLlHVscmt3cb5Zcg6KSQV/tinrrBLla8nSXaeZFQXPzivexku/XKTvcnU16+bxkPRNrciAeO8aCfOODaVqdY4p32/SdLzYCyikVt+HfjNcV1f61WdZ5aA7hdn1OSXdlSXTT/1EQAAWFQI/mKBWqY17iodrPNoTfzoxYcjumev5v+PHu2uaNb1r+wr/nBI15sr5N4fsC/Ec7RxUyxz85G6j3jkiGav5+ulSuPiPtbRsDMhgR+UnAJtNn4eQ+312tM5qLD9M4h8FVRL5SF12UkWycw45+8c3PP7dXNLnrbu9Kj0QbP+qeqcBjY4tXdTgXrP+ybdiFyoMnPcOtruV0+/HTT9c1Dnj5dpzVK7QZyik8brF6roTAMAgCfPngty/Jqlv1M1a43toT/pyhdWk+g8nG90akgrVGQ8js+J2ePTKU9EA8lnBJHuD+rhKq/O3bDbf7hfG7OlkT/Wq9a4Phyffic2p6cGdeHydDtLEAyoN9+rs5/0Wfv+pFnlZhcvdF4XblhNACwmIQ2ZiSQZz8xYxnkkmo1smjolT2QkpJsd9Src2qDupP3WkDo+CCjLY/QzZyxfPKqbja+q9nKmdpw8PqntUMg8SIdyH78td02nBuxob2SkXxcbK+Q68nSnD8tyHVPPnT5rjt5xdjUGs3/uyFfBr9/R0KZGXf2wavJ9tSnsEteO17R3G6N+AQBIFwR/sUA90oC/VXuKN6ikdeLGgHUBblqh25eao6ODE434m/WePZhx3etelSarbrO2TKX59vrybHv+X+CHJE+v13m0UsPRxIi8F61OosNVraY7L2ijOepzSgcxhVG0KQc3+9V1vl9FWwqVZZZQrnPq3v1H2ugq1Lpit4q+6tR7/mTlBb+LOZaATiz1nJTdwU6hbfc+o11xK2XmAQDAExebCzL7WXvDs3mq2+MxVob1MFbq5UZQF0bMeTjP6nRF3JyYSx3a8dYZHVxvPZ/CuJarO1kVDfiaMtdX6ITxfhl9tdzKd3Q6Nv2OOadnXYWKjNWhryZXeZlWToVOt1Vp83LrYDKXu3S03qMsJc7PCSA9LVHxSSv5w1r61P9Rs2o2LZPu+9R0Nkklq2vtem8wR+UlcVXkEo0EdLjYqd2dUnnLRzqVNOg5rI4zfdrabCewRP/2IRWZyS2dZ9R23262UI0Nq7fzmH5/zC7DP53+s2ozurNFv2XULwAA6YTgLxaIuKDSlz26+uH+6AW1Wdar91SjOh5EG+kn4/OUDOvhT6rGM8BD/T4ddRkX/1EhXe+xbwRkuXTC366D7jz7RkemVm7x6lxrvsJ90RbS0izNmAwKpCkzW/hS+37tyFtmZ11nKjvPo1Od9VpnPv15zvfW+Qt3nVHLY49e2Wl3sjOMI8hwqbjY+B1neVS3d4W63zo2TSb3t5V6CejTc60uDQAAsJCNRTQQ7FTLsQbVVrj10q+cctT47BctQ1/2KawCFbuTzay5Qit/aq8mWpWvdQlVT1Yut/ax+sWEkqsZq7U22Zyb01mdp3WJCYkrjGMxH/8WfQZgUclW9nTnkjgrfjYxojXz2fgxwpnKWutSXds7Mge9DgV7EpJrR9Xl8ym83qPSaSo+jwSOq9Dp1fXsap0LxN9LSjSqdd73dXSbncAS/dtlOn3MTEDp12c35jtZ+bvKUc2FWJ+2T/1Bn05XrtZDswz/oViFvKmun+/U0NK4vjkAAEgLBH/x9CVmIGYuUe76CtWV2XcFxnr0hR2ozVo6MUZ3Y6l3PANczzpU7t5grZvibwRkFajyZKdd4qxPn56p0ppPOsfL2q7cUEB2I36wsjZU6FRXUIN2B7Gn65h2/Phz3bxj/MbyY8Pjp/puo1gH1XV1WJv3Vmmz2Yke69e77wWU/cpEWa7c6uOqc4T18MEPrCy735t8FHL8Uu1LcY4pv/Yke3/csr2FETMAAKS9xwEd+Md8ba88rqYOny7eCEUrriS/yspUZmx0MADMuyV6zkwWGbyt28lGoxr90oGZkk1iMvK0frW9Hu/+eXWZo1hLSqwkkQT3urxy/y6oFxr8uto2UbEg0XNZZsc0R2teTBIQtRNQJkpTL0SZynreoaK6dp0qX6ERXyA6h/EUYZ/+6BvVSo/H6psDAIC0QfAXT91QW7VeawpoYCR2+yGi8K1ONXXGyj2v0E9+Yq8W5Gmzvdp99m1dv2+/5+tBdfg/t9YNL+TEskQDOlzZOjEvcGRYve1ebT8cm58lRzsKp0kHBX6QRtXd1K5e5elXW6bLgP6uHKps8+us0QmNuntbQ3KpzhtXlivDoZq2Myp3xGd5f1epl32e6/zFqQRtZ95nfJb2LMsZM9N8Zrk1vuTvTVgu1cTPEQUAANLR9eZD6nqQo9I3zuhSMKgeYzFLmJ4tnRzUsKosBXXlSpLRbGP9+uK2vQ4A38HGfLPfF9DHvsRzzai6/AErsDvbbZqxHn1mDhJ4bomes7ZE9f7Bp96cKr3uSRK0vdOqfz7Up40nfTpdlqOZeprZq1drpVlV7lqSZNnhYd0zHtasWvx9qfCVgLrHVqjoH7gvBgBAuiH4i6fvbyO63urV9k35dpAkX3m7jqs7lkSZ7dQvY9ehWYV6xW1fxN9q12u/st+T59HhwCNr+1K3tm2yVk1/udGs11x2uxcLVfJWYHy+k2y3V69zjYsfqKG2eh34eFDhWG7EV0G1VHq0x/9I2WXVqlxubf8uik7enn0e4FVlOnulWaUJ5QK/N+7mpIHQKctJl/2GFKSwT0pJAwCApyESHjX6US9o3ZYCrXl+mbKX/lU3T5Wp9s/Zk0bGZTmd2pghXT/8m+g1YsTuM1nXiL9TGwVDAMyDrK0uFUXPNa/qzeCwVYUgMqzrja/qwDUp+xV39HVLQG9WNqv71qhdrcAcLODXgV3V6rgvbXQ5NT54dyyorq6Q1pV4rGmMElzvPKuBVR69nnR+3wTrXdqRIw28W609nbHzYUT3gq3a3eBTeKlbvyqItlwY7rSr9lCnekOx78k42seD6m6qUG3HsLQhT1MHSo/qyrWgtNylrdPN6Q4AABYtgr94+n5sPyaT4VBlkzeu/MwSFTUc145pSvMoI0flbzWoKG5Y3DPTlK7JXO/V2bddzPeLH67IXXXVe5T3ojUy1eGqVpPR+dZa47fREDcKFwAAAIvW6vwCq/RzXELsa20Rve7dPrkv9HyZDu51SGOh6DWiwxF3jXhng3ZweQhgPmR5VFdrnmsG1VZZKMf4eWnQzNDX/4qvCGV4GGzVnl0FVrvoYIF6dQ1Govd0DpZNzFEe9nWqK+xSaWmyectDGugbjY7+3R7dT5Jl0rRGeao7WKaVGlb3kdj5MF8vVTbr5sgy7Tgy+b7TkxYONKjAOJ6S8aycb3S367hKtsa+J+PcXeDRntYejWQX6Ogb5mdJMPa5PvvUeNyQlzRYDgAAFjeCv3jqcitbda7erXXPT2RfZmbnaGP5IZ0P+nRwQ0JW5lKXTl3z61RpnrJjF9vPLlPupjKd+pNPR7fEt3fp6P8+pB15y+ySPpnKXlWg8iOdCv5LldZMExgGfghyK4/rqNuhLPt3kPV8nnbUt6vnf/PbAAAASBcry9/ROa9TuXbfKfNnTtW1v6+aF6zn8dbUdOpqo0frsu2CqBlLlLvFq3MfN2obWbMA5klulU+fnow71zy7TOvc+3XO36iiSRWhnNprnpPi7hdl5SS7p9Ov984GleXxqHS+zlXOQ7rUvn/y/aQ8tw5+8CedSmX08JO0qkwnjkz+nqz7ao26eq1d5Q57Y7z+fvWNGef9nyf5PwMAALDo/ei/DfY6AAAp6d43t3lx13j98zO/7OV65Xjvqs7vU80qe1vKzDl/vbpoP5udI4W/E1JLsVtNsSnKZ+Pw6upsZbBTFP03uDs/+5vPfQEAAADAE3WtQXnVfSrv8quOqb0AAAAI/gIAAAAAAABYjEbVVVOgAzqm/hYPU3sBAAAYCP4CAAAAAAAAAAAAQBpgzl8AAAAAAAAAAAAASAMEfwEAAAAAAAAAAAAgDRD8BQAAAAAAAAAAAIA0QPAXAAAAAAAAAAAAANIAwV8AAAAAAAAAAAAASAMEfwEAAAAAAAAAAAAgDRD8BQAAAAAAAAAAAIA0QPAXAAAAAAAAAAAAANIAwV8AAAAAAAAAAAAASAMEfwEAAAAAAAAAAAAgDRD8BQAAAAAAAAAAAIA0QPAXAAAAAAAAAAAAANIAwV8AAAAAAAAAAAAASAMEfwEAAAAAAAAAAAAgDfzovw32OjBv/uPef9prAAAAAAAAAAAASObvV/7UXgPmB8FfAAAAAAAAAAAAAEgDlH0GAAAAAAAAAAAAgDRA8BcAAAAAAAAAAAAA0gDBXwAAAAAAAAAAAABIAwR/AQAAAAAAAAAAACANEPwFAAAAAAAAAAAAgDRA8BcAAAAAAAAAAAAA0gDBXwAAAAAAAAAAAABIAwR/AQAAAAAAAAAAACANEPwFAAAAAAAAAAAAgDRA8BcAAAAAAAAAAAAA0gDBXwAAAAAAAAAAAABIAwR/AQAAAAAAAAAAACANEPwFAAAAAAAAAAAAgDRA8BcAAAAAAAAAAAAA0gDBXwAAAAAAAAAAAABIAwR/AQDfm+59q5VT3Koh+/ncBVS7arW2t4Ssp5frlbPKo5Y71tO5sfaVk+qSwnFHQn4drnCrIM9+zy+cKtnXrpsjdoM43/27mGw+9zffxwYAAAAAAAAAeDoI/gIAUpQQiE2w8AOILp26c1uhFJbTbvstMwhfblDhyw0aWFuv859Z7xu88I62Rtq1e2eFOgbthgAAAAAAAAAAPCEEfwEAT1w0UBw/yjbZspADyWNBvXnEp8yKdp2vc2rls9bmzOV5qmx5X3XLenT4rU7dszanIKSWYuMz7wvYz7+boRZP8u80bqm9bDcGAABIgXX9Vq9u+/m8CQd0YNNqOSp9SlI8BQAAAAAwRwR/sTCM9KhtX9lE6dQ8pworjqvj1qjdIIlISBePVahwU771HkeBth/y696Y/Xqckf7OaGnWPIe9/xlKswILW0QDbRUqSCkwmkLb2O/oF7HfhluvtfRoJMnvaD4VnbRGyl71OiR38/iI2+hzh1dXzecXqpRrt19wrgXU9ThHRdvz7A3xclS+2yl9HtD1B/amp8Kt0/b3mmw5tc1uBgAAAABPWPjzdtWWOuUw+6Gr8lVQ2qCLoYj9apzo1D92fzVhmTWh9VqD8la51dRvPx97pJst1ZP6v7uPJb+PFDNywzrO2P2kvF3GcX5lvzhXIwEd3ppiIu5c2ppi99Viny0v+X2vVBKFp6v2BQAAFg+Cv1gAAjrgrNCb/n6NfG1v+vqRhm506vCul40L3SQB4MFWlRS4VdvRo6ERu3MwNqqBrnr9c9vki9R7Pq/cpcfVcSOkcOyCPvxIvf63tdvpUQulWbFImEkMB4o3aHtjz6yjIlJqOzaolt/Yv6OwvS0c0vXmCrn3BxTb9IOVYT8m8zfzvJOpZ6Zpk7Uky/hvWOEf/JcIAAAwiyyXTty4rcE2j7LtTQDSW/hyvVy/fVsX+x/JuqMTMfqwPtW+XDblHk149Nt2qkbV5fMpvN6j0mjO7qi69+/S7ubgpP7vzY56vfTr5AnTA61lclZYxxm7nxS+ZRxn8xwrNkVC6m6q1ktOrzpmi6vOpW2c7rfs+2qxz/a1fd9rZ726H9vbUvVj+xEAACxaBH+xIPx12izLR7r4Xufki/DHAdVWNqs3FihO9Df70TQWUNOhwIzBr6a3OikvhgUuqMObzEzo4+oKO1W03t6cVOptwx+fUdMtKXvTfp3r6YuOBh385Iwq10oj/kNqCtoNEww0u5NmB+/xGy8ONqswcdsMhkeGpbuh8d/43eEFlI3x85zpRx7/ONP4T2Tac5d1gyJLWWYMGAAAAABgGQuq6bhfIxk5Km30aXDwtkJfXtXZSod1j+Zd36RE5Icj5h2b5FWNZqxmdP+8ugJSUUmJVprPA43aczlLpUc69emX1vsHA2dUt2mZdOusOhL7v1+8rd839StiH2d/9D19+vTD/SqaQ6bKUHuF8vLc2tPao+xCp3Us05hL2ymynappjh2n8dl6fDrqMj7biF8f+B/ZjaTcGt/495e4nK/MMfbj0d7fGI8AAGBRI/iLBeEZh0enPurRYPSCs0/9H+3XxtiIuoTgSu97zboYi9ZmF6iu7arVWRjs06VGj1bEZyjeDemu/f5sd+PEBX5Pu2qMfkXU/29QvfYqsDBFFHk2T+VGJ7XnX5u186f25qRSb9v75efGf52qa67QxqVmMNOcs9apg/9vs9zyqHoHk6cZr/H6J3UQY8tpt/FirGRz/LYZhB+PSsbv97b9O42YSR13hnXXevqUjOov0yWXxGxxqXRpSF1/TBYhD6njnLF9g0ubn7c3AQAAAACkq351jEjr6s7oxE6HMs17P5krtLn+fZ3YYqwH/LqQOH3O0ixZPdbU9f7Bp96lHr2yc4m9ZYXqPvLrRFmeVto7y/yZUzX1niT931F1nW3XkJaptMUXPc6s6HsytXJ9hU6/4Yq2Ssk30sptXp2+8rnO1+RrxvzgubRNUPTGGdVtix2ncaRLHSp/y6vNxno4lZJU9zvV1B7SZm+9ikhiBgBg0SP4iwXApRMfHdOOtUusi/nIN3r4X4/GMz2z8x0To+/Ggury2RfkGQ7VtbWrxrnC6ixkZGrNzmM6bWYqxrzg0Jql9nokPFH2+evIRCbpljxttFeBhcn4jQTaddTopGbPVIo4KvW2K7JX2GvJvfB333e276D+/e4SZS0N6PLHZnn3ft36N+Nh7LaG7kQbjBsfbeydZSjxFAHVxo1ETm0p0IFrxlv93olt+xLKemU4dfCIR8/80auSpqDu2cHiyP2gWipeVdMj49/hrbK5ZWo/bZNGbXvUkvBvAAAAFrHEuSAdBSqsbp0yF6QpEvLrcIV7Yn7LrdVq+TzJVDwKqaXYaFPcqoGRgN6sKLTm7jT2vf2QPYfm2CN1N1bopTxrXw5Xhd4MTIxAs9jXa5Out+K2feXXgbh5QV+qeFvdlG4CFq3eL80JeJ0qLU3sjy7R1i1O47FHA19aW0x37w5Kz2dr5t5rAvPeUVdIuaUebY71i11VE4MA4n39TbT09KT+74NLumCeklxeHdwy17DzZLlV7bp0skpFObPvJ9W24UCDCozzYUnCtGdTjFlFtbOzZxuqPKrupmbdXGV83tJYsBwAACxmBH+xMGTEBWheLFBhZbsGxqSVzkM622Be/Nv6e3TTnqtkZUWDyv/Sqtdc+db7fuHWay0J85uaAZq3ypRrXOyPBI5re+ymw6+q1WH0HzIdZTp73DOnbEogXeTu9GhjRlBN3lZdv2/PtDTo14Hft2oou0w7C6Obvj8P+tR7t1AH613q/qBTQ3eM3/d9pzZvGdQnwWG7kWV8tHHzLEOJp3DpVNxI5G+9nJya2Z217Ziu/umY1txqVMkv7XNL8SF9srxal/zNKl1uN1wsJo3a9qlmlb0dAAAselPmghwb1dC1Zu0ub55UBSkcNPpML9er40ZoYn7LkHG9+NtX9e50pVnCV3Vgp1dtN4ajARRz3wNd9So55tfF/bu0p61nIlHuqx611VSlnmQW9mtPcb264uYFvXejXXvK31ZvLLEXwKIy8sDo661yaE2SGzFZeflaYzw+NCtExYtLVHVscmu3cX4Zsk4KSYU/9qkr7FLl69HJfmcwqosfnNe9DJd+ucneZOrr103joWibWxHzXpKdOOPYVKZa45yWwjjap2ssopFbRt/+N8d1fa1XdZ5ZArpfnFGTX9pRXTb91EcAAGBRIfiLBWqZ1rirdLDOozXxoxcfjuievZr/P3q0u6JZ17+yr/jDIV1vrpB7f2DShXjWlkP6/7zl1pQ8x+ddOvh/79fm2Mhg4IdmeZlOt1dpZV+zXvuVlUThMG+uRVw60XloIkM6wYxz/s7BPb9fN7fkaetOj0ofNOufqs5pYINTezcVqPe8b1GUY8/Mcetou189/XbQ9M9BnT9eNlFxIE7RSeP1C2ZJbQAAgCfMngty/Jqlv1M1a43toT/pyhdWk+g8nG90akgrVGQ8TkyZ49MpT0QDg3a7RPcH9XCVV+du2O0/3K+NRudr5I/1qjWuD4uOJMzpqUFduDzdzhIEA+rN9+rsJ33Wvj9pVrk5OC90XhduWE0ALCYhDZmJJBnPzFjGeSQ6z69p6pQ8kZGQbnbUq3Brg7rtwQGThdTxQUBZHqOfOWOm/6huNr6q2suZ2nHy+KS2QyHzIB3Kffy23DWdGrBvMkVG+nWxsUKuI8mm/3lyslzH1HOnz5qjd5xdjcHsnzvyVfDrdzS0qVFXP6yafF9tCrvEteM17d3GqF8AANIFwV8sUI804G/VnuINKmmduDFgXYCbVuj2pebo6OBEI/5mvWdWEYoaVfcbhXqp3j95RLDpQUCHt7qMC/1kJcyAH4CxYV33BzWQOL/tg0Fd8SfLZk5hFG3Kwc1+dZ3vV9GWQmWZI/TrnLp3/5E2ugq1rtitoq869Z5/vn+bcywBnVjqOSm7g51C2+59RrviVg3ZzwEAAJ6U2FyQ2c/aG57NU90ej7EyrIcPrU26EdQFo9O0ru6sTlfEzYm51KEdb53RwfXW8ymMa7m6k1XRgK8pc32FThjvl9FXy618R6fL4ub0rKtQkbE69NXkKi/TyqnQ6bYqbV5uHUzmcpeO1puVmxLn5wSQnpao+KSV/GEtfer/qFk1m5ZJ931qOjt+82fCtXa9N5ij8pK4KnKJRgI6XOzU7k6pvOUjnUoa9BxWx5k+bW22E1iif/uQiszkls4zartvN1uojP5+b+cx/f6YXYZ/Ov1n1WZ0Z4t+y6hfAADSCcFfLBBxQaUve3T1w/3RC2qzrFfvqUZ1PIg20k/G5ykZ1sOfVI1ngIf6fTrqMi7+o0K63mPdCAhfPqb/6bNuLKx0N+qSnek+eMG6YDeDzBf3HVLXgq/ZA8y3UXUfKlOtL6LiRp/640Z2nK5croHmCu1u/f5uqIW7zqjlsUev7LQ72RmZxuJScbHxO87yqG7vCnW/dWyaTO5vK/US0KfnWl0aAABgIRuLaCDYqZZjDaqtcOulXznlqPHZL1qGvuxTWAUqdiebWXOFVv7UXk20Kl/rEqqerFxu7WP1iwklVzNWa22yOTenszpP6xJHrK0wjsV8/Fv0GYBFJVvZ051L4qz42cSI1sxn48cIZyprrUt1be/IHPQ6FOxJSK4dVZfPp/B6j0qnqfhsTglW6PTqena1zgXi7yUlGtU67/s6us1OYIn+7TKdPmYmoPTrsxsLbSBBjmouxPq0feoPmn371XpoluE/NLlCXrzr5zs1tDSubw4AANICwV88fYkZiJlLlLu+QnVl9l2BsR590WetZi2NBX+ljaXe8QxwPetQuXuDtW6ybwTcDPrtC1yHSqvdWmNnuptz/U7sP6DeHmsV+MF4cEkf+B5pc8OHOrHToay4kR1Fde36v0qXaOBsp65bm6f4bqNYB9V1dVib91ZZpaXH+vXuewFlvzJRliu3+rjqHGE9fDDDRE7pyO9NPgo5fqn2Tdtxn8yvPcneH7dsb2HEDAAAae9xQAf+MV/bK4+rqcOnizdC0Yorya+yMpUZGx0MAPNuiZ4zk0UGb+t2stGod25rYKZkk5iMPK1fba/Hu39eXeYo1pISK0kkwb0ur9y/C+qFBr+utk1ULEj0XJbZMc3RmheTBETtBJSJ0tQLUaaynrf69qfKV2jEF4jOYTxF2Kc/+ka10uOZdtonAACwOBH8xVM31Fat15oCGhiJ3X6IKHyrU02dsXLPK/STn9irBXnabK92n31b1+/b7/l6UB3+z611wws58fOemAZ15eOg7tnNI/eD6vr/pjjPFJCOwqOzBxAfh6e5KfhdOVTZ5tdZoxMadfe2huRSnTeuLFeGQzVtZ1TuiM/y/q5SL/s81/mLUwnazrzP+CztWZYzZqb5zHJrfMnfm7Bcqkk8VwIAgHRzvfmQuh7kqPSNM7oUDKrHWMwSpmdLJwc1rCpLQV25kmQ021i/vrhtrwPAd7Ax3+z3BfSxL/FcM6ouf8AK7E4zanfcWI8+MwcJPLdEz1lbonr/4FNvTpVe9yQJ2t5p1T8f6tPGkz6dLsuZcc7h7NWrtdKsKnctSbLs8LDuGQ9rVi3+vlT4SkDdYytU9A+zfeEAAGCxIfiLp+9vI7re6tX2Tfl2kCRfebuOqzuWRJnt1C9j16FZhXrFbV/E32rXa7+y35Pn0eHAI2v7Ure2bbJWN/7CZa0YBtqq9dKLVhDG8atqtd2yX8hwaV2BvQ78UDy/TCsypOvHfqMDHw8qHIvyfj2s6y0V+p9dRkd8vUPJkqnnoujk7dnnAV5VprNXmlWaUC7we+NuThoInbKcnDh/zCqFfVJKGgAAPA2RsHFdl/WC1m0p0BrjGjB76V9181SZav+cPWlkXJbTqY3m9eFh6/owYo/Ki3wVVEvl79RGwRAA8yBrq0tF0XPNq3ozOGwlHEeMfmjjqzpwTcp+xR193RLQm5XN6r41aicmm4MF/Dqwq1od96WNLqfGB++OBdXVFdK6Eo/W2ZviXe88q4FVHr2edH7fBOtd2pEjDbxbrT2dsfNhRPeCrdrd4FN4qVu/Wkj3ke60q/ZQp3pDse/JONrHg+puqlBtx7C0IS9J335UV64FpeUubZ1uTncAALBoEfzF0/dj+zGZDIcqm7xx5WeWqKjhuHZMU5pHGTkqf6tBRfawuCzPfp2Ydv4W0zLtOHl8vNQs8IOR5dHB4y5lj4XUVe9Rnp0YkZNXqNeaezRi/Pbq/s+KpKWyAAAAsHiszi+wSj+77MTZF43rvbaIXvdun1xN5PkyHdzrkOzrQ4fDTpx1VavpzgbtiCvSAgDfmtEXras1zzWDaqsslGP8vDQoZbv1v+IrQhkeBlu1Z1eB1S46WKBeXYMRZa736mDZxBzlYV+nusIulZYmm7c8pIG+0ejo3+3R/SRZJk1rlKe6g2VGf3hY3Udi58N8vVTZrJsjy7TjyMR9p6chHGhQgXE8JeNZOd/obtdxlWyNfU/GubvAoz2tRt8+u0BH3zA/S4Kxz/XZp8bjhrykwXIAALC4EfzFU5db2apz9W6te34i+zIzO0cbyw/pfNCngxsSsjKXunTqml+nSvOUHbvYfnaZcjeV6dSffDq6Jb79CpW2BHS1sUwbVy2bKOsTa38loFOpZH0CaWilp1mBjw6pfFOOsmIJFsZvY53bq9NXfKqxp8UGAADA4rWy/B2d8zqVa/edMn/mVF37+6p5wXoeb01Np9F38mhdtt1zylii3C1enfu4UdtImAUwT3KrfPr0ZNy5JtoP3a9z/kYVTaoI5dRe85wUd78oK6dA5Uc6FfyXKq0ZHyjQr/fOBpXl8cxfcr/zkC6179eOvNi9pExl57l18IM/Lbz7SKvKdOLI5O/Juq/WqKvX2lWerG/f36++MeO8//Mk/2cAAAAWvR/9t8FeBwAgJd375jYv7hqvf37ml71crxzvXdX5fapZZW9LmTnnr1cX7Wezc6Twd0JqKXarKdUpxB1eXZ2tDHaKov8Gd+dnf/O5LwAAAAB4oq41KK+6T+VdftUxfS0AAADBXwAAAAAAAACL0ai6agp0QMfU3+KZXM4eAADgB4rgLwAAAAAAAAAAAACkAeb8BQAAAAAAAAAAAIA0QPAXAAAAAAAAAAAAANIAwV8AAAAAAAAAAAAASAMEfwEAAAAAAAAAAAAgDRD8BQAAAAAAAAAAAIA0QPAXAAAAAAAAAAAAANIAwV8AAAAAAAAAAAAASAMEfwEAAAAAAAAAAAAgDRD8BQAAAAAAAAAAAIA0QPAXAAAAAAAAAAAAANIAwV8AAAAAAAAAAAAASAMEfwEAAAAAAAAAAAAgDRD8BQAAAAAAAAAAAIA0QPAXAAAAAAAAAAAAANLAj/7bYK8D8+Y/7v2nvQYAAAAAAAAAAIBk/n7lT+01YH4Q/AUAAAAAAAAAAACANEDZZwAAAAAAAAAAAABIAwR/AQAAAAAAAAAAACANEPwFAAAAAAAAAAAAgDRA8BcAAAAAAAAAAAAA0gDBXwAAAAAAAAAAAABIAwR/AQAAAAAAAAAAACANEPwFAAAAAAAAAAAAgDRA8BcAAAAAAAAAAAAA0gDBXwAAAAAAAAAAAABIAwR/AQAAAAAAAAAAACANEPwFAAAAAAAAAAAAgDRA8BcAAAAAAAAAAAAA0gDBXwAAAAAAAAAAAABIAwR/AQAAAAAAAAAAACANEPwFAAAAAAAAAAAAgDRA8BcA8L3p3rdaOcWtGrKfz11AtatWa3tLyHp6uV45qzxquWM9nRtrXzmpLikcdyTk1+EKtwry7Pf8wqmSfe26OWI3iPPdv4vJ5nN/831sAAAAAAAAAICng+AvACBFCYHYBAs/gOjSqTu3FUphOe223zKD8OUGFb7coIG19Tr/mfW+wQvvaGukXbt3Vqhj0G4IAAAAAAAAAMATQvAXAPDERQPF8aNsky0LOZA8FtSbR3zKrGjX+TqnVj5rbc5cnqfKlvdVt6xHh9/q1D1rcwpCaik2PvO+gP38uxlq8ST/TuOW2st2YwAAgBRY12/16rafz5twQAc2rZaj0qckxVMAAAAAAHNE8BcLw0iP2vaVTZROzXOqsOK4Om6N2g2SiIR08ViFCjflW+9xFGj7Ib/ujdmvG1IKMH3rErLA0xDRQFuFClIKjM7Q9k6rtif9PcQt32PwteikNVL2qtchuZvHR9xGnzu8umo+v1ClXLv9gnMtoK7HOSranmdviJej8t1O6fOArj+wNz0Vbp22v9dky6ltdjMAAAAAeMLCn7erttQpR7T/ma+C0gZdDEXsV+NEp/5J6Kvay6wJrdcalLfKraZ++/nYI91sqVbhL+x9/MKt3ccm30dKNHLDOs48h/WevF3GcX5lvzhXIwEd3ppiIu5c2ppi99Viny0v+ZREqSQKT1ftCwAALB4Ef7EABHTAWaE3/f0a+dre9PUjDd3o1OFdLxsXukkCwIOtKilwq7ajR0MjdudgbFQDXfX65zYuUpGeRvo7daB4g7Y39sw6KmIubaeVYT/+UM30+f9mnncy9cw0bbKWZBn/DSsctp4DAABgGlkunbhxW4NtHmXbmwCkt/Dlerl++7Yu9j+SdUcnYvRhfap9uUwtCdPnhEe/badqVF0+n8LrPSqN5uyOqnv/Lu1uDmootstwSDc76vXSr5MnPg+0lslZYR1n2A4Qh28Zx9k8x4pNkZC6m6r1ktOrjtluWc2lbZzut+z7arHP9vUj9frf1u6d9ep+bG9L1Y/tRwAAsGgR/MWC8Ndpsywf6eJ7nZMvwh8HVFvZrN5YoDjR3+zHVGXna80L9jqwIAV1eJOZCX1cXWGnitbbm5NKse2qKl1KMho0unxYoVwtU+mesqQjbwea3Umzg/f4jRcHm1WYuG0GwyPD0t3Q+G/87vACmij35znTjzz+cabxn8i05y7rBkWWsswYMAAAAADAMhZU03G/RjJyVNro0+Cg0Qf98qrOVjqM1wbV9K5P8eHehyNmOnPyqkYzVjO6f15dAamopEQrzeeBRu25nKXSI5369Evr/YOBM6rbtEy6dVYdwei7Jnzxtn7f1K+IfZz90ff06dMP96toDpkqQ+0Vystza09rj7ILndaxTGMubafIdqqmOXacxmfr8emoy/hsI3594H9kN5Jya3zj31/icr4yx9iPR3t/YzwCAIBFjeAvFoRnHB6d+qhHg9ELzj71f7RfG2Mj6hKCK73vNetibChjdoHq2q5anYXBPl1q9GhFXIZirLTslOWTQ/b+l2jHIa82/9BHOGKBiyjybJ7KjU5qz782a+dP7c1JzaVtMsPqaG7X0BavDrqW2NsmW+P1J/1dnXYbL8ZKNsdvm0H48ahk/H5v27/ziJnUcWdYd62nT8mo/jJdcknMFpdKl4bU9cfEOwSmkDrOGds3uLT5eXsTAAAAAEC66lfHiLSu7oxO7HQo07wfk7lCm+vf14ktxnrArwuJ0+cszZKZfjsXvX/wqXepR6/sjPVrV6juI79OlOVppb2zzJ85VVPvUa7RB+wdjB9mO6qus0a/2EyKbvFFjzMr+p5MrVxfodNvuKKtUvKNtHKbV6evfK7zNfmaMT94Lm0TFL1xRnXbYsdpHOlSh8rf8mqzsR5OpSTV/U41tYe02VuvIpKYAQBY9Aj+YgFw6cRHx7Rj7RLrYj7yjR7+16PxTM/sfMfE6LuxoLp89gV5hkN1be2qca6wOgsZmVqz85hOm5mKMzIu4o8d100z2LTBa1wcJw9wAQuH8RsJtOuo0UnNnjVRYS5tpwpffkdNnxu/rX2eOXU0v51B/fvdJcpaGtDlj83y7v269W/Gw9htDSXMwz0+2tg7y1DiKQKqjRuJnNpSoAPXjLf6vRPb9iWU9cpw6uARj575o1clTUHds4PFkftBtVS8qqZHxr/DW2Vzy9R+2iaN2mYudAAA0kriXJCOAhVWt06ZC9IUCfl1uMI9Mb/l1mq1fJ5kKh6F1FJstClu1cBIQG9WFFpzdxr73n7InkNz7JG6Gyv0Up61L4erQm8GJkagWezrtUnXW3HbvvLrQNy8oC9VvK3ubz2vCYCnrfdLcwJep0pLV1gbxi3R1i1O47FHA19aW0x37w5Kz2crsfWMzHtHXSHllnomkv1dVapx2Ovxvv4mWnr6hb+Lu5f04JIumKckl1cHt8w17DxZblW7Lp2sUlHO7PtJtW040KAC43xYMtu0Z2NWUe3s7NmGKo+qu6lZN1cZn7eUe2QAAKQDgr9YGDLiAjQvFqiwsl0DY9JK5yGdbTAv/m39Pbppz1WysqJB5X9p1WuufOt9v3DrtZYU5jcNNqvJDOwoR5XeRRacAb5PY/16t9kvuatVvsre9n160Kfeu4U6WO9S9wedGrpj/L7vO7V5y6A+CQ7bjSzjo42bZxlKPIVLp+JGIn/r5eTUzO6sbcd09U/HtOZWo0p+aZ2/HMWH9Mnyal3yN6t0ud1wsZg0atunmifxvwEAAPBETJkLcmxUQ9eatbu8Wb32JlM4eFzbX65Xx43QxPyWoaCafvuq3p2uNEv4qg7s9KrtxnA0gGLue6CrXiXH/Lq4f5f2tPVMJMp91aO2mqrUk8zCfu0prldX3Lyg9260a0/52+q1jw/A4jLywOjrrXJoTZJs46y8fK0xHh+aFaLixSWqOja5tds4vwxZJ4Wkwh/71BV2qfL16GS/MxjVxQ/O616GS7/cZG8y9fXrpvFQtM2tSMA4L9qJM45NZao1zmkpjKN9usYiGrnl14HfHNf1tV7VeWYJ6H5xRk1+aUd18qmfAADA4kPwFwvUMq1xV+lgnUdr4kcvPhzRPXs1/3/0aHdFs65/ZV/xh0O63lwh9/7ADBfiIbU0dVoBYleF9s44dyrwwxL+uF1tIYder3bNOOp3xjl/5+Ce36+bW/K0dadHpQ+a9U9V5zSwwam9mwrUe9436UbkQpWZ49bRdr96+u2g6Z+DOn+8TGuW2g3iRMvQX6iiMw0AAJ48ey7I8WuW/k7VrDW2h/6kK19YTaLzcL7RqSGtUJHxOD4nZo9PpzwRDQza7RLdH9TDVV6du2G3/3C/NmZLI3+sV61xfVh0JGFOTw3qwuXpdpYgGFBvvldnP+mz9v1Js8rNwXmh87pww2oCYDEJachMJMl4ZsYyziPReX5NU6fkiYyEdLOjXoVbG9RtDw6YLKSODwLK8hj9zBnLWY3qZuOrqr2cqR0nj09qOxQyD9Kh3Mdvy13TqQH7JlNkpF8XGyvkOpJs+p8nJ8t1TD13+qw5esfZ1RjM/rkjXwW/fkdDmxp19cOqyffVprBLXDte014q4wEAkDYI/mKBeqQBf6v2FG9QSevEjQHrAty0QrcvNUdHByca8TfrPbOKUBJhX7OaorvLUeVrT6KsLbBY9Ou99wKSq2yGUb8pjKJNObjZr67z/SraUqgss4RynVP37j/SRleh1hW7VfRVp97zJysv+F3MsQR0YqnnpOwOdgptu/cZ7YpbNWQ/BwAAeFJic0FmP2tveDZPdXs8xsqwHj60NulGUBdGzHk4z+p0RdycmEsd2vHWGR2cLnHWuJarO1kVDfiaMtdX6ITxfhl9tdzKd3S6LG5Oz7oKFRmrQ19NrvIyrZwKnW6r0ubl1sFkLnfpaL3Zj0ucnxNAelqi4pNW8oe19Kn/o2bVbFom3fep6WySmz/X2vXeYI7KS+KqyCUaCehwsVO7O6Xylo90KmnQc1gdZ/q0tdlOYIn+7UMqMpNbOs+o7b7dbKEaG1Zv5zH9/phdhn86/WfVZnRni37LqF8AANIJwV8sEHFBpS97dPXD/dELarOsV++pRnU8iDbST8bnKRnWw59UjWeAh/p9OuoyLv6jQrrek+xGwLC6ztsBmvUelTPqF5hwzaeO0BKVep5MUkS464xaHnv0yk67k52RaSwuFRcbv+Msj+r2rlD3W8emyeT+tlIvAX16rtWlAQAAFrKxiAaCnWo51qDaCrde+pVTjhqf/aJl6Ms+hVWgYneymTVXaOVP7dVEq/K1LqHqycrl1j5Wv5hQcjVjtdYmm3NzOqvztC5xxNoK41jMx79FnwFYVLKVPd25JM6Kn02MaM18Nn6McKay1rpU1/aOzEGvQ8GehOTaUXX5fAqv96h0morPI4HjKnR6dT27WucC8feSEo1qnfd9Hd1mJ7BE/3aZTh8z+8z9+uzGfCcrf1c5qrkQ69P2qT/o0+nK1XpoluE/NH2FvOvnOzW0NK5vDgAA0gLBXzx9iRmImUuUu75CdWX2XYGxHn3RZ61mLY0Ff6WNpd7xDHA961C5e4O1bkp2I6Dfpy67pNnG/9d25voFxtkd5OUlKt1ib5rFdxvFOqiuq8PavLdKm81OtDnX8HsBZb8yUZYrt/q46hxhPXwww0RO6cjvTT4KOX6pNv6t7OYz82tPsvfHLdtbGDEDAEDaexzQgX/M1/bK42rq8OnijVC04kryq6xMZcZGBwPAvFui58xkkcHbup1sNOqd2xqYKdkkJiNP61fb6/Hun1eXOYq1pCTpPZ97XV65fxfUCw1+XW2bqFiQ6Lkss2OaozUvJgmI2gkoE6WpF6JMZT3vUFFdu06Vr9CILxCdw3iKsE9/9I1qpcdj9c0BAEDaIPiLp26orVqvNQU0MBK7/RBR+Fanmjpj5Z5X6Cc/sVcL8rTZXu0++7au37ff8/WgOvyfW+uGF3Li5z2x9F79kx2oKtDWaTM7gR+g8FVdMTrIK7e5tM7e9P1yqLLNr7NGJzTq7m3jt+lSnTeuLFeGQzVtZ1TuiM/y/q5SL/s81/mLUwnazrzP+CztWZYzs4/Ozq3xJX9vwnKpZuq5EgAApJfrzYfU9SBHpW+c0aVgUD3GYpYwPVs6OahhVVkK6sqVJKPZxvr1xW17HQC+g435Zr8voI99ieeaUXX5jY6pGdidZtTuuLEefWYOEnhuiZ6ztkT1/sGn3pwqve5JErS906p/PtSnjSd9Ol2WM+Ocw9mrV2ulWVXuWpJk2eFh3TMe1qxa/H2p8JWAusdWqOgfZvvCAQDAYkPwF0/f30Z0vdWr7Zvy7SBJvvJ2HVd3LIky26lfxq5Dswr1itu+iL/Vrtd+Zb8nz6PDgUfW9qVubdtkrU7o15XL9rxSG1za+ry1CsDq8F3X99PhKzp5e/Z5gFeV6eyVZpUmlAv83ribkwZCpywnXfYbUpDCPiklDQAAnoZIeNToR72gdVsKtOb5Zcpe+lfdPFWm2j9nTxoZl+V0amOGdP3wb3Tg40FF7FF5ka+Caqn8ndooGAJgHmRtdakoeq55VW8Gh60qBJFhXW98VQeuSdmvuKOvWwJ6s7JZ3bdG7WoF5mABvw7sqlbHfWmjy6nxwbtjQXV1hbSuxJM0qfl651kNrPLo9aTz+yZY79KOHGng3Wrt6YydDyO6F2zV7gafwkvd+lVBtOXCcKddtYc61RuKfU/G0T4eVHdThWo7hqUNeZo6UHpUV64FpeUubWVaNAAA0g7BXzx9P7Yfk8lwqLLJG1d+ZomKGo5rxzSleZSRo/K3GlSUOCzuTo9uGh0D08q1qyc6BwB083Ojw5dRoPV0+AAAANLO6vwCq/Szy06cfbFQr7VF9Lp3++RqIs+X6eBehzQWUle9Rw6HVb3E4apW050N2hFXpAUAvrUsj+pqzXPNoNoqC+UYPy8NStlu/a/4ilCGh8FW7dlVYLWLDhaoV9dgRJnrvTpYNjFHedjXqa6wS6WlyeYtD2mgbzQ6+nd7dD9JlknTGuWp7mCZVmpY3Udi58N8vVTZrJsjy7TjSJL7Tk9QONCgAuN4Ssazcr7R3a7jKtka+56Mc3eBR3taezSSXaCjb5ifJcHY5/rsU+NxQ94TqgAGAACeJIK/eOpyK1t1rt6tdc9PZF9mZudoY/khnQ/6dHBDQlbmUpdOXfPrVGmesmMX288uU+6mMp36k09Ht0zN4gz392nAXl+9mnI2wIR+a05txwq9YG0AAABAGllZ/o7OeZ3KtftOmT9zqq79fdUkufhbU9Opq40ercu2C6JmLFHuFq/OfdyobU8x0AEgveRW+fTpybhzzbPLtM69X+f8jSqaVBHKqb3mOSnuflFWToHKj3Qq+C9VWjM+UKBf750NKsvjUel8nauch3Spfb925C2zS0RnKjvPrYMf/EmnUhk9/CStKtOJI5O/J+u+WqOuXmtXucPeGK+/X31jxnn/59wJAAAgHf3ovw32OgAAKeneN7d5cdd4/fMzv+zleuV476rO71PNKntbysw5f726aD+bnSOFvxNSS7FbTbEpymfj8OrqbGWwUxT9N7g7P/ubz30BAAAAwBN1rUF51X0q7/Krjnx/AAAAgr8AAAAAAAAAFqNRddUU6ICOqb/FM7mcPQAAwA8UwV8AAAAAAAAAAAAASAPM+QsAAAAAAAAAAAAAaYDgLwAAAAAAAAAAAACkAYK/AAAAAAAAAAAAAJAGCP4CAAAAAAAAAAAAQBog+AsAAAAAAAAAAAAAaYDgLwAAAAAAAAAAAACkAYK/AAAAAAAAAAAAAJAGCP4CAAAAAAAAAAAAQBog+AsAAAAAAAAAAAAAaYDgLwAAAAAAAAAAAACkAYK/AAAAAAAAAAAAAJAGCP4CAAAAAAAAAAAAQBog+AsAAAAAAAAAAAAAaYDgLwAAAAAAAAAAAACkgR/9t8FeB+bNf9z7T3sNAAAAAAAAAAAAyfz9yp/aa8D8IPgLAAAAAAAAAAAAAGmAss8AAAAAAAAAAAAAkAYI/gIAAAAAAAAAAABAGiD4CwAAAAAAAAAAAABpgOAvAAAAAAAAAAAAAKQBgr8AAAAAAAAAAAAAkAYI/gIAAAAAAAAAAABAGiD4CwAAAAAAAAAAAABpgOAvAAAAAAAAAAAAAKQBgr8AAAAAAAAAAAAAkAYI/gIAAAAAAAAAAABAGiD4CwAAAAAAAAAAAABpgOAvAAAAAAAAAAAAAKQBgr8AAAAAAAAAAAAAkAYI/gIAAAAAAAAAAABAGiD4CwAAAAAAAAAAAABpgOAvAOB7071vtXKKWzVkP5+7gGpXrdb2lpD19HK9clZ51HLHejo31r5yUl1SOO5IyK/DFW4V5Nnv+YVTJfvadXPEbhDnu38Xk83n/ub72AAAAAAAAAAATwfBXwBAihICsQkWfgDRpVN3biuUwnLabb9lBuHLDSp8uUEDa+t1/jPrfYMX3tHWSLt276xQx6DdEAAAAAAAAACAJ4TgLwDgiYsGiuNH2SZbFnIgeSyoN4/4lFnRrvN1Tq181tqcuTxPlS3vq25Zjw6/1al71uYUhNRSbHzmfQH7+Xcz1OJJ/p3GLbWX7cYAAAApsK7f6tVtP5834YAObFotR6VPSYqnAAAAAADmiOAvFoaRHrXtK5sonZrnVGHFcXXcGrUbJBEJ6eKxChVuyrfe4yjQ9kN+3RuzX08U+xu/iP2NQr3W0qOw/TKwOEQ00FahgpQCoym2TfwtPYHfRtFJa6TsVa9DcjePj7iNPnd4ddV8fqFKuXb7BedaQF2Pc1S0Pc/eEC9H5bud0ucBXX9gb3oq3Dptf6/JllPb7GYAAAAA8ISFP29XbalTDrMPuipfBaUNuhiK2K/GiU79Y9/HSVhmTWi91qC8VW419dvPxx7pZku1CmP3hX7h1u5jM9xHMozcsI4zz2G9J2+XcZxf2S/O1UhAh7emmIg7l7amKfe8kk9JlEqi8HTVvgAAwOJB8BcLQEAHnBV609+vka/tTV8/0tCNTh3e9bJxoZskADzYqpICt2o7ejQ0YncOxkY10FWvf26bepFqlmd9KfY3YhGtr4d1vdnYNj8D7YDv3Uh/pw4Ub9D2xp5ZR0Wk3Pax8fvbmvBbiv42GtXxrebVTSMZ9mMyfzO/q0w9M02brCVZxn/DCpNdAgAAMLMsl07cuK3BNo+y7U0A0lv4cr1cv31bF/sfyeqFRow+rE+1L5epJWH6nPDot+1UjarL51N4vUel0ZzdUXXv36XdzUENxXYZDulmR71e+nXyhOmB1jI5K6zjDNsB4vAt4zib53gjKRJSd1O1XnJ61TFbXHUubeN0v5V4z+uRev1va/fOenU/trel6sf2IwAAWLQI/mJB+Ou0WZaPdPG9zskX4Y8Dqq1sVm8sUJzob/ZjzGCrdu/zTZvJ+dfE9sCCE9ThTWYm9HF1hZ0qWm9vTmoubY3O8Btedd2Xsjd5dTbQZ40KNTrdp8tXK9NulWig2Z00O3iP33hxsFmFidtmMDwyLN0Njf/G7w4voIlyf54z/cjjH5vfTmTac5d1gyJLWWYMGAAAAABgGQuq6bhfIxk5Km30aXDQ6IN+eVVnKx3Ga4Nqetc3qQrVwxEznTl5VaMZqxndP6+ugFRUUqKV5vNAo/ZczlLpkU59+qX1/sHAGdVtWibdOquOYPRdE754W79v6lfEPs7+6Hv69OmH+1U0h0yVofYK5eW5tae1R9mFTutYpjGXtlNkO1XTHDtO47P1+HTUZXy2Eb8+8D+yG0m5Nb7x7y9xOV+ZY+zHo72/MR4BAMCiRvAXC8IzDo9OfdSjwegFZ5/6P9qvjbERdQnBld73mnUxNpQxu0B1bVetzsJgny41erRiUobiqLqamzUQ20dO3N8xOxfeAj1nvwQsXBFFns1TudFJ7fnXZu38qb05qTm07T+rtmvG44b9OtdWpc0/s8O9zzpU1HBMlausp4nWeP1TOonmctptvBgr2Ry/bQbhx6OS8fu9bf9GI2ZSx51h3bWePiWj+st0ySUxW1wqXRpS1x8T7xCYQuo4Z2zf4NLm5+1NAAAAAADpql8dI9K6ujM6sdOhTPPeT+YKba5/Xye2GOsBvy4kTp+zNGva5OTp9P7Bp96lHr2yc4m9ZYXqPvLrRFmeVto7y/yZUzX1HuUafcDewfhhtqPqOtuuIS1TaYsvepxZ0fdkauX6Cp1+wxVtlZJvpJXbvDp95XOdr8nXjPnBc2mboOiNM6rbFjtO40iXOlT+llebjfVwKiWp7neqqT2kzd56FZHEDADAokfwFwuASyc+OqYda5dYF/ORb/Twvx6NZ3pm5zsmRt+NBdXlsy/IMxyqa2tXjXOF1VnIyNSancd02sxUjDEzPc3glinbrdMfxv0ds3NR066jhdFXgQXM+I0EjP+tGp3U7JlKEUel3vb6x+ao+hzV7KtQ7qz7/T4M6t/vLlHW0oAuf2yWd+/XrX8zHsZuayih5PT4aGPvLEOJpwioNm4kcmpLgQ6Y5w2/d2LbvoSyXhlOHTzi0TN/9KqkKah7drA4cj+olopX1fTI+Hd4q2xumdpP26RR2x61/NDLfgMAkE4S54J0FKiwunXKXJCmSMivwxXuifktt1ar5fMkU/EopJZio01xqwZGAnqzotCau9PY9/ZD9hyaY4/U3Vihl/KsfTlc5rQ7EyPQLPb12qTrrbhtX/l1IG5e0Jcq3lb3jPOaAFjIer80J+B1qrR0hbVh3BJt3eI0Hns08KW1xXT37qD0fLYSW8/IvHfUFVJuqUebY31dV5VqHPZ6vK+/iZaefuHv4u4lPbikC+YpyeXVwS12NPVbyq1q16WTVSrKmX0/qbYNBxpUYJwPS5JMezbJmFVUOzt7tqHKo+puatbNVcbnLY0FywEAwGJG8BcLQ0ZcgObFAhVWtkdH6650HtLZBvPi39bfo5v2XCUrKxpU/pdWvebKt973C7dea5k8v2n4Ro967fXN3gatvtGg7fYND8emMh34OKTIUwl6AU9bSAN9o9Iql7Y6BtVWPXGzrrDiuC5+ZTf7Pj3oU+/dQh2sd6n7g04N3TF+3/ed2rxlUJ8Eh+1GlvHRxs2zDCWewqVTcSORv/Vycmpmd9a2Y7r6p2Nac6tRJb+0zyvFh/TJ8mpd8jerdLndcLGYNGrbp5ppRn4DAIDFZ8pckGOjGrrWrN3lzeP9JVM4eFzbX65Xx43QxPyWoaCafvuq3p2uNEv4qg7s9KrtxnA0gGLue6CrXiXH/Lq4f5f2tPVMJMp91aO2mqrUk8zCfu0prldX3Lyg9260a0/52+qNVXcCsKiMPDD6eqscWpNkdGlWXr7WGI8PzQpR8eISVR2b3NptnF+GrJNCUuGPfeoKu1T5enSy3xmM6uIH53Uvw6VfbrI3mfr6ddN4KNrmViRgnBfj7iPVGue0FMbRPl1jEY3c8uvAb47r+lqv6jyzBHS/OKMmv7Sjumz6qY8AAMCiQvAXC9QyrXFX6WCdR2vig7MPR3TPXs3/Hz3aXdGs61/ZV/zhkK43V8i9PzB+IW7NDWNyKPdxo0r2+TRgvxgZ6VdXvVslLQtojlHgibmrfzf/p78qS72ve/TmtYmbdUM3OlW7tUId980NU8045+8c3PP7dXNLnrbu9Kj0QbP+qeqcBjY4tXdTgXrP+ybdiFyoMnPcOtruV0+/HTT9c1Dnj5dpzVK7QZyik8brF6roTAPA/7+9e4GSor7zBf7rIfegJg6aQNSrRjMR3cGogDHIZoOKAsblcRU0WaKeJRgfAR3NIBojJ3oxriIYUVgFQXN8kA0wmgAxAlkFVuOSrAJGYH2EBB8XFW/UMT64yvStnq6BYRheMoam5vM5p6n6/7umqamu6umqb/3/f+BvLx0LcsN3lqXTYtiXk/pVv4qHnywuUj8O5w8KPcMcFH2S6YYxMRfXxC0D18XyLZ02vbIyXj+8Ku5/PF3+Z5dH9w4Ra38+Mi5Nvh/2uabJmJ6xMn756+08B1s0P57qUhV3Pbqk+NqPjo9zCo3zVs2MXz5eXATYnayKFwo3krTZY6vdOK/dcC1n8yF51q1dFU/cOzJ6nzoq5qaNAza1Ku69Z36UD0zOM7faffE78cSYf45Lf902+t983SbLvrCqsJKF60g3Rd9h0za5jjRrzJDodU1zw//87ZT3Gh2Ln1tSHKN3g7Q3hsL5eWWX6HbmrfHC18bEvJ9dsOl1tc2kXVxXfieGf0OrXwDICuEvJeqNWD5nUlw04PgYNGnjhYHiF/CCg2LF7EZj+Tayds74uLPQi1CivnugeutiwYM1m7QKbrB8wh0xveRv24RPyON3xL17Xx4z0wtqq5amF+XWL45xtzc9od2OVrTbHW4ujekzl0afnr2jvNCFcnWPeOmVN6J7r97RdUDf6LN6Wtw5p7nuBXfGDnYB3bSr52alJ9jbsezc7yfLDZgUL6RlAIC/lYaxIDvslVbs1TmqLxqYzLwcr79erIrHF8UvkxOmrtV3xe1DGo2JuW9l9P+XO+KqY4vlzSTf5apvvqA+8C1oe+yQuCH5+UjO1Q4779a4fXCjMT2rh0SfZMDVdZkAACTCSURBVPaF1Zv28rJFFUPi9ikXxIkHFlem7YG94tqRA6M8mo7PCWTT3jHg5vRctf6xJJY+MD6Gfa19xCs1Me6u9OJPY4/cHXeurIhzBjXqRa6ptfPjRwN6xLenRZwz8YG4pdnQ8+W4944lcer49AaW+v/76uhTuLll2h0xZQs3S5eM9S/HU9NGx2Wj0274t2TpXTElOZ3tc65WvwCQJcJfSkSjUOkPi2Pezy6v/0JdCG2fumVM3Ptq/ULx+Q3jlLwcr3/+gg13gK9aWhPX9kq+/NdbFQsWFy8EdNi/YVSYVbGu05iYnd7pvvLRO+K8wp3uBevnx1OL03lobfYdFDfcOiS6phfUYq+D4sSR4+sv7jXuNr2l1U6/Iya+OTC++b/Sk+w2yf/fplcMGJAcx+UDo3r4QTH3X0Zv4U7uj2v7u4C+fUd7lwYAKGXr18XyRdNi4uhRcemQvnHCST2iclhN+mTRC39YErXRLQb0bW5kzYPi4APS2aYO7xJdm/R6cvCBxdfodFSTLlfbdIovNzfm5pZ06hxdm7ZYOyhZl8L0o/oSsFvpEB229FnSyEGHbGzR2navxm2E20b5l3tF9ZRbo9Do9YVFi5vcXPtOTK+pidpjB8ZZW+jxee3866J3j6pY0OHCuH9+42tJTb0TXat+Gtd+I72Bpf7/Hhy3jy7cgLI0fvt4S9+svLMqYtgvG85pl8TSRTVx+3md4vVCN/xXb+whr6kFM6fFC/s2OjcHADJB+Muu1/QOxLZ7x2HHDonqwelVgfWL48klxdnyfRvC34juZ1VtuAM89qqMc/oeX5wvSC8ElLdr+PJaEf2/2zeOTO90b3tgjzjr5I1XHT5w4YBWp220K1ykO6Jy8wtqDRf3XlnbbGv5gp1rxboyps97OU4cfkGcWPi/1y+NCXfOjw7f3Ngt12EXXhfVlbXx+qtbGcgpi+ZUNd8KufHjwprtHGNqTlzU3M83evSbqMUMAGTem/PjylO6RL/zrotx99bErMdX1fe40vy3rLbRtqF1MECL27t4HrpyRaxorjXqcyti+dZuNmnQpnMc2ymdb+yVmTG90Ip10KDiTSJNvDS9Kvpesii+NGpOzJuysceCptqVF05MK+LIo5oJRNMbUDZ2TV2K2kb5/pXRp/ruuOWcg2Jtzfz6MYw3U1sTP695Jw4eOLB4bg4AZIbwl13uhSkXxnfGzY/laxsuP6yL2memxbhpDV02HxSf/3w6261znJjOzr3rpljwSvoz762Me+f8Z3E+8aWK4l2ih33l+PQL/6qYPmFaLE/Hiln3yqKY/u8Nr18ZHb+UzkKr0SWO7JJM/nNRzN0sSXw5XlqTTL78pfhkDo3KOG/KnLgrOQmt98cV8UL0iuqqRt1ytamMYVPuiHMqG9/lvbO2v9vnHR2/eHtC262/ZuO7tLfxuKNwp/nWHTaspvmfbfKYPazxGFEAQBYtGH91TH+1Is76wR0xe9GiWJw8Cl2Y3nXWpqFGsZelRfHww820Zlu/NJ5ckc4D7ITuXQrnffPjFzVNP2veielz5heD3S202t1g/eL4baGRQLu9o12xpt5T/1YTT1VcEN8d2Exo+9yk+N7VS6L7zTVx++CK2NqZZodOneLgQq9yjzRzs+zLyflyMjny8N3/XKr24fkxd/1B0efkbW1wAGB3I/xl1/tobSyYVBX9vtYlDUm6ROczrou5DTdRdugRf9/wPbS8d3yzb/ol/pm74zsnpT/TeWD8aP4bxfp9+8Y3vlacjUJXP2kD30LXPv06F0OYypMujCnPFOujsnf0OTydh1Zj7zi1V6+IN+fEpReM3+RGilk/uDCufzI5mT25106P+dPn5hXbHgf48MFx18Pj46wm3QV+YvqObzYI3exxc7J9ttd2vKaupAGAXWFd7TvJedSXomvPbnHk/u2jw74fxBO3DI5L/6vDJi3jynv0iO5tIhb86J/iyl+sjHVpq7x1qxfFxPMuiSk6DAFaQPmpvaJP/WfNP8f1i14u9kKw7uVYMOaf48pHIjp8s2/980Xz4/rzxsfcZ95JeysoNBaYE1eecWHc+0pE9149YkPj3fWLYvr0VdF10MDomlY1tmDaXbH88IHx3WbH923i2F7RvyJi+YQL46JpDZ+H6+KlRZPi26NqonbfvnFSt/olS8Nzd8elV0+Lp1Y1bKdkbd9cGXPHDYlL73054vjOsXlD6Xfi4UcWRRzYK07d0pjuAMBuS/jLrvepdNqcNpVx3riqRt3P7B19Rl0X/bfQNU+0qYhz/mVU9NnQLK4iht1QFUduqfuaDt3i2hu2EUxBRpUPvDyu/VrbWPfkpE1upLi0ZlXEl6vihgu1CgUA2N116tKt2PVzr/T73lG94ztT1sV3q/pt2pvI/oPjquGVEetXxfSRA6OyMr1xtteFMe6546N/o05aAD628oFRfWnhs2ZlTDmvd1Ru+FxaGdGhb/zvxj1CJV5fNCkuOqNbcbn6xgIjY/rKddH22Kq4avDGMcpra6bF9NpecdZZzY1bviqWL3mnvvVvv/rXaeaxybBGnaP6qsFxcLwcc69p+DzsEiecNz6eWNs++l/T+LrT317t/FHRLVmfQRvuyvl/8cfp18WgUxu2U/LZ3W1gXDRpcawtXPf6QeF3aWL9f8ZvFybT4zs3G5YDALs34S+73GHnTYr7R/aNrvtvvPuybYeK6H7O1TFzUU1cdXyTuzL37RW3PDInbjmrc3Ro+LK9V/s47GuD45Zf1cS1PZssX3lBzF50d1T3rIgODeNXlbePrn0vj/t/cXecs3HoX2hlDopzpsyOW87pFoc1HEvlhWNvTCycccGWb5oAAGC3cfA5t8b9VT02fN9re0iPqL77pzGsmfE9jhw2LeaNGRhdO6QdorbZOw7rWZWcN42Jb+zCoAPIlsMuqImFNzf6rNkrvUYzZ0z02aRHqB4xvPCZ1Oh6UXlFtzjnmmmx6L7G56xL4867FkX5wIFxVkt9VvW4OmbffXn079w+7SK6bXTo3DeuuudXccv2tB7+Wzp8cNxwzabbqXhdbUzMe2QL172WLo0l65PP/UONgwYAWZTLJ9J5ANguc7+/Y+PiHlk1p2XGl/31yKio+mNUz6mJYTvcXXthzN+qmJWWtq1yO/6fVTFxQN8Y1zCE+LZUVsW8bXWDvZ3q34M/tszrteRrAQAA/E09Mio6X7gkzpk+J6oNXwsAIPwFAAAAAHZH78T0Yd3iyhgdSycO3LQ7ewCAVkr4CwAAAAAAAJABxvwFAAAAAAAAyADhLwAAAAAAAEAGCH8BAAAAAAAAMkD4CwAAAAAAAJABwl8AAAAAAACADBD+AgAAAAAAAGSA8BcAAAAAAAAgA4S/AAAAAAAAABkg/AUAAAAAAADIAOEvAAAAAAAAQAYIfwEAAAAAAAAyQPgLAAAAAAAAkAHCXwAAAAAAAIAMEP4CAAAAAAAAZEAun0jnocX86aU16RwAAAAAAADN+eLBB6Rz0DKEvwAAAAAAAAAZoNtnAAAAAAAAgAwQ/gIAAAAAAABkgPAXAAAAAAAAIAOEvwAAAAAAAAAZIPwFAAAAAAAAyADhLwAAAAAAAEAGCH8BAAAAAAAAMkD4CwAAAAAAAJABwl8AAAAAAACADBD+AgAAAAAAAGSA8BcAAAAAAAAgA4S/AAAAAAAAABkg/AUAAAAAAADIAOEvAAAAAAAAQAYIfwEAAAAAAAAyQPgLAAAAAAAAkAHCXwAAAAAAAIAMEP4CAAAAAAAAZIDwFwAAAAAAACADcvlEOg8AAK3Gu++9H+/89f348KOP4qP169Pa0nDM2P3SudK3bMRr6RwArdGpkz8Xa2o/lZZKw2faRnzhsxHDTiqLc7qllQAA0EoIfwEAaHVeXfuXWL++Lj691x6xT/ln0trSUV5Vl86Vvtrxpd+Z0J9eWhNfPPiAtFSadod1LLCeLcu+2XKs565Tyn+z9tkzoqJDLhZU59IaAADIPt0+AwDQqrz73gf1we8Bn/9sSQa/AEDLeGtdxJ//b8S9i7V7AACg9RD+AgDQqrzz1/fqW/yWlfkqDACZVhfxl3cjJi1KywAA0Aq44gUAQKvy4YcfafELAK1GPlat1fIXAIDWQ/gLAECr8lHd+nQOAGgN/rounQEAgFZA+AsAAAAAAACQAcJfAAAAAAAAgAwQ/gIAAAAAAABkgPAXAAAAAAAAIAOEvwAAAAAAAAAZIPwFAAAAAAAAyADhLwAAAAAAAEAGCH8BAAAAAAAAMkD4CwAAAAAAAJABwl8AAAAAAACADBD+AgAAAAAAAGSA8BcAAAAAAAAgA4S/AADQCpzQtyxeGl8WP07LJeXDfMyYWhfHXVYX5VV10fHKuhj+UD7eTp8uCW/lY/Kkuvj6yOI6lifrOmhSPha+lT5fqt7Ix6DC+o7Ox7NpVSmYlWzL+u3YzGNWukzJKOyf99VFv2S/rF/H5L0f+mCJ7J+v5KNfk+232aOE3vsP1uRj9Li6OCo91o/6UV3c9kw+fbZ0PPtYcnxfVRcHF7Zfsq6njMvHrNfSJ0vQa08m65is59aOnd89lPxOjfbhQVOT/eLD9EkAACBThL8AAJBhRxybi5lXlcXsXhHt0rqSUpeP227Kx9CnI56tK1a99n7EPXPzccqdpRMAz/p5PkasiFi2Lq1I1nXeinz0u6EuZtWmdSVoVk0+5qXzpWTdB+lMqatN3vcfJfvn7yMWJvtlveS9n7EgH/e8kpZLXZuIPdLZXerFfJw5Jh83vRixOj3WV78V8cPkOB+xuFguBbPurItTZiTH97tR/PxJ1vV3ybqfnRzrt5XYe14I02/6SV185Z5kHdNt2pzCzRanzE1+p0b78Lynk8/Y5LN32VZ+DgAA2D0JfwEAIJNyMXVUWfz+3Fz07hCxrERbra2ek48f1kaMOjsXr/+kLGrHl8VLl+Xi/H0inn0mHz//S7rgLrbH3sV1fGlscR1fvz4XEzomT7wfMf2J0mu5WO/puhj9p4jzK9JyycjHq4XAvFOufls2ffQvLlQSZtydj8nvRhzxhVzMvipdxxtycd9xEW3TZXapA5P1arL9Njy+l4uvJouc3ycXhxSX3qVmzMrHwrqI/sn6NBxHzw/NxQllEZNr6mJhutwuVThmnkmm+0XcV51ux+T9nt09ol2y7mNKpcV3cgxNHlcXHW/Ix+gXIwZs7Rgv/E4rkvVPPlOnpr/T66NycXnyO779Wj5ufSxdDgAAyAzhLwAAZFTb5Nv+sqfzMfSGuri1RMPfDz6di/uuKovLj8vFHunZSbtDczH21OL8c38qTne13oOL69jufxTLeyTrfe7QXJyZzL/9XrGupLyfjxHTIroNKIseJdHsc3OH7JnOlKpV+Zi0KtkfD8zFzMtyccJ+af2eueh/dlmcf2BaLkn5mPzLfDxbkYtRx6ZVu1Q+lr6YTJL1mXjaxuNov6Nzcd0/JDPrIp5eU6zblRYujXg2+Ry6eXhZ9P9CWpm83yd8qywmHpEc688XA+xSsG59xIATc/H7MWVxccO6NmPWE8nvlExHXVwWZ6bL7dE+2S+GJ59fye864z/zUcI9WgMAAB+D8BcAADIpH2dfWxdfn5qPGSV8Zf+Ik3PRvzwtNPJ22r3yIfsXpyXpw/rMKj6/b65YLiGz7snHzw/IxY+7pxUlZvUbEYfunRZK1MLH8vG7ZHrJoFwcspudOb+9OF/fRfHIZN1Lpbv3/bf2fifb95CGcH0XervQLfJnc3F0M59J/bsUp8ueL053rVxcPLIsJpyeiyPSIL15+Vi2OplU5OKb7Ys1G5Tn4tRDk+maZJliDQAAkBHCXwAA+Jhenn1bXPyj++KJdwqlv8YTd13fqMzHVpePyf+RTMtz0aMUW1fWRbz253yMGJePhfvl4pIeaX2JWD23Lob9KWLikNIJ/pqzcEE+yqvq6h/HXVsXox/LR+kMBZyPpwuh2Wdz0fvgZH8cXxcdC+t6WV2ckrzvs0q5qWRy/Nw6J5l2ysW5JXP85KL/VyParcrHsAfz8dqHSVVyHD37WF1UPxZxRJfk+RK4OlHf+8Bfkve+mXG8V79ZnL79VnG6u3j73YivHpRs+7Tc2NGFlsDJ+1Afeu9K++TivtFlUTs62Wf3aaYMAADsEOEvAAB8DLX/dV/c+nhEz++eHd33LgTBd8e01f8zTh9WLPMx1eVjxr/mY/RfIn783Vwck1bvevm4bXQxqCwEgB3H5+PPHXPxm8uTdSyls6oX8zH84Yhvnl7WbIvqkvB+RJqjbfBs8n7fNCMfve4slTFVi62TY/+IxT/Jx4hVUewaty7id8k2PvuGuphceL4Evf1YPibXRpzft7TC/0P6lEXNPyTbc0E+Oo4oHkfHzYhYlxxHM88ujdbz3Y6I+rF9r0o+gxY2BPwfRix7rC6Gzk/Lu5NXil0+77mNz6hXd/XY6m8lx9SEfMyLXIwdmouvFsp352PZnmk5XQwAANg+wl8AANhRL8+N22a+GBWDhsTpBzUOgv85en4+XYYd9sGqfAy9Oh/f/z8RYy/e+jiWu1xdxLwn8zHinnysTuZLQm2yPv+aj+iRi7Hd0rpS1DYXE8eWRe349JHM/8fZuei/Z8SyZ/IxeVW6XCn4Yz6m75WL34xK1/WGXMzuXgwIb5udbOuSk2y/QkjZsZRa/aZeS7blijREb+TPL+dj1n+nhV2sXXLsjDogWcc1+eh3fXqzx4i6+PqMiD2T+vqeqT9VvygtLdk/Bt2dj2cPyMWc6lx8Nfl7MGhGPt7+Qi7uH5orbnsAAGC7CH8BAGCHrIppUx+P//t3fWPoVz4T8c7jMWXmc7HX179VHwTz8Sx7qC6+Pj4fr38pF7+5tizOr0ifKBm5uLghAEweL/0oF/f9fcSrT+dj0NQSaK1aCH5vyMfCLybrdXrpjUG8ieQsdI/G45Qm88ccl6z3kGILv0XLSihUbZuL67+XrFfDeKl75uKEbxUDwtXPR/2YwCVlaT7uqY049x9KrMvv95P98yf5+HldxNTLyuL1huPoslxc8rmIH95ZVz9G8a6Xi/NHJvvicRFfbVusaZdMzzwxF1O+XgyuS3oc8qY+G7E99yMdkuzPJWFVPs5blHw+fCEX405PtvfifFy1NGK/o5NyKd/QAgAAJUb4CwAAO6Qi+p5+dOz533Ni6n/9NWLvr8VZpxwQ7/3Hv8WDL6eLsEN+92910Xd+xFnfzcXsobk4onEwWKLafTYX/c8si4nHRTz7TD4WpvW7yrP/no/J7ybTFfk4OB1Ht+Fx9opkgTfycVyhPKkUW6umjojonM6WgraF8O+AiK9udtaci/33TSbv5uPVYkXJmPFYxOpP52JAKW3IxGuLkv3z/YgfV5fFmYdG7JHWtzs0F5dflouLk2N+crIPl4Sy5Ng+uyx+MyYNqJPp1NNzsazQOjnZJ44uxXHIt2TPiH2T/XfhmrTcxLOF+mR/2b9UrgxV5GJKj4gPXsxH9YMR+3XLxfXJvvza00l5cboMAACwTcJfAADYQeVHD4orBn0hVs28uz7wPeiUi+KSr0U8cud98cQ76UJsl7cX18XQxREjLyuLy79c4i1W+WStiCjkO+32KhZ3rVx0LoR8f87HrPeLNRvl49XCoMX7ldKY1In38/Hw8xHHHB0lN0bqW++lM1uxerPtXEJezMdtT0ccUpmLE9Kq3UMuuh2aTJ7Px4zaYs0Gtfn4ZbK/tDukRPaXfYqt/49Yk4++4/Lxu4pczDwzF+2Sbf/tqfnNugsHAAC2TPgLAAAfQ/lXzt4k8D2o35AYfMiLMe1mAfD2y8fPF0as7pgr7fF9X8nH8Kn5+N2aiA/Sqg/ezcesGXUx7PcR7Q7c9SHgEadv7JK66eO+TskC7XPx+0L5ghII2J/Mx9AZ+Vj2blr+MGLZY3XR786kLjlD7XFsadwE0LtL8t6ui6gen4+Fb6SV7+djRrKeo5N94YTKiEPS6lLw9uJk3ZJp7y6ldxPF/p9LtmUy/eG4upjx50bH0Wv5uO0nySPZzr0PTit3qeS9TdZnYUPS2LBvFuqS4sX9dr8bVOr347qI70/YuB9/8Ebyeybl5CMszu1eAr9TIfitzkX/ZPuPKHzWpkHwMYXuwgvldDEAAGD75PKJdB4AADLvTy+tiS8eXCoDHDav0FVvSztzaFlMPTrituS1f5jWtYRCuPjx5WNEVT4mp6VmdcrtdGC50+/5K/noN2YLXTvvGTH2e2Vx/k6G15/kfjlrUl2c/Xoufj8qV+hZeae0yHourovyael8E71PzsXM/jsfRrXM9szHPePyMfzFtNhIu/1yMefKXByzk7dTt+T7Xv8+/3fEzJ+URe+0riW01LacMT4fQ1elxSZaYnu21Hpu6TPp/MFlMbYFxp1tyfe8wbMP1sVxCyLuSz6P+6d1G+Xjtuvz8cNmms4ekXy+/ib5fN3Z8aE/ib9Zn4Sd+3sFAAC7D998AQAAtubAXFzXP6L3p4utFwv22zOi/3G5+P3onQ9+W52uufobEY4pjKlbkJyVfvULuZgwvGWC35aTi3Mvy8V9xyXrl65ru2RaeN8fa4Hgt2XlY9nqZNJh5wP+T0Yuzqwqi/9I3t/++2x6HJ17Yiltz1xcfm6yjuVpMVmnE5J9c+qVLRP87hq5uDjZvvclx9wR6Tau3+59Wib4BQAASo+WvwAAtCqfRKurlra7tKIq2B1aUu0O7/nusI4F1rNl2TdbjvXcdbT8BQCA0uKbLwAAAAAAAEAGCH8BAAAAAAAAMkD4CwAAAAAAAJABwl8AAAAAAACADBD+AgAAAAAAAGSA8BcAAAAAAAAgA4S/AAAAAAAAABkg/AUAAAAAAADIAOEvAAAAAAAAQAYIfwEAaFU+1aZNOgcAtAafaZvOAABAKyD8BQCgVfkfn/pUvFX717QEAGRZm1zEIe2TfwAAoJUQ/gIA0Krs/Zk94933Poi6urq0BgDIpLKI8j0jqk9JywAA0AoIfwEAaFU+vdee0aZNWax5/S9aAANARrXJ5WLfPSK+8LlcDOqq5S8AAK1HLp9I5wEAoNUotP5956/vxYcffhQf1a1Pa0vDMWP3S+dK37IRr6VzALRGp07+XKyp/VRaKg2FMX4PbR/x/VMEvwAAtD7CXwAAAAAAAIAM0O0zAAAAAAAAQAYIfwEAAAAAAAAyQPgLAAAAAAAAkAHCXwAAAAAAAIAMEP4CAAAAAAAAZIDwFwAAAAAAACADhL8AAAAAAAAAGSD8BQAAAAAAAMgA4S8AAAAAAABABgh/AQAAAAAAADJA+AsAAAAAAACQAcJfAAAAAAAAgAwQ/gIAAAAAAABkgPAXAAAAAAAAIAOEvwAAAAAAAAAZIPwFAAAAAAAAyADhLwAAAAAAAEAGCH8BAAAAAAAAMkD4CwAAAAAAAJABuXwinQcAgMy54oor0jlaq2+de146BxAx6uqrYsXy5WmJ1qB9+8/F4R07xjfPGhT9/vG0tBYAALJJ+AsAQKYVwt8bb7wxLdEaLVn+fHQ5smNaAlq7isM7xarnVqQlWovb75gcDz08N8rLy+P+e+5OawEAIHt0+wwAAABApl104fn1oW9tbW3M/tVDaS0AAGSP8BcAAACAzCu0+j3t1D7x8+kz0xoAAMge4S8AAAAArUKhBfDzz7+QlgAAIHuEvwAAAAC0GmvfeCOdAwCA7BH+AgAAAAAAAGSA8BcAAAAAAAAgA4S/AAAAAAAAABkg/AUAAAAAAADIAOEvAAAAAAAAQAYIfwEAAAAAAAAyQPgLAAAAAAAAkAHCXwAAAAAAAIAMEP4CAAAAAAAAZIDwFwAAdtDKm06OXG54PJCWd9zKGNczF7nvpa/wzLg4OZeL4Q8WiwDQUl6YODAqDh8Zc9PyjlsVEwd0iorvzy8Wn5sU/Q7vFJf+ulgEAABKi/AXAIBW7oEYnstFbiuPjxvK7nxIDACNzY9LD+8UFVt5fNxQdudDYgAAoBQIfwEAaOXOiAn5fOSbeay6uWfyfM/44lHFJQFg1+oVtzy3IlY185hXXZk8XxkdjyguCQAAtE7CXwAAaNaf4qFHH4k4vmf0PCytAoCS9HIsWLAyoqJHdK9IqwAAgFZJ+AsAAM2ZPzEmzo44bfDg6JJW7Zi3YskfHkmmK+NPzxRrAOATseinceeTEV0HDYyuadWOeSee+sPKZPrHeOG5Yg0AALB7Ev4CAEBTHz0SIy4ZFyuP/2FcfdEHMa7npmMAdxpZCHW34ZmpMfXeyujS+amY+K8PxFtp9SZuH1h8zaNGxHa8Yqt3zTXXxFtvNbsl6xWeu/baa9MSQCuxflH86AfTYm3FkLhqyP+LiQM2HQO49/hCqLsNz02Lex9pHwcfuDLuvGN+1KbVm5hTVXzNvuNjeVoFAACUHuEvAAA09tGSGHfGt2PcGz1j7O3XRfdPVUb1I5uOBbxiTGEs4K1444EYfs51seai6+KRBydG90eHxbd/siR9spGLaoqv+YexsY1XbPUKwW8h2D3ppJOaDYALdYXnCssVHgCtwvqVMfHsqrj3L8nfqp9cHl3bVMSwXzYZC7iqMBbwVrw5P668YHy83ndUzL5vdHRfPDK+M6mZwLjv+OJrzqmKI9MqAACg9Ah/AQCgwRtPxI/POC1GPHFADJtcE9Wd0/rt9kGs/NnwOPmoofHbr0+N3/7rGbHPoYPj/p9dHXtM7hl/f8m0WPlBuig75NJLL41jjjkmli5dulkA3BD8Fp4rLFNYFiDz3lwc484eHOOWdoizbv5pDNtGxru5dfHCL0ZFv5Oq4onjx8f8m3tF+YED4/Ypl0fbewZG7x/MiRfWpYsCAAC7DeEvAAAkXn30x/GPR/19XP37rnHdg4/EhNP3SZ/ZAUsnxoj/vTIqb/5t/PbWM2LDK3QeFjWP1sTAN8bGiJueaL4LaLZqn332iQULFmwWADcNfgvLFJYFyLK1j4+PQScNiYkrK2PY3TVxwzf2Tp/ZASt/GlfetCKOvGZOzPuXXlGeVkfl4Lj/F3fHgLW3xpUTljbfBTQAAFCyhL8AALReH30QKx8cF+f1PCAO6Dk21pw0Nn77h1/FD//hY4aHnavjVyv/PSb8U2XskVZtsH/PqJ72VPxqVPeNoTA7pLkAWPALtBrr18XyX0+KSwd0iW5DJsXar1TF/Y9Oi+rjP0bwW1B5Qcx8vCZu+F8V0Tat2qBDtxg2ZV7MrO68MRQGAAB2C7l8YZAxAADIqCuuuCJuvPHGtNTER0ti4uChMfWj02LE9VfH4L/bLLKlBBVa+5544omxbNmy+vK2gt8ly5+PLkd2TEtAa1dxeKf6sWt3O+tXxr3nVcWU6BHVoy6P/hWbRbZsp912HwAAgO0g/AUAINO2Gv428cD3cjHw9rSwTcOiJj8hzkhLm3sghucGxsS0tD2GPZCPCaenBbaqIQAu2FaLX+Ev0FhWgr+53+8UF81JC9vUN25/bkz0SUubmx+XHl4Vs9LS9ug/fkXc8o20sJsR/gIAkGW6fQYAgMZOGhsr8vko3CO5pceKMT3ThbfmjJjQzM82+/jD2NieV2Sjhi6gdfUMtGqVVTHvuRX1QeaWHvOqKtOFt6ZX3NLMzzb7mFMVR6Y/BQAAlB7hLwAAsFsqhL6CXwAAAICNhL8AAAAAAAAAGSD8BQCAkvRWPHRJp8gd8I8x8Zm06plxcXKHfaPrJQ8lzxasjHG99419uwyPh4oVAAAAALRiwl8AAAAAAACADBD+AgBAY4+OiE65XOS28ug08pF04U/SPnHarSsiv+ZXMezLadWXq+Pf174ZT916WvJsQWVUz3sz3lwyIU4z9C1A67NyfPQ+vFNUbOXRe/zKdGEAAKA1yOUT6TwAAGTOFVdcETfeeGNaojVasvz56HJkx7QEtHaFQHTVcyvSEq2RfQAAgCzT8hcAAAAAAAAgA4S/AAAAAAAAABkg/AUAAAAAAADIAOEvAAAAAAAAQAYIfwEAAAAAAAAyQPgLAAAAAAAAkAHCXwAAAAAAAIAMEP4CAAAAAAAAZIDwFwAAAIBWo3379ukcAABkj/AXAAAAgFbh9jsmx+EdD0tLAACQPcJfAAAAADKvtrY2Hnp4bnzzrEFpDQAAZI/wFwAAAIBMK7T4/fa5Q6K8vDz6/eNpaS0AAGRPLp9I5wEAIHOuuOKKdI7W6lvnnpfOAUSMuvqqWLF8eVqiNejQvn107HhYfYtfwS8AAFkn/AUAAAAAAADIAN0+AwAAAAAAAGSA8BcAAAAAAAAgA4S/AAAAAAAAABkg/AUAAAAAAADIAOEvAAAAAAAAQAYIfwEAAAAAAAAyQPgLAAAAAAAAkAHCXwAAAAAAAIAMEP4CAAAAAAAAZIDwFwAAAAAAACADhL8AAAAAAAAAGSD8BQAAAAAAAMgA4S8AAAAAAABABgh/AQAAAAAAADJA+AsAAAAAAACQAcJfAAAAAAAAgAwQ/gIAAAAAAABkgPAXAAAAAAAAIAOEvwAAAAAAAAAZIPwFAAAAAAAAyADhLwAAAAAAAEAGCH8BAAAAAAAAMkD4CwAAAAAAAJABwl8AAAAAAACADBD+AgAAAAAAAGSA8BcAAAAAAABgtxfx/wGrWm+T3WZbiQAAAABJRU5ErkJggg==;" vertex="1" parent="1">
          <mxGeometry x="280" y="-500" width="619.03" height="290" as="geometry" />
        </mxCell>
        <mxCell id="A5obQ992RgEn8o-Wc76g-5" value="" style="shape=image;verticalLabelPosition=bottom;labelBackgroundColor=default;verticalAlign=top;aspect=fixed;imageAspect=0;image=data:image/png,iVBORw0KGgoAAAANSUhEUgAAAh8AAAHBCAYAAADJgdkTAAAAAXNSR0IArs4c6QAAAARnQU1BAACxjwv8YQUAAAAJcEhZcwAADsMAAA7DAcdvqGQAAEogSURBVHhe7d0LnE3l4sbxZ6g/KiMhFF2G1NBloprkNC41RjXIJec0uhzFQTdSpgui0GWKCKGUiqYSJabLcBLTkaaTWxlTZEooGlIj4YT5r3fttWf2nuve21jM+H0/n232u9baa6299jbrmfd917vCci0CAABwSSXnJwAAgCsIHwAAwFWEDwAA4CrCBwAAcBXhAwAAuIrwAQAAXEX4AAAAriJ8AAAAVxE+AACAqxjhFGXuuYnPa9xzE52SNGHcWF13bQenhGCY/57TX3lNE5+fon3/26eeN96o+wcN0P/93/85S1Qcu3btUr8779Gyz9OdKSWrXLmy6terp/POa6K/tbpC7a++WvXq1XXmAjiaUfMBHMWWfPofjRk3Xr/9/rv27Nmr6a++pjdnve3MPbYdOHBAm7ds0b8//kQjHhutK9terVtv66M1GWudJQAcrQgfwFHsq6++tkOHlznhrly12inBlzk2n/5nqRJu/qdemv6KXWsE4OhE+ACOYuee28SvicU0NVwcdZFTqtjOOutM/Wfxx8pat7bQY33m1/Y806TXIa69fVy8/vjjDz2ZNMZuqiKAAEcnwgdwFLu6XVvdd+8AnVyjhqpVq6pet96if/S4wZl77DJh47TT6tt9iZ6fME4fp36gVle0dOZ6akGmvPCi3v/wI2cKgKMJ4QM4ipmTbJ/be2nFf5cpY/UKPfzg4ArZ2fRQnXFGQz03boxfADHNVa+8NlM7f/vNmQLgaEH4AFAh1Dz5ZD1w/yC/K17WrMnQF//90ikBOFoQPgBUGM2aNVXLy6OdkvS///1P/1n6mVMCcLQgfACoMMLCwnTZpZc4JY8fftio3bt3OyUARwPCB4AK5fTTTtOJJ57olKS//vpL+/cfcEoAjgaEDwAVStWqVfV/xx/vlKRfsrOp+QCOMoQPVAimbd8My/3IoyPVIb6zLmx+mSKaNLUf50ReoJi2sep/1wC9M/c9exyIsrJx449KemasOnW9wW+b5nn3f/S0RyP13d6Xy1eoxWVX5C137/2Jzpyi/fTTz2rX/pq85Xve0ssehrw4Zp5Zxru8ea1Zh6/167/TqCeeUvtr4u1jY5YzP1u3a6+HhjxijxBakcbHMJcpV61axSkVZr47//1yuf05ms+sVet2ecfFPMxnaT7fCZMmFzqWoTCXAX+27HMNGvyA/fn4buvyVq1198BB9nyznJe5ZYF3GfN4/4PgLyE2n+k3335rf/Zx13ZUs4ua562vRXQr3fzP2wt9X4HDhfCBcu3PPXv0wrSX9bc2V9kn3Zmvv6F169b7/QI1v8TNMNypCxbq/sSHdEVMO/tEYl4bqh9/3KR+d9ytqztcpykvTLOvqvDdpnm+YsVKPTx0uH2Cmf3Ou0f8hL5jx6+6856BurZTF708/VV9tyEr7wRnfm7avFlvvT1bXbr/Xfc/8FC5PQlt2/aL3+W1pgmmSpXC4WP79h32idic8P+ecLP9OZrP7Oeft/qd+M1xMJ/vs+MnqPVV7TVy9BMhfXfM5//J4iW6xgrHN916m+a+N9/uj+K7LVNLY4KFmd/jxpvssFAWTKDscePN6nh9d/uzX//dBr+Rc3fu3Kmlny2zv69l8f8DKA3hA+VWxtpMdbvhRj2Z9Ix9IgmUOZmYE4l5rVlHsD74MNU+QS/498d+J47imH0zNQpHcsRNU9uRcMs/9eFHC0rdZzP/3bnz7Jqi8jhGxldff+088zAjpfr2AfEa/eRT9onY3DcnUObYTH91hh4dOdquMQmUWdaEln/1v8sOfYEww+ibe9Wkf/FfZ0rwzPct+c1Z9pDzy1esCOj76v3/YYI6Y6TgcCF8oFwy1eR9+t2hb9etc6bIHgG0c6d4vf7adK1enp43FLd5bqZ16hjvNwy3ee3AQYODCiDmr9XBD/r/Uq5du5YG3H2nUj+Ybw/7bbb5zZpVeuftN/O2aX7pmxE3P0pd4LzKPRt//FF3DRxkB5CTTjpJt97c029fzfF59eUXCw3bbv4SHjd+4hGvsQmG+VyWr1zllGQPyGbueFsa89259po4e7h2M2x7wc/xqnZt/b4777z7nmYmv+mUSmaCx7ARj9kDnvme/C84/3w9k/SE0pem+X1Xxz/7jD3PyM7ebjclbvnpJ7scDPO5TZ76ooZbr/etxTKf8+RJz+X9HzHv1XwfzPfCfD+8zHfVBPtgQhYQKMIHyp3vf/hBQ4c/qq1btzlTZI9s+eH89/TsM0n2OA/Vq1d35sh+bqaNG5Okd2e/lfeL3diQlaVRjz8Z0F94puo9aczYvOpqczIyYWfBhyl2+DincaO8E5Q56UVddKG9zdlvJevcJk3s15kTVk4JfTbK2r59+/TCtJfs4GH2Z+6ctzR82BC/fTXH58q/tdIbM1/VP2+5ye8k+9GCBVqTkeGUjn6maW316q+cknT++c0KXXrry5xs7+j3Ly1N+0QTxz9rD9duhm0v+DlOsU7Wd93RL2+6CRFvz37H7ztYHPOZm7DiZbb56PChVqh5Q12v76w6dWo7czyfRcfrrrXnmWXMsuaze29eirNE4MxrJk2ekhd4TMAa8cgQzXpjpuJir877P2Lek/k+mO/FtKnP26PFepn9Nv2kgLJG+EC5Yv4Ke2bsOPsXslfH+Os0eeJ4v1+axTm/WVONG5ukc85p7EyRXa09Y2ayUyqa2e7kF170O9l07dJZTz0+yu7QWJKLLrxAz08cZ2/TXPYZSNV3WTH9F5ak/cfe9pinn1TE2Wc7cwozJ9p7B9ztd7I2f3l/mLrQKR3dTIdj01zge7I1YcqMfFqURhER1ol4hu4fNLDUz9CcoHve+A9deEF+cP1uwwZ9uWKFUyqa+Z6+8uoMv316bPgw3dwzwS/kFWTmmWXMsuY1wdY+mP47U198KS8om3WMfuxR3XJTzxK3az77oQ89aC9vmP02/ai2bis9ZAHBIHygXEn7dKkWL0lzSp4q5GEPP+hXXVyas886S48+MtTvpGT+wjO1IMUparuDB90b8H1WitqmW8xfuEMfesDeh9KYZW+5uaff+zI1CSVdYXOkmRPkrLfn6K577rXDklf8ddeq/dVXOaXCTE3Geeee65RKZ5rXWsdc6ZQ82/366zVOqTDT7GFqPUxnZy9z8je1ZYEyy/6r9+1OKTB2P4833vJrkuwUH2/X6gSidczfdFXbtk7JNE+u16fW9x8oS4QPlBum1mDe/JS8v+bMCdL8MjcnhWBFX3aprunQ3ilJP27aZF8GWxTzy/zD1NRD3m6L5hf73fjMLa2v/Jsuj77MKZWuWdNIe6Aury1bfgqqU6YbTBj6es0ajR33nGLaxerBIcP8ms66d+1iNyMEGg4D1fziKL/Oq1u3/VJsnxjTT8N3aHfTtGHuSGxGYQ2UWTb+umt0RsPSa/W8sr7/3u5Y7NXg9NN12z9v0fE+Y5+UxCx3nbVN77EzIevzL74o9n0CoSB8oNwwAeErn780m0aepyv/VnpnwqKYX+pt27T2OzktXvKpHXAKMieRVavy+xGEul3zS719+6tLrPY+HFq1ahnwiceodUot+woRL3OiN5evus1chmouofYd38L7uKhFtDp37WFfQWSalrzMsTU1GqMeG64TqlVzppadmjVr6iSf8LF9+/ZiL0letfor+zvr1aZ1jM488wynFDjTVNaixcVOqXQrVqyyv7NeMVe2UmMr+ATDfMfr1c2/Qd/33/9gX44LlBXCB8oNczLybXu+9JIWOuWUU5xS8Jo1baqGDRo4JTN2x49Fdjw12zXjL3iZm5eFul3zCz3c6ejnBtPMY/o2BMO094eHu7ePZcGEDtNp1nQoHjTwnjKv8fAyx7PaCYGFGtMk4+3rYfanpI6vJTFB+cwzAg8tX63J3645LpdfHh1UbYsRXj3c7+7Av/66U7v//NMpAYeO8IFyY9369X4d75pGRjrPQlO9+kl+v2DNVSg5OYX7NpgBmXyH5zadVsuLGifX0Gn16zulwJ1ap47zTPZJ5/ejrNnFMPvYvPnFdofRf3/0vn25cFl9Nqa2x/SZmJ/yvj3y6V0D7lVsh3h79FwTRktjmuh8x/MwV7SceWZ+bdLhYr6nvvt3svX5+zahBapSpTC/GrojVfuFiovwgXLjJ5/qdXN1Qv369ZxSaEzbvW+/jT93/6nfiqj58D3xmr9ga9cKvo9JeePbr8EEvr179zkl95imHzPmhncMjIKPz5cu0ew3X7cvlQ2lOcPLvL+F/17kN9y5ada5Jv56DRg02B751AwsZzokF9fEUpBZp29gNbVdbtQmmaD466+/OiXPqLbdetxYZNNVSQ/z/s3VQ8DhQvhAueH7i99UI1eq5M7X1wzS5XXiCSeoRimXZaJ8MMOHmz4jZnj1vnfcVeRw56EywcO3qe5k01xT1XP56uG0/6/92rM3f9h04GhF+ABwzDHjYNx0Sy/7apmCV/KY5gZTq2aadMzVKWZgrpenTdVnaZ9o0YIP/TrjAggN4QPAMcV0KjY3UDNXo3iZcWJ6JvxD8+fOsYdUX7pkkd2k8/goz8BcbWKutPsHHa6OrIdLaU1XgT6Wf/GZLmnR3FkrcOgIHyg3fAfJMieQQ+0AZzoF+nYwLa5zpu8AZkdr50sEbvacd+371niZ0V/nvJWskSMescc48e1oGarjjj/Or5nF9CVyoznEdKKuXy+/L5TdUfQXOori6EP4QLlR8HLDgncvDdauP3Zp69b8Tqzm6omi7n56mk/HVtOR8MdNm51S8Mylwm7e2wX+zMnYd6RaU5NhLs31HW6/JCb07vmz9FvNm75Bvpdjm0tVfUdfDYYZ3Mu331FJqlqBJzw83CmZ9/uHXwdU4GhB+EC5YQZKqnvqqU5J9t1LixqXI1Dr1q33CxLmBFSjRv4vbq8m55zjV93+xX+/LHIwskCY+8iURYdGhGbbL9l+A3+Zm8hd0KyZUyqdCauBfOdMiPXtG2JqH0K9QV/29u365ptvnVLJzGBykeflDxlvwrL5vgJHG8IHyo2zzz5L553XxCl57jIb6i9W89ekuWW493JIEy5Mu35Rzj23id9YCStWrtQ33wZ2MvC1ceOP+sIKHzhyTPOHuaTayzRRmKaKQJjvzCeLl9gn9ECYIfx9m3DM981cYROsZcvStSHre6dUuoJDwJvbBmzfvsMpAUcHwgfKDTNc9rUdOuT9QjcngRdefCmkX6wrV67Swo8XOSWp5eWXqWXLy52SPxM8oqIudEqeO70mvzErqNoPc+J6c9bb9oBlOHoE0xfjO+uzMzcYDJS5Fb/vPVlMUF70yWKnFBjz3X5t5usBBx7DjMBrArOXuSXBvJT3nVJwzF153507zykBZYfwgXKlQ1ys3zDVK1ettkegDOYvSjPw0tjxE/La4M1w4j1vvLHYe4GYMUXMjcrMHV+95qWk6P0PPnJKpXtvXop9EsGRZcbbOOHEE5yStHnLT/r22/y7vxbHNLU8NvoJvzvUlsbc0C3O+r56mQ7OEyZN1vc//OBMKZkJHE+Pfdb+jgfDDAH/9+7d8kK6aeab+uK0oAcNM2GpT/877cuSgbJG+EC5YgLAPXfdYQ9X7TX7nXc14N779eOP+W35xTF3/OzT7w59tuxzu2x+Qff7Vx9d1a6NXS6Ouczw2g5xTslzIhnyyHA7UJTUh8PMMyNkmmX/97+/FBd79RG5rT48TC2W6cPjZTqgPj/lBb+b0xVkwurDQx6xr5Cx7+1ihdVA3fj3G3Ruk/xaCFOT8K9+d2n1VyV3ljbbNN/pt2e/Y3/X2199lTMnMOautOZGdl4maN91z72a9facUvscmSBvQlLvvncE9H8KCAXhA+WOaUt/+IFEv0tgP170ia7p2Fn33p9o/4VnTipe5rmZNvC+RMVd28lvfIeuXTqrb5/bS73xlunIlzh4kN8t8U0AGfHYaHW94UbNf/+DvG2aJhZzVYs5ccR37mbXzJhlzbZuubmnvQyODBMculzfyS9AmE7APRJu0uvJb+bVhpnPcMuWn+yTsPlepS78t/2aPr1vU12fu72Wxty40AxS5huWzTDt3f+eYH8fzXfR26RifppO0EljnlVsh+vytvlQ4mA1bRrcfYxMLd7DDw72u4rH1N48OGSY/X19Z+57+umnn/OCiHfb4ydMsrf97PgJAQ8lD4QizPpPlus8B8rEcxOf17jnJjql0Jm/MqdOnljs4Eam89+QR0Zo69b8O90GytR49O/bx779ejADR5m/kM09QMwJKxgd4tpr9MgR2rAhS33735V3xUTnTvF69pkk+3lRzAnipn/elnezsJaXR2vKpOf8moB8mQDU78578qrYzRUXM1952b6qIxgFP8MJ48bqums7OKXDo6z2vTSmr44JFZOnvlhqLYCXCQED77lb13Ror1t69Q748/Ay4fjhYcODutzWu83et/3T3t9QPg9T03d/4kN+gTsYpqZu1GMjVKtW6HePBopCzQfKrbZtWuuD+XPV88a/+11VUBKzXIvmzUO+9boZdvulF6fotl63+v31XBxTO2O2M25MEs0tRwlTizXg7jvtu+H61p4Vx4xsOn7sGDsEVAoL7VfmVe3a6o2Zrxa6AqY4jRtF6PkJz6nP7b2Cvh2+r4izz9bM16ar3796B/RevUxT0fhnn9HE554leOCwIHygXDN3tx356HB9sexTeyhs0yxiAoLvL/iaNWvm3Xo99YN5mvXGjEO69bqp0h760ANa8vFCJd4/yF637y927/ZMdXvaJwuDrl3B4We+H6a5zdyrxXwvzj+/WaHPsHXM3zQm6Un9O/UDXX1V20MKAYYJAskzXrGD7009b7QDhvd7an6a762pzXhxyiR9mPKevf2yYL6v5nv6WdoiPZP0hL3eov6PmGNgws4H89+1Hx2vu9ZvGaAs0ewCuOg/Sz9T/7sG5I0vYn7ZP/TAYPs5UJwnnnpaL7403X5uxvCYPHG8/tbqCrsMlEfUfAAu2vLTT3nBw6jncx8OoCimj4rvSLwnWeHD1FQA5RnhA3DRmoy1zjPPqKpnNGzglICimc7JP/rc2+WUU2r6XT0DlEeED8Al5gZfGT7hw4w54TsSJVCUgvcgOu+8c1WnNuED5RvhA3DJp//5TGszv3FKsm/f7nujPKAg0+Qyb/77eU11pgPo5ZdddsidX4EjjfABuKDgPTpMk4sZhdJc9gkU5/P0L+zBxrwaN2qkK//WyikB5RfhAwiAGchs+KOjQhpu2gxXbUY59b1Hhxnv4YrLo50SKiozuJgZICyUu9maodhHPfFU3si5ptajY/y19rgjQHlH+AACcPDgQX26dKnir++mZ8aOC/hOuiasmBFNzf1nvExnwTv6/avUUTFR/u3du88eqvz6rjdofsr7eTVfJTGjH/z740906+197ADidXn0ZbrxHz2cElC+Mc4HEICCw5yb0U0vj45W1+s7q0WLi+2+G6Yd3vx3MsFkxapVeuutt63A8pnfEN7mdaMfe1TXd+7oTEFFZu58fPfAQU7JEzw7tG+va6+JU9PI8/ICqAkl5jv2yZI0vfHmW/puQ5Y93cvco8UM4372WWc5U4DyjfABBKBg+AiFqS4f/dgIe1h4HBsKho9QmFF7k54YbY9KClQUhA8gQGaMjrHPji9Um1EaM2z3Dd266O677rCHg8exw3xP5s6br6kvTCtUm1Eac2O9O/v31fWdOjLMOSocwgcQJHOr8SVp/7H7gJi7hZpaEd/bj5vRJ031+mWXXqK2rWPsv1y5tws2bvxRixYv0bLPP9c336zTz1u35oVYEy5OPbWO6tevr9ZX/k2xV7ezb+7GJbWoqAgfAADAVVztAgAAXEX4AAAAriJ8AAAAVxE+AACAqwgfAADAVYQPAADgKsIHAABwFeEDAAC4ivABAABcRfgAAACuInwAAABXET4AAICrCB8AAMBVhA8AAOAqwgcAAHBV8OHjw0RFNGmqgR865aIEsgwAADgmUfMBAABcRfgAAACuInwAAABXuRg+9um7uaPUs0O03R8kIjJaHYemaNMBZ7bXvizNG9lL7S+xljHLXRKv2yalK9tvuSxN6mzN6zxVGdkLNbyrZ50dJ2X5zftuZ7om9YtXVKRnXVFdEzVjzT7PKnxkL52ugT1i8pYLZJuP92qvyILv48B2pSb1Uusoz3oiY3vp8YXbPS/3ZS23bFqiure62LO9qBh1t9bxXeFdAwCgwnEtfGRMSlD7xGQty9rlmXBglzJmJWrMAk/RdiBTk26M18AZ6foux5mWk6XF43spfvBCeSfl26AZo9J1xYQ0Za1bq/l3RjjTLQdWaszNvTRmUZZynBCRsyZFw28YoFk7PWWPhRrd62nNW7U9bznvNnuOW+VM8JGzQA9eP0DTlm624pTFeR/dR6Zo3uCu6j8tXZv+tJfUvo3pmnZnX01a5yl77FKqtVzPpBStyHbSxp/btcJaR/sbrWDjF3gAAKh4XAofaZr1WqYUmaCXP1lpB4Wsrxdo9ohuanics4hl8ci+GrOmtlr2Ha/5q6xlzHKr5mhctwhlp4zXiwWzQOZa1ek1VHGnV3Em+FiXptT93TTuPWd7q5L1cKvaVlhI03sp/rURp8b01eR30pRprc8sm/lGXzWrLH2XslArnGXybMnUL00G6PWl3mUHq2UdKfutRA1MkeJGzPGsx3p/L/eOtF6Qqfc+tN67Y9OMe9Tf2n7jbkM12+dYvDwgWnXWjNfEuU44AwCggnIpfDTQqfWsH3Ui1KyeExSqNFDzhJG6L9ZTNDUQH721XeE9Rul1a2KzE5zJJ0Sq06h+ilOWFqebZhUfTWLVIcp5XlDlGD35xkh1inS2d0KUeo/qpebW02VrV3qm2WL18LQBiju/tqpYgcOo0mKA7rreerIlW9meSfms9d43tq8dOIwqLXrpyV7WThyQGvd+TpMTIj3rsd5fm/t6WftthZiNm+1lTdPNvHfTpRaD9dITCWruDU1m2TsT1aOJlPrl555pAABUUMGHj1PrqKHzNHARuvmRvmr+5ShFt4hR935Pa8Zyp9nCa12W3eSQM6ufpx+E7yMyUanWIhnfbvAs61W5qoqo8/BocrGa13See53ewIpBloJ9K/7M1OLkqRr+UKJ6xrdX61YXq/8cZ15BRay3obVeo+kFBZJQ5aY631R+5Nmg9WusH8ufVuuC77FJN0/zzNosfWcvCwBAxRR8+KgernDrx4asArUQPnJ2md4ZDXTqqZ6yEd5igGanp2hyn9aq8sNsDb+xvaI6j9Jiv/4X7sv5cJhat+im20aM14w5KVq2brM2eftiAACAMhd8+Gh0ul17kDF/jlYU2Tlys2a9m2b9jFDjczxT8lSJUNydI/X6R+nK/GSk2mxN1sDxZlmLs95mA1I8/SCKeozNa6MpI2kaM2KONp3ZTQ9Pm6P0tDSlL12prMwp6lGw1qRMNFDDJtaP+PFFvz/zeK+vGnsWBgCgQgo+fFRurbYmA2RNV8+uwzRvza68Vox9G9M0qfdteny5FB7fTR1MFYltoR7vPV6pPssqZ5/9PMf6aXPWmzHxHj2YvCrvihEd2KfsNQs1pvfTdtNL2dqn33da+3pulOIuiVSderUV/r90jblpsFbU9DSllK1ItW0bIaWMVM8xC5WxM+/IKSdrlWYMTdQ0vytjAACoeELocFpdPUaNV6c61ikzc44Gdo32jHdhPSJj+2lM2mapTryeGhZrN894/ZI2Vf19l7WbXKoortXlzhLWegcMVvMqWZo1IiFvrIyIyIsV3XWAJqUV6vpZBiLVwtq83fTiHZujbT9N2neb7utY3VmmbDXvM0A9Tt+uZVMHqGO0M85Hk4sV1SFBw2dtyA9nAABUUCGED0vNWI1LmaNHb45W4zr5XT7D60Wo5c1JWrAoSXF+zRaxGjJ9gNpEeE/oVVQnKl4PT1+oyd18TvJNemn2wul6OD5KdfKudqmtxq26Wcsm2leOlK0Gunn8dN3XLkLh9pUuVdSw3QC9/lJfNbLnHwbhsXryoxSNM8fOm84qV7eOR4x6Jz2t3qZZBgCACiws1+I8BwAAOOxCq/kAAAAIEeEDAAC4ivABAABcRfgAAACuInwAAABXET4AAICrCB8AAMBVhA8AAOAqwgcAAHAV4QMAALiK8AEAAFxF+AAAAK4ifAAAAFcRPgAAgKsIHwAAwFWEDwAA4KqwXIvzPGA7f9+l7b/+rt179iqElwMAgHIqLCxMJ1arqtqn1FDNGtWdqcEJOnxs2bZdf+zeo7q1ayq8+omqZO0EAAA4Nhy0YkPOrt3atn2nTjqxmk6vW9uZE7igwoep8fhlx2865+wGhA4AAI5hJoSs/36zTq11ctA1IEH1+TBNLabGg+ABAMCxzWQBkwlMNghWUOHD9PEwTS0AAAAmE5hsEKygwodpoaHWAwAAGCYTBNl11MaltgAAwFWEDwAA4CrCBwAAcBXhAwAAuIrwAQAAXEX4AAAAriJ8AAAAVxE+AACAqwgfAADAVYQPAADgKsIHAABwFeEDAAC4ivABAABcRfgAAACuInwAAABXET4AAICrCB8AAMBVhA8AAOAqwgcAAHAV4QMAALiK8AEAAFxF+AAAAK4ifAAAAFcRPgAAgKsIHwAAwFWEDwAA4CrCBwAAcBXhAwAAuIrwAQAAXEX4AAAAriJ8AAAAVxE+AACAqwgfAADAVYQPAADgKsIHAABwFeEDAAC4KqjwERYWpoO5uU4JAAAcy0wmMNkgWEGFjxOrVVXOrt1OCQAAHMtMJjDZIFhBhY/ap9TQtu07qf0AAOAYZ7KAyQQmGwQrLNfiPA/Ilm3b9cfuPapbu6bCq5+oSiFUtwAAgPLJhA5T42GCx0knVtPpdWs7cwIXdPgwdv6+S9t//V279+xVCC8HAADllOnjYZpaTI1HzRrVnanBCSl8AAAAhIpLbQEAgKsIHwAAwFWEDwAA4CrCBwAAcBXhAwAAuIrwAQAAXEX4AAAAriJ8AAAAVx3m8LFCUxIf0ZQvneIh2Dz/Wd39VKo2O+XQlN3+hCLnm4815ZnHdbe1D+YxaPRkvbosW3858z1+1rtPWfNfXuGUQ/RTqkYkPqt3f3LKRSr5eCx7+VD2w3fdR/a4AwCOLqGHj/2btOjlCUp80DmRPjVTKd/84cwMwi8rNM17Qn7wMQ15PlUZvzvzXOWc9M1+lPYIIQTlfDlTo15J11+X9lLSk49pQtIjGtI5Qls/mqCk+T87S5XCWkeR+2MehxpWQhVQyAEAIF9ow6sftE7UYydrWfU43XNLKzWoslebP31Tz324Sy3vultdGjjL2X/xzpV6PKZ+lziTfFknrtHPLZUu/Yf6dW6qWtqp1e/N1LSvairh/pvU0mfIeFPz8dTapnrggTjlrd4wJ79xS7XDKRbWRAlJ1rrs56XsTwCK3Y8SbdLbI1/Uuuh7NaR9TWeaY/1cDXlxk1o+cLfia5kJJgRN1qI612vCbc3tRUpjaiiSVWB5+7is1UUD71WX05xphZR8PIpcb0HFbsd33aUf9792rFXq+0v05ffZ2rF7v2dipeNUrUYdNbsiTl2ujFA4jYQAUCGEFD52LJigEUvrq/fw7rrI54Swbk6SJnx3kc+JuaSTzl6lTX1cbx+I0+g7WincmSorgKSOe1aptf+hsTc1daaVFj5KO8l6lbQ/zkm/+BSTr1ar4MLHVitkjV2rpkXuY8F9OoTwceFa3T1rnTPVqKl2vts0NSd+84vhvL9NLoWPrZ++orHvZ+mEpnFKaN9CZ9erquPNjP17tfX75UqZnarV/7NC5CD/QAoAKJ9C+FvyZ6WtzFatS1r5BQ+jSZsWqrdjtZb94EwoyZ7l+nLDcbokxjd4GDUV97cm+mvNCi076ExyUa0r+2tCkmkWKeERVK1Hvv2H+n6KaXZJ/saZf8lN+fs4sJXsihRfvvNLeoT4/kKyY4leff9HNeySqBG3tFITb/Awjquqeue0Uu8H+qvdieuUnJyuPc4sAED5FVL42LZDqtewvlP2UetsnX3iH9q0aa8zoQTffq/vdYaa5Fdu5GvUUA0OZmtzRelHUK+pmlTfqYyVRfTtWP+jNqmOGpztlEtlmpGKCAwB1pJ4/KGMBTM1ergTYExfm+dma9kvzuxg7N6jP60fIQer7zdp83FNFRN9kjOhCJXq280u2rBeq5xJAIDyK/jw8VO2tqqm6p7qlP1UU7WqUs5vO51yCexm/eOK3oOa1VVDO7Vjq1N20Y5PJxeqWSj8CLaDZUPFXdNEfy6drglLftYe+0S9XzvWpOqpmSt0wpXdnf4eh8i3ZqTYfjB/aNnLz2nK0v1qefvDGmuCy/D+6nH6z0oeO0HvBtmTdsdG6/1Yn9XWLaZkmle8x2iuMuwlAADwF0LNR/AyZnlPSEfzVRHWX9cPFKhNKPYRSP8Sf+GX3KSh/Vqr2n+nO1cIPabR72WpXoe7ldixiFqkUJTW7GKs+Uhvf1NNMX3+qXZnOE0c1eroom69lNBopxa9H0zTxl6tXuepzfl+/Vrr3+bql3eMrlcze04pzm6oBvvXKi29hCulDv6hRcuzpEbnKMqZBAAov4IPH6fVUT3rL91tRVbR71TOLutEe7L/FR3NenhPSD4n7armxLffOrE4ZV87d+l31VStek75cCrp8tUAHsGMXRF+Viv1vv9h51g8prFD+uvWlnXy+zgEZJ2SzbYffFxDRibZD+/lzolzrBN0KTZ/v0l/1WqqloU6dZyklheeUbhp45u5ee91RMFLgn9aorQfrNdd2dQKNV8oLZQOGbVa69brztCmOUka8dpSrdu6N3/cE9PhdP1STXsqSe9mN1FCQrSqObMAAOVXCFe7eK7G+LJJH43u0tCZ5rCvfFitZnck6oazzIQSrnLYs1Rjh3+s8JseUe8LnWleJhDMlhIev0ktnXh0+K92qWCKOS4lXipsXw1jHXfn0uSSL7X9Q8teHKvk3a01YmCEFo18URlR/TUirxYn8KtdjM3vWfu1bJeqWelij++ltna5umLuuVc3uNYLFgBwOIXQ7FJfMRfXUc6qdK0uUGuxbtlq7ah1kVrawaMU1Vrokkb7tfo/S5XjTPLYqdT/rNPx5zfPCx7uMKEqv0ajxEfII616tlGoBqGAQxtZ1HFanEYU0TzU4JyGqrZjrZYVegNWmFiZZS1wtpo4U0qS8+Vcvbuhptp1b61apk9L+wjlLJ0derOa+axrRuue4Y/k1QxNePIRJfWJtpuPjnP1uwAAOJxC+pVe6+rualf9K70+8WOtM1XtB/dq85JXNO2/1dSuZ6CXaVZVTHdr2R9TNWHOWu0wf+zu36llyS8qZWcT3dC5qMtgirNTi8YVCAi+jwdnqvTWkcD6fDxwZYFBwlzn26mztEcRfWzO66Au5+1R2ouvaNGPThPHnmytnjNdySZMdC2mr4iPv354XxNmr1ONVt3zBpQLj+6uG5rs0qLk9/W9U3EBAEBRQhvh1NifrbTkN5WyNtu+euP4Wk3UrvP1ij/P95LJAJo5flmhV9/8t77c/IddzR5+RrQSrADTrIYz3xHayKIFHXqzy6Hth6fJanVT3+aJwgIaWbQ0JTZHmUtt52ru0nXaasKjOe6nNVX8P7qrpc9VTEXvx16te2+63t1/lfp3a+I/RosZ+Xbcm8pp31+3nr82uGaXMmlWAwCUB6GHj4Ac+sne6/CHD08wOCwjnOYJYhvnHc7wEZhDC0G+x5rwAQDIR/jIE1itxKE5Wmo+AnM4w4f9eX4awHgwRSowbDwAoFyhGx+OiAYd7y2yT01gD4IHAJRn1HzkCaJJxGLGLgn+PR1LzS6+yu57AAAo/w5z+AAAAPBHswsAAHAV4QMAALiK8AEAAFxF+AAAAK4ifAAAAFcRPgAAgKsIHwAAwFWEDwAA4CrCBwAAcBXhAwAAuIrwAQAAXEX4AAAAriJ8AAAAVxE+AACAqwgfAADAVYQPAADgKsIHAABwFeEDAAC4ivABAABcRfgAAACuInwAAABXET4AAICrCB8AAMBVhA8AAOAqwgcAAHAV4QMAALiK8AEAAFxF+AAAAK4ifAAAAFcRPgAAgKsIHwAAwFWEDwAA4CrCh5vWTVXHJk3VcVKWMwEAgGNPCOFjoQZaJ9AIv8fFio7vpeFzs7TPWQoAAKAoZVTzsU/Z69I1IzFe7YcuVI4zFQAAoKCQw0ezASnKWrfW88hcqSVvDFZcHWnTrPF6cZWzEAAAQAFlU/NRuYoatuilyWMS1FBZWvH1dmcGAACAv7LtcHpplJpaP3JyvA0v+/Td3FHqGR+jSKd/SGSrBD1YqG+Is1yHaE8fkshodRyaok0HnNnGge1aNi1R3Vtd7Fkmqr1um5TuaeLZmqye1rT2YwpWuWzWtButZaNHabEzxWOXZvWzpneequ+cKUXva7x6jiywH8aHifb8gR/uU8a0fmodZZZPVKozu/C+xqh7wfcDAMAxqmzDx5J0LbN+NDgzwlNe94ruTUzWsnXb88LGvuxVmpUYr4FzdjlTpIxJCWpvlstyph3YpYxZiRqzwFM0YSF1cFf1TErRimxnTX9u1uLxSZqxznper706XC59l5buEyYsWxbqo+XWz53z9UmaZ5LtwOf6bInUOCZaje0JmzXrzljPPvjta5aWzUhU6xumKqOI4JCz8GlNVD8tWG6an5IUZ0/N0ozeBfd1u1ZY76fjgwvoDwMAOOaVTfiwTq4Zc4ep46A5yqkZr+tjnOn6PzXqMVSzP0pXpt0/ZKWWJMWrjjUndaH3RJymWa9lSpEJevmTlZ4+JF8v0OwR3dTwOHsBaet8vZayXeHthmr+Kqefyao5mtz3YoXbC9RWm5goKXOJFm+xJ9g2fbhQK06PVLOau7T4c59akSVpWnyggdq0sV5j2TRjmB5cuF1VIrtp3DvefV2rzIVTdF+r2tKa8bp3XOGOLIv3Reqp3lGqUtmZYNk0Y6SGL7XW1SJBk99z3o/pEzNtgJptz9QmZzkAAI5VIYePjPHxniYFp1mhY+IcZexroB4jhinOkwikJr00blSCmkdUVxV7QhU1vL6fbjnfevrzdv1iT2ugU+tZP+pEqFk9z1Kq0kDNE0bqvlhPUXXqqI51gq9xeiM1PsGZdkKk4u4bqpubeIoNY1qrmVbpk0Xe/iablfrxKjW8JlF3tbJCwdL8WpHFaVbwOT1WHVqYUpbmvZsu1eymye+MVKfzvftq7caZMbpz2nPqHVFErYol7ppuTvjx2q7FC511zRyquEhnTaZPTExfvT6y4PIAABx7yqjDaXU1bpWgce/P15PXVHcmeuzbskqp05/Wgw/1U/e27RV9SbzGrHFm2iJ08yN91fzLUYpuEaPu/Z7WjOWb/fuEVI7VfaOsJJLcS5HW63s+NFWpmX5LWEHHChOR0rKlSzw1Kuve13vLGyjuqmjFxcZLmZ9r2VYzY5U+W7JL4a2j1dwUtUHrrf0JvyZWbXxqMPJUjtIVl1vvKXODtaQ/3xoPj5Va/nkJ62rQQA2dpwAAHKtCDh/+l9qma8H0oeoU4a0z8MiYmqCotgnq/8R0zZqTphVbNiu7iE4P4S0GaHZ6iib3aa0qP8zW8BvbK6rzKC3e6SxgadhtvJakJevRHg20L22K+ne+WK17J/v0xYhQy5gIadFCfWRt47uFC5Thrd1oFa02StdHC7dLyxcqdUt1dW6X1zZU5mqcQP0GAADFKdsOp762JuvxMasU3qqvxr2RovS0NKWnr1TWJ4OdGocCqkQo7s6Ret30D/lkpNpYrx843reXqKVOlG5OnKLZS1cq842+Ck8bpceT8y/rbd6mtRoqTZ8tzVTqgkw1vCbWs63w9urQzlMrsuLzz7WpZnu1bWW/xNJI50SazqOmH4gzydeBVfrs813S+Y2sJUtTR6eeLm2yAtCKojqorlqpDOc5AADHqsMXPnJ22c0fp55/udqcH6E69WorfOsc9b9pjnKci2E8Furx3uOVumZXflNLzj77eY7107ZuugYOTdaKjd4l9umX3Z4rY/Iv67W0iFWcdfKf99pIfZRZXW0u93QolapbYSNaWpKiMemZUqsYn2aRCHXqaC2Xnaz+XYdpns9+7NuYpkm979G0LKlll+ucK2NKEqW27WpLWdPVv/dULd7irGnfLrtDbvfhBcIUAADHoMMXPhpFqnkd0/TSS1EXOONmdB6lFZcPUG8zGIiPX9KmWif+6PzxNewmlyqKa3W5s8T/tGHWKHWPdcbNaOI0uVSOsAKGb5KJ0hWtq0vLVymjZke19WlZqdMuRs0PpGvZ51KnWG9PVo+GvYbpvhZVtC9zjgb67kdsP41Zul114sdr8s0NnKVL1vKuYepkve/speN1W1tnfy+ItjvkVrkmNoAAAwBAxXb4wkflGD2anKQeUbU9V49Urq5mPZI0e1SsatgLeMVqyPQBahPh7ahaRXWi4vXw9IWa3M2Z1uSfejapmxVmvFePeDu4zrFCg2eSV5t2He0rSsKviVEbzySP01urbaT1s3KsrshrcnFUjtSdMxfq9cR4Na+X32E2PCJaNyelKG1sbOBXqdSM1bi503VfuwiFO7UrVepEqYe1ntn9muZdSQMAwLEqLNfiPAcAADjsDl/NBwAAQBEIHwAAwFWEDwAA4CrCBwAAcBXhAwAAuIrwAQAAXEX4AAAAriJ8AAAAVxE+AACAqwgfAADAVYQPAADgKsIHAABwFeEDAAC4ivABAABcRfgAAACuInwAAABXheVanOcB2/n7Lm3/9Xft3rNXIbwcAACUU2FhYTqxWlXVPqWGatao7kwNTtDhY8u27fpj9x7VrV1T4dVPVCVrJwAAwLHhoBUbcnbt1rbtO3XSidV0et3azpzABRU+TI3HLzt+0zlnNyB0AABwDDMhZP33m3VqrZODrgEJqs+HaWoxNR4EDwAAjm0mC5hMYLJBsIIKH6aPh2lqAQAAMJnAZINgBRU+TAsNtR4AAMAwmSDIrqM2LrUFAACuInwAAABXET4AAICrCB8AAMBVhA8AAOAqwgcAAHAV4QMAALiK8AEAAFxF+AAAAK4ifAAAAFcRPgAAgKsIHwAAwFWEDwAA4CrCBwAAcBXhAwAAuIrwAQAAXEX4AAAAriJ8AAAAVxE+AACAqwgfAADAVYQPAADgKsIHAABwFeEDAAC4ivABAABcRfgAAACuInwAAABXET4AAICrCB8AAMBVhA8AAOAqwgcAAHAV4QMAALiK8AEAAFxF+AAAAK4ifAAAAFcRPgAAgKsIHwAAwFVBhY+wsDAdzM11SgAA4FhmMoHJBsEKKnycWK2qcnbtdkoAAOBYZjKByQbBCip81D6lhrZt30ntBwAAxziTBUwmMNkgWGG5Fud5QLZs264/du9R3do1FV79RFUKoboFAACUTyZ0mBoPEzxOOrGaTq9b25kTuKDDh7Hz913a/uvv2r1nr0J4OQAAKKdMHw/T1GJqPGrWqO5MDU5I4QMAACBUXGoLAABcRfgAAACuInwAAABXET4AAICrCB8AAMBVhA8AAOAqwgcAAHAV4QMAALjq8IePL2fq7sSZWuYUQ7Xs5Ud091Op2uyUQ7NCUxIf0ZQvnWJ5dDBby96crCFDreNhvZe7H3xco1/+WBm/O/O97OP+rN79ySmHyD7uL69wSkXbPP/Z4j+bn1I14hD2w3fdJW4HAFBuhBQ+ij8h/ax3n3pEI+b/7JRLZp9MzAm0mEdgIaH4QHHIJ6tQTpz2Sb/o91PwEXQIOmgd37ETlPzTGepx7yOakPSYJgzvpSsrLdeUsVbA2+UsVyLPZ1TU/pRFWAlVICEHAFAxHPlml1qt9IA5ifo9rlczZ3a5c8lNBd5LUY/Q3t+eZala9FtT9R54nS6qdZxnYrX6ivnnHepSd53efm+tZ1qJ6qvLA0Xs08BWquUsUW4d3KvNy97X2GeSlPigT6ganqTRL6fqy637nQUBAEcSfT5sntoT/1oA6zFuqXZopxaNK2JecU1JAdV8zFWGs3gwMtZnSRFNdFGhT+0kNWlYU39t2VQGTRL+NSPJ3ziT8xSuOXnq053SjqV6ymeaebjavLXLCl/jHtdTC35Sw3Y3aujw/GCVNOhGxdX8UbPGPabR7wdWKwcAOHxCurGcqSJP1vWacFtzZ4qXOTFN1uqm/TWiY33PJHMyniUlJN2klp4peUyzyFNrm+qBB+LUwJnmYcLAXKnHY+p3iWeKvc3sVgEt61V4/cUvW2ZKeL+H6stXHtGrf1nHvU/B417Ee7X3I1vtBt6rLqfZizg8n9GiHU7RT81Cyxf/WQfINF2NW6uLCu2Hv+K24/u+VOz3RVqd/LimbbpIDwy+Tg2KidQ51jEZNesnXXpHom44y5kIAHBdhan5yJjl/1e3eRT+i7z0Goe/tn6ld1+brBGPPua3rkGPWie+145s1X2zcyKkjWu1bI8zIc8fWrdpp44/vWGhk3Jxal3Z37/ZxX6UHBAK+WWFXn0uSYO8TRzDJ2jKgnXKcWYHbq/27LV+HPCUgvezsjbtVYMWVxQbPIzwS67SpTX/UMbX1H4AwJEUevj4Zq7fydnzKO4v6sOvWY+CJ9LH9MCVNQv0KSm5r4X5y3jIuBR9X72Vbr0nUWPzXveIRt/TXVdVN1X3SZry5R/OK4qzTsmFjk0RjyA7WFZrGad2J1vrnvy+Vu9wQtCen5X2yvN6d1sT3dC5qWfaISmt2cWxOVWjx87V5tPjlWg3cTyipNub66+lMzXKel/BBZAsbTIdXbf/nH9Vi7N9O0ACACqU0MPHedc7J2bfR3+1C7bXYhF9BULtE3Fo1urduetU75p7NKjLhTq7ZlUd78yRjlO1mg11SZc+eqBddWV8uETfO3MKCajDqfMItimjUn11GXS3bj37J8161qmZeXS6Pj3YQv0G3aSW1Z3lDol/h9SE85zJfnYqdfZS7Wh0ve7u1lT1qplp1jE6o5Xu7hOtE775t1J/sBcMzPp1yvif9XNnllZZ4bVBx3vztm8HyFLVV0TDqtq8/DNtPuhMKsJf3yzVqp0nqdkFTpMgAOCIOKJ9PoJx+Pt8rNWrQ9/UjthEDWp9kjOtsB0LJmhEeoQGDbtOZzvTSu5HEQBTO1NEP4ZDEmCfj+NPPEnVTAQ9uFc5u01tSkN1ebSP2tmBorjPuqTj+LPefmKyMs53vgN2nw/TcderSYHvwl5rG0lK/itaMbutcHB2H43u0tCZF3ifD9PhNHnqTC3b3VAxHTsoLrKhwp33sOf3TcpY9JFmpW9SjSv7a8h1hA8AOJLKTfgonudEWGxNid+JveQOp3aHxNk/ql50vLq0aaIGebUf+7Vn58/KWGxOYNmK6H6P9friA0pFEkr48PsOlNbhdPP7GvHcap19y8Pq8fsrSvzwOCUMsb4rTnAIOHwYB1dowoNzta6aFaj2/aE93loQb7mR9T6K6KwLAHDXURE+7PUV17fA1yHXEJQcPgzT4TTlgyX6cmO2cnw7dlonsHpnXqS4a6/SJfWcMTaKYr/fdU6hZKafSnH7UaJAAl2AV5mEZqcWPfesUqpdrxHWyTzcmWrzhonbHtatpsmmpP2wB02brGWnXK+h1ncp3Cq//fRk/bdudz36zwtl8kdQ4aOEz7f47ywAwG2hh48SwoK5kqKsaz4KN6GEovTw4eewncCD3I+CyiB82Mcz0M6cpn9PwZO26XA6cal06T90+7Wm38d+7fkxXdNeStWmM50wYZYrbj8O/qFlrzyn5I1nKOF+6314+6vY612uWl3uUb/okwgfAFABhdThtOVt+R0Si3rkBQ9XmRNPOb9vi4t8O3WW9Ci6w6mlQZyGDLpeDbakKOlR00n4MSW+tELHt7opP3iUZGeGvsw+TV3u9AkehrXeu7ufoa3pq7mHCwBUUCHVfATFtWaXQ6xNKEooNR+uNbsEso3Cg4YF65BrDA6x9oiaDwCoeI6e8HHIJ4YQw0cQYaEohQJEAO/3kAWyjTJqMjq6w4fnMw/5suyimpMAAIcd4aOsET78uVrzAQAoD8pXs4ul+KaKIP4KPhzjanjZ7zfAmpRQ9yPgbZT/ZhdfvkGE8AEA5dfhDx8AAAA+Qh9eHQAAIASEDwAA4CrCBwAAcBXhAwAAuIrwAQAAXEX4AAAAriJ8AAAAVxE+AACAqwgfAADAVYQPAADgKsIHAABwFeEDAAC4ivABAABcRfgAAACuInwAAABXET4AAICrCB8AAMBVhA8AAOAqwgcAAHAV4QMAALiK8AEAAFxF+AAAAK4ifAAAAFcRPgAAgKsIHwAAwFWEDwAA4CrCBwAAcBXhAwAAuIrwAQAAXEX4AAAArgrLtTjPA7Zt2zb9/PPPysnJ0cGDB52pJatUqZLCw8NVv3591a1b15kKAACONUGHjw0bNmjPnj1q0KCBTjrpJB133HHOnNL99ttv+uGHH1S9enU1atTImQoAAI4lQYUPU+ORnZ2t888/35kSmlWrVlEDAgDAMSqoPh+mqcXUeByqs846y14XDsVCDWzSVBGDFjplAADKh6DCh+njcfLJJzul0JnmGrOu4Dgn2wKPqJgEPTg3S/ucpQAAwNEtqPARaOfS0ph+ImW1rpytqzQrMV4dx6xypgAAgKNZubvUttmAFGWtW+t5ZK7UkmkD1LKO9N3U8Zqx1VkIAAActcr3OB+Vq6hhTF+9PjTeKqRr+UrPZAAAcPQq3+HDq1EjNXOe+tqXlaLhveIVFen0D+nQT5OWbnfmeuV33Ny3JlkDu0Z7+pNEtddtk9Jl90zZl6kZg7rlr6dromasKaKXyYHtWjYtUd1bXeysI0bdh6boO79FszSpszWv81RlZC/U473aK9IsGxmtjtaymw5Yi1jrSU3qpdZRnu1FxvbS4wsL7reP7HRN6uf7PotfPnvpdA3sEePZZpOLFd1jmOZlFXgvHyba6xn44T5lTOvn7EeiUp3ZxfluUjdruW6alOm//1FdrW1s9CyTvfBp9Yz1Hp/26pm0UNnmPRcQ2GcHACiPgrrUdvHixWrTpo1TOjTBr8uEhAHaMCBF8++McKZ5bJqWoNZJObpzVorui3ImZk5Vx67jlVHoxFZbnca/r3HXVHfKnvXOi4xUs3WZhZZvmTheV3wwQGPWOBO8asZr8sIkxYU7Ze1S6qDr1D+liBPk+QM0/+2+albZFEz4iNeYHGt7/7O2l20vkadOQpKG5CRpYKH1ROq+lDm6s4lT9O53TLw6ZaZoXoH1FH6fUo4VKmKt41do0crWut+x1h3plE34sJZrE5+gKk3jNa5XlKrY+14yEz7aj9+lZufvVcaaAvtfJ0HjHsrR6EGFt2+a0vw+04A/OwBAeVS+az4OWH+Zzx2m201n08sT1MMbPA6kaXhv6+R1SrTuHD9HmZmePiKZ7yWpR8R2zRv/slY4i+bJzNS+65O04Guz7EotGZ+gxtYJd9kYK3hkRqr3tAXKNP1MVs3Ro7G1pZ0pmpvmvNayacY9dvBo3G2oZn+y0tMn5esFenlAtOqsGa+Jc3c5Szq2ZOoXKzy8vtTZtzcG231Xst9KtIKHFDfC2W+zjt4mFWTqvQ8zPa/1lZaiZdZ6Xl7o3Wa65id1s/bdep8jkrTYewLfkqz+5sQf0U2PvuG8F/M+TZ+ZUzI1ZuIcTy2Pj8X7IvVU78CCR77NytjWSPdNT/Psz6pkPdzKOl7ZyRo42HpjsUM1f5V3273sQJbx4XxlOK8O6bMDAJQvpuYjUJ988onz7NAFv64FuQPOicw9u4hHzO1Tcj/71VnMWDDUmn5Z7gMfO2Vf8++x5nXNnbjBKXvXG5eUu3y/M8nxyZDL7PX3eivHmeJYOy431poen7eSDbkTu1jr+MfLuT86U/KtzX3mOmvegwucsrVsJ6t8Xt/ct3z32fLjizfa24t9aqUzxbF/fm4/s4/3etdhFL/fhmddsbmjv/SU10/papVvzH1xs6fsa82466z9GZr7kVPO/WCwvR/95jvlAK2faLZRxPHa/HJut2L29b17rOnnDM7fdlCfHQCgPCrnfT6qqHH8UL00ta9a1nQmWb6z/lI2zSCz+nn6C/g97EG5MrX+W3vRfE2j1LzAX/gN6psB1SLVIqpANX9kUzV1nnps0HrTLLP8abUuuD3TB2KdNW9tlr6zl3U0uVjNffbZaHi6ZwC3phd4q3AclZvqfG+TSEFF7LfR8OKL1VCb9csvnvKGb02tySo93rbg/jVVx0lZ0oG11nHzLOvlX+NR9Dgr9mv9FHG8rPdlv7Mi9rVpE/83FtJnBwAoV8rvpbaZKzV/RIx+Txml9r2StcmZD8evOfYxqRr4rXcAAHBF+a35qFxFzRLGa+GoGOnzUbpjUn5/iMZnemos7kvx9Bco6jHuGs+yZaOBGpqOoPHji9yW/Xivrxp7Fi5bOdmF+moYi5cssP6NVrMLPOUGZ0ZYxyxek50+FIUfvp1ZixKrcUW8rmDn30Pl/mcHAHBbUOHD3Ba/LOzfv7/M1hXe42lNjq+tjPFDNcabP2JiFFc5U2PuGaYZyzdrn7fT5Z/blfHheN32RFnfDyVSbdtaJ+GUkeo5ZqEydnovXd2nnKxVmjE0UdMKNGmUmbRR6v5QSv42/9ysxWMS1H/WLunyWLWp55ncrHWsGh9I0SO9xyt1za684ej37czSiuRhGjitYPPJEeL6ZwcAcFtQCSA8PNy+Lf6h+uOPP+x1lY3qihs2TJ3qZGpS71GeqzvCu+m++6JUJWuOht/YXpHOWBFm3I2OA6ZqcaFrTQ9d8z4D1OP07Vo2dYA6RjvjWDS5WFEdEjR81obDd++ZyEhVmZuYv00zPsnUVdp3QpTueyhBDZ3FFHWb7uvRQNlLp6p/12hnnI+mioyOV/cRc7ThsO1gkI7AZwcAcFdQ4cPcBn/z5s1OKXQ//PCDva4yUzNW457rpcbZyXpg8EK7GaJx72SlTR+sTlG1VcWzlKrUiVDLboP1+kOxzpQyFB6rJz9K0bibo9XYm6sqV1cd66TZO+lp9S6xSeMQNOqn16cPUJsIp5PnCbXVuN0Avb4wOX/cDpsV0kbN14KkBLX0LmsJrxelNr2T9Gzvsm0+ORSuf3YAAFcFNciYsWHDBu3Zs8e+tb65O625SVygTK2JCR7Vq1dXo0aNnKkAAOBYEnT4MLZt26aff/7Zvi1+oHenNX08TFOLqfGoW7euMxUAABxrQgofAAAAoSqbS04AAAACRPgAAACuInwAAABXET4AAICrCB8AAMBVhA8AAOAqwgcAAHAV4QMAALiK8AEAAFxF+AAAAK4ifAAAAFcRPgAAgKsIHwAAwFWEDwAA4CrCBwAAcBXhAwAAuIrwAQAAXEX4AAAAriJ8AAAAVxE+AACAqwgfAADAVYQPAADgKsIHAABwFeEDAAC4KizX4jwP2NvLc/Xsv3P1zVZp/0FnIsrUcVYsPK+edO/VYbqhRZgzFQCA8i/o8JH4Tq6Sv5By9gSdWRCC8GphSrhMSupKAAEAVAxBNbuYGg+Ch7vMsTbH3Bx7AAAqgqDCh2lqIXi4zxxzc+wBAKgIggofpo8HjgyOPQCgoggqfNC59Mjh2AMAKoqgwgcAAMChInwAAABXET4AAICrCB8AAMBVhA8AAOAqwgcAAHAV4QMAALiK8AEAAFxF+AAAAK4ifAAAAFdVoPARppkjKylnZJhucKa44aL4SvplfCX99x/c8h4AgEAcmfBxcpgG31JJXz9uhQXrxG0/nrHKd4Wp08nOMgAAoEJyP3xYwWPmfWEa1kI680RnmnG8VT7HCiUxTrmcWJ1yUKcOOKhL3/S95b31/u6opE3D3a2FAQCgPHA9fPzr72HqFC79/mOuhrx0UOdYJ+5w63Hl87masFb6rYLcvfXc+lKN45wCAADI43r4OPMk6599uUoaY4WNr6Rtnsla/a0VRqYeVMcUZwIAAKiQXA8fe52fCqBvx+j7iutAWkrn0rpheubeSvrl2fz+JJ8mhOlcZ7ZH/jpuOTdMs4c7y1qP9fc6fU9ODtOwvpW0ybueJytpdnyY6npW4NHJM+/TTp7iDbebsqd2R+FheslZp3c+AADHOtfDxwtrrABSxTqp3x2mwf5poGxUDtM9d4XpX2dJVb3v7njpougwpdxeIDgYZl/6hKn9KU7ZUvesME27NUyjreUHN5VqeNdTTWofG6YxlzplAAAQNNfDx7bUg4pPzdW+UzydMtcnWif5Fs7MsnCiFTQqWyHnzYO61PQnGX5QN32Qq41/WaHiwjA9fqGznFcVK1z8nquRzzt9T+Z4lq0aEaa7z5C+Tc/VldY6wh+3lvnW85LWUcVfVvv2S2Y9uZqXYxVycnW7t0/LPM98AACOda6HD+MLKww0fDJXL6y3TvynWyf5WyppkxVC/lWoWiI0L0w7qPuXWcHBFH6T5llh5+pFniafC4uobXnt9Vw97QSL1Wm5GvKV5/nv3+YqPjlXq611aJu1jHluPa1hmlQAAEBIjkj4sFkn8/snHtSpj1sn+/Rc/VY7TM8MrqTREc78UOXkKj3Lee5j25pcbbR+nhxeoNaiiOXnmbBh+WFzbl6HWJs1faOp0QAAACE7cuHDywohE5JzdcEUT61Cn84F+mVUkeo5Tw9JHaePawW5lBcAgPLqyIcPryxp4x6p6imS3zhjVcIUVbCfRoR0UXFNHyasFHElTadmnlCz8SffwcAAAIDbXA4fYXrp4Uqaf4u5vFV5NRx1Tw/T4NvD1N4Eit+kNM9krfrV87Pjtdbyp3uem6tWPu0dpjM9xcK8V9JYgcVev/XPLQmVNM10av1LSk03E11SLUzRh+OKHgAAyjHXaz6qVJNatwjTRHOlizMGhrniZZgVFqoelOb9J7+fxdtLcu1Oo1XrW8snOuNlJITpov+TNu72LFPIPun3Gtb6bnfWb4WdidHWOqxZq9MO6mmnP8fhZe23CU7HS/+y3ifjfAAAkM/l8JGrkXNzNe8HKyBYIcFrr/V84/pc3T/loG7yrZnIytVNbztXmzh+/zVXT79oTTvgTChon7WNmbn6wuc1e63nL7zm7uWuI9/L1RI6pwIAUEhYrsV5XiozXgWOHFODAgBAecfZDAAAuIrwAQAAXEX4AAAAriJ8AAAAVxE+AACAqwgfAADAVYQPAADgKsIHAABwFeEDAAC4ivABAABcFVT4OI6ocsRw7AEAFUVQp7Tz6jlP4DqOPQCgoggqfNx7dZjCq4U5JbjFHHNz7AEAqAiCCh83tAhTwmWekyHcYY61Oebm2AMAUBEEdUt9r7eX5+rZf+fqm63Sfu6yf1iYPh6mqcXUeBA8AAAVSUjhAwAAIFRcQwEAAFxF+AAAAK4ifAAAAFcRPgAAgKsIHwAAwFWEDwAA4CrCBwAAcBXhAwAAuEj6fyNq54TvU5dvAAAAAElFTkSuQmCC;" vertex="1" parent="1">
          <mxGeometry x="1010" y="-754.97" width="393" height="324.97" as="geometry" />
        </mxCell>
        <mxCell id="A5obQ992RgEn8o-Wc76g-6" value="" style="shape=image;verticalLabelPosition=bottom;labelBackgroundColor=default;verticalAlign=top;aspect=fixed;imageAspect=0;image=data:image/png,iVBORw0KGgoAAAANSUhEUgAAAiEAAAHCCAYAAAA5Lxk2AAAAAXNSR0IArs4c6QAAAARnQU1BAACxjwv8YQUAAAAJcEhZcwAADsMAAA7DAcdvqGQAAD1+SURBVHhe7d0NXFX14cfx79X2JzMwm6hNXQvNRtpCbVHZEC0kC7XC3MJsWZaalTaTl5WmDrNms6R05rKsVNpMygeWKT0ozZSaypbEZkoP6vKB5YSs2Kb8f79zz4ULoXIJPSKfdy9e957f/XHuuefa63z5PR1fmSEAAIDjrJH7CAAAcFwRQgAAgCcIIQAAwBOEEAAA4AlCCAAA8AQhBAAAeIIQAgAAPEEIAQAAniCEAAAATxBCAACAJwghAADAE4QQAADgCUIIAADwBCEEAAB4glv546RXUlKi4SPv0br1uW7J0TVpcqratmmj2NiLdfVVifrpRd3UuHFj91VY23fsUOq4B/WXDRvVoX17PZw2SV27xLivAsDREUJw0qtNCKnqrLNaa9RdI5V8/bWEEePrr7/R6DH3KfuNt9wSqXOn8/XcM3PUosX33RIAODK6Y4Aa+PzzXXrwoUlKvf9Bffnll25pw7Vv3z59tHWbu+W3c+c/9cmnn7pbAHB0hBA0OD/60dn68+o3Vbjlw2p/8v+6USuylmjU3SMr/VV/8OBBvbpkmdKmPqr//Oc/bmnDdEbzM3T2D9u5W35t2vxAPzr7bHfr+LPfz98+2Kz7H3xI401gBHDiI4QAVdjxIOd17OiEkFUrstS/X1KlLphXXl2qBRl/cLcaptOaNNGEB+9X7MU/dc6NPV+THhrvWVeMDR9X9L5a1yYP1B9fXqwDX33lvgLgREYIAY7gjGbN9JupU9Sv7zVuif8v7pcXv6Jdu3a7JQ1T1Dnn6KUFL+ijgg+cliMvB6Xalik79gdA/UIIAY7i//7v/3TLzTcpMrKFWyJ9/Mknyv/wQ3cLAFAbhBCgBjq076DOnTq5W/6/vD/YnO9uAQBqgxAC1IAdJ9KhfZS75ffpZ5+5zwAAtUEIAWqoadOm7jMAQF0ghAA1dOjQIfcZAKAusGIqTnpVV0y164QseP45/eAHZznbNWH/Nxk9JlXLs/7klkij77lL99x1p7t1dHYf/9iyRYtfWaJ33vmzduzc6aw8ajVv3lznR/9Y11x9lZKu7qPTTz/dKa8tO2bFrmaa9doK/e2DD7Rnz15nVo+dTvuDs87SZZdeokEpv1Cn86Pl8/mc37n3vlQtXZblPG9+xhmaM3umLurW1dmuzpMzf6cZT850t6SnZjzuHH9N2GN5/y8b9NrrK5Wb+16lc2GP8azWrfXjH3fU5d0vU+8rr1Tr1q2c1wKCjzUUNflcAXZRulVvvOl85wUF/9CevXudcnt855h/Q5dcEquBA5IrncOj+ec/P9dNt9yqTz7xL+p2qdnH07OeVHh4uLP92WfbNXP203rzrdXOgnBWKMcM1De0hAA1sPOf/9TmoIGodsaMvfjU1Ob8DzXwxsHqe+0APTfvBWe10cBF17IXnLXvrtMD4yfqsrheemrWbH319dfuqzVnL+6LXs7U5fFX6O7Rv9LKVdnOaq+2PPC6veeLXUvjugE/1wgTzuzrx4sNYm+vXqM+Sf2VMvgWLVj40rfOhT1GG0reePNtTfr1wxqTOu64Tr+1533m755WXM8E3Zd6v9bk/Lk8gFj2+LZuK3SOvd91AzTg5ynO9/td2POS8YdFSro2WYszXy0PIMDJjhAC1MCq7Df12fbt7pbUuXMnde3axd06vMDFxV5wN2zcWB4GjsT+Bf5E+lPOBXDfv//tlh6drXv36DEa9+AEFRX9yy09PHss9i/9W4be4Uw5Ptbsxd2GrDtG3OVcxE9ENpANM8f3+Iwn9e/9+93SI9uU91f9cshQvbZipVsSOtuq8/Ajj3JLADQ4hBDgKHLfe19znplbHiBsK8gvBg5wmsmPxAaQ2XOe0cTJaZUuLl1iLtTsWU/qrxtynWXi7WJfK19brl8OHlSpG+b1lav06LTf1miJeBtA7jEBxP5OgO02+Nnl3Su9l/3JXZujtEkPOd1S1kcfbdVDk9JUUnLsLoD2M0xOe9hpgQmcR7u66r2j7tY7b7+hbf/Id47t75vz9NaqFZo6ZbJznuxnqM4Tv51W/nnsz6KXFlT6Puwqt8GvB342vPfuYbs1bBC7ffidTotUgP0+ht8x1Pl+7Pdk92HPZfoTv9UFnTu7tfznf/KUh51/K6GyLUE29AS3BgENBSEEOAwbImyXgB1/sHdvkVvqv8D1S6pYQfVw7F+3s2Y/XX7RtdN8Jz30oHPBTEy4snwcgL3QntuhvSZOeFBz5/xOPwy6J4tdIv6VJUvdrerZ45yRPrPSxdOOoZg980k9/+zvK72XZRdds+NBspa+ojuH3+G8//rc9/TOn9e6NepezjtrlfWn19wt6dxzO2jhC/N098gRzj1nAmMqbMCz4egXA29Q5qKXtOzVxbr4pxc5rx1LNkTYIPZhwd/dEjlL0mctyVTqfb9yvp9AILLnsu81V+ulhS84wTFQbv+NTPvt4zVqhQqwg50zXvqj0/1k93NFr55akrnICTw2mNmANvS2W5zzApyMCCFAFXb8wcrsN3TLbXdoxF33lC/Pbi8SduVU24pwtIuCHXcx55lny/+6tQHk4V9P1s03VVy0qmMvuOPvH+fUt2yAsWMPdu0+/BLxf177rpYsW+5u+UOGbSm48oqeRxwwae//MubeUeWDa//73/86j8fCKnM+gweeDh1yixNEjib6x+c59/AJDlHHwkt/WOQEsYDul12q381MrxQIq7Lnb6wJKPE94twS/z1slgUNXj4aG1zWv/eec07s9/D72TP1kws6O9v2u7MBbcSwO5wy4GRECEGDY2cm2IGbUR3Pr/bnwm6xzoBN2zIQaMWwC5XZC4S9advRAogzDsT8dWtnwgT0S0qq8cyRHnGX64qePd0tmf18pHfeqb6Vwo6zeHFBRvnATXvxsl0c9q/4mrAXumG331bp3jh1zR6bHdgbEGECxTnn/Mjd8p7tjvrDH18u/65tiLv3nruO2t1m2SBy6y03l4ckuw8746emY3kKP/7YmTFz/XX9ne+hprNsgJMFIQQ4DDsewAaHBS88pxVZS9UzvkeNLhL2wrLi9YqxGW3btHEuVN/73vfckiOz9a65pk952LEXNvvXsg03VX34YYE2btzkbvlbUq7pU7OwE2DfZ8D11x3z1oYA+zlOpDVXXl223OkOCbj+2v7qEsLN+C688Cfq2uVCd0v6uPBjbQth4K3t6rlz2B10uaBBIoQAR9Dx3HMVc4QBktXZuDGv0l/+cT/rrg7mQhMKu2ZI61YVa2N8/PEn1U7bfHfd+kp/ddsWjdqEic6dznd+joVTTvmeTj3V371k2VkndppudaHqeLPn7r33/+Ju+VtBru6TGFKLhG0NufAnP3G3/PvcVljzEGK7c84++4fuFtCwEELQ4NiBj39e/WalWRN2VsbrWUv18xsGlAeO2k6V/dvmzeVN+3ZfdlGrUJvZI8IjKi3Q9cUX+3Tgq6/cLT87hqPg7/9wt6RWLVtWusleKGxwadky0t2qW3Z8y4U/ucDd8ntxwULNX5hRfp68YrtCdu6oaAXp0L69fnS2f9ZQKM75UeXupZquvWJbP47HwFvgREUIAQx7MejY8Vw98vCv9eK8uZUCgJ32amef1OQv9wMHDpSvhmmdcUYztfnBD9ytmmvUyFep9cWOq9i9e4+75WeD0WdBN9E766zWOqvKyqIniuuu7afzOnZ0t+QMUrULkSX1T9byP73mWRjZvn27iv5VMZvFfle1aUk65ZRT3Gd+Nb25oW3tsv/ugIaKEAJUYZfSfvyx31QamLj4lVecpbSPxrZWfPHFF+6W9K9/faHkgTdWOwD2SD92cGxgmfnDKS0tNaGnonXELv3epMlp7taJpV3btnpo/P1Od0cwO3h31L33Ka5XgrNKbCjTW+vC57t2VwpAi195tdrv42g/dnXa2jjzzOZqetqJ+Z0BxwMhBKiGnV1yyy8Hl7dG2L/cZ8/5/VEvkv/77//09TfHZ9Ep2zISvJx5RER4+dTeE5ENdy8894yzCFlVtvvCdn1d+rN43Tp0mP76tw+Oy5iR4PPnhSZNmtR4wDJwMiKEANWwYzhuGnRjpdU17fLcGX/4o7uF2vjxeec5i7XZFUeDu2cCbKvE6px3nPux2GnS9oZuAE5ehBDgMGx3zG1DbqnUumBvLmbXlaip6gbB1ubnSMuN1ze2dcmuOPra8ledFVHtCrRVW3BsGLH3tfnFTTc7M2mOF3tn5OrOf6g/drE4AEdHCAGOwE6vDV4R064n8dzzLx52ddHw8NOd29AHOANK91QeUFpXbFN+8NoSxcUl9er+I7a1yU4Lthdsez8bu6S9vZ9MMLta7cTJU0IKfqFoHxXlPvPbETRTBsCxRwgBjsBe5If88uZKg1TtipjBS3wHs+thREREuFs2hHxZaaBqXfr+mWdWuuHdrl27VPJl7cY42LC0Z0/F7eqPN/s57JL2q99cVX4/mwAb/OyCYsdCs2YRatq0qbsl/ct8V/UpyAH1HSEEOIpuXbuoz1W93S3/BXvuc89XO6jRDjK09zsJsHePDV4Mqy41a9as0r1NPtu+Q1u2fORuhcb+bmHhx+6WdwL3sxl66y1uiZ9dFXb//mJ3q+7Y7rKWkRXro2z56KNKC80BOLYIIcBR2G4De1fX4LVD7Eqlf1rxurtVWdcuMZX+uv7Lho3HZOpp1UXA7Boldk2T2swqefOtt49Zt1Go7PlOuuZqZ/G1gD179zqfr67Z9whep8N2//xlwwZ3C8CxRggBaqBTp/PVv2+Su+UfOPnCiwudu+VWZeued17FzI9Q76wazI6FeHXJMnfr2y679JJKXUXZb76lTZvy3K2ase9hB9yeSOxnanJaE3crdIcOldUojNmWq17xPcq7f+z3erS7Fh+O/d2X/rio/K7LAI6OEALUQKA1xN5sLMAutGXvllv1YmcvoD8fkFzpwjbnmblHXXysKtuNc/uIkdUGnQDbEmJvOx9gbw3/xJMza7zMvK3364cfqXQDt7pmL8rpT81ylsGvqX9+/rn2/3u/u+VfFt0uxnY4rVq1rLTSqV0Jtbp77VTnyit7OTehC/iw4O96/IknnTsU15StO2Xqo5r77PMn1M35gBMdIQSoIXuTsZ+bIBI8aHLp8izl53/oblWwd8ENnlVjw8Fd99yrRS9nOqHkSOwFza4eOnTYnUddJ8P+JX/LzTdVWol07bvrdOddo476u/Zuv7fdPtypb9fsOFb3MLEXZXuerr/hFzW6cZ39/HY9lkCQsufbBq0jLcR2RrNmatOmYnl8GyTe37DR3ToyGxqH3z608lTsV151VnKtyTolm833P/iXt+qF+QtVZv4DUHOEECAE/ZKu0U8u6Oxu+f/Kn/37Z5wBqMHsAMsHxo3Vued2cEv8rQ7jHpxgLsY36pUlS52bpwUCif19O6jUthgkXHWNs3poTVsOunbtovtTx1a6iOa+976Srk3W5LSH9dHWbeXvY2d+fLB5s3Mcfc3reX/9mxNg7PRYe++ZY2nrtkLddscI533tDezsBT5wXDaY2C4Qe15uHPRLLVlaMRvmktiLnXvPHIltBQluzbDnc8LEyfrDopfLZ7vYcTl21VvbPVbVFb3iNfyO2ysFTDtOxp7DCZN+7Zyz4IHItpVlZfYbzuqu1w34ubOQHYDQ+cz//ER3nNTsxWP4yHvKu0PsjIgFzz+nH/zgLGc7VC8vfkUPTJhYfgG1F//0x6fryit6OtvBbGuDvQuvvdjXRmLClZry60n6/vfPdEuqZ/83tl1DU38zLaQpprYVIG3yROf29ffel6qly7LKy+fMnnnEBdKenPk7zXhyprslPTXjcV1z9VXuVgUbtm665dZKN/arKdsCMu2Rh2sUkGy31R3D73K6yQ7nSJ/Lfp/PPDtPT836Xa2m6dp9T540Qdf0ucrpvqtO1XNhl7J/etaTtbppHnAyoCUECNFViQmVui7sBetw95WJOuccLXhxnvkre2ilNT2OxnaP2KXNZz75xFEDiGUveoNSfqF5c39f7XLo1bH3cFk4f54TQI4lGyAmPDCuxsdl2e6VX42+xwkMNW2hsTfJ+7UJAcGzmEJhW0Hs9zR/3rO6oHNFa9fR2BB6488HavmSTCVd3eewAQTAtxFCgBDZv1rtAmbB3R9HmgFju2ZS7/uV3s15S7+d9oh6xF3uXFiDm/7toMvOnTvp9tuGOMuZ2x+7tHlwnZqw4ShraaYWvPCcru3f17kwB/ZhH20r0M9vGODcv2XxHzOce7kca/ai3DO+h3NcGfOfd+7JYwf4Bp8/+9wGNnvMc343U+vXrtFddw53zl0ofnpRN3PulujeUXerQ/uo8s9u929fs60+1d1AL5jt3lqS+UfnO7h1yC+dKbzBAdLus22bNkrsneB8n3a114fTJtW6ZQ1oyOiOAeAsQ3/Pvfdp5apsZ9sO8rStKvZCDgDHCi0hAJxxM7uD1saICA9XRATjFAAcW4QQAPp81259/vkud0tq3bq1wk8nhAA4tgghALQ5P7/Ssu12EbTgMRsAcCwQQoAGznbFLFteMajWDry1gzgB4FgjhAANnL0RX/Cdfrt2ubDSwl8AcKwQQoB67vkXF9RoOfjq2AXc7OqswQuvJV9/XchTYwGgNgghQD1XXFzsLMM+8Mab9O669TUKI7bO/IUZGnbn3c59bQLsLfR7X3mFuwUAxxbrhAD1XNXl0+0CZf37JSnhyl7q0L5D+QBTu7LrZ9s/0+srs7VocWal2TCWXSL9yRnTneXHAeB4IIQA9VzVEBIquwJov77XaPJD40NaWh4AvitCCFDP2VvfL1j4kl6Yv+BbrRtHY++RMubee/Szy7tzzxMAxx0hBDhJ2P+V7R1ks994y5ntYu/gu2fP3vIxIrbF46zWrXX22T9Ur57x6hXfw3kOAF4hhAAAAE8wOwYAAHiCEAIAADxBCAEAAJ4ghAAAAE8QQgAAgCcIIQAAwBOEEAAA4AlCCAAA8AQhBAAAeIIQAgAAPEEIAQAAniCEAAAATxBCAACAJwghAADAE4QQAADgidqFkBWpiup4vkavcLerU5M6AACgwaIlBAAAeIIQAgAAPEEIAQAAnjjOIaRUW5dM0aCrYp3xIlHRseo7PkvbD7ovB5QWalnaEPW+yNSx9S5K0q2zcrW3Ur1CzepvXus/R/l7szXxev8++84qrPTa1n25mjU8STHR/n3FXJ+q+ZtL/bsIsnftPI0eGFderybvOXVIb0VX/RwHi7Ry2hD1iPHvJzphiKZmF/l/PZipt25uqgZ07+J/v5g4DTD72PrtQwMA4KR0XENI/qwU9U7N0LrCEn/BwRLlL0rV9FX+TcfBAs26MUmj5+dqa7FbVlyo1elDlDQ2W4GiCts0f0quLnsqR4VbPtTykVFuuXFwk6YPHqLpbxWq2A0TxZuzNPGGUVq0z7/tl62HhzymZXlF5fUC7zloRp5bEKR4lcZdO0pz1+4wscpwP8eAtCwtG3u9RszN1favnJoq/TRXc0cO06wt/m2/Eq009QZNy9LGvW7q+KpIG80+et9oAk6l4AMAwMnpOIaQHC16sUCKTtFzb29yAkPhB6u0eFKy2p3iVjFWpw3T9M0tdOmwdC3PM3VsvbxMzUiO0t6sdD1TNRMUfKjIIeOV2CbMLQiyJUcr/5esGUvd98vL0APdW5jQkKOlWZVbJ1rGDdPsV3JUYPZn6xa8NEydGktbs7K10a1TbmeB9nQcpYVrA3XH6tJIae8fUzU6S0qclOnfj/l8zw2NNr9QoKUrzGd3bZ9/j0aY9++QPF6Lg87Fc6NiFbk5XTOXuCENAICT2HEMIW3VsrV5iIxSp9ZuYAhrq64paRqT4N+0LRKv/7FIEQOnaKEp7HSaW3xatPpNGa5EFWp1ru1uCdIxQVfFuM+rahynR19KU79o9/1Oi9HQKUPU1Txd9+Emf5kjQQ/MHaXEzi0UZoKHFdZtlO661jzZuVd7/UUVzH7HPD7MCR5WWLchenSIOYiDUoehT2p2SrR/P+bzxY8ZYo7bhJlPdzh1bZfOsldzpW5j9ewjKeoaCE+27shUDeworfzLen8ZAAAnsdqFkJaRauc+rbkoDX5omLr+ZYpiu8VpwPDHNH+D250RsKXQ6YooXjTcP04i+Cc6VStNlfx/bPPXDWh8qqppA/Hr2EVdm7vPA9q0NXHIqDr24qsCrc6Yo4n3p2pQUm/16N5FIzLd16qqZr/tzH6t8y+okogan6/OtjGk3DZ9tNk8bHhMPap+xo7J/m6bDwu11akLAMDJq3YhJDxCEeZhW2GVVokgxSV29EZbtWzp37Yiuo3S4twszb69h8I+WayJN/ZWTP8pWl1pfMbxV7xignp0S9atk9I1PzNL67bs0PbAWA0AAHBM1C6EtG/jtCbkL8/UxmoHUe7QoldzzGOUOpzrLykXFqXEkWla+HquCt5OU/yuDI1Ot3UNd7+dRmX5x0lU9/N4ed9NHcnR9EmZ2n52sh6Ym6ncnBzlrt2kwoKnNbBqK0qdaKt2Hc1DUnr1n8/+LB2mDv7KAACctGoXQhr3UE+bBQrnadD1E7Rsc0l570bppzmaNfRWTd0gRSQl6yrbZOLI1tSh6VoZVFfFpc7zYvPocPebP/MejcvIK59hooOl2rs5W9OHPuZ0ydStUu3fZ471vBglXhStyNYtFPGfXE2/aaw2Nvd3sdStaPXsGSVlpWnQ9Gzl7ys/cyouzNP88amaW2kmDQAAJ6daDkwN18Ap6eoXaS6dBZkafX2sf70M8xOdMFzTc3ZIkUn6zYQEp9smYE/OHI0Irut0xYQpsfslbg2z31Fj1TWsUIsmpZSvtREV3UWx14/SrJxvDRGtA9HqZt7e6ZIJrO3Rc7hmld6qMX3D3Tp1q+vtozSwTZHWzRmlvrHuOiEduyjmqhRNXLStIqQBAHASq2UIMZonaEZWpiYPjlWHyIqhoRGto3Tp4Gla9dY0JVbqzkjQg/NGKT4qcGEPU2RMkh6Yl63ZyUEX+45DtDh7nh5IilFk+eyYFurQPdnUTXVmmtStthqcPk9jekUpwpkZE6Z2vUZp4bPD1N55/RiISNCjr2dphj13gZTWONycjzgNnfaYhtruGgAATnK+MsN9DgAAcNzUviUEAADgOyCEAAAATxBCAACAJwghAADAE4QQAADgCUIIAADwBCEEAAB4ghACAAA8QQgBAACeIIQAAABPEEIAAIAnCCEAAMAThBAAAOAJQggAAPAEIQQAAHiCEAIAADzhKzPc5yHZt79ERV/s14Gvv1EtdwEAAOohn8+npk1OVYszm6l5s3C3NHS1CiE7dxfpywNfq1WL5ooIb6pG5mAAAEDDcMhEh+KSA9pdtE+nN22iNq1auK+EJuQQYltA9vzr3zr3nLaEDwAAGjAbRj76eIdafv+MWrWIhDwmxHbB2BYQAggAAA2bzQI2E9hsUBshhxA7BsR2wQAAANhMYLNBbYQcQmzvDa0gAADAspmgFsNLHUzRBQAAniCEAAAATxBCAACAJwghAADAE4QQAADgCUIIAADwBCEEAAB4ghACAAA8QQgBAACeIIQAAABPEEIAAIAnCCEAAMAThBAAAOAJQggAAPAEIQQAAHiCEAIAADxBCAEAAJ4ghAAAAE8QQgAAgCcIIQAAwBOEEAAA4AlCCAAA8AQhBAAAeIIQAgAAPEEIAQAAniCEAAAATxBCAACAJwghAADAE4QQAADgCUIIAADwBCEEAAB4ghACAAA8QQgBAACeIIQAAABPEEIAAIAnCCEAAMATIYcQn8+nQ2Vl7hYAAGjIbCaw2aA2Qg4hTZucquKSA+4WAABoyGwmsNmgNkIOIS3ObKbdRftoDQEAoIGzWcBmApsNasNXZrjPa2zn7iJ9eeBrtWrRXBHhTdWols0wAACg/rHhw7aA2AByetMmatOqhftKaGoVQqx9+0tU9MV+Hfj6G9VyFwAAoB6yY0BsF4xtAWneLNwtDV2tQwgAAMB3wRRdAADgCUIIAADwBCEEAAB4ghACAAA8QQgBAACeIIQAAABPEEIAAIAnCCEAAMAThBAAAOAJQggAAPAEIQQAAHiCEAIAADxBCAEAAJ4ghAAAAE8QQgAAgCcIIQAAwBOEEAAA4AlCCAAA8AQhBAAAeIIQAgAAPEEIAQAAniCEAAAATxBCAACAJwghAADAE4QQAADgCUIIAADwBCEEAAB4ghByvG2Zo74dz1ffWYVuAQAADVMtQ0i2RpsLaVSlny6KTRqiiUsKVerWAgAAOJw6bAkp1d4tuZqfmqTe47NV7JYCAABU5zuFkE6jslS45UP/T8EmrXlprBIjpe2L0vVMnlsJAACgGnXXEtI4TO26DdHs6Slqp0Jt/KDIfQEAAODb6n5g6k9jdL55KC4OdMiUauuSKRqUFKdod/xIdPcUjfvW2BG33lWx/jEm0bHqOz5L2w+6L1sHi7RubqoGdO/irxPTW7fOyvV3/ezK0CBT1nt61SaYHZp7o6kbO0Wr3RK/Ei0absr7z9FWt6T6Y03SoLQqx2GtSHVeH72iVPlzh6tHjK2fqpXuy98+1jgNqPp5AABowOo+hKzJ1Trz0PbsKP/2lud1b2qG1m0pKg8dpXvztCg1SaMzS9wSKX9WinrbeoVu2cES5S9K1fRV/k0bGlaOvV6DpmVp4153T1/t0Or0aZq/xTxv3VtXXSJtzckNChXGzmy9vsE87luut3P8RY6D6/XuGqlDXKw6OAU7tGhkgv8YKh1rodbNT1WPG+Yov5oAUZz9mGZquFZtsN1S05TolBZq/tCqx1qkjebz9B23ivEyAAAYdRdCzEU2f8kE9f1VpoqbJ+naOLdc/6f2A8dr8eu5KnDGj2zSmmlJijSvrMwOXJBztOjFAik6Rc+9vck/xuSDVVo8KVntTnEqSLuW68WsIkX0Gq/lee44lLxMzR7WRRFOhRaKj4uRCtZo9U6nwLF9RbY2tolWp+YlWr0+qJVkTY5WH2yr+HjzO8b2+RM0LrtIYdHJmvFK4Fg/VEH20xrTvYW0OV33zvj2QJfVpdH6zdAYhTV2C4zt89M0ca3ZV7cUzV7qfh47ZmbuKHUqKtB2tx4AAA3Zdwoh+elJ/q4Gt7uhb2qm8kvbauCkCUr0JwOp4xDNmJKirlHhCnMKwtTu2uG6ubN5+nmR9jhlbdWytXmIjFKn1v5aCmurrilpGpPg31RkpCLNhb5Zm/bqcJpbdlq0EseM1+CO/s12cT3USXl6+63AeJQdWvlmntr1SdVd3U04WFvRSrI6xwSgNgm6qpvdKtSyV3Ol5sma/Uqa+nUOHKs5jLPjNHLukxoaVU0ri5HYJ9kNQQFFWp3t7mvBeCVGu3uyY2bihmlhWtX6AAA0THU4MDVcHbqnaMafluvRPuFuoV/pzjytnPeYxt0/XAN69lbsRUmavtl90RGlwQ8NU9e/TFFstzgNGP6Y5m/YUXnMSOMEjZliEknGEEWb3x90/xytLKhUwwQeEyqipXVr1/hbWLb8SUs3tFXiFbFKTEiSCtZr3S77Qp7eXVOiiB6x6mo3tU0fmeOJ6JOg+KAWjXKNY3TZJeYzFWwzNSsLbgHx26QN64+wr7Zt1c59CgBAQ/adQkjlKbq5WjVvvPpFBdoQ/PLnpCimZ4pGPDJPizJztHHnDu2tZlBERLdRWpybpdm391DYJ4s18cbeiuk/Rav3uRWMdsnpWpOTockD26o052mN6N9FPYZmBI3ViNKlcVHSW9l63bzH1uxVyg+0dnSPVbxy9Xp2kbQhWyt3hqt/r/I+ozrX7DTaOwAAOJK6H5gabFeGpk7PU0T3YZrxUpZyc3KUm7tJhW+PdVsgqgiLUuLINC2040feTlO8+f3R6cGjSY3IGA1OfVqL125SwUvDFJEzRVMzKqYDd43voXbK0btrC7RyVYHa9Unwv1dEb13Vy99KsnH9em1v3ls9uzu/YrTXudF2kKkdJ+IWBTuYp3fXl0id25uaRxOplm2k7SYIbaxuIGveJuW7zwEAaMiObQgpLnG6RVp2vkTxnaMU2bqFInZlasRNmSp2J8/4ZWvq0HSt3FxS0QVTXOo8LzaPji3zNHp8hjZ+GqhRqj0H/DNpKqYDG90SlGhCwLIX0/R6QbjiL/EPPJXCTeiIldZkaXpugdQ9Lqi7JEr9+pp6ezM04voJWhZ0HKWf5mjW0Hs0t1C69Lpr3Jk0RxKjnr1aSIXzNGLoHK3e6e6ptMQZuDtgYpVQBQBAA3VsQ0j7aHWNtF0yQxRzgbvuRv8p2njJKA21i4kE2ZMzxwSA2Ir1OZyumDAldr/ErfEfbVs0RQMS3HU3OrpdMY2jTNAITjQxuqxHuLQhT/nN+6pnUI9LZK84dT2Yq3XrpX4JgRGvfu2GTNCYbmEqLcjU6ODjSBiu6WuLFJmUrtmD27q1j+zSuyaon/nce9em69ae7vFeEOsM3A3rk1CDIAMAwMnv2IaQxnGanDFNA2Na+GebNA5Xp4HTtHhKgpo5FQIS9OC8UYqPCgxoDVNkTJIemJet2cluWcdb9MS0ZBNqArNNAgNhM0148BcFxPfq68xAiegTp3h/kV+bHuoZbR4bJ+iy8q4YV+NojVyQrYWpSeraumJgbURUrAZPy1LO4wk1n9XSPEEzlszTmF5RinBbW8IiYzTQ7Gfx8PPLZ94AANCQ+coM9zkAAMBxc2xbQgAAAA6DEAIAADxBCAEAAJ4ghAAAAE8QQgAAgCcIIQAAwBOEEAAA4AlCCAAA8AQhBAAAeIIQAgAAPEEIAQAAniCEAAAATxBCAACAJwghAADAE4QQAADgCUIIAADwhK/McJ+HZN/+EhV9sV8Hvv5GtdwFAACoh3w+n5o2OVUtzmym5s3C3dLQ1SqE7NxdpC8PfK1WLZorIrypGpmDAQAADcMhEx2KSw5od9E+nd60idq0auG+EpqQQ4htAdnzr3/r3HPaEj4AAGjAbBj56OMdavn9M2rVIhLymBDbBWNbQAggAAA0bDYL2Exgs0FthBxC7BgQ2wUDAABgM4HNBrURcgixvTe0ggAAAMtmgloML3UwRRcAAHiCEAIAADxBCAEAAJ4ghAAAAE8QQgAAgCcIIQAAwBOEEAAA4AlCCAAA8AQhBAAAeIIQAgAAPEEIAQAAniCEAAAATxBCAACAJwghAADAE4QQAADgCUIIAADwBCEEAAB4ghACAAA8QQgBAACeIIQAAABPEEIAAIAnCCEAAMAThBAAAOAJQggAAPAEIQQAAHiCEAIAADxBCAEAAJ4ghAAAAE8QQgAAgCcIIQAAwBOEEAAA4AlCCAAA8AQhBAAAeIIQAgAAPEEIAQAAniCEAAAAT4QcQnw+nw6VlblbAACgIbOZwGaD2gg5hDRtcqqKSw64WwAAoCGzmcBmg9oIOYS0OLOZdhftozUEAIAGzmYBmwlsNqgNX5nhPq+xnbuL9OWBr9WqRXNFhDdVo1o2wwAAgPrHhg/bAmIDyOlNm6hNqxbuK6GpVQix9u0vUdEX+3Xg629Uy10AAIB6yI4BsV0wtgWkebNwtzR0tQ4hAAAA3wVTdAEAgCcIIQAAwBOEEAAA4AlCCAAA8AQhBAAAeIIQAgAAPEEIAQAAniCEAAAATxBCAACAJwghAADAE4QQAADgCUIIAADwBCEEAAB4ghACAAA8QQgBAACeIIQAAABPEEIAAIAnCCEAAMAThBAAAOAJQggAAPAEIQQAAHiCEAIAADxBCAEAAJ4ghAAAAE8QQgAAgCcIIQAAwBOEEAAA4AlCyPG2ZY76djxffWcVugV1b+usZEV1TNasLW7BcVWoWf3PV1T/OdrqlgAAUJ1ahpBsjTYX0qhKP10UmzREE5cUqtSthTq2N0/zpw3XgLjYivN+UZwG/Gqe1u116wAAUE/UYUtIqfZuydX81CT1Hp+tYrcUdWP7olHqEZeiiXNztHFXiVtqFBdpY9ZjGvRItlsAAED98J1CSKdRWSrc8qH/p2CT1rw0VomR9oKZrmfy3Er4zrbOTXGC3fawaPUbla7lazeVn/eC3CwtnpSirua8AwBQn9RdS0jjMLXrNkSzp6eonQq18YMi9wV8JzszNHF6nkojkzQjO1MzRiaoU2SY+6IU1jxKXVPGa/H9CW4JAAD1Q90PTP1pjM43D8XFgQ6ZUm1dMkWDkuIU7Y5jiO6eonHfGjvi1rvKHe8QHau+47O0/aD7snWwSOvmpmpA9y7+OjG9deusXH/Xz64MDTJlvc0Fu7IdmnujqRs7RavdEr8SLRpuyisNoKzuWJM0KK3KcVgrUp3XR68oVf7c4eoRY+unaqX78rePNU4Dqn6eGlj9TLrWHYzWyLnT1C/k1o4S5xj6XuT/LFEXJVWcryr2rp2n0QMDn7uLYgdO0LLC6kb3mHO0Yo5TNybav9+Y603dT92XD6PYnK9YUzf2V1naG+I5AACcnOo+hKzJ1Trz0PbsKP/2lud1b2qG1m0pKg8dpXvztCg1SaMzK8Y25M9KUW9br9AtO1ii/EWpmr7Kv2kvqCvHXq9B07K0ca+7p692aHX6NM23s0Ba99ZVl0hbc3Irz8rYma3XN5jHfcv1do6/yHFwvd5dI3WIi1UHp2CHFo1M8B9DpWMt1Lr5qepxwxzlV3PxLM5+TDM1XKs22O6RaUp0Sgs1f2jVYy3SRvN5+o5bFcJ4mTxzjOZ89ErR7dFuUY2VavPTtzjHkB94w+JCc76GaMT8HW6Bnw0ISUMe07K8wOcu1d68TI2+JkWzCpwCl/kO7u+r3qPSnbrF7vko3mzqph9+TErxignqa8KHkqYp67EkRTZ2XwAANGh1F0LMRTZ/ib3YZKq4eZKujXPL9X9qP3C8Fr+eqwJnHMMmrZlmLkTmlZXZgQtyjha9aK520Sl67m13vMMHq7R4UrLaneJUkHYt14tZRYroNV7L8/zjIQrNhXL2sC6KcCq0UHxcjFSwRqt3OgWO7SuytbFNtDo1L9Hq9UGtJGtytPpgW8XHm98xts+foHHZRQqLTtaMVwLH+qEKsp/WmO4tpM3punfGtwe6rC6N1m+Gxigs6MK6fX6aJq41++qWotlL3c9jx8zMHaVORQXa7tY7ur3aYz5Lh+jz3c8YikKtXFGqgdMyVVDgf//FqbHOeV/36p8qgtrODI2wrRNRyZr80qqK78gc66VnFmj6TPN9ulWLM8drRKYJMG3iNGauqWv3a+rmvTJNA9u4laooXv+YBpl/E9/0StNiAggAIMh3CiH56Un+Zn77ExOnvqmZyi9tq4GTJigxcNXsOEQzpqSoa1S4/CMZwtTu2uG6ubN5+nmR9jhlbdWytXmIjFKn1u54h7C26pqSpjGBoQ6Rkc4FrFmb9upwmlt2WrQSx4zX4I7+zXZxPdRJeXr7rcB4lB1a+Wae2vVJ1V3dTThYW9FKsjrHBKA2Cbqqm90q1LJXc6XmyZr9Spr6dQ4cqzmMs+M0cu6TGhpVTSuLkdgnuUpAKNLqbHdfC8YrMdrdkx0zEzdMC9Oq1j+6sFMqxoCE4tIHntaj10b7A5J5/65D03S7/bwFO7TNqWE+U1am1h2M0QPPpmlwt7YV35E51gcGmg/9Vp7TsmU/19Kl2eZzJZiQ9rRGxpm6TqAIU0TnJD1a/kVVKC2Yo0FD5mmPDSBPmkBJAAEABKnDganh6tA9RTP+tFyP9gl3C/1Kd+Zp5bzHNO7+4RrQs7diL0rS9M3ui44oDX5omLr+ZYpiu8VpwPDHNH/DjvIuEUfjBI2ZYi50GUMUbX5/0P1ztLKgUg0TeEyoiDZ/6a9d4//rfcuftHRDWyVeEavEhCRz8V2vdbvsC/5ujogesepqN80l+SNzPBF9EhRf3YWycYwuu8R8poJt5RfvgOAWEL9N2rD+CPtq21bt3Kc1carZR/62qu9aE9G6LLat+zzAvPdZ5uFgxXnb9g/b35KnqT3dMBn04yyodvBDbXUWPduk/Pft50pWv+Z2+yh2LdSt16dre4/xBBAAQLW+UwipPEU3V6vmjVe/qMp/tefPSVFMzxSNeGSeFmXmaOPOHdpbzaCIiG6jtDg3S7Nv76GwTxZr4o29FdN/ilbvcysY7ZLTtSYnQ5MHtlVpztMa0b+LegzNCBqrEaVL4+xf79l63bzH1uxVyg+0dnSPVbxy9Xp2kbQhWyt3hqt/r/I+ozrX7LTQO1C+rYs6/dQ8rMjUoqDz4JVvQhlQelp7dThbKv4gV+sqD0EBAMBR9wNTg+3K0NTpeYroPkwzXspSbk6OcnM3qfDtsW4LRBVhUUocmaaFdvzI22mKN78/Oj14NKkRGaPBqU9r8dpNKnhpmCJypmhqRsV04K7xPdROOXp3bYFWripQuz4J/veK6K2revlbSTauX6/tzXurZ3fnV4z2OjfaXDCz7TgRtyjYwTy9u75E6tze1DyaSLVsI203QWhjdQNZ8zYp331+dC3Uv3+Cef8cjbut+oGx35UzgLhxkmY74zuq+8nUSKe7q63amcfDnqOqIi7R5JfS1U/ZGpcySouOMnsGANDwHNsQUlzidIu07HyJ4jtHKbJ1C0XsytSImzJV7E6e8cvW1KHpWrm5pKILprjUeV5sHh1b5mn0+Axt/DRQo1R7Dvhn0lRMBza6JSjRhIBlL6bp9YJwxV/iH3gqhZvQESutydL03AKpe1xQd0mU+vU19fZmaISdbhp0HKWf5mjW0Hs0t1C69Lpr3Jk0RxKjnr1aSIXzNGLoHK3e6e6ptMQZuDtgYpVQdRQRyWM1+RLzZHO6+l45XNOX5Gn7V/7XrNK9BVo9b4oG1HLF1E49EtThYJYeqnL+S/cVamPGBI22H9wRrf59TFL71jkq1fYNGRo3vZr3t+NHsggiAIDqHdsQ0j7aWckzf84QxVzgH2cQ3X+KNl4ySkPtYiJB9uTMMRe32Ir1OZyumDAldrdXYOs/2rbIXGwT3HU3OrpdMY2jTNAITjQxuqxHuLQhT/nN+6pnUI9LZK84dT2Yq3XrpX4JlQdSthsyQWO6ham0IFOjg48jwVz41xYpMildswdXHWNRvUvvmuCs6bF3bbpu7eke7wWxzsDdsD7mou/Wq5m2GjwvU5PtDJ2dJhClprhrkrjH1z1Ztz5iwllt7x0Tc6vGDGxrjrXK+Y9N0oBJmdoWSCVGh+FTqjlH5nu4cYoWBc1IqsQGkYw0JRJEAABVHNsQ0jhOkzOmaWBMC/+si8bh6jRwmhZPSVAzp0JAgh6cN0rxUYEBrWGKjEnSA/OyNTvZLet4i56YlmxCTWC2SWAgbKa5MPqLAuJ79XVmoET0iVO8v8ivTQ/1tOttNE7QZeVdMa7G0Rq5IFsLU5PUtXXFwNqIqFgNnpalnMcTaj6rxV54l8zTmF5RinBbW8IiYzTQ7Gfx8PPdGSghMMc22JyLVemjNLB7lCIDs4OMiNYxih/6XVZMDVfilOVaNS1Fl5af/8B+p+kJOy0ooLpzFPgeRh3h/c9O1uy543UpQQQAEMRXZrjPAQAAjptj2xICAABwGIQQAADgCUIIAADwBCEEAAB4ghACAAA8QQgBAACeIIQAAABPEEIAAIAnCCEAAMAThBAAAOAJQggAAPAEIQQAAHiCEAIAADxBCAEAAJ4ghAAAAE8QQgAAgCd8ZYb7PCT79peo6Iv9OvD1N6rlLgAAQD3k8/nUtMmpanFmMzVvFu6Whq5WIWTn7iJ9eeBrtWrRXBHhTdXIHAwAAGgYDpnoUFxyQLuL9un0pk3UplUL95XQhBxCbAvInn/9W+ee05bwAQBAA2bDyEcf71DL759RqxaRkMeE2C4Y2wJCAAEAoGGzWcBmApsNaiPkEGLHgNguGAAAAJsJbDaojZBDiO29oRUEAABYNhPUYnipgym6AADAE4QQAADgCUIIAADwBCEEAAB4ghACAAA8QQgBAACeIIQAAABPEEIAAIAnCCEAAMAThBAAAOAJQggAAPAEIQQAAHiCEAIAADxBCAEAAJ4ghAAAAE8QQgAAgCcIIQAAwBOEEAAA4AlCCAAA8AQhBAAAeIIQAgAAPEEIAQAAniCEAAAATxBCAACAJwghAADAE4QQAADgCUIIAADwBCEEAAB4ghACAAA8QQgBAACeIIQAAABPEEIAAIAnCCEAAMAThBAAAOAJQggAAPAEIQQAAHgi5BDi8/l0qKzM3QIAAA2ZzQQ2G9RGyCGkaZNTVVxywN0CAAANmc0ENhvURsghpMWZzbS7aB+tIQAANHA2C9hMYLNBbfjKDPd5je3cXaQvD3ytVi2aKyK8qRrVshkGAADUPzZ82BYQG0BOb9pEbVq1cF8JTa1CiLVvf4mKvtivA19/o1ruAgAA1EN2DIjtgrEtIM2bhbuloat1CAEAAPgumKILAAA8QQgBAACeIIQAAABPEEIAAIAnCCEAAMAThBAAAOAJQggAAPAEIQQAAHiCEAIAADxBCAEAAJ4ghAAAAE8QQgAAgCcIIQAAwBOEEAAA4AlCCAAA8AQhBAAAeIIQAgAAPEEIAQAAniCEAAAAT/jKDPd5SF7eUKYn3ijT33dJ/zvkFuK4OsVEyB+3lu690qcbuvncUgAA6odahZDUV8qU8Z5U/HWt8gvqWEQTn1IulqZdTxABANQfIXfH2BYQAsiJxX4X9jux3w0AAPVFyCHEdsEQQE489jux3w0AAPVFyCHEjgHBiYnvBgBQn4QcQhiEeuLiuwEA1CchhxAAAIC6QAgBAACeIIQAAABPEEIAAIAnCCEAAMAThBAAAOAJQggAAPAEIQQAAHiCEAIAADxBCAEAAJ4ghAAAAE807BDyQ5/e+W0jFT/gU2+3CAAAHB8ehRBz8U83F/8qP3umNdIbyT6d59YCAAAnrxOqJeTUMOniOJ/eGOZTK7fsmPqsTD+775AippZplVtUMz5NuLORtk/06Qa3BAAAhMbTELL7b2WKGGVCgP2ZeEg3vVamT/8rNTvfp6nnu5VOUOedZY7zFHcDAACE7MRpCfm3tGxlma7M8W927OB/BAAAJ6cTbmDq7s/LtNt9Huy8bj4tn9hIewLjR6Y20oKE6rttepjydyYHjTUxzx+O8WlBmtlOC+5CccemjPG5237fei/zew/H+F+74TZb5lO/CLMR4dOzbp13+vlfd7Ty6bd3NdJ2O+jVvm4e37/Npx5nuK87Kt77vMt9ev/RavYDAMBJ7IQLIf2i/cFi9xf+batVrE9ZN5uL+JnSqW7ZqU1N3SSfFle5aN88pJGWm/ILgy74p5rnd9/kU2yYW3AE1b6XCRx3X1E5qBzWGSbs3OXTHedKzb7nlpnH837i08smiFzsFpULM4HlcumZp/zdUj9b5pYDAHCSO3FCiAkKNyc30qxu5vkXZXrxz/5ie1FfeIMJJv+VVr1Zpp9NdC/WGWX66wHpwsvMBd+tKnOhH2tbLA5Ja4LrPlumVaZuqxqEkJsv8YegNa+V6afueJUBr5r3Kva//vKztqxMy+x2cZluc+sEwsPYX/pbST79sEx3TfO/du60Mv3+MxNmfuhTqgkclZg3+4f5LL/f6W4DANBAeBpCWpnQ4HRX2J/JjTQzTgrbXaYH55uLvFtHl/t08fek994yYWCZCQP/9hf/NbdMA943T5r4FGeDi9Hb7O9s8/he9iH1Da77N1P3iTK9Z4LM0Xzypf9xzydl+of/qVatNoHmmTJ360hMAImSvjG/e+UcE6TcYLF7Z5nuM0Hor+b5hedWaVExrz1mAgoAAA3NCdUds99ckEf+rkxPFboFxg3uoI+LE92wEvTzUbz/tbPb+B9j3bprXvM/VmICya6v3edH8HJ2mVaZujfc6R9LsjjFp97ufo/qp1Jr83Dqj3z6qMqxFk/26ULzWqsznZoVDpqQ4j4FAKAh8TSElE/RnXhId+VKYW18enaUT7Udm+mM4Sgts3mj9j4r0wBzPLe9Waa/HZLiYn1aPK6Rll/tvg4AAOrEidESYlLDixmHlGTHgZzp0/TbKma95LgDVJct8I+vqO4nMB7DaekI86m320JSSZR0np3RUkMvLyvTlZMPqeXUMv3+c6lHr0Ya6752WB+ZYzAPldY/qfozvSbdOgAAnPxOqO6Y914+pKc+848VmRXrL9u9wT82o991jTQzvmLWS6s2Pt3cz6f376wYY/HUP8r0jXnskdRICxIrln/vbX7vneE1Ww7eroS62Oz3YjcFtTpFam4XJfueM3a2siY+xQbv9N9lyjWBxR7/Oyk+9XO7iewv9rjUp8UP+DTBLQIAoKE7oUKI9aCdifJfExxuaKSx9qr/WZmmbTCPTaWbr6tY/+OjVJ9mXmGCRRPn1/zeLNMzdpCnCQz9rjYBxR2Psdj83oWlcmbTHM2pZn+9zX7feKDifZxxKZ+Xaam/imGCkW2hMe9zhwkttl5gfY/7zDHsPiRdGOvTglT/a3bQ7fJf2LElvvJpvwAANHQnXAhRYZkGZJVpv7nAj3XX1Xj5xUPqa8oCs10cJqh8+kmZ0kx5sAefNWUmtOwOzIQxgWC3qXfT9DJ9etAtO4Inzf6W7ZbTouIw+/nrhjL1fbpM77lFVtrSMq1xp+1W8n6ZLjd1X95p9mHe22Ee95vQ8rLZ95NuEQAADZ2vzHCf14gd11A/+fTGb02o+bzspB6XYVteAACoDxrMFevi63z6yfek3d9p6gwAAKgrJ1kI8emNNP8A1vKBpW18ujulkTLj/VN4c//G7BQAAE4EJ1l3jL0pnH9RsOrYqbOXP1v9DfJOFnTHAADqi5PsilWm8ZllWvNF0MDSoEGhJ3sAAQCgPmlAA1MbBlpCAAD1BVcsAADgCUIIAADwBCEEAAB4ghACAAA8EXIIOYXYcsLiuwEA1CchX7Z+3Np9ghMO3w0AoD4JOYTce6VPEU0qbp+PE4P9Tux3AwBAfRFyCLmhm08pF/svejgx2O/Cfif2uwEAoL4IebGygJc3lOmJN8r0913S/1i/zBN2DIjtgrEtIAQQAEB9U+sQAgAA8F0wnwIAAHiCEAIAADxBCAEAAJ4ghAAAAE8QQgAAgCcIIQAAwBOEEAAA4AlCCAAA8AQhBAAAeIIQAgAAPCD9P5ewrV5IpELWAAAAAElFTkSuQmCC;" vertex="1" parent="1">
          <mxGeometry x="1010" y="-430" width="399.67" height="330" as="geometry" />
        </mxCell>
        <mxCell id="A5obQ992RgEn8o-Wc76g-7" value="" style="shape=image;verticalLabelPosition=bottom;labelBackgroundColor=default;verticalAlign=top;aspect=fixed;imageAspect=0;image=data:image/png,iVBORw0KGgoAAAANSUhEUgAAAiQAAAIXCAYAAACsHUVzAAAAAXNSR0IArs4c6QAAAARnQU1BAACxjwv8YQUAAAAJcEhZcwAADsMAAA7DAcdvqGQAAHxOSURBVHhe7d0LXBVV4gfwH4YpFbhktJhQKxoFuEpqkcsGhim2omk+/oZaWrrqlo+sqNRS81HSZj5XXS3LB7k+0hIrNFnFJaLU1BVsKbECk0QioULywf+cmXPh3usF7gsG9fftc4OZO17mzsyd85tzzpzrUSGAiIiIyECN1E8iIiIiwzCQEBERkeEYSIiIiMhwDCRERERkOAYSIiIiMhwDCRERERmOt/3SFaW0tBSjHx+HjE8z1ZzaeXk1RUDLloiIuAt/6RGLOzt1xFVXXaWeJSkvPx8Jz03G3n370aZ1a8yaMQ0d7ghXzxIR1Y6BhK4ozgQSay1a+GP8E4+j34N9GEyEsrIzmPDU09jxcaqaA7QNC8Wby5fhhhuaqzlERDVjkw2Rg06cKMDkF6ch4fnJ+Pnnn9XcK1dxcTG++vqomtIdP/49vvn2WzVFRFQ7BhK6ov3hD7fgP7t2Ijcn2+Yj6+B+fJi8BePHPm5xtX/+/Hls3vI+Zsx+Bb/99puae2X6ne/vcMvNgWpK17LlTfjDLbeoqfon98+h/x7G85NfxBQRHomo4WMgIaqB7D9yW3CwFki2f5iMB3rHWTTTvLv5PaxJWqemrkzXeHnhhcnPI+KuO7VtI7fXtBenGNZcI4NI1+5/QZ9+A/GvDRvxy6+/qmeIqCFjICGy0++aNcOc2TPRu1dPNUe/Et+w8V0UFPyg5lyZglq1wjtr3sZXR/6r1SgZ2aFV1ljJvkJEdGlhICFywNVXX41hDw+Bn98Nag5w7JtvkJWdraaIiMgZDCREDmrTug3ahoWpKf2K/L+Hs9QUERE5g4GEyEGyX0mb1kFqSvftd9+p34iIyBkMJEROuPbaa9VvRETkDgwkRE64cOGC+o2IiNyBI7XSFcV6pFY5Dsmat97ETTe10KbtIT8yE55KwNbkbWoOMGHcExj3xN/UVO3ka/wvJwcb392CPXv+g/zjx7URTyVfX1+EhtyOnn/pgbi/3I/rrrtOm+8s2cdFjqKa/MGHOPTf/+LkyULt7iB5i+5NLVrgT53vxuD4QQgLDYGHh4f2b558OgHvvZ+s/e77u99h2ZJF6NSxgzZty4JF/8C8BYvUFLBw3lxt/e0h1+XzvfvwwUcpyMz8zGJbyHVs4e+P228Pxp8j/4Tu990Hf//fa8+ZmK+rI+x5XyZyALztH+/U9vmRI//DycJCbb5cv1biGLr77ggM7N/PYhvW5vvvT2DIsEfxzTf6AHKdxWssXbwA3t7e2vR33+Vh0ZKl2Jm6Sxt8TnJknYkuNawhIXLQ8e+/x2GzTqzyzhtZENnrcFY2Bj40FL369MebK9/WRjk1FcCSLHzSP8nApClT8aeoGCxcvAS/lpWpZ+0nC/r1Gzbhz126YuyEiUjZvkMbZVbONz0vv4NGjtXRt///YYwIavL5+iJD2b937cb9cQ8gfugwrFn7zkXbQq6jDCgf7/w3pr00C08lPFevt/TK7b7oH0sRdW83PJ3wPHan/acyjEhy/b4+mqute+++/dH//+K1/esKuV2S1q1HXJ9+2Lhpc2UYIbrcMZAQOWj7jp34Li9PTQFt24ahQ4c71FT1TAWNLHz37d9fGQxqIq/MX5+/UCsMi3/6Sc2tnVx27ISn8NzkF3DqVJGaWz25LrIGYNiIv2q3Mdc1WdDLwPXXMU9oBXpDJMPZKLF+c+ctwE+nT6u5NfviwEE8MnwEPvgwRc1xnKztmfXyK/xaArriMJAQOSDzs8+xbPmKyjAha0cGDeyvVaXXRIaRJcuWY+r0GRYFzR3h7bFk8QIc3JepDVUvBxZL+WArHhk62KKp5qOU7Xgl8e92DVMvw8g4EUbkvzGRTQv3/DnS4m/JR2Z6GmZMe1FrupK++uprvDhtBkpL664wlO9h+oxZWs2MaTvKUV2fHD8We/79MY7+L0tbty8PH0Dq9g8xe+Z0bTvJ92DL639PrHw/8rH+nTUW+0OOrmv+vOmx77NPqm36kKFs5Oi/aTVVJnJ/jP7rCG3/yP0kX0Nuy/mv/x1/bNtWLaVv/+kzZ2nHiqNkDZEMQOa1RERXCgYSIjvIQCGbDWR/hcLCU2quXtj1jqsaubU68qp38ZKllQWwvHV42ouTtcIzttt9lf0GZKF7a5vWmPrCZKxY9g/cbPYdMXKY+ne3vKembJPrOW/+IouCVPa5WLJoAd56458Wf0uSA7zJ/iPJ772Lv43+q/b3P838DHv+k66WcL+0PelI3vaBmgJuvbUN1r69EmMfH6N9B46pD4YMezIoDRo4AJvWv4P3N2/EXXd20p6rSzJQyFCWfeRLNQfasPjJWzYh4emJ2v4xhSO5LXv1/AveWfu2FiJN8+Uxkvj3uXbVTpnIjtJJ7/xLa6KSr9M15l5s2bReCz8ypMmwNuKxYdp2IbocMZAQ1UD2V0jZ8TGGPfZXjHliXOUQ8bLAkCO2ytqF2goI2U9j2fI3Kq96ZRiZ9dJ0PDykqgCzRRa+U55/TltekmFG9lUo+KH6Yer/k/4Jtry/VU3pgUPWINzX9d4aO1vK76N56snxlR1zz549q/2sC9vF9jTvtDpi+DAtlNQm5PbbtO8UMg9UdeGddeu1UGYS+afO+Mei+Rbh0Jrcfs+IsNIlOkrN0b9T532zjs+1kSHm088+07aJ3A//XLII7f7YVpuW+06GtTGj/qrNI7ocMZDQFU3e4SA7fQYFh9p8tO8YoXX2lDUGptoNOSiaLCzkF8rVFka0fiPiqlfeUWPSOy7O7jtQoqP+jK733qumIF7nK+zZY7v2QvbLWLUmqbLTpyzIZDOIvLq3hyz0Ro18zOK7etxNrpvsFGziI8JFq1Z/UFPGk01W6/61oXJfy0D35Lgnam2Sk2QoeXTYw5WBSb6GvHPI3r4/uceOaXfePNj3AW0/2Hu3DtHlgoGEyA6y/4AMEWvefhMfJr+He7tE21VgyELmw4+q+nIEtGypFVqNGzdWc2oml+vZ8/7K4CMLOXkVLYOOtezsI9i//ws1pdew9LzfvuBjIv9O/wf71nkthIl8Hw1pTJfN72/VmkxMHuzzAO5w4IsC27dvhw53tFdTwLHcYzjqQKdd2Rz0t1F/ZbMMXZEYSIjsFHzrrQivoXOlLfv3H7CoEYi6JxJtRKHjCDkmif/vq8beOHbsG5u3gn6S8anF1bis6XAmWLQNC9UedcHTszGaNtWboCR594q89ddWwKpvctt99vleNaXXjvzl/liHaipkLUn7du3UlP6aR3PtDySyyeeWW25WU0RXFgYSuqLJTpP/2bXT4u4LeXfHR8nv4f8G9K8MH87efnvo8OHK6n/5WnIALUer4n28fSwGA/vxx2L88uuvakon+3wc+fJ/agr4/Y03WnwBoCNkiLnxRj815V6yP0z7dn9UU7pVa9Zi9dqkyu1kFNlccjy/qnakTevW+MMt+t1Hjmj1B8smKHvHdpG1IvXRaZeooWIgIbIiC4bg4Fvx8qyXsGrlCoswIG+llXex2HNF/8svv1SOwin97nfN0PKmm9SU/Ro18rColZH9MH744aSa0smQ9J3ZF/y1aOGPFlYjmjYUffv0xm3BwWoKWgdXOehZ3AP9sHXbB4YFk7y8PJwqqrorRu4rZ2qYPD091W86e794UdaCyeOO6ErFQEJUAzmc99xX51h0atz47rvacN61kbUYP/74o5oCiop+RL+BD9nsPFvTQ3asNQ11X53y8nIRgKpqTeTw815e16iphiUwIAAvTnleaxIxJzv+jn/yaUTFdNNGp3Xklll3OFHwg0UY2vjuZpv7o7aHHBXXGddf74trr2mY+4yoPjCQENVC3qUy7JGhlbUU8op+ybJ/1lpgnjt7DmVn6meAK1ljYj6kuo+Pd+Xtwg2RDHpvv7lcG/DMmmzikM1jne/pgkdHjMLBQ/+tlz4m5tvPCF5eXnZ3dia6HDGQENVC9vkYMvghi1E95RDhSev+pabIGbffdps2MJwc6dS8CcdE1lbsStujfT+MvPVaftkcEV2+GEiI7CCbbB4bPsyi1kF+8Zkct8JetjrQOvOoacjzS42sdZIjnX6wdbM2Eqsc+da6ZkcGE/k9O4OGPKzdkVNf5Dc429r+jj7kwHREVDsGEiI7yVt2zUfilONVvPnWqmpHNfX2vk776nwTrTPqScvOqO4iq/vNx64oKSm9pL4PRdZCyVuNZeEtv19HDqsvv9/GnBwld+r0mQ6FQEe0DgpSv+nyze64IaK6x0BCZCdZ4A9/5GGLDq5yJE7zYcbNyfE2fHx81JQMJD9bdHJ1p+bXX2/xZXwFBQUo/dm5PhEyOJ08WfUV+/VNvg85rP6undsrv1/HRIZAOXhZXWjWzAfXXnutmgKKxL66lEId0aWOgYTIAR073IH7e3RXU3rhveLNt2x2iJQdFOX3r5jIb7k1H3jLnZo1a2bxXSvf5eUjJ+crNeUY+W9zc4+pKeOYvl9nxKPD1BydHI329OkSNeU+skntRr+q8VdyvvrKYlA7IqpbDCREDpBNC/LbZ83HJpEjpG778CM1ZanDHeEWV9179+2vk9tZrQcck2OgyDFTnLk7ZWfqv+usaclRcnvH9fyLNtCbycnCQu39uZv8G+bjgMgmor379qkpIqprDCREDgoLC8UDveLUlN7p8u1Va7Vv9bUml73ttqo7SBz9Blhzsu/E5i3vq6mL/anz3RbNSTt2puKLLw6oKfvIvyE76zYk8j15XeOlphx34UKFXcFM1mjFdImubCKS+7W2b1eujvy37/xrfeW3QxNR7RhIiBxkqiWRX4RmIgf1kt/qa13wycL0//r3syjkli1fUetAZ9ZkU8/IMY/bDD0msoZEflW+ifw6+9cXLLJ7qHu53EuzXrb4cjl3kwX0/IWLtaH47fX9iRM4/dNpNaUPzS4HfqvO739/o8UIq3IEVlvf/WPLfffFaF+QZ5J95EvMfX2B9k3K9pLLzpz9Cla88VaD+uJAooaOgYTICfIL0P5PhBLzDpfvbU1GVla2mqoiv63X/O4cGRSeGPck1m/YpAWUmsjCTY5aOmLU32odh0Ne4Q97eIjFCKjpn2Tgb0+Mr/Xfym8lfmzkaG15OSZIXX2niiyg5XZ6cMAgu75UT75/Od6LKVTJ7S1DV02Dvv2uWTO0bFk1RL8MFZ/v26+maiYD5OiRIyxv7353szaCrD3joBwW+3/oI4/i7dVrUSH+IyL7MZAQOal3XE+0+2NbNaVf/S/553Kt86o52Tlz0nPP4NZb26g5em3Ec5NfEAXzQ3h3y3vaF7uZwon897JDqqxJ6NajpzZqqb01Ch063IHnE56xKFAzP/sccX36YfqMWfjq66OVf0feQfLfw4e19eglnj9w8JAWZuQtt/K7cOrS10dz8dhfx2h/V365nizsTeslQ4psJpHb5aHBj2DLe1V31dwdcZf2XTg1kbUj5rUccnu+MHU61q3fUHnXjOzHI0fblU1o1rrGdMHov460CJuyX43chi9Me0nbZuadmGXtS8qOj7VRZfv2/z9t0DwicpyH+PAzxtMVQxYkox8fV9lkIu+sWPPWm7jpphbatKM2bHwXk16YWlmYyiAwf+5ruK/rvdq0OVkLIb8tWBb8zojtdh9mvjQNzZtfr+bYJj/Ssvlo9pxEh25blbUDM6ZP1b5y/8mnE/De+8mV85ctWVTjYGwLFv0D8xYsUlPAwnlz0fMvPdRUFRm8hgx71OJLB+0la0YSX55lV1iSTVt/Hf2E1pRWnZrel9yfy99YiYWL/+HUrb/ytadPewE97++hNfHZYr0t5HD6SxcvcOoL/YguB6whIXJBj9huFs0bsvCq7ntuglq1wppVK8XV9wiLMUNqI5tQ5PDqixa8XmsYkWQBODh+EFau+KfNIdltkd8ps3b1Si2M1CUZJl6Y9Jzd6yXJJpiJE8Zp4cHemhv5BX4viUBgfjeUI2TtiNxPq1e+gT+2raoFq40MpA/930Bs3bIJcX+5v9owQkQXYyAhcoG8mpWDpZk3kdR0J41svkl4eiI+SUvF3xNfRnTUn7VC1rx5QHbYbNs2DCMfG64NqS4fcnh182XsIYNS8nubsObtN9HngV5aIW16DflT1g7934D+2vfJbPxXkvbdMnVNFtD3donW1itp9VvadwTJzsHm20/+LsObXOdl/1iET9N344m/jda2nSPu7NRRbLsteHL8WLRpHVT53uXry+dkbZCtL/czJ5vAtmz6l7YPHh3+iHZbsHmYlK8Z0LIlYrt30/anHGV21oxpTte4EV3J2GRDRBbkUPjjnnwaKdt3aNOyg6isbZGFOhFRXWENCRFZkP1sfjAbe8PH2xs+PuzXQER1i4GEiCycKPgBJ04UqCnA398f3tcxkBBR3WIgISILh7OyLIaOlwOumffxICKqCwwkRFRJNte8v7WqQ67stCs7gBIR1TUGEiKqJL8k0PwbiTvc0d5ikDEiorrCQEJ0GXlr1Rq7hqS3RQ4WJ0eFNR/krd+DfR2+3ZaIyBkMJESXkZKSEm0o+IEPDcEnGZ/aFUzkMqvXJmHU38Zq37NjIr/2v/t9XdUUEVHd4jgkRJcR6yHc5WBoD/SOQ7f7YtCmdZvKzqlyRNnv8r7DRyk7sH7jJou7aiQ5TPuCea9pQ6ATEdUHBhKiy4h1IHGUHHm0d6+emP7iFIeGtycichUDCdFlRH5d/5q17+Dt1WsuqvWojfzOlqeeHId7/hzJ72AhonrHQEJ0GZIfa/lNtzs+TtXumpHfNHzyZGFlnxJZE9LC3x+33HIzYu7tgpgu0drvRERGYSAhIiIiw/EuGyIiIjIcAwkREREZjoGEiIiIDMdAQkRERIZjICEiIiLDMZAQERGR4RhIiIiIyHAMJERERGQ4BhIiIiIyHAMJERERGY6BhIiIiAzHQEJERESGYyAhIiIiwzGQEBERkeEYSIiIiMhwrgeSDxMQFByKCR+qaVvsWYaIiIiuWKwhISIiIsMxkBAREZHhGEiIiIjIcAYGknJ8vWUmBveI0PqXBIVEoNeUZOSdV0+blOfi/RnD0b2TWEYu1ykOjy7ORKHFcrlY/IB47oFlyCrcgakP6q/Za3GuxXNfF2di8eg4hIforxX+YAJWHy7XX8JMYfpKTBgYVbmcPX9z9vDuCLF+H+dPISVxOKLD9dcJ6TYcs3ec0v+5ObFcxooE9I+8Q/974VHoL17j64tXjYiI6LJkWCDJWhyP7glJyMgt1WecL0XW+gS8tl2f1Jw/gsUPxWHC6kx8XaLmleRi1/zhiHtmB0yzqhzF6pmZ+NPCNOTmZGPr40FqvnD+C7w2dDheS81FiQoWJYeTMXXAeKwv1qd1OzBr+Kt4/8CpyuVMf3PwvANqhpmS7Xiuz3isSM8XEUtQ76P/jGS8/8yDGLMiE3m/akui/NtMrHh8FBbn6NO6UqSI5QYnJmN/oUogv57CfvEa3R8SYcciBBEREV2eDAokaVi/6ggQEo83//2FFh5y/7sdG6f1Q6CnWkTYNWMUXjt8AzqPmo+tB8QycrkDmzCvXxAKk+djuXU+OJINv+FTENuyiZphJicNKef6Yd576u8dSMKkyBtEgEjDe8mWtRY3Ro3CknfTcES8nlz2yDujEHYV8HXyDuxXy1Q6fgQng8djbbpp2WfQ2Q8o/FcCJiQDsdM26a8j3t+bI0LEPziC9z4U713JWz0OY8Tfb9NvCjaabYs3x0fA7/B8LNqiAhsREdFlzKBAEoAb/cUPvyCE+avw0CQAHeJn4Klu+qSsqfjoX6fgM3Am1oqZYdeo2deEoPfM0YhFLnZlyiYZM8Hd0CNc/W7tqii88s4M9A5Rf++acIyYORwdxK8Z2V/o8zTdMGnFeMS2vQFNRAiRmnQcjyf6iF+OF6JQn1VFvO5Tc0dpIURq0nE4XhkuVuI80GbEAiyJD9FfR7y/Lk8NF+stgs23+dqystnn/c2ZQMdn8MbL8ehgClJy2ccTMDAYSNn7qT6PiIjoMuZ6ILnRD4HqV/sFYeiLo9Bh70xEdIxC/9GvYvU+1eRhkpOrNVeUrB+t96swf4QkIEUskvW/o/qyJlc1hY26EV3wHejgq343aRkgopFg3Vfj1yPYlbQMU59PwOC47oiOvANjNqnnrNl43UDxulLoH63S0VWhaCsrSSodxVeHxY99ryLa+j0G99ObdrJz8bW2LBER0eXL9UDi7QMf8eNorlVthZmSUtnbIwA33qhPSz4dx2NjZjKWjIxGk282YupD3RH+wEzssujPUf9KPnwB0R374dFp87F6UzIycvKRZ+rbQURERHXC9UDSuqVWy5C1dRP22+yAmY/1m9PEzyC0uVWfU6lJEGIfn4G1H2XiyL9noEtBEibMl8sK6nXDxifr/SpsPeZWtu+4SRpem7YJebf0w6QVm5CZlobM9C+Qe2QpBlrXrrhFAAKDxY+4+bbfn3y8Nwpt9IWJiIguW64Hkquica/MBbkrMfjBF/D+4dLKFpDyb9OweMSjmL0P8Inrhx6yKkWzA7NHzEeK2bIoKdd+LxE/Nep1sxaNw3NJByrvVMH5chQe3oHXRryqNdu4VzlOF4t1vS0csZ1C4Od/A3x+y8RrQ57Bfl+9Gca9QnDvvUFA8gwMfm0HsoortxxKcg9g9ZQErLC4I4eIiOjy5IZOrd4YOHM+evuJYvTIJkx4MEIfj0M8QrqNxmtp+YBfHOa80E1r2jE5mbYMY8yX1ZprmiA28m61hHjd8c+gQ5NcrJ8WXzmWR1DIHYh4cDwWp13UvdQNQtBR/Hmt2cY0dsi9o7G4/FE81ctbLeNeHUaOx8CWp5CxbDx6RahxSILvQHiPeExdf7QqsBEREV3G3BBIBN9umJe8CdOHRqCNX1W3Uh//IHQemojtqYmItWjy6IbJK8ejS5CpkG8Cv/A4TFq5A0v6mRX8wcOxccdKTIoLh1/lXTY3oE1kP7FsgnbHinsFYOj8lXgqJgg+2h02TRAYMx5r3xiF1trzdcCnG175KBnz5LYzJbarvMX2iMKIxFcxQjbpEBERXeY8KgT1OxEREZEh3FNDQkREROQCBhIiIiIyHAMJERERGY6BhIiIiAzHQEJERESGYyAhIiIiwzGQEBERkeEYSIiIiMhwDCRERERkOAYSIiIiMhwDCRERERmOgYSIiIgMx0BCREREhmMgISIiIsMxkBAREZHhGEiIiIjIcB4VgvrdaaUpqSh5dxvKs75ExW9n1VwiIiK63Hlc3RhNwm6Hz4M94R0bo+Y6zuVAUjT/nyjbdxC+jw3GNXd3hEeTJuoZIiIiutxVlJfj10/3ofiNtfDq2B7Nx/9VPeMYlwKJrBk5vXYTWi6fyyBCRER0BZPB5PjIiWg2uJ9TNSUu9SGRzTSyZoRhhIiI6Moms4DMBDIbOMOlQCL7jMhmGiIiIiKZCWQ2cIZLgUR2YGXtCBEREUkyEzh7cwtv+yUiIiLDMZAQERGR4RhIiIiIyHAMJERERGQ4BhIiIiIyHAMJERERGY6BhIiIiAzHQEJERESGYyAhIiIiwzGQEBERkeEYSIiIiMhwDSaQFO54FYO73YGg4FAEPbAMX6v57rcDE+TfmLhDTRMREZHRGkYg2SfCyOMrkfFtuZrRgHyYoIWkCR+qaVvsWYaIiIiq1SACya6tG/E1bkDvuWnIzclG7nuj0EY9V1+0Gpoew7E4R80gIiKietMgAkl5SSkQ3A8j425Qc+rf6ZxPkZFboqaIiIioPjWcTq1XNUUT9SsRERFdWQwNJF8v7qf1vRiTLCaOzEd32dnUvC9GYSZWTIxHRCd9flBIBLqPXoaMQvW8kjKxuo6wuVj8QHXPKTnL0Eu8dvf5R8TEEbwWp/6WGzq9lucmY+rwOISH6K8Z/uALeP9b9aRJeS7enzEc3U3vsVMcHl2cicLz6nlN1fvIKtyBqQ9GaMv2WpyrniciIrq0NZwaEhtSXh6O2ckHUGhqSTlfiq9T52Pw0PnYr2Y1WEeWoX/PBKxOz0WJChclhzdhwnyzoHP+CBY/FIcJqzPxtek9luRi1/zhiHtmBy5uQDqK1TMz8aeFel+brY8HqflERESXNkMDSZvHN2kF65I4MREyHttlh1bxmHe//jz8ovD4/E3IPKDPzz2QhMfbivm52/DRPn0RlwWPwlbx2tvHh4iJEDyVrP7W3G76807a9a83kXU+BENXbMcR7X19gd3vTMHAlmoBYdeMUXjt8A3oPGo+tla+x02Y1y8IhcnzsfyAWtDkSDb8hk9BbEs2bhER0eWlQdeQxD6/FE/dHwK/a9SMa8Lx1Jh+4pd8nDypz2qoAvwCxP/90CYkQPWNaYLAjvF45SlT0NmBj/51Cj4DZ2KtmBdW+R5D0HvmaMQiF7syrZpkgruhR7j6nYiI6DLSoAMJzpcjKy0Ji2e8gAnD4xB9bxRCHt+knqwnN/ohUP3qiDZDX8DjHTMxNfIORAwcjdlJB5BnPsxKTi6yzgMl60frfUfMHyEJSBGLZP3vqL6sCTv+EhHRZarhBpLiHXjuvjvQa8RMvLZ6E95Pz0Xe8VOodui0khIbfS7cwNsHPuLH0dzqO5CWlMq/HIAbb9SnNT7heOqdT7F9/mjce20+1s+IR3REP0xNLVULEBERkUmDDSS75k/B+oIgDHx+KbampSFTPI4cycabA73VElaOf4H9x9XvJsWfYp+8ecYVrVuKqAFkbd2E/RZ3vpiIsLE5TfwMQptb9TlVmqDN/aPwyspkHDiwHa9E52P18/OxSz6lXjdsfLLed8TWw8V+LERERJeKBhtItMHSfFqjQ0wEwvxvgJ/vGWTMi8eEvRc3obS+TXZIPYDls5OQ9as+r/xIMp57aKZe+NstH4ezT6nflauica/MBbkrMVjetnu4tLKWpvzbNCwe8Shm7xOrGtcPPWRVipLy8mi89uERlJgWPi/+nfy9uET/9+p1sxaNw3OyOUett2ymKjy8A6+NeFVrtiEiIroSNNhAEnpHhN5sY/rCvT92x6MryjFyfC+tCcVcm4Hx6HKVHP59JnqF6/0wQh5IwPrSCHQOVgvVok1IqHjdUqQkROl/r3IcEm8MnDkfvf1kyNmECQ9GIET19QjpJkJHWj7gF4c5L3SzXK9CEVbG90P4H/Vlg8L15pom3cQ6aQuI1x3/DDo0ycX6afGIVusdFHIHIh4cj8VpVoOtEBERXcYabCAJHLoAa8dHoY0q5ZvcEoWnVr6Fx1vr0xZ8+2HJhinoHX5D1R0tkcOxZEsC/iSCil1iEjBvaAh8bC3v2w3zkjdh+tAItPGr6lbq4x+EzkMTsT01EbG+aqYS+/xKPBUTVPl6TfzC0TthJdIW9KsKLsHDsXHHSkyKCze7k+gGtInsh0krExCrZhEREV3uPCoE9bvDjt7VHa0/266miIiI6ErnbDZouHfZEBER0RWDgYSIiIgMx0BCREREhmMgISIiIsMxkBAREZHhGEiIiIjIcAwkREREZDgGEiIiIjIcAwkREREZzqVA4nF1Y1Ro3xhHREREVzqZCWQ2cIZLgaRJ2O349dN9aoqIiIiuZDITyGzgDJcCic+DPVH8xlrWkhAREV3hZBaQmUBmA2e4FEi8Y2Pg1bE9jo+ciF92f8JgQkREdIWRZb/MADILyEwgs4EzXPq2X5PSlFSUvLsN5VlfouK3s2ouERERXe5knxHZTCNrRpwNI5JbAgkRERGRK3jbLxERERmOgYSIiIgMx0BCREREhmMgISIiIsMxkBAREZHhGEiIiIjIcAwkREREZDgGEiIiIjLcJRtIMt58EWPf3K+mnLUfSxNexNK9avJSdK4QaeuWYPIUsT3Eexn73GzMWpWJgnPqeZPvUzAt4XVs/l5NO8Ud2+sENs95EdO2nlDTDZBbtpW71P0xmr/1dYydk4J8NW0cdx0brm8zl7fJ3jXi87gGGWrSkvs+A67vu8vgHEiXDbeP1FqSvRPrPz6EnJPFKPtNzby6KZrfGIRO98UhLvQ6NdOK/ACvz1ETtoUNfAmjO+m/y0CShD5Y+GgHfYaFn5G19R0kZeahRK6Dlx/a9xiERzr7wfJLkeWHcQtg9rrmtL/xpZqoSfNIPPtsLALU5MXOoWD/TmxJPYjcUz+j7IKaLbaLz+9uRqeYWMR1sF43O1wQJ7a5S5BxdSQGD+6K9s09gbJCHPx4I9b+LwjjJop1MkVOWcjOy0b7CU+i701qnpmS7BSs2JyJY6dFkmnUFP6hXfFYfAT8xUtWqXl74XQOkjelIC2nUH+P4v35B1u/jjwZL8HB0DGY1quFmuck7ZgB4hOHoLOaVS07jq/m96h1qmVbuU7fjllq6iIWx1Mt27wmJ/djxaqPcPDkGbFPPeFzcwTiB8cirJl6XpGF2pzsUNvHsB3bzcT882ntbEEm3l6zs5Z1qe7YqGV7Sbebnwtq3mYFmevwxgfZKCgTE1dfh1YRfTCiZzB8zC7Patwm9qjx2Kz5M+DI365u2drOXVX7yoXji8jN3BhIfkbGWwuQdMxbFLA9EdvpZvhfq5dCZ38pxLG9u7Eh9RBOt+qDKcM6wEd7pno1B46anj+DvW/NxdvHbkLfkYMQE9AUZfnpWLE8BSWdxmCyjROdKx/G2k8eYru8KbZLnh+ievVAbEggfLzUU2U/49iR3di8NRMFgWK7iPdS23Yxd2xzIuYeDsbYyX0QbFXXlbMpEQszf1ZTJr6IsVHIloiT58yN3yOs/0jEd/IFirKxYeU6cXUnCkbzUFPT9spPwaxF++AZ2QeP3BcKf/Eez4rXSV67BalFNyP+aXFi9pYLui+QFG1fiGkflyHqbwkY8Ac100417rfaAon2fDqK1GSNbIbV6rfjxevl5DEq1nHWgnTgzkEY/UAomqMYB99bgxWHfM32hc6RAtC2WtbRdGzEDMK4+4LgVX4CqatWYvP35seFZOexUWsQrWH7bluIOXuAzkOGYEBbeazvR9JSEXZaWH7+HNsm+nqn2nFA6EGgngJJDefPKk4eX0R1wH1NNoc/woZsL0SNHItHooMqw4jU+Fo/BEf3x+SREbgmOxmbD6sn6sI3O7E521OccIZpYUTyCojE2AHtcHrPRiTbVYq40VcfY/OXXogZORIDOpiFEclLXJ116ImJIyNxzZfp2Fmg5tulGDnf/gyv0HYXhREp+LYgNPaOwMTEl7BQPiZEikLJhgvZWL8lB83vG4lHRBiRtTSNm4ciflQsWp1Kx9sfF+vL1agYyevT8aso/J7tpYcRSb5O3yeGI+qaHCR/nKfPdJfS/diQXiiO4J+RtjEF+aZap/pwUyymmbZrDY9n7xEFniHOIG1rOgpujsXYfiKMyI+ipy/a9xuCON8cbHgvW1+sXujHxul2ffBsdxFG5LHq1UJ8Hgahs2c9r0tZJjbvKUSrnsMRL8KIfqx3wCOjo9Hsy49cOC+1QN9nbR8D1g8W+kTVc1sgKfr+BM6KAqhzTZE+oAPaNz+H/O9rK+TOoOyM+tVBOfsOouSmCMTeqmaYtI1E5+aF2PuJ/e228ipD65dRw2POHnsKbIOUFqPWjHNoPw7+Fog7I60KT+9IdG3riYLsQ7XXBJRlI6egKcLaBakZZhq1QOfbfVFyNLv2dbHT2YJ0LPz7FuS26oNZk4cgqlE65ry8BmkXdZyp3q+/yfr6y1TZPuw96olOUZFWNW6+iP1zMM4e3o8MewOcrI2wcdxbPmpoTin4DAfFsRF+Z6iaoTQKQmyEH85+mY2Dapa9in4qVb+ZyBqH2tenbO8h5Hi2Q9d7rJqNm4tzwx/O4OAhq3BUJI4r02va2V9NNlkv/ftsTHxO/bspszHrzZ3IOq0WIKJquS2QNL+pBRoXZSOjpt5V+aLwK/JEwE21XTl+jwJx8YsfCx0sxAqRdewMmrcKtlEb0AJBgZ4oKnCwI5lsm7ZxpWPxqKlq9db70Pf2MqQuX44N+/NQYl4Oyiab/dswd3k6fg0VAcBfzbeLL4JvuU5kAXGStVG45PwvF2e9fVHbS+bniQ3d/GYEm9fcKMG3tBAFSh6OqWmjlZ3MReqq1zFx3m4gZixmyaY/72AMmJCA0e3KkDzvJUxesBHJh622sw1FP4rEW1pqX7NLA5C1XhVw9nRg/N8xsc/EPrXKAJrWgQi4UCguCtS0XYIRb+u4t3rYbq6Rn+Gb0cr6AkFo3ioQXr+dQK6DSTX/pDw5iLBd+e+sayj6IEw9Yy4nT3z2xXkqWE1XaYrgQF+czcuz3Layuc30mrU2faimz1X7gMihmDVT/3dznx+Kexrtw9K5a5BhlaOK9iyxf58SXQHc12TTtgcGhJYhbdHrWLE7FwW/VF2tyj4kObvXYdqiTFHwxqFvW/VEdb7/Cjm/iJ8nv0O2KlhkW6l+9aM/bHfYEn/zvPhRzbtq7u2thZz6/fBfh86PJmByr5tRlPoOZk6veg9jZy3A2/8pRateqnBV/8JerR4Yihiv/VixKEUEPbW9ZafWrUuwQvYfKc3EXNPfqqbPQ0FRMeDnZzNQeXmJlHIhB2+bXqO6K2GvUAT7n0HWoVw1w8yFE8j4shg+rUNrDUfVKdr9FhLEFWeCCBufX/0nPDt1EsZGm3UCbnQdwnqNROLMJ/FIey/kfLQa015566ICoNKFbGR9K37+lodcZ+6kkX1IKrdJ9Q931p7JvgdawWhPnwbtUPC0/Tnw9UYzUZgXuau6qhYFP4ht0NwPgWrawrVeuEZcRKTONW0ze/ph5CHnqHyDhfjBwQ/yr2fEv2vqBRvZGwEt/ETGcfQCyFwhdu7KAe7sj9GdRdBSLdaNrw1E1LChiGqag9Q0GaSqyE7Udu9ToiuA+wKJLHiHiYJ3oLgsO/ge5r78UuWJeeLLy5F0EOg05Em7Ct5jmQdR5B+K9s3zkLVfb7sJ6PWk/uFVj/jbtdl178stle+j+kdtt4h6wr9DLEY/nYDEV6rew8KZkzBt3CD0deYOG6mRuDKcMBZxN+Zi/etqe09diLWHRQHWdyzmmm2vavuQ1Mr86tj2laesrYkbGIlrPn8LszaruxeEspPZ2LxoJdJ+DUbcfZZFUuXVoXjUdsth8+ghmP78JLG9EvDsoAgE2CpRJE9fBEf3xMSnJ2Hu9GEWHTfNlWV8hoO/XQcf72Lszayub0sxUufVtH9lB2Gz7Vvd47IobHKQpPZVjQ+nbsM3345jEFPbQfrVPhwobYGw0OuQtS8TDa3h7RrP6g7Ohq2yBk48eAswGcWNgUTSC94R454UV6tmJ2VV8MapjmQ1ElevO/f9jOCIPuh7hx9yMu28m0HTFNc0ET+qaR8vKhWXzNfbrg2wpfOjZu+hxkdd3R5qB08/RA0aU1lFLB+Jz4+xcYuzbf7NfcXFne1ao7Iycbr39bV9dWstIBYJE3oiIC8ZiaoWKGFBMnJu7IrJL1je1SFVXh2KR+0d/Tzh1UzvoOy6E/joP7lA62iM7RKIkn27kWGzVDMvKOtm/5oXAqaHW2pVmjYV+/6c7c9BcSlOi/fW3N7qqk5DKvdTrQ8bzRr+v5d3shTCZuz7pQy/inXxt7vq7Gek7tiPktYd8EivjvA/+hl2aicH+/qQXNPUEzhTZjPE5J8oFLvcz+laPMAPXbsE49eM1ViakYcyVWF59pc8pL21GmlnghET5afPbIAqa+DEgx1vyShuH4fEVdrtqsfa49mnxZWlCCdvT9+Ikr9MxNgIy45o1d3WlrNpNhZ+G4FpE7ta1QjYutXOxi1v2i2F9o27YIv5bX323AZoU63jmjihultZD2/ExFXFiJs+EjFWF3cH17yEtxv1x9x4U2cEO28RrPG22ZpvebSm3dbodCF98W3ORR8vwbSPzyFm3Fj09T+BDa8uweeBg5BY+R6FGtdfqO15t3LitsyydMyduhM+Q17EiHZqnok8vjcC8bNFSFSXI47d4uqg4t2Y83I6AkdOQrxVPxLttu3sdpg2IVp9Vms+NvTb04vRWe67m86Ic0AiNpyPw7SR1rWutrdZ2Z7lSEjxxoiXBqG9xaXYGaT+YzaSfzeo8lh3dpvITq1JH2Qi59QZnJWBUI7FExSBPv26mo25UvP7dORvV7csb/ulS5GLgcS9BW/lCecJccIxzRQFZsK6n9H3Wcsq+Go/cN9sw+R/ZCFsZILlCVC+zqoTiHp2LOIqk8rl9GGsfvA1bVC6mFjE2qqh0kLfOuRHPonJ3c06G5eKQm3WbjQfMgmPVPb5qf9AUiMtPNo5MJqkjYeRDkSajUejxsho3n+ceE8q9NoVSOyvuasahMoZzhyjZ5C2bLYorGMx62/md9oUI2Xe60i5QRS8Q6oC2MWFmjs/17b/Ji7kImnWW8jr/CSevc903NVwbJj23T1i3/VUz5Xux8I5yUAv6wuWarZZWSYWTt+Gsz0TMNH8Thttf+5Dq4erjnVtm5gHYYuB1+oWAwldqdxeQ1LdB6G2D0hJpggjm79DkHnBoORvXYg5e30RP1EUPOoqo6bXO7huNlYcMRsY7ehOLFi1G+ccGhjNgZNyXdRoOKRYFEBLsKHg4sHX9EHpxFXbh9n4VZxUbQ1KV93AaAeutx6s7dINJGe/2Ym5K3ej6JaLB6AzBeHwYcMRf7s49moLJLY4Go409mxPJwsMecvqqyk4ZzYwWsb65Uj6300uD4xmf2GnVDcwWmlHq4H3bB8bZ79JQeLSdJwOrm7fifNGX3HeqAwl1W+zot1LMO3Dc1UDoxVk4o03tiHXpYHRzNmzv2r+DFwUhmwKQvwrwxC4rYZAUsso03pQdvL4IqoDbu5D4qyfcexoIZrfM1x8KCzDiBTQayyevasUKSk5OKvm1aT9IHFyivRE2tLZWptywqpsNO8xFglOFIDmfR1sPWod/EoWVNV+p4V7lKW/hw3H/NB34sWDr+mD0g3CtCeqH5TOp9MQTHm4PYpSFmKi2F4TX01GwW1inhN3/tQrrX+DfQHgh6wclFQzSrB8/xN7eiPn44NuGyvFcDIkT+yDgOPJmDbpRYydshDJP7XHaBnqq+nsW2e0/kVd0fzQOu1uqbHTlyPNqysmTzAPI9Vr7NkUzcNr2nc3IfeDZBw0fVVFDZpHi4uSvi2Qt/l1/VhftBu/tmtYx7p1B37bj2GVTW622NP/jQGEGpoGU0PiKPe8Xk1XB/Zdydd6JeXUlbNj7Luac0fNhI3tZU/zRSNPeF3ribJSL8RMGASsdlMNSeZbGLvpLPq+MBIx7ixkG1QNSd2r8xoSuzl/jJ49J4OLmnDDdnW1hqTG791RKr87yQXOr6dJwzgGiaQGUkNCrmh+vS9Q/B1yqht3Q1KD0rVq5WIIsGbPMOqvvIjEFyaJ3x0o4Gt0DkWHt2HW5u/R3LcQmxesQVq+k0P7OkCe/Kvu5LB6aB2ha7o9tqF8e/DlqSqMNAzmd61c/LDj9maDlR1Yg4TnZuPtuvyaDyIrDCSXAa/IBzCglSiY5148GqzDg9I1ROfOoKi4GMcOZyJ583JMm/ISponSPfThcZj2fAImx3giVTbPzViCFVvTsferQrH8Gbua9xxhX1V6dQ93hTEiossTm2yqra7Uq49d7tSqVeXbeRuxSz35a7nL5r44xIVe3D/HMe6o3nWiWv6Cfntuxhlf/L5VKLrGRKOT+uLEShfOoODoPuzZsR8HfijE2Vb9MX1YO5ujctbKmSYbp9hfvV+XHacvhyYbS64fp2yyIap/DW4cEiIiIrrysMmGiIiIDMdAQkRERIZjICEiIiLDMZAQERGR4RhIiIiIyHAMJERERGQ4BhIiIiIyHAMJERERGY6BhIiIiAzHQEJERESGYyAhIiIiwzGQEBERkeEYSIiIiMhwDCRERERkOAYSIiIiMhwDCRERERmOgYSIiIgMx0BCREREhmMgISIiIsMxkBAREZHhGEiIiIjIcAwkREREZDgGEiIiIjIcAwkREREZjoGEiIiIDMdAQkRERIZjICEiIiLDMZAQERGR4RhIiIiIyHAMJERERGQ4BhIiIiIyHAMJERERGY6BxEg5y9ArOBS9FueqGURERFcmNwSSHZggCtUgi8cdiIgbjqlbclGuliIiIiKqTh3VkJSjMCcTqxPi0H3KDpSouURERES2uC2QhI1PRm5Otv448gV2v/MMYv2AvPXzsfyAWoiIiIjIhrqpIbmqCQI7DseS1+IRiFzs/+8p9QQRERHRxeq2U+ud4QgVP0pKTI025fh6y0wMjotCiOpvEhIZj+cu6muilusRofdJCYlArynJyDuvnpbOn0LGigT0j7xDXya8Ox5dnKk3DxUkYbCY1/0166qZfKx4SCwbMRO71BxdKdaPFvMfWIav1Rzb6xqHwTOs1kP6MEF7fsKH5chaMRrR4XL5BKSopy9e1yj0t34/REREV7C6DSS7M5EhfgTcEqRP57yFJxOSkJFzqjKAlBcewPqEOEzYVKrmAFmL49FdLper5p0vRdb6BLy2XZ+UASLlmQcxODEZ+wvVK/2aj13zE7E6R/zu3x097ga+Tss0CxjC8R34aJ/4WbwV/07TZ2nOf4pPdgNtoiLQRpuRj/WPd9PXwWJdc5GxOgHRA5Yhy0aYKNnxKhZhNLbvk01XiYjV5uZi9QjrdT2F/eL99HpuO/vXEBERCXUTSESBm7XlBfSauAklvnHoE6Xm42q0HjgFGz/KxBGtv8kX2J0YBz/xTMoOU+GchvWrjgAh8Xjz31/ofVL+ux0bp/VDoKe2AFCwFauST8EnZgq2HlD9Vg5swpJRd8BHW+AGdIkKB47sxq7j2gxN3oc7sL9lCMJ8S7HrU7Pak91p2HU+AF26iH8j5K1+Ac/tOIUmIf0w713TumbjyI6leCryBuDwfDw57+KOMbvKQzBnRDiaXKVmCHmrZ2BqunitjvFY8p56P7KPzYrxCDt1BHlqOSIioiuZ2wJJ1vw4vTlCNUn0StiErPIADJz2AmL1lAAED8e8mfHoEOSNJtqMJgjsMxoPtxW/njiFk9q8ANzoL374BSHMX18KTQLQIX4GnuqmT8LPD36i0G/WsjXaXKPmXROC2KemYGiwPhkYFY0wHMC/U039V/KRsvMAAu9PwBORIiikV9We7EoTYahlN/ToKKdy8f7mTMC3H5a8OwO925rWVazGLVF4fMUCjAiyUfsixN7fTwUik1PYtUO91popiA1RryT72ESNwtoZ1ssTERFdmeqoU6s32kTGY962rXjlfm81U1d+/ABSVr6K554fjf73dkdEpzi8dlg9qQnC0BdHocPemYjoGIX+o1/F6n35ln1MruqGp2aKdJI0HCHi3w9+fhlSjlgsIcKPCBghQEb6br3mJWcb3tsXgNiuEYjtFgcc+RQZBfKJA/hkdyl8oiPQQU7iKL4S6+Nzfzd0MavpqHRVOP50t3hPR46KJS2Z14zovsC+T2t4rYAABKpfiYiIrmRuCySWt/1mYvvKKegdZKpb0GUti0f4vfEY8/JKrN+Uhv3H81FooxOFT8fx2JiZjCUjo9Hkm42Y+lB3hD8wE7uK1QJCYL/52J2WhOkDA1CethRjHrgD0SOSzPp2BKFzVBCQugMfib/x9Y7tyDLVgkRGoAsy8dGOU8C+HUg57o0HYirbldyu2TWsByEiIqpJ3XZqNVeQhNmvHYBP5CjMeycZmWlpyMz8Arn/fkbVTFhpEoTYx2dgrexv8u8Z6CL+/YT55j1RBb9wDE1Yio3pX+DIO6PgkzYTs5OqbjHu0CUagUjDJ+lHkLL9CALv76b/LZ/u6BGj157s//RT5Pl2x72R2j8RWuPWENlBVfYrUbPMnT+ATz4tBdq2FkvWxg83tgTyRCjab6sT7IEvkKV+JyIiupLVXyApKdWaTm5seze6tA2Cn/8N8CnYhDFDNqFE3YSj24HZI+Yj5XBpVTNNSbn2e4n4qclZiQlTkrD/W9MS5Tj5i35HTtUtxkLHbogVgeD9VTPw0RFvdLlb77QKeIsAEgHsTsZrmUeAyCizJpUg9O4llitMwpgHX8D7ZutR/m0aFo8YhxW5QOe+PdUdOTUJx70xNwC5KzFmxDLsOq5eqbxU6/Tbf6pVwCIiIrpC1V8gaR2CDn6y2WY4wv+oxvV4YCb23z0eI+RgJWZOpi0TYSCiavwPrbmmCWIj71ZL/Iaj62eifzc1rkewaq65KkiEDvN0E44/RXsD+w4gy7cX7jVrlfGLiUKH85nI+BTo3c3UW1YXOPwFPNWxCcqPbMIE8/XoNhqvpZ+CX9x8LBkaoJauWecnXkBv8b4L0+fj0XvV+v4xQuv02+T+bnaEGiIiostf/QWSq6IwPSkRA8Nv0O9aucobYQMTsXFmNzTTFjDphskrx6NLkKkzbBP4hcdh0sodWNJPzQsehtcT+4mAY7prxdSJdpMIEvosky4xvbQ7WXzuj0IXfZauZTTuDRE/r+qGP1U21yhXheDxNTuwNiEOHfyrOuX6BEVgaGIy0uZ2s//uGN9umLdlJZ6KCYKPqoVp4heOgeJ1No4OrbyDh4iI6ErmUSGo34mIiIgMUX81JERERETVYCAhIiIiwzGQEBERkeEYSIiIiMhwDCRERERkOAYSIiIiMhwDCRERERmOgYSIiIgMx0BCREREhmMgISIiIsMxkBAREZHhGEiIiIjIcAwkREREZDgGEiIiIjIcAwkREREZjoGEiIiIDOdRIajfnVaakoqSd7ehPOtLVPx2Vs0lIiKiy53H1Y3RJOx2+DzYE96xMWqu41wOJEXz/4myfQfh+9hgXHN3R3g0aaKeISIiostdRXk5fv10H4rfWAuvju3RfPxf1TOOcSmQyJqR02s3oeXyuQwiREREVzAZTI6PnIhmg/s5VVPiUh8S2Uwja0YYRoiIiK5sMgvITCCzgTNcCiSyz4hspiEiIiKSmUBmA2e4FEhkB1bWjhAREZEkM4GzN7fwtl8iIiIyHAMJERERGY6BhIiIiAzHQEJERESGYyAhIiIiwzGQEBERkeEYSIiIiMhwDCRERERkOAYSIiIiMhwDCRERERmOgYSIiIgMx0BCREREhmMgISIiIsMxkBAREZHhGEiIiIjIcAwkREREZDgGEiIiIjIcAwkREREZjoGEiIiIDMdAQkRERIZjICEiIiLDMZAQERGR4RhIiIiIyHAMJERERGQ4BhIiIiIyHAMJERERGY6BhIiIiAzHQEJERESGYyAhIiIiwzGQEBERkeEYSIiIiMhwDCRERERkOAYSIiIiMhwDCRERERmOgYSIiIgMx0BCREREhnMpkHhc3RgV5eVqioiIiK5kMhPIbOAMlwJJk7Db8eun+9QUERERXclkJpDZwBkuBRKfB3ui+I21rCUhIiK6wsksIDOBzAbOcCmQeMfGwKtjexwfORG/7P6EwYSIiOgKI8t+mQFkFpCZQGYDZ3hUCOp3p5WmpKLk3W0oz/oSFb+dVXOJiIjocif7jMhmGlkz4mwYkdwSSIiIiIhcwdt+iYiIyHAMJERERGQ4BhIiIiIyHAMJERERGY6BhIiIiAzHQEJERESGYyAhIiIiwzGQEBERkeHqP5DsXYOxCWuQoSadlfHmixg7JwX5ato5+7E04UUs3asmr3DaNn1zv5pylPm2PIHNc17EtK0ntGec5dr61J86X093fmZcXs+G/pm5dD7TDef4dtM2+z4F0xJex+bv1bQTXN0m+Vtfr6FccN+x4fK+c8O2uhy5ZaRWuXOS0AcLH+2g5pjIgmkJDoaOwbReLfRZ8uS6HohPHILO+pxK8mCas6dYTV0sbOBLGN1J/137m4WRePbZWATosxR50G0BzJY10V4/O9Ts31S/rE3yIJqXjfYTnkTfm9S8Wjn4N9xK3/6pRWrSpuDKfVH9fpTO4dj2lViRloeS34DGzQJxT7+H0Pf269Tz5u/Txn6/SO3bpeb1qUvu3G7V0I6ldFT3J8yP9Zo+M1LJlylYsSkTx06fE5cYTeEf2hWPxUfA31MtoNS4nhd+RtbHW7AlPQcFZWK6kSd8bgpF7MA+iLJ4IeeOZ+1vf6kmatLcxme6lm2lud30voz8vOncsT9qOxdW8UVMDeejkmyxLptrW5dqtpkd2735PWaf8RrPj+L42voOkjL18we8/NC+xyA80tkP5l9U7+pn/uJzvLmajw1H/rbtZWs7b5jtK6fKksuf1UekAbB1QjIdSOSgFuj77Evoq6ZcOVkXfbwcc9O90PeJFxHjDxTsXoO5b60Exo29DD9Q7ttu1bopFtMSY9WEmfxtmLbgIHyaqelalB1Yg5lJ3yGw50gk3tMCXuUnkLpqJWbN+wnPThSfI3vqQC+IE+k8cSItC8aAkZMQFdBU5M9iHPxwHdbOm4tjQ8bhkbZinossCi8b9MJETZiz3la1BLSa6fsyS03VrCp02sst+0MI6PUkFvZSE9VRhVp1SsR2mrnxe4T1H4uxnXzFhzgbG1aus39drLZ7zYV9Tc5g71sL8Paxm9B39CTEiOOr7OhOLFi1EImnxmByDcdEzarbl+mYk5CufpdqDm3uVttxTtVjHxKb5IH+IsZaP7SrhWKkzrPxnBuq1F1yeCMSxHq42kxiWzaSd51Aq5j+IozIDOsJ/+hBiGtViD2p1Z8Q61tB5kbMmfWSvj+eewmT/5GCrFL1pJmCTHFSnqr225REzN2agxL1nNGOfZ6FoquDEXarmlGjPCSLdW8cMQhjo0XhJz/NXi0QM7IPOpWm4+2P7bnCFuXUni1I/VEUvhOH6GFE8vRF+15jMK5zY+zdvBPH9LmXgQ4YnfgSFtb2GBislneEe/aHW1zIxvotOWh+30g8IsKIrIVo3DwU8aNi0epUPa/LNzuxOdsTnYcM08KI5NW6K57tF4qi9C1IqbHqqyZ27stE1kJcKhhIbLL3QDd/OHO15i7FSPn4EGRNe43KyvCr+tUh+cdw7Dc/tLrN1DwjNcWdoYE4ezQHOWqOkYp2L8Gsj8+g8yMJ2v6Y+0x/dDq3D0v/vhEHL6iFhKKPxXIfFKP9w5O05RJHR6KxuJJcWFOQc3a7OapoN9Zn/gz/qK5or2bV6Kt9+Ly0BaJigtQMpVEouopCqOCLz+zqY5VzVLz3oFB09lIzzATcGYrmpTk40IDausvE/miQ3LQ/JFkbYXnBY+NRU3PKof04+Fsg7oz0VTMU70h0beuJguxDNTeB2VBUap3urS7cqlmfnH0HUXJTBGKtQ3a7u9DJ6wQOfGEVjr7cUvma9l1gnUNBhrgYeXl21bpMfR1z1mWi4JxahC4Jl20gyVqvDkyzh9YmWySr80zzaq+6PVtwCJtXLcG06erKWz0mThcH/KoU7G0AR3zZgW3YWe6L5mq6WkU/aTUBp39y8OqooFicaHzh76+mFS9vUYL98rPDJzZNQaH274p+KNSnXXS2WQQmPlt1hS+vBvsOj0arskNIyzijzZNXjZtlTc99QxHXWl2pBUTikfsCUZCegrTqyjlnt5sjZLPJyp3Iv0Guj1UhUo2CnDyU+d6MMBuLB7QKROOiE8gzC2OXi6Iffxb/L0VJPV7k28Pt+0M2X1tc9Nh62L76z88Tn6vmNyPYRsgMvqWFWNk8B2u9ilFwUpzrigtRoOZcdOE2IdLGOagYx/LOwCsw0MZzQRCbBfnfWa2J7A+kXtOepo/8reIi46NCBPcaicRX9H+X+Hgsgk/uxKx5Kci32uaVZUOD6FBM5twXSMxSbdWjto6BdUd2Cqz8oKjHs/eIM4XFh7wPwtTytsg22MnzknFMXFU8Mi4Bcyv/3YuYNa4/unp/h/XzErF0rzxB1sxWQLro4cwH5EIuNm/9DmE9o2GVFy5SlJ2rhYCLTgDOutFPnGRykKStv73t8rqyr77TTmwF3+ZU1uzIjmLm28OuTpCKf3gHtLLuEeUdhECxy4t+VCXXfnnVGITOkeY1PYBPp1C0Etvx4CE1w4rbt5s1EUZSFq1EammwVqVubz+DcxdkR8VquoFd7w0fWYhUlR7VCm4tTvq52ciwEcjyP89GkVcggt1Q5V20Z4nF/rV+2NeJsxgHjsrlTuDYUX2OY6ppjrV+rHe83s9d+8MdCorENvLzs9nXw8tLpJQLOXi78v3a8dkty0GOXPcLhchzqLbsDH4tB6652kYyEgL9xAf0R/OQ46hDSE4vFBcZw9G3rZ/eTCZ43SguSJ7oIUJJOpKtPteVZYOTHWep7rgvkJil2qrHGMTUetluxaIGw4EPjNuJq+ktOfC/fxwm9m2HVr5NzXqDe8LLNxCd+o7EszHeyPpwdw1XGw40/zjxAcnZvBF7W/bAwLZqRrXykJpZiMbe16FxzqHqawPMg2VtAemkrOWQHf/k+tcc7iwVY+fneeKsIbbpd1/hc7UunR+13B7xt+vznSfW77Q8Aeu1IfnH5VVjCwRaH/VeKrictFU9XAfbzczZgkwsfXkJkotvQt/Hh6Czt3qiHjW/pw9irhfBcu4apOWr2iTZqVVceS4QKSWsVw8H9q1t1vu22kdtHSa/+QQZBZ7w8fZE1r7MapspzS8AbN3maeuC5eKHkc2wgs1z4cUP5/qNmT638lH7Z7dk7yHkeAYjrHUx9maKz24D0/hq1ffpkmLeH5G3AEvuCyRuoPUstzghWD6Muo2vwTq8ESs+90XcgA6wff1RpWzvbmSUXofOg/qj07W5SP24mpOYebA0BSR/2Rx08dVdWakoDsSJ4Bo1bS/ZxJRW0BSdBgxCZ7EuKR/kqmfcq2RPJrIu+CHsDr0OPU9eNV5v+6rRU3wSiooubj5yabvVoCz/EDb8IxET525DQWBPTJ48DDE3qiftpAUteVVuy4+lKLHRzGZToxboOyEBo+8E9ixX7fBTFmL9MT/EyfmdLGuUjHMGGan7UOLdEY8Magefo5/go2pO4uaBo77OG27bH0Jt50Lzh61mDf/m4pgvLLTZZ0Xrg+Pri0A1XasLuUjelQefjtEY3TkUZfvSVb8se/qQiPNDE+DX32xHx7xC/TNp52axoR3iIv2Q88ESbD5ciDLVPFN2UlxQLvoIOTdGIq6dPq/hkXf/mPYjO95KDSqQOEK74qrhaqraPiR2C0XfPsEo+HAB5m4+hGPFZ3BWPSM7UZUV52Hv5uWYk1qKsPuj0Uo9o5P3o1/89+1+2DPgW6k4GWw4BP+eDyGmtqtq2eN+aw48Q3sg7tYgxHUPQokjvdsDWqHV1YXIPmS+/c7g8+w8NL491L4OmCZivd/enIOyP0Sjb9sgDOjbDmc/34bN9vb2s9PZb7Zh4bY8+N/TH3HmtXRXqZ+2WBcmrm636lw4gbR3P8IBcV36yERxhfvwxWNUWOg0RJywLr5ab35LC3gV5+KAjfXJP5aHs7Zqg6rT6DqEdR+CydPVCfIVvVnScgwSB8nbc20d33Y+LqrZOJyMzV96IqxXVwTfep/YJ6VIXb/bRiFoDLfuDxfpfVa+Q46NHJDz7Qk0vqWV3bfu5m/bhoxzwejbQ0SYdtG4x1sU9lqtjD19SHzRKrApyr49ZmM/5UJsFgTcbHn2dFRArzGY3EOEkq3LkfCcfuwkLE4RYaQrJk+wvwmUjOfC2abuaIPOODuIkvYhcU/boI8oCGYFHELyB7uxYt5GlJh/uL2ug/8t7TFwwnB0uuikbT2OhbsVI+WNLci9pQ+m3FPb1evPyHhrC/bKKtp+7bSaFK+I/hiQtQBJK1MQZtfYCKGI69IC0/a8h9R2Q9Q4JOuQLK6g7xkXqpaxg+y4uUw2v4l1GRoJHzmvbX+Mi1yIOcvXwP9pdzRZ6AO4LUnNQ7OIIRjrwHgAjZuaV/u6Y7tVo1ELxI5LgDbCgxxLIqHmwad0NsZSuLUj7vTej4xduYjrZ3ZnhwhSO/cWwz/yLrsLnTohg1S1tRPy6tqBsV1UAJc1UfHh+n7qPCgOB/++BUu3Bjs8loV2wbJeTdTAoTElXN4f+jZxunla1tKZaudCxYWC1zpkiIuwmO56DaGmNB07D3ui/RD7PreyH92CPeKiK34kOmnVsOLcNjgCBxesw4aOT2KAHQdYcMf28Mnch5SvuiLe7E6bsr2fYG+Z+CyoGsxKWvOnPu6UfdvfE/6d++PZWtvX3Fc2UN1wXyAxO4isOdqNRNZ+1HZsVTuIkps19m+Hvo+Kh5xoIKPr5W9dg+TiYDwyqoNeqFfnws/Yu+4fSMrxRswT5oX9deg8bDgK5i7BguXXYeLISPjXUrjK8QwmXliJFYtewmY50qJ3IGLEa9i9HUpzsEGEjrRTflbrIq9whiO+UBT0Czai8RP90cnOQcEuYvobJ/0Q9XACBoRahrVrmorD/Xu9A52tKmIfb3VidON2q1V1A6SZq3YArECthunzNeuw8IbhGKENxJWL5OUiSHmLsG7n3ToN3ulDeHuRKKjlexpmdsx7iwJmZCFmLVqJhb8bibH3+KknamKjUHLb59rV/VFTgamPAlrz6MdmGoWib69gzNy4HG9fPxLxlQOjpaAguA9G1NrnTISRzDWYuTkHzUQoGK1CoCagp3hvuZizaCE8R49B3z/UUoz8oScGdjiIFWvegv/IQdpYJHIE2SVbc8Q15RjEWhcQ5sHKXnbtQztCcA3lmMY3As8+31NN2KZ13t6jJi6iLizUFFlyS2VWbR3W7L7CcCt58DWA77TQroDd2WFpP5L3FIrLixy8bRrcS3voV1b6nQzq7/2Sg73HRKEqTxrWVzKy38CoIQj/5TOk5lTT7m3BE626j8SsmWq/vjDSbNh4O4hCvqi8BeKeGHvxumgF/Tg80ioPySk5Zk1jDpBX0LJT5gVxUn9+7EVhRAoOFMfhKRvt6hdOIL9IvL9W6jh163arY237Y8qwCDT+VFVXT1+Hg79raFXVehOms4P2lXx1CDnXRmKirfcUEIuxw0JR8p90ZMmgbLQGtD9kDe+Uh9ujKGUhJopzxMRXk1Fwm5hnHupq4tUUQZEjkWDj/C0vImSfo9R3d9t1h0z7QeMwOtITaUv1PkqT/yXCSI+xNl/bKHZ1vBZhpPpKIb1m3Oa/q3wYezHb0Hm447tsHCLblWsZ9tm1JhsTO9Kwo5y5knLb1Vdt9Pdb4MKwxY58l8PFzLe3g1dz1XBkfQ6ueQkrvgpCfE3NPsXpmDNnJ5rHv4gRZh3dytLfQsKHTTHipUFo70Sh4dJ2044PJ5tsHHTxembj7SnrsNdUkDfyhNe15neTWTp7bXuMm+iHZIc/V7aOhzr4fGqceN16+4xacuy4cc9nyjZn98U5nD3nicamChI3bEenP0t2f46svifKSS595iWDjrmGruEGEld2tsbJD5m2fs6PPXrRwV5vB57+fq/MQKIXrMfuFH/vgZr/Xv57r2POfl/0VVXH+ndqZKJZL3EF5+TdJC5tt3o8MRn3uarLwtRaNevn7s+1Gzi2PxpiILFieCCp7W+76X0KLn+Wqlnf/G0LMWePJ/o+48SQGZeBBlOp22BodzTYqmqz7+HukxbZ4wzKxFV+UXo1A2+Z3bUU8MBIsY/OYqeqOk5IyoH/X+Q858IIXSL4uSZq8C7tJhuh+isXPQ3b1WO9xqYfF2lJ2L6qRKc6c7mRe66gpfquITGWS+vpwPHh6reIumd7Ol9DYt+oza42TbnvKriuObY/WENSIwc+R2yyabjqP5AQERERWWGTDRERERmOgYSIiIgMx0BCREREhmMgISIiIsMxkBAREZHhGEiIiIjIcAwkREREZDgGEiIiIjIcAwkREREZjoGEiIiIDMdAQkRERIZjICEiIiLDMZAQERGR4RhIiIiIyHAMJERERGQ4BhIiIiIyHAMJERERGY6BhIiIiAzHQEJERESGYyAhIiIiwzGQEBERkeEYSIiIiMhwDCRERERkOAYSIiIiMhwDCRERERmOgYSIiIgMx0BCREREhmMgISIiIsMxkBAREZHhGEiIiIjIcAwkREREZDgGEiIiIjIcAwkREREZjoHESDnL0Cs4FL0W56oZ7vf14n4ICu6HxTlqRr3KxeIHQhH0wDJ8reYQERHZ4oZAsgMTRKEaZPG4AxFxwzF1Sy7K1VLkZoUHsDpxNPpHRVRt905R6D9xJTIK1TJERESXiDqqISlHYU4mVifEofuUHShRc8k98taPR3RUPKauSMP+glI1Vyg5hf3Jr2LwyzvUDCIiokuD2wJJ2Phk5OZk648jX2D3O88g1k8WnvOx/IBaiFz29Yp4LeTlNQlB7/HzsTX9i8rtfiQzGRunxaOD2O5ERESXkrqpIbmqCQI7DseS1+IRiFzs/+8p9QS55HgSpr52AOV+cZi3YxPmPd4NYX5N1JNAE98gdIifgo3Pd1NziIiILg1126n1znCEih8lJaZGm3J8vWUmBsdFIUT1ewiJjMdzF/U1Ucv1UP0jQiLQa0oy8s6rp6Xzp5CxIgH9I+/QlwnvjkcXZ+rNQwVJGCzmdReFt6V8rHhILBsxE7vUHF0p1o8W8y06X9pa1zgMnmG1HtKHCdrzEz4sR9aK0YgOl8snIEU9ffG6RqG/9fuxw67l85FxPgSPr0hEb4drQUq1dejVSX8vQZ3iqraXlcL0lZgw0PS+70DEwBfwfq6t3kBiG324TFs2PER/3fAHxbLfqqerUSK2V4RYNmJiMgod3AZERHR5qttAsjsTGeJHwC1B+nTOW3gyIQkZOacqA0h54QGsT4jDhE1VfSGyFseju1wuV807X4qs9Ql4bbs+KQvXlGcexODEZOwvVK/0az52zU/Eank3iX939Lgb+Dot0/LujuM78NE+8bN4K/6dps/SnP8Un+wG2kRFoI02Ix/rH++mr4PFuuYiY3UCogcsQ5aNgrRkx6tYhNHYvk82oSQiVpubi9UjrNf1FPaL99Prue0O9K85INZRbI+YeIwMUbPsVo7DS4dp65Bl+oMluWJ7DceY1flqhk6Ghbjhr+L9A6b3XY7CA5swoWc8Fh/RZihiHzzfC93Hz9eWLVHbo+SwWHZ+9X1YSj58Ab1EEEFcIpJfjYPfVeoJIiK6otVNIBEFbtYWWfBsQolvHPpEqfm4Gq0HTsHGjzJxROv38AV2J4pCSTyTssNUOKdh/SpR8oXE481/q/4R/92OjdP6IdBTWwAo2IpVyafgEzMFWw/o/SdyRaG5ZNQd8NEWuAFdosKBI7ux67g2Q5P34Q7sbxmCMN9S7PrUrPZkdxp2nQ9Aly7i3wh5q1/AcztOoUlIP8x717Su2TiyYymeirwBODwfT867uGPMrvIQzBkRjiZmhWze6hmYmi5eq2M8lryn3o/sY7NiPMJOHUGeWq52hTgp3kubkFD1Hh2Ri5QPyzEwcROOHNH//saECG27Z2zeVhXajidhjKy1COqH6e9sr9pHYl07X38Ery0S+1MtWrJpCsZsEmGmZRSeWiGWla8rlj3wbiIGtlQLWSn59FUMFsfEmZgZ2MgwQkREZtwWSLLmx+lNAfIRHoVeCZuQVR6AgdNeQKypBA0ejnkz49EhyBt6z4cmCOwzGg+3Fb+eOIWT2rwA3OgvfvgFIcxf9Y9oEoAO8TPwlKlrhJ+fVpg1a9kaba5R864JQexTUzA0WJ8MjIpGGA7g36mm/iv5SNl5AIH3J+CJSBEU0qtqT3aliTDUsht6dJRTuXh/cybg2w9L3p2B3m1N6ypW45YoPL5iAUYE2ah9EWLv72cVFk5h1w71WmumIDZEvZLsYxM1CmtnWC9fuyaeVX1GHNF50lK80idED0vi73cYMQMj5fs9ko+j2hLiPSVvQsb5cEx6YwaGdgyo2kdiXScNFG869YBW4yXf13vv7RDvq5sIbEvxeJRYVgsXTeDTNg6vVO6oKuVHlmHw8JU4KcPIAhEuGUaIiMhMHXVq9UabyHjM27YVr9zvrWbqyo8fQMrKV/Hc86PR/97uiOgUh9cOqyc1QRj64ih02DsTER2j0H/0q1i9L7+y2URzVTc8NVMUeknDESL+/eDnlyHliMUSIvyIgBECZKTv1q/qc7bhvX0BiO0agdhucaIg/hQZBfIJvSnEJzoCHeSkKJ6/Euvjc383dLFVaF4Vjj/dLd7TkaOVBbmJec2I7gvs+7SG1woIQKD61R5NxWtkHbX+q/YIwZ8iAtTvJuJvtxA/zldtt6P/k20yBzD7XhUszR7a4G3ns/G1NsDaF8j6XL6vfujtK6drUbAWjz44H3nRUxhGiIjIJrcFEsvbfjOxfeUU9A6yvJrPWhaP8HvjMebllVi/KQ37j+ej0EYnCp+O47ExMxlLRkajyTcbMfWh7gh/YCZ2FasFhMB+87E7LQnTBwagPG0pxjxwB6JHJJn17QhC5yh5Vb8DH4m/8fWO7cgy1YJERqALMvHRjlPAvh1IOe6NB2Iq25Xcrtk1jjeyXOwOhN0pfny4CevNtoNRzjjSGfWa1mhzC1Dy30xkWHZZISIi0tRtp1ZzBUmY/doB+ESOwrx3kpGZlobMzC+Q++9nVM2ElSZBiH18BtbK/ib/noEu4t9PmG/eE1XwC8fQhKXYmP4FjrwzCj5pMzE7qeoW4w5dohGINHySfgQp248g8P5u+t/y6Y4eMXrtyf5PP0Web3fcG6n9E6E1bg0RhecO2a9EzTJ3/gA++bQUaNtaLFkbP9zYEsgToWi/rU6wB75Alvq9djfggQe6ib+fhuces92p1lVa5+Or4rBE6w9i67EJj2tNYgEIFD+r3UbWfO7G9Hfmozd24Ln48Vhfy104RER05am/QFJSqjWd3Nj2bnRpGwQ//xvgU7AJY4ZsQom6CUe3A7NHzEfK4dKqZpqScu33EvFTk7MSE6YkYf+3piXKcfIX/Y6cqluMhY7dECsCwfurZuCjI97ocrfeaRXwFgEkAtidjNcyjwCRUWZNKkHo3UssV5iEMfIWVrP1KP82DYtHjMOKXKBz357qjpyahOPemBuA3JUYM2IZdh1Xr1ReqnX67T/VKmDVwqffM5h+t/jl8Hz0um80XttyAHm/6s9J5YVHsGvlTPR3cqTWsOhuaHM+GS9abf/y4lzsT3oBE+Qb14TggftFartoG5Ujb18SnnvNxt+X/U2SGUqIiMi2+gskrUO0EUSzlg1H+B/1fgkhD8zE/rvHY4QcrMTMybRloqCLqBr/Q2uuaYLYSFkaS7/h6HpR8HZT43oEq+aaq4JE6DBPN+H4U7Q3sO8Asnx74V6zVhm/mCh0OJ+JjE+B3t0sO2EGDn8BT3VsgvIjmzDBfD26iRCQfgp+cfOxZKh1nwzbOj/xgjZmSGH6fDx6r1rfP0ZonX6b3C8CgFrOPgEYunITpss7fY6LcJQQr8Y8UesX2Q+PviyCmrPfZRP+KJ4aGCDW1Wr7R8Sh/7RNOGpKKEKb0TNtbCOxHx6aifVmdzZZkKEkaQZiGUqIiMhK/QWSq6IwPSkRA8Nv0O/euMobYQMTsXFmNzTTFjDphskrx6NLkKkzbBP4hcdh0sodWNJPzQsehtcT+4mAY7prxdSJdpMoJPVZJl1ieml3svjcH4Uu+ixdy2jcK8fzuKob/lTZXKNcFYLH1+zA2oQ4dPCv6pTrExSBoYnJSJvbzf67Y2QhvGUlnooJgo+qhWniF46B4nU2jg5Vd7I4QKzbULEtts8fj4GRQfAz3WUk+PiHo8sIV0Zq9UbszK3YnhiPzpXb3/S6iXhd3l5kYmsbmfbD+Br+/i39sGTFFHRmKCEiIjMeFYL6nYiIiMgQ9VdDQkRERFQNBhIiIiIyHAMJERERGY6BhIiIiAzHQEJERESGYyAhIiIiwzGQEBERkeEYSIiIiMhwDCRERERkOAYSIiIiMhwDCRERERmOgYSIiIgMx0BCREREhmMgISIiIsMxkBAREZHhGEiIiIjIcB4VgvrdaaUpqSh5dxvKs75ExW9n1VwiIiK63Hlc3RhNwm6Hz4M94R0bo+Y6zuVAUjT/nyjbdxC+jw3GNXd3hEeTJuoZIiIiutxVlJfj10/3ofiNtfDq2B7Nx/9VPeMYlwKJrBk5vXYTWi6fyyBCRER0BZPB5PjIiWg2uJ9TNSUu9SGRzTSyZoRhhIiI6Moms4DMBDIbOMOlQCL7jMhmGiIiIiKZCWQ2cIZLgUR2YGXtCBEREUkyEzh7cwtv+yUiIiLDMZAQERGR4RhIiIiIyHAMJERERGQ4BhIiIiIyHAMJERERGY6BhIiIiAzHQEJERESGYyAhIiIiwzGQEBERkeEYSIiIiMhwDCRERERkOAYSIiIiMhwDCRERERmOgYSIiIgMx0BCREREhmMgISIiIsMxkBAREZHhGEiIiIjIcAwkREREZDgGEiIiIjIcAwkREREZjoGEiIiIDMdAQkRERIZjICEiIiLDMZAQERGR4RhIiIiIyHAMJERERGQ4BhIiIiIyHAMJERERGY6BhIiIiAzHQEJERESGYyAhIiIiwzGQEBERkeEYSIiIiMhwDCRERERkOJcCicfVjVFRXq6miIiI6EomM4HMBs5wKZA0Cbsdv366T00RERHRlUxmApkNnOFSIPF5sCeK31jLWhIiIqIrnMwCMhPIbOAMlwKJd2wMvDq2x/GRE/HL7k8YTIiIiK4wsuyXGUBmAZkJZDZwhkeFoH53WmlKKkre3YbyrC9R8dtZNZeIiIgud7LPiGymkTUjzoYRyS2BhIiIiMgVvO2XiIiIDMdAQkRERIZjICEiIiLDMZAQERGR4RhIiIiIyHAMJERERGQ4BhIiIiIyHAMJERERGa7+A8neNRibsAYZatJZGW++iLFzUpCvpp2zH0sTXsTSvWrSINp7eXO/mrLipu2F71MwLeF1bP5eTV+i8re+7sJ+P4HNc17EtK0ntKkat7udXFuf+uOO91ojNx1f7tmelvu5Iarz/eEmDWc93XSudsNx6vI2qfGc7r5j1/XPUv2Xj57qp0vkDkpCHyx8tIOaYyI37hIcDB2Dab1aqHnVkxtwzp5iNXWxsIEvYXQnNVEtuRG3ADaW1V4/OxTPPhuLADXPIfJgnpeN9hOeRN+b1DyjXfgZWdvewYa9eSgqE9ONPOFzUyhiB/ZBlL9ju/dswSEkf7Abe78tRIl8LUm8nte1vggKj0af+9vBwZe0i3b8fKkmbPJFjJ3bvOTARizcfAgFcv29/ND+L4MwIsJPf9Jhjh2/9Utft9QiNWlTMOITh6CzmnKc/lnKUlPWmt/jwHY5uR8rVn2EgyfP6MfozRGIHxyLsGbqebucQ0HGFrydmo380+e0OV43BiPqL30QF3qdNu0SWVCsz1ETNbF1PNbH/nCfki9TsGJTJo7J7dioKfxDu+Kx+AiHPt+1na+r1Pz5LckW67LZyXXRzsnpqGmz23+cinPp1neQlJmHkt/EpDx/9BiERzr7wbkv03c/l8swobbzrX3lbN2og+LFRc0jbWxsFTIuC9Wd5LeI1Gz+Hu04eV0QJ8G5S5BxdSQGPz4U7W9sKs7ZxTj44TqsnZeInEETMSJczLNDiTgZz9z4Hfwj4jCiXzBaNVP/7sIZlOTnIOX9ZMyacQjxT4t18tafcpfOj75k9j5dCAGHN2LmuhMIfzgBk0UBVZK9BQtXLcfSJhMx2s7tcOlogb7PvoS+aqqmIO68DhidaH2RIVzYj4XPbcHZ3/mqGbUQhcasBenAnYMwbUIomkMco++twdK5hQ4cTz8j460FSDomCrcBYzGxrS8ai2MzP3MjlqxagKz7h+PZaDeERpvnHzPqouRi7t0ftYf0Ko4WIGUHxGc96TsE9hyJxHtawKv8BFJXrcSseT/h2YnivdtZbx7Q60ks7KUmqlPt9tLp553vEdZ/LMZ2EsdTUTY2rFxn/7rcFItpibFqwpUC+wz2iuPr7WM3oe/oSYgJaIqyozuxYNVCJJ4ag8lOX5BUH1STEuSFfJV6DQK326pAMB77kNgkTyYvioBg9dCSeDFS59l4zu5mFXmSfwkLa33UfiVV9PFGpP4UisFPxOphRPL0RfteYzCusxcObt2JY/rcWuQieVsOrokcjol921WFEUlcsfjc3A4DnhiOmGtykJpWqJ5wgggMCWJb1U1VejFSPj4EhMciXl0t+4T2QXyEJ7JSa76Cqk8FogCdM+sl/Zh57iVM/kcKskrVk+ZkjcLfZ9e+nAHKMg4hRxTAYW3tCXlnkLY1HQU3x2JsPxFG5CWQPEb7DUGcbw42vFd9YWXhy4+wOdsLMaPGoK8MI3KeODYDOg/Bs+LS+4cPU5BmqtW7DMiQbvu8YP7ogzC1vP3ykLw1B40jBmGsCHBesgTwaoGYkX3QqTQdb39sT42Hm1zIxvotOWh+30g8IsKI3KeNm4ciflQsWp2q53X5Zqc4vjzRecgwLYxIXq274llxzBalb0GK0ycQPaja3n+WD6NqJRoSBhKb7A0N5g8Hq2JL85C6bgmmTTULNVNFul+XjpzTapla5OSLcBAUjPY29mJAx2A0L83FgQI1w3B6YKi9zChD2Rn1qyMuHEPO92Jz3B6sZuhatQ2GV0EuDjaAwqpo9xLM+vgMOj+SoB0zc5/pj07n9mHp3zfi4AW1kFS0G3PmfoSidoOQ+Io4tqaORNerxHLLUpBvvpy5sjL8qn6tU7IQ2Z6Lxu2iEWtPBUnZPuw96olOUZHwUbN0voj9czDOHt6PjOrek5n8r/JQJgqrO21U+/tEtEPwhVxkV9e2ZIT62h+O+mofPi9tgaiYIDVDaRSKriIUFHzxmd19DmRtROW5q7pHTc0ph/bj4G+BuDPS6kDyjkTXtp4oyD7k8IVEUal1are6uKxmfXL2HUTJTRGIvVXNMGl3Fzp5ncCBL6zC0ZeyRlt/TXsvsEqyd4rP+mxMfE6ty5TZmPXmTmTZeb6/Ely2gSRrvdrpZg+tvbMoHXMq51XfPm4i+1VsXiWCw3R1VaseE6eL8LAqBXsL9LZsx+Rhw7zl+Oh0MOIfn1QZauYm9EfnM+lYOHcN9tZrARqEuJ7B+DV9JeZuPoRjp80SgWyy+e4QNixaidQzwYiJcq4/RtmBbdhZ7ovmarpaF35C0S/iw1vq4NVRQaE40fji9zeqaRNvLzTDzzjt1MVWIX6Qh0yRC7VCZs42i8DEZ4cgSl2ByavBvsOj0arsENIyqrb5wQ93I//maIzpHlR1BRsvlhNXjZvNlrNQ9BNKxI/TPzn1Ru0km022YC+CMeCBUDWvFv87hmO4GcG2Fm8diIALhci/xDta21Qv+8NxBTki2PnejDAbYTKgVSAaF51Anh0BsZJs4qq8KKvuYbv/SH6e+Fw1F8eGl5phJviWFmJl8+ys4TUpRsFJcT4uLkTVdZjVxeWESBvnoGIcyzsDr8BAG88FQWwW5H9ntSayyUO9pj1Ny1rT1Kp9QORQzJqp/7u5zw/FPY3EhYY432dY5aiiPUv0suYS6DDvTu4LJGaJsepRWyevuiPb4yoPQvV49h7xKbT4ANVc5SkPosnzknFMJPZHxiVgbuW/exGzxvVHV+/vsH5eIpbu/Vn9Czt9n42sUl907tUVwaamFqHxtYGIGhKN4LIcHPhKzdTkaO2Ncpuap/HgABEOcnMsr66V/H05KPIOQri/mlELn05DMGtCHFoV78aKuaqpQD4mJWLm2nScviUOkyc72X9EXL1u3vodwnpGo9bVOZyjnYTO5uW554Po76f1WdCb2Rw8Hr/KRa7ctt/mij2gs74qtK9Tn84/vANaWffaEvsoUDad/6he58J+ZBw+h+COVjUK3h0RfrM4ErJtN3EUZedqV34XnTjd5mccTPoHknK8ETPSgeNAy+viTds60/h6i7BYjCI7avECbg2EV1E2PrcRXkoyDyGnUQsEt1YzXGFxwWLjUUsHShNX94d2J4etv2/xqP2Cytq5C7LjaDVdB6/3FsecKNTrqVa1oEgc835+Nvt6eHmJlHIhB2878l7FeTNHrrsIuXkOhdwz+LUcuOZqG8lICPQTH9AfzUOOowqxc5c4g9zZH6M7i+NYbX7tfD9sKKKaXtwULjviamWNC51XL0XuCyRmibHqMQYxtV4SW7F5QnD8g+e6bGzekgP/+8fp/Sp8m5r1tPaEl28gOvUdiWdjvJElrmgdOu3434pg72JkbEzR7zpQzv6Sh7Q1u5HjFYxwi6pD2cFV36bmabz5ff0R87tsrJi3rep1ZKfWrUuwIOOsWL+uaKXPtUtj/3bo++hYzJputg9feRGJz4/BiF7O32GTs3kj9rbsgYFt1YxqnUFaRjbOel8Hn6KDyPhGzbZmfozUdgWhak5iJjh+PB4UBV2ZV1N4/SJCn1oXrSOfaduIhxZyXSLW77Q8Aatg+v0JFFzwRYC4KrPUFMEt9RPjxe83D6mZhWgstlvjnEPV96Uwv2hw5LbF0znYvGABVhzyEifQ4ehrxBny9h7oG1qG1GVLsPlwMc7KebJTa8YazNmcK07gfRDj6q4Qodx831b/qO2OLzftD5vn1IsfhvY9qC3AqYdz/caqznv29Jcp2SuCqWcwwloXY29mnprbcFzjaTvwNHTmrQ11fQtwg2qysT7ZWz8um04/jYIQP2EIoq7LwdoFVbURE19ejT0XOmL0xCHoZM+xK64K+05MwOi2xUherF5nykKsP+aHuAkT8YhdnQ7r2OGNWPG5L+IGdECtb+n73Ug9Kk5DMcPR9Q8/IyN1v+0+J+a1XKYrCFUT8sNJbYkqpWU4LQrzaxw9F3yfguTD5xBwz3DEtf4ZaR+ka1Xw7layJxNZF/wQdocqTQuKtQDlb6sqSX5aLaqjdWV7dyOj9Dp0HtQfna7NRerH1Zz8zQs4O3rYny0Sr7XqdXFcrkFGI3FcPj8WA2538PbapjLIi6tyW80AxaVi3/iiuV21eOL9DUvA5B5+yHlvISbKY/252ZA373SWd1X1dMMdNm5SV/vDHbTgK2tJbPmxVBzj1Rx7NtR2vjZ/2GrW8G8ujvlCWwFbdsERn3xfX1yUy6tzIRfJu/Lg0zEaozuHomxfuqo5tqcPiTg/NAF+/c12cswrLAau96u9drdafujaJRi/ZqzG0ow8lKnNr12AvrUaaS40hdcH89aGui6DG1QgcYTWC72G6qxq+5DYLRR9+wSj4MMFer+K4jP6VZnmHMqK87B383LMSS1F2P3RDtVEaLyDEffoWCTOfAnxt4tpeXKaOQmTH+3q2NgMja5DWPchmGyq1XhFb06yZwwSuzqlVfuwY3ChUnEy2HAI/j0fQkytVfzFSFkvThY3RqJvpB9iekfA58uPsP6wero2jVohWFy15hy2bNI4djgHZf7BkHcU2k3eTp2UjoJrO6BvTAtE9e+KgO92I8nRprlanP1mGxZuy4P/Pf0RZ1FzU00ThyROslXHoSA7mW7NgWdoD8TdGoS47kEocemuAJOfkZ3yHj460QJxIxOQ+EQtY4Zot1/aqDlo3UJ8Rr9Dlq39eDQP+Y38EFBjbYM5T/h37o9nJ79YeYJMfHqIi2OQVHNHnb0P65qNOtsf7tH8lhbwKs7FARvrk38sD2ebt0BgPZUKep+V75BjIwfkfHsCjW9pZXdzRf62bcg4F4y+PUSEaReNe7yzsVmrlbGnD4kvWgU2Rdm3x2yElVyIzYKAmx0+w1uQTeJTHu4IpK/G5Cn6sWN+AeruoRQuVU5Wwtctu+/BtzlmQDVjJzhB61cRoA8WtmLexqrBwiSv6+B/S3sMnDAcnRxoy9Duk7cZjKrGIWl87XXwLPsZZcEipLTTZtUJu8YRcJoIGG9sQe4tfTDlntoLjPyta5BcIIKIKPi0/RnQEyPuycWcDWsQfIs9H1hfxN7XDjvX7ERS9s3arb9yHJKkzHMIG2TrJFQd2XFzJVJPyXXpg2B5cm4ejTH98zBz40ps9h/rhiaLczi2fSWWpOahWcQQjHVkjIOrxdWc+tW8k2l8v3ZaDZRXRH8MyFqApJUpCHNgTImLXYf28U+ivfa7LLTtaza9aCwFr47o1DoFG/6TjpJ25v1ixPHxnxw0bjsInQ29LKr5fKGdi2wO+miLm/eH1qRjx/hLtY2dYu7WjrjTez8yduUirp/ZnTYiSO3cWwz/yLtqeR37jwWb5IWXaVuGhqK91zpkiPNhTHezK4bSdOw87In2Q+zrOC37+i3YIy4M40eqmuUW6Ds4AgcXrMOGjk9igB0bJrhje/hk7kPKV10Rb9ZcXrb3E+wta4FYUw2midm+sXfgNZ/QrhgtHjWzHs/myuK+QFLDh8fRbiSWA2XZpg+AoybqkN6vQjzkhBrkx5WRWh0PAR2wsJZqMsdOmvVDCxjFwXhkVAer2z2tycJ5OZbIE8rAcRaFfUCv4YgvFCfzZVvgM6oPwmoLJW37Y8qgjVj4r0SMleHxal+07zvS7sHhZGe41DeWY/NXsmC17Cshw+m4EwsxZ/kSNB4+EnF/cPKjU5qDDcvXIO2kH6IeTsAA66t7rYnjhN6x0FYdsbe3/nm68DP2rlOdTJ8wD2yyaWM4CuYuwYLl12HiyEj4u1zg2xPy9YLqYk0R1T8WGa+mYOEmX4x+QB8YLWP9cu34iH/Mzrt1Gjo374+Lz4EuDBhoIRAD+rbD52vWYeENw0XolwOj5SJ5uQhS3iLY3FdbVWJNx4KD69goFH17BYugvxxvXz8S8ZUDo6WgQFyMjai1z5ns0LwGMzfnoJkIBRaDH5ouaBYthOfoMehb2+f1Dz0xsMNBrFjzFvxHDtLGIpEjyC7ZmiPy3hjEWhdi5sHKbuozUuMAaHZsQ63fTrqasCUI8a8Mq7m5q5awW6+DtJlxy7VJbYP4uPYBcpZeFWv099RUT1+/i6qAbT7c8F02NXL3ttqP5D2FWq/3t83HWREfAHllpd/Sppp8RAg4kF2KoH7jxAfAuiZFnsxHoq/3MaQcsO/WW5/w/lXNVzOfdGzY+AtnUFTqhU5DbK2LDEhjMDES2Juc6VyPe9mENVeEkQvipC77Y9hqatCaOArxg40/kFdQjMaBgfoV7C852HtMFH7yZGt9BSj7Fo0agvBfPkNqTjX9BeqTvIKf2AcBx5MxbZI4DqYsRPJP7RtcVbXWhOnsbZaX0v6QwX1YBBp/uhwJckyM6etw8HddMXmCKzVqztGbMtqjKEXvFzTx1WQU3CbmDavtQkbxaoqgyJFIsFHGyAua0XcCqe/utuvz2n6Q+NxHeiJtqd4fb/K/RBjpMdbmaxvFvn47w2qsdaytvJYPo/prelQI6vf6sVd+XwRqHBbdtSYbE3vSqIPcUEPiMHu3l0s1JHWwrWzS/06BI9+BYkWvGXP2uxwsrz7cUbPkyPocXPMSVnwlrl5qHC69GKkLXkfy9YMw17zKuiwTC6enwCv+RYxwohnPtfeq7zenmmwcdPH2LEbKPLE9zPorecm7V9Tv1s6W34S+M7uiwInaBFv7sq5qHx1/XXfVkDjGsfWsy3V09hx1DmfPeaKxqYLEDedw548J+z9HDn1PVDVcO1dK9VUuVGm4gcTlk4CTG1NbP3u+YMs2t1d1MZBYuHQDSTbenrIOx+4Uf/uBWt57/jZMW3AQzXuaV6mvQ9p1PTBFrKtdV45WXHuv9Xdicv0kKjlXMLrnb9vH9v7Qt7Nb+me4iWPHTUMMJFYaQCCp+T24bxvWVSCR34U0dd13CBsyCY/Y0azmiHquoLsE2D0Wge1HXZ+w6VJ1BmW/yeZfNQKj9cO8qSCgJyY+2hFn/2OqUt+IrBt7YKK91dh0iZL9M2yfV+x6uDmMENW3S7vJRqi+RsKBqw1HeqnXNzdvL9tVgY5cmcnBiqpfl7rmzqtY5690qtTnVbUrXHuvDhwfLl6lG15DYufQAK5Wqbvj2KsPjq0na0hqZv/niE02RERERAZhkw0REREZjoGEiIiIDMdAQkRERIZjICEiIiLDMZAQERGR4RhIiIiIyHAMJERERGQ4BhIiIiIyHAMJERERGY6BhIiIiAzHQEJERESGYyAhIiIiwzGQEBERkeEYSIiIiMhwDCRERERkOAYSIiIiMhwDCRERERmOgYSIiIgMx0BCREREhmMgISIiIsMxkBAREZHhGEiIiIjIcAwkREREZDgGEiIiIjKcR4Wgfnfahn0VeP3jCnxZAJy7oGZSvfIU0fJ2f+DJ+zwwoKOHmktERHRpcDmQJLxbgaTPgJIyl3MNuYGPlwfi7wISH2QoISKiS4dLTTayZoRhpGGR+0LuE7lviIiILhUuBRLZTMMw0vDIfSL3DRER0aXCpUAi+4xQw8R9Q0RElxKXAgk7sDZc3DdERHQpcSmQEBEREbkDAwkREREZjoGEiIiIDMdAQkRERIZjICEiIiLDMZAQERGR4RhIiIiIyHAMJERERGQ4BhIiIiIyHAMJERERGY6BxORmD+z5eyOUTPJAdzWLiIiI6kcDCCQiCMwXQcDqcTKxET7u54Hb1FJERER0+WqwNSRNmwB3RXng41Ee+L2aV6e+q8A9T1+Az+wKbFez7OOBF/7WCHlTPTBAzSEiIiLHNJhA8sOhCviMF4FAPqZewJAPKvDtWaBZqAdmh6qFGqjbWoj19FQTRERE5LCGWUPyE/B+SgXuS9Mng9voP4mIiOjy1KA7tf5wogI/qN/N3dbRA1unNsJJU3+T2Y2wppvtpp1oMX/PdLO+KeL3WeEeWDNDTM8wb2ZRfVme8lDTuov+lvh3s8L15wY8Jud5oLePmPDxwBtqmT299ec1v/fA359ohDzZYVY+L35+/pgHon+nntdU/e3b/uyBz1+x8TpERESXsQYdSHqH6CHjhx/1aen3ER5IflgU6NcDTdW8pteKZeM8sNGqAH94eCNsFfPbmxX+TcXvY4d4IKKJmlEDm39LhI+xXS1DS7V+J4LPEx74661As8Zqnvh5WzsPbBCh5C41q1ITEV7+DCxfqDdd3fO+mk9ERHSZa5iBRISGh/s1wuKO4vcfK7DqP/psWcCvHSBCyllg+84K3DNVFdxJFTj4C9D+T6LwV4tCFPrPyJqMC8Bu82XfqMB2sezv7QgkD9+tB6LdH1TgTtW/pf9m8bdK9Oc3vCHnVeB9OV1SgcfUMqYg8cwjeu3Jt9kVeCJRf+7WxAr88zsRbG72QIIIHxbEH/ufeC//PK6miYiIrhANJpD8XgQIrUlDPqY3wqIooMkPFZi8WhT4ahn82QN3NQY+SxXB4H0RDH7SZx/MrED/z8UvXh6IkiFG6C5e7xbx87MdF9DLfNlDYtnXK/CZCDW1+eZn/efJbyrwP/1XbN8lws3yCjVVExFGgoAz4t/et0yEKhUyfjhegadFKDoofm9/q1VNi3juVRFWiIiIrjQNtsnmtCicH/9HBRbmqhnCANVJ5K5YFVzMHl910Z+7paX+M0Itu/sD/acFEU4KytTvNdiwowLbxbID/qb3PdkY74Hu6nVrdSfgL340/YMHvrJa15LpHmgvnvv99dqSVc6LwKJ+JSIiupI0mEBSedvv1At4IhNo0tIDb4z3gLP9OrU+H+UVMns477sK9Bfr89jOChy6AERFeGDjc42w9S/qeSIiInKLhldDIhLEqqQLiJP9Rq73wGuPVd09k6Y6t76/Ru+PYeth6r+h1YA08UB3VXNiIQi4Td4ZY6cN71fgvukXcOPsCvzzBBAd0wjPqOeq9ZVYB/HDYnwV68dr9jT9EBERXf4abJPNZxsuYOF3et+SxRH6vB/26X05evdthEVdqu6e+X1LDzzc2wOf/62qT8bC/1XgjPgZHdcIa2KrhqDvLv7dntH2DUkvR2DdKF73LpWIfu8J+MoB0Bpr/W4teXkgwvxFf6pApggvcv33xHugt2pKkv8wurMHNk7ywAtqFhER0ZWuwQYSabK8o+WsCBEDGuEZmQC+q0DiPvHzWuDhvlXji3yV4IFFXUXI8NL+mW5nBZbLDqIiPPT+iwgrqv/GRvHv2pdDuyunNk3F63UXr/vxpKq/o/VjOVGB9/RFBBGSZM2N+Dt/FQFGLmcaP+RpsQ4/XADaR3hgTYL+nOywu3WQ7IviUXkrMRER0ZWuQQcS5Fagf3IFTovC/hk1bseGVRfQS8wz3TWjEaHl228qMEPMNzf5DTFPBJgfTHfUiHDwg1huyGsV+Pa8mleDBeL13v8BWk2LRrzOwX0V6LW0Ap+pWdKM9yqwW90KbOHzCvxZLLvhuHgN8bc14udpEWA2iNdeoGYRERFd6TwqBPW7w2Q/iEuTBz7+uwg4Jyou634cskaGiIjoUnBFllh39fVAu8bADy7dgkNERETuchkHEg98PEPv/FrZKbWlB8bGN8KmLvptwZmHeJcLERFRQ3AZN9nIL6zTByCzRd6O++c3bH953+WCTTZERHSpuIxLrApM2VSB3T+adUo161B6uYcRIiKiS8kV2qn1ysAaEiIiulSwxCIiIiLDMZAQERGR4RhIiIiIyHAMJERERGQ4BhIiIiIynEuBxJNxpsHiviEiokuJS8XW7f7qF2pwuG+IiOhS4lIgefI+D/h4eagpaijkPpH7hoiI6FLhUiAZ0NED8XfpBSA1DHJfyH0i9w0REdGlwqWRWk027KvA6x9X4MsC4BwHbzWE7DMim2lkzQjDCBERXWrcEkiIiIiIXMF7MYiIiMhwDCRERERkOAYSIiIiMhwDCRERERmOgYSIiIgMx0BCREREhmMgISIiIsMxkBAREZHhGEiIiIjIYMD/A4xJpTk4h8WOAAAAAElFTkSuQmCC;" vertex="1" parent="1">
          <mxGeometry x="1403" y="-540" width="450.69" height="440" as="geometry" />
        </mxCell>
      </root>
    </mxGraphModel>
  </diagram>
</mxfile>
